M48
; DRILL file {KiCad (5.1.0)-1} date 9/4/2019 4:47:04 PM
; FORMAT={-:-/ absolute / inch / decimal}
; #@! TF.CreationDate,2019-09-04T16:47:04-07:00
; #@! TF.GenerationSoftware,Kicad,Pcbnew,(5.1.0)-1
FMAT,2
INCH
T1C0.0157
T2C0.0394
T3C0.0402
T4C0.0500
T5C0.0512
T6C0.0591
T7C0.0709
T8C0.1201
T9C0.1378
%
G90
G05
T1
X0.2626Y-0.05
X0.2626Y-4.675
X0.55Y-0.05
X0.55Y-4.675
X1.05Y-0.05
X1.05Y-4.675
X1.55Y-0.05
X1.55Y-4.675
X2.05Y-0.05
X2.05Y-4.675
X2.55Y-0.05
X2.55Y-4.675
X3.05Y-0.05
X3.05Y-4.675
X3.55Y-0.05
X3.55Y-4.675
X4.05Y-0.05
X4.05Y-4.675
X4.55Y-0.05
X4.55Y-4.675
X5.05Y-0.05
X5.05Y-4.675
X5.55Y-0.05
X5.55Y-4.675
X6.05Y-0.05
X6.05Y-4.675
T2
X4.626Y-4.0354
X4.8228Y-4.0354
X4.626Y-3.5827
X4.8228Y-3.5827
X4.626Y-1.0236
X4.8228Y-1.0236
X4.626Y-0.5906
X4.8228Y-0.5906
X4.626Y-1.8898
X4.8228Y-1.8898
X4.626Y-1.4567
X4.8228Y-1.4567
X4.626Y-3.1299
X4.8228Y-3.1299
X4.7244Y-2.5984
X4.7244Y-2.7953
T3
X5.9961Y-2.1457
X5.9961Y-2.2555
X5.9961Y-2.3606
X5.9961Y-2.4709
X5.9961Y-2.5807
X6.0961Y-2.2008
X6.0961Y-2.3106
X6.0961Y-2.4157
X6.0961Y-2.5256
T4
X0.3573Y-4.3996
X3.2874Y-3.8189
X5.4087Y-2.4756
X5.4724Y-2.0276
X5.5815Y-2.265
X6.0898Y-2.0276
X6.2024Y-2.1091
X6.2386Y-2.6902
T5
X5.1685Y-1.2248
X5.1685Y-1.4248
X5.0941Y-2.7969
X5.2941Y-2.7969
T6
X1.3988Y-3.4431
X1.3988Y-3.7549
X4.0028Y-3.0132
X4.0028Y-3.599
X4.0028Y-4.1848
X1.2827Y-1.0661
X1.2827Y-1.378
X3.8866Y-0.6362
X3.8866Y-1.222
X3.8866Y-1.8079
T7
X0.7638Y-2.0079
X0.7638Y-2.3622
X0.7638Y-2.7165
T8
X6.0961Y-1.8657
X6.0961Y-2.8657
T9
X0.4764Y-1.5748
X0.4764Y-3.1496
T0
M30
