G04 #@! TF.GenerationSoftware,KiCad,Pcbnew,(5.1.0)-1*
G04 #@! TF.CreationDate,2019-05-17T11:45:57-07:00*
G04 #@! TF.ProjectId,pwr supply rev 4,70777220-7375-4707-906c-792072657620,rev?*
G04 #@! TF.SameCoordinates,Original*
G04 #@! TF.FileFunction,Copper,L2,Bot*
G04 #@! TF.FilePolarity,Positive*
%FSLAX46Y46*%
G04 Gerber Fmt 4.6, Leading zero omitted, Abs format (unit mm)*
G04 Created by KiCad (PCBNEW (5.1.0)-1) date 2019-05-17 11:45:57*
%MOMM*%
%LPD*%
G04 APERTURE LIST*
%ADD10R,0.800000X0.750000*%
%ADD11R,2.000000X2.000000*%
%ADD12C,2.000000*%
%ADD13R,0.750000X0.800000*%
%ADD14R,0.900000X0.500000*%
%ADD15C,3.000000*%
%ADD16R,0.640000X0.640000*%
%ADD17R,5.900000X1.700000*%
%ADD18R,1.000000X1.250000*%
%ADD19R,1.400000X1.390000*%
%ADD20R,4.860000X3.360000*%
%ADD21C,3.810000*%
%ADD22R,1.520000X1.520000*%
%ADD23C,1.520000*%
%ADD24C,2.500000*%
%ADD25C,1.905000*%
%ADD26C,2.540000*%
%ADD27C,0.600000*%
%ADD28C,2.540000*%
%ADD29C,0.254000*%
%ADD30C,0.635000*%
%ADD31C,1.905000*%
%ADD32C,1.270000*%
G04 APERTURE END LIST*
D10*
X98250000Y-93000000D03*
X96750000Y-93000000D03*
X122750000Y-99000000D03*
X121250000Y-99000000D03*
X101250000Y-37000000D03*
X102750000Y-37000000D03*
D11*
X117500000Y-102500000D03*
D12*
X122500000Y-102500000D03*
D11*
X117500000Y-48000000D03*
D12*
X122500000Y-48000000D03*
D10*
X117250000Y-82500000D03*
X115750000Y-82500000D03*
X117750000Y-28500000D03*
X116250000Y-28500000D03*
D11*
X117500000Y-91000000D03*
D12*
X122500000Y-91000000D03*
D11*
X117500000Y-37000000D03*
D12*
X122500000Y-37000000D03*
D10*
X117750000Y-74500000D03*
X116250000Y-74500000D03*
X120250000Y-23000000D03*
X118750000Y-23000000D03*
D11*
X117500000Y-79500000D03*
D12*
X122500000Y-79500000D03*
D11*
X117500000Y-26000000D03*
D12*
X122500000Y-26000000D03*
D13*
X124500000Y-71250000D03*
X124500000Y-69750000D03*
D10*
X120750000Y-17500000D03*
X119250000Y-17500000D03*
D11*
X120000000Y-66000000D03*
D12*
X120000000Y-71000000D03*
D11*
X117500000Y-15000000D03*
D12*
X122500000Y-15000000D03*
D14*
X93900000Y-105250000D03*
X93900000Y-106750000D03*
X95900000Y-105250000D03*
X95900000Y-106750000D03*
D15*
X19400000Y-60000000D03*
X19400000Y-51000000D03*
X19400000Y-69000000D03*
D10*
X122750000Y-97000000D03*
X121250000Y-97000000D03*
X101250000Y-39500000D03*
X102750000Y-39500000D03*
X119250000Y-85000000D03*
X117750000Y-85000000D03*
X120250000Y-30500000D03*
X118750000Y-30500000D03*
X120750000Y-77000000D03*
X119250000Y-77000000D03*
X116750000Y-18500000D03*
X115250000Y-18500000D03*
D13*
X115000000Y-71250000D03*
X115000000Y-69750000D03*
D10*
X120750000Y-19500000D03*
X119250000Y-19500000D03*
D16*
X95845000Y-103310000D03*
X94575000Y-103310000D03*
X93305000Y-103310000D03*
X92035000Y-103310000D03*
X90765000Y-103310000D03*
X89495000Y-103310000D03*
X88225000Y-103310000D03*
X86955000Y-103310000D03*
X95845000Y-102040000D03*
X94575000Y-102040000D03*
X93305000Y-102040000D03*
X92035000Y-102040000D03*
X90765000Y-102040000D03*
X89495000Y-102040000D03*
X88225000Y-102040000D03*
X86955000Y-102040000D03*
X95845000Y-100770000D03*
X94575000Y-100770000D03*
X93305000Y-100770000D03*
X92035000Y-100770000D03*
X90765000Y-100770000D03*
X89495000Y-100770000D03*
X88225000Y-100770000D03*
X86955000Y-100770000D03*
X92035000Y-99500000D03*
X90765000Y-99500000D03*
X89495000Y-99500000D03*
X88225000Y-99500000D03*
X86955000Y-99500000D03*
X95845000Y-98230000D03*
X94575000Y-98230000D03*
X92035000Y-98230000D03*
X90765000Y-98230000D03*
X89495000Y-98230000D03*
X88225000Y-98230000D03*
X86955000Y-98230000D03*
X94575000Y-96960000D03*
X90765000Y-96960000D03*
X92035000Y-96960000D03*
X95845000Y-95690000D03*
X95845000Y-96960000D03*
X94575000Y-95690000D03*
X92035000Y-95690000D03*
X86955000Y-95690000D03*
X88225000Y-95690000D03*
X89495000Y-95690000D03*
X90765000Y-95690000D03*
X89495000Y-96960000D03*
X88225000Y-96960000D03*
X86955000Y-96960000D03*
X86955000Y-95690000D03*
D17*
X108500000Y-91250000D03*
X108500000Y-95750000D03*
X108500000Y-36750000D03*
X108500000Y-41250000D03*
X108500000Y-82750000D03*
X108500000Y-87250000D03*
X108500000Y-28750000D03*
X108500000Y-33250000D03*
X108500000Y-74750000D03*
X108500000Y-79250000D03*
X108500000Y-20750000D03*
X108500000Y-25250000D03*
X108500000Y-66750000D03*
X108500000Y-71250000D03*
X108500000Y-12750000D03*
X108500000Y-17250000D03*
D18*
X89500000Y-93000000D03*
X91500000Y-93000000D03*
D19*
X130518000Y-71920000D03*
D20*
X134500000Y-71000000D03*
D19*
X130518000Y-70080000D03*
X127518000Y-31920000D03*
D20*
X131500000Y-31000000D03*
D19*
X127518000Y-30080000D03*
D21*
X154840000Y-72790000D03*
X154840000Y-47390000D03*
D22*
X152300000Y-54500000D03*
D23*
X152300000Y-57290000D03*
X152300000Y-59960000D03*
X152300000Y-62760000D03*
X152300000Y-65550000D03*
X154840000Y-55900000D03*
X154840000Y-58690000D03*
X154840000Y-61360000D03*
X154840000Y-64150000D03*
D24*
X101670000Y-76535000D03*
X101670000Y-91415000D03*
X35530000Y-87455000D03*
X35530000Y-95375000D03*
X101670000Y-106295000D03*
X98720000Y-45920000D03*
X32580000Y-35000000D03*
X32580000Y-27080000D03*
X98720000Y-31040000D03*
X98720000Y-16160000D03*
D25*
X154680000Y-51500000D03*
D26*
X83500000Y-97000000D03*
X139000000Y-51500000D03*
X137380000Y-62880000D03*
X141770000Y-57530000D03*
X157540000Y-53570000D03*
X158460000Y-68330000D03*
D27*
X153670000Y-118745000D03*
X140970000Y-118745000D03*
X128270000Y-118745000D03*
X115570000Y-118745000D03*
X102870000Y-118745000D03*
X90170000Y-118745000D03*
X77470000Y-118745000D03*
X64770000Y-118745000D03*
X52070000Y-118745000D03*
X39370000Y-118745000D03*
X26670000Y-118745000D03*
X13970000Y-118745000D03*
X6670000Y-118745000D03*
X153670000Y-1270000D03*
X140970000Y-1270000D03*
X128270000Y-1270000D03*
X115570000Y-1270000D03*
X102870000Y-1270000D03*
X90170000Y-1270000D03*
X77470000Y-1270000D03*
X64770000Y-1270000D03*
X52070000Y-1270000D03*
X39370000Y-1270000D03*
X26670000Y-1270000D03*
X13970000Y-1270000D03*
X6670000Y-1270000D03*
D26*
X9075000Y-111750000D03*
D28*
X102000000Y-104000000D02*
X102000000Y-97500000D01*
X102000000Y-97500000D02*
X103650000Y-95850000D01*
D29*
X96750000Y-93000000D02*
X96750000Y-94785000D01*
X96750000Y-94785000D02*
X95845000Y-95690000D01*
X95845000Y-100770000D02*
X94575000Y-102040000D01*
D30*
X95845000Y-98230000D02*
X95845000Y-100770000D01*
D28*
X103650000Y-95850000D02*
X108500000Y-95850000D01*
X102000000Y-104000000D02*
X101670000Y-106295000D01*
X98700000Y-96960000D02*
X102000000Y-97500000D01*
D30*
X95845000Y-96960000D02*
X98700000Y-96960000D01*
D29*
X119250000Y-77000000D02*
X119250000Y-77750000D01*
X119250000Y-77750000D02*
X117500000Y-79500000D01*
X116250000Y-74500000D02*
X113300000Y-74500000D01*
X113300000Y-74500000D02*
X113150000Y-74650000D01*
D28*
X117500000Y-79500000D02*
X117580000Y-79080000D01*
X113150000Y-74650000D02*
X108500000Y-74650000D01*
X117580000Y-79080000D02*
X113150000Y-74650000D01*
X108500000Y-74650000D02*
X108500000Y-71350000D01*
D29*
X118750000Y-23000000D02*
X118750000Y-24750000D01*
X118750000Y-24750000D02*
X117500000Y-26000000D01*
X115250000Y-18500000D02*
X115250000Y-20500000D01*
X115250000Y-20500000D02*
X115250000Y-20750000D01*
X115250000Y-20750000D02*
X113750000Y-22250000D01*
D31*
X117500000Y-26000000D02*
X113750000Y-22250000D01*
X113750000Y-22250000D02*
X112000000Y-20500000D01*
X112000000Y-20500000D02*
X108650000Y-20500000D01*
X108650000Y-20500000D02*
X108500000Y-20650000D01*
D28*
X108500000Y-20650000D02*
X108500000Y-17350000D01*
D31*
X148000000Y-51500000D02*
X154680000Y-51500000D01*
D28*
X83540000Y-96960000D02*
X83500000Y-97000000D01*
X139000000Y-51500000D02*
X148000000Y-51500000D01*
X83540000Y-96960000D02*
X84540000Y-96960000D01*
D30*
X154840000Y-51660000D02*
X154680000Y-51500000D01*
D29*
X88225000Y-99500000D02*
X88225000Y-98230000D01*
X86955000Y-98230000D02*
X86955000Y-99500000D01*
X86955000Y-99500000D02*
X88225000Y-99500000D01*
X88225000Y-99500000D02*
X89495000Y-99500000D01*
X89495000Y-99500000D02*
X89495000Y-98230000D01*
X89750000Y-93000000D02*
X89750000Y-94250000D01*
X89495000Y-94505000D02*
X89495000Y-95690000D01*
X89750000Y-94250000D02*
X89495000Y-94505000D01*
X86955000Y-96960000D02*
X84540000Y-96960000D01*
X84540000Y-96960000D02*
X84500000Y-97000000D01*
D28*
X144350000Y-66500000D02*
X137180000Y-66500000D01*
X137180000Y-66500000D02*
X134500000Y-66500000D01*
D31*
X137380000Y-62880000D02*
X137380000Y-66300000D01*
X137380000Y-66300000D02*
X137180000Y-66500000D01*
X152300000Y-54500000D02*
X144800000Y-54500000D01*
X144800000Y-54500000D02*
X141770000Y-57530000D01*
X152300000Y-65550000D02*
X145300000Y-65550000D01*
D28*
X144350000Y-66500000D02*
X145300000Y-65550000D01*
D32*
X134500000Y-71000000D02*
X134500000Y-66500000D01*
X134500000Y-66500000D02*
X134500000Y-67000000D01*
X134500000Y-67000000D02*
X134500000Y-66500000D01*
D29*
X124500000Y-69750000D02*
X124500000Y-66500000D01*
X115000000Y-69750000D02*
X115000000Y-66650000D01*
X115000000Y-66650000D02*
X115000000Y-67000000D01*
X115000000Y-67000000D02*
X115000000Y-66650000D01*
X117000000Y-66650000D02*
X117000000Y-67000000D01*
X117000000Y-67000000D02*
X117000000Y-66650000D01*
D28*
X120000000Y-66000000D02*
X120000000Y-66500000D01*
X120000000Y-66500000D02*
X119850000Y-66650000D01*
X119850000Y-66650000D02*
X120000000Y-66000000D01*
X108500000Y-66650000D02*
X115000000Y-66650000D01*
X115000000Y-66650000D02*
X117000000Y-66650000D01*
X117000000Y-66650000D02*
X119850000Y-66650000D01*
X119850000Y-66650000D02*
X120000000Y-66500000D01*
X120000000Y-66500000D02*
X124500000Y-66500000D01*
X124500000Y-66500000D02*
X134500000Y-66500000D01*
D31*
X152300000Y-62760000D02*
X149930000Y-62760000D01*
X149930000Y-62760000D02*
X145300000Y-62760000D01*
X149870000Y-57260000D02*
X149930000Y-62760000D01*
X152300000Y-57290000D02*
X149870000Y-57260000D01*
D28*
X136000000Y-56000000D02*
X136000000Y-31000000D01*
X136000000Y-56000000D02*
X142760000Y-62760000D01*
D31*
X142760000Y-62760000D02*
X145300000Y-62760000D01*
D32*
X131500000Y-31000000D02*
X136000000Y-31000000D01*
D29*
X119250000Y-19500000D02*
X119250000Y-17500000D01*
X119250000Y-17500000D02*
X119250000Y-16750000D01*
X119250000Y-16750000D02*
X117500000Y-15000000D01*
D28*
X136000000Y-18500000D02*
X136000000Y-31000000D01*
X129000000Y-11500000D02*
X136000000Y-18500000D01*
X120000000Y-11500000D02*
X129000000Y-11500000D01*
X117500000Y-14000000D02*
X120000000Y-11500000D01*
X117500000Y-15000000D02*
X117500000Y-14000000D01*
X108500000Y-12650000D02*
X115150000Y-12650000D01*
X115150000Y-12650000D02*
X117500000Y-15000000D01*
D31*
X159580000Y-58430000D02*
X159580000Y-1270000D01*
X159580000Y-59580000D02*
X159580000Y-58430000D01*
X159580000Y-58430000D02*
X159580000Y-55610000D01*
X159580000Y-55610000D02*
X157540000Y-53570000D01*
X160655000Y-65745000D02*
X160655000Y-66135000D01*
X160655000Y-66135000D02*
X158460000Y-68330000D01*
D28*
X153670000Y-1270000D02*
X159580000Y-1270000D01*
X159580000Y-1270000D02*
X161290000Y-1270000D01*
D31*
X157800000Y-61360000D02*
X159580000Y-59580000D01*
X156270000Y-61360000D02*
X157800000Y-61360000D01*
X156270000Y-61360000D02*
X160655000Y-65745000D01*
X160655000Y-65745000D02*
X160655000Y-118745000D01*
X154840000Y-61360000D02*
X156270000Y-61360000D01*
D28*
X153670000Y-118745000D02*
X160655000Y-118745000D01*
X153670000Y-118745000D02*
X6670000Y-118745000D01*
X153670000Y-1270000D02*
X6670000Y-1270000D01*
X98720000Y-45920000D02*
X104875000Y-44975000D01*
X104875000Y-44975000D02*
X108500000Y-41350000D01*
X21350000Y-54450000D02*
X35530000Y-87455000D01*
X32580000Y-27080000D02*
X19400000Y-51000000D01*
X19400000Y-51000000D02*
X21350000Y-54450000D01*
D29*
X93900000Y-105250000D02*
X93900000Y-104000000D01*
X93900000Y-104000000D02*
X94575000Y-103325000D01*
X94575000Y-103325000D02*
X94575000Y-103310000D01*
X95900000Y-105250000D02*
X95900000Y-104000000D01*
X95845000Y-103945000D02*
X95845000Y-103310000D01*
X95900000Y-104000000D02*
X95845000Y-103945000D01*
X93305000Y-100770000D02*
X94575000Y-100770000D01*
X121250000Y-97000000D02*
X118660000Y-97000000D01*
X118660000Y-97000000D02*
X117580000Y-98080000D01*
X121250000Y-99000000D02*
X117563348Y-99000000D01*
X117500000Y-99000000D02*
X117500000Y-102500000D01*
X117563348Y-99000000D02*
X117500000Y-99000000D01*
D28*
X117500000Y-102500000D02*
X117500000Y-102500000D01*
X117500000Y-102500000D02*
X117580000Y-98080000D01*
X113150000Y-91150000D02*
X108500000Y-91150000D01*
X113500000Y-91500000D02*
X113150000Y-91150000D01*
X113500000Y-94000000D02*
X113500000Y-91500000D01*
X117580000Y-98080000D02*
X113500000Y-94000000D01*
X108500000Y-91150000D02*
X108500000Y-87350000D01*
D29*
X102750000Y-39500000D02*
X102750000Y-37000000D01*
X102750000Y-37000000D02*
X103100000Y-36650000D01*
X103100000Y-36650000D02*
X108500000Y-36650000D01*
X108150000Y-37000000D02*
X108500000Y-36650000D01*
D31*
X117500000Y-48000000D02*
X117500000Y-43000000D01*
X117500000Y-43000000D02*
X111150000Y-36650000D01*
X111150000Y-36650000D02*
X108500000Y-36650000D01*
D28*
X108500000Y-36650000D02*
X108500000Y-33350000D01*
D29*
X117750000Y-85000000D02*
X117750000Y-85250000D01*
X117750000Y-85250000D02*
X116000000Y-87000000D01*
X115750000Y-82500000D02*
X115500000Y-82500000D01*
X115500000Y-82500000D02*
X113500000Y-84500000D01*
D28*
X117500000Y-91000000D02*
X117580000Y-88580000D01*
X111650000Y-82650000D02*
X108500000Y-82650000D01*
X117580000Y-88580000D02*
X116000000Y-87000000D01*
X116000000Y-87000000D02*
X113500000Y-84500000D01*
X113500000Y-84500000D02*
X111650000Y-82650000D01*
X108500000Y-82650000D02*
X108500000Y-79350000D01*
D29*
X118750000Y-30500000D02*
X114500000Y-30500000D01*
X116250000Y-28500000D02*
X112800000Y-28500000D01*
X112800000Y-28500000D02*
X112650000Y-28650000D01*
D31*
X117500000Y-37000000D02*
X117500000Y-33500000D01*
X112650000Y-28650000D02*
X108500000Y-28650000D01*
X117500000Y-33500000D02*
X114500000Y-30500000D01*
X114500000Y-30500000D02*
X112650000Y-28650000D01*
D28*
X108500000Y-28650000D02*
X108500000Y-25350000D01*
D29*
G36*
X131373000Y-64595000D02*
G01*
X121489088Y-64595000D01*
X121451185Y-64548815D01*
X121354494Y-64469463D01*
X121244180Y-64410498D01*
X121124482Y-64374188D01*
X121000000Y-64361928D01*
X120976563Y-64361928D01*
X120923579Y-64333608D01*
X120786040Y-64254616D01*
X120758330Y-64245280D01*
X120732538Y-64231494D01*
X120580722Y-64185441D01*
X120430429Y-64134805D01*
X120401435Y-64131055D01*
X120373444Y-64122564D01*
X120215556Y-64107013D01*
X120058277Y-64086671D01*
X120029106Y-64088650D01*
X120000000Y-64085783D01*
X119842114Y-64101333D01*
X119683886Y-64112066D01*
X119655663Y-64119697D01*
X119626555Y-64122564D01*
X119474731Y-64168619D01*
X119321642Y-64210013D01*
X119295450Y-64223004D01*
X119267461Y-64231494D01*
X119127549Y-64306278D01*
X119015347Y-64361928D01*
X119000000Y-64361928D01*
X118875518Y-64374188D01*
X118755820Y-64410498D01*
X118645506Y-64469463D01*
X118548815Y-64548815D01*
X118469463Y-64645506D01*
X118416282Y-64745000D01*
X108406418Y-64745000D01*
X108126555Y-64772564D01*
X107767461Y-64881494D01*
X107436518Y-65058387D01*
X107188502Y-65261928D01*
X105550000Y-65261928D01*
X105425518Y-65274188D01*
X105305820Y-65310498D01*
X105195506Y-65369463D01*
X105098815Y-65448815D01*
X105019463Y-65545506D01*
X104960498Y-65655820D01*
X104924188Y-65775518D01*
X104911928Y-65900000D01*
X104911928Y-67600000D01*
X104924188Y-67724482D01*
X104960498Y-67844180D01*
X105019463Y-67954494D01*
X105098815Y-68051185D01*
X105195506Y-68130537D01*
X105305820Y-68189502D01*
X105425518Y-68225812D01*
X105550000Y-68238072D01*
X107432203Y-68238072D01*
X107436518Y-68241613D01*
X107767461Y-68418506D01*
X108126555Y-68527436D01*
X108406418Y-68555000D01*
X114238000Y-68555000D01*
X114238000Y-68846140D01*
X114173815Y-68898815D01*
X114094463Y-68995506D01*
X114035498Y-69105820D01*
X113999188Y-69225518D01*
X113986928Y-69350000D01*
X113986928Y-70150000D01*
X113999188Y-70274482D01*
X114035498Y-70394180D01*
X114092061Y-70500000D01*
X114035498Y-70605820D01*
X113999188Y-70725518D01*
X113986928Y-70850000D01*
X113990000Y-70964250D01*
X114148750Y-71123000D01*
X114873000Y-71123000D01*
X114873000Y-71103000D01*
X115127000Y-71103000D01*
X115127000Y-71123000D01*
X115851250Y-71123000D01*
X116010000Y-70964250D01*
X116013072Y-70850000D01*
X116000812Y-70725518D01*
X115964502Y-70605820D01*
X115907939Y-70500000D01*
X115964502Y-70394180D01*
X116000812Y-70274482D01*
X116013072Y-70150000D01*
X116013072Y-69350000D01*
X116000812Y-69225518D01*
X115964502Y-69105820D01*
X115905537Y-68995506D01*
X115826185Y-68898815D01*
X115762000Y-68846140D01*
X115762000Y-68555000D01*
X119727325Y-68555000D01*
X119791723Y-68563329D01*
X119820895Y-68561350D01*
X119850000Y-68564217D01*
X119943580Y-68555000D01*
X119943582Y-68555000D01*
X120007867Y-68548668D01*
X120166114Y-68537935D01*
X120194342Y-68530302D01*
X120223445Y-68527436D01*
X120375257Y-68481384D01*
X120528358Y-68439987D01*
X120554550Y-68426996D01*
X120582539Y-68418506D01*
X120607807Y-68405000D01*
X123738000Y-68405000D01*
X123738000Y-68846140D01*
X123673815Y-68898815D01*
X123594463Y-68995506D01*
X123535498Y-69105820D01*
X123499188Y-69225518D01*
X123486928Y-69350000D01*
X123486928Y-70150000D01*
X123499188Y-70274482D01*
X123535498Y-70394180D01*
X123592061Y-70500000D01*
X123535498Y-70605820D01*
X123499188Y-70725518D01*
X123486928Y-70850000D01*
X123490000Y-70964250D01*
X123648750Y-71123000D01*
X124373000Y-71123000D01*
X124373000Y-71103000D01*
X124627000Y-71103000D01*
X124627000Y-71123000D01*
X125351250Y-71123000D01*
X125510000Y-70964250D01*
X125513072Y-70850000D01*
X125500812Y-70725518D01*
X125464502Y-70605820D01*
X125407939Y-70500000D01*
X125464502Y-70394180D01*
X125500812Y-70274482D01*
X125513072Y-70150000D01*
X125513072Y-69350000D01*
X125500812Y-69225518D01*
X125464502Y-69105820D01*
X125405537Y-68995506D01*
X125326185Y-68898815D01*
X125262000Y-68846140D01*
X125262000Y-68405000D01*
X131373000Y-68405000D01*
X131373000Y-114373000D01*
X56627000Y-114373000D01*
X56627000Y-107031750D01*
X92815000Y-107031750D01*
X92826896Y-107137397D01*
X92865674Y-107256318D01*
X92926907Y-107365389D01*
X93008242Y-107460419D01*
X93106553Y-107537755D01*
X93218063Y-107594425D01*
X93338486Y-107628252D01*
X93463195Y-107637936D01*
X93614250Y-107635000D01*
X93773000Y-107476250D01*
X93773000Y-106873000D01*
X94027000Y-106873000D01*
X94027000Y-107476250D01*
X94185750Y-107635000D01*
X94336805Y-107637936D01*
X94461514Y-107628252D01*
X94581937Y-107594425D01*
X94693447Y-107537755D01*
X94791758Y-107460419D01*
X94873093Y-107365389D01*
X94900000Y-107317461D01*
X94926907Y-107365389D01*
X95008242Y-107460419D01*
X95106553Y-107537755D01*
X95218063Y-107594425D01*
X95338486Y-107628252D01*
X95463195Y-107637936D01*
X95614250Y-107635000D01*
X95773000Y-107476250D01*
X95773000Y-106873000D01*
X96027000Y-106873000D01*
X96027000Y-107476250D01*
X96185750Y-107635000D01*
X96336805Y-107637936D01*
X96461514Y-107628252D01*
X96581937Y-107594425D01*
X96693447Y-107537755D01*
X96791758Y-107460419D01*
X96873093Y-107365389D01*
X96934326Y-107256318D01*
X96973104Y-107137397D01*
X96985000Y-107031750D01*
X96826250Y-106873000D01*
X96027000Y-106873000D01*
X95773000Y-106873000D01*
X94973750Y-106873000D01*
X94900000Y-106946750D01*
X94826250Y-106873000D01*
X94027000Y-106873000D01*
X93773000Y-106873000D01*
X92973750Y-106873000D01*
X92815000Y-107031750D01*
X56627000Y-107031750D01*
X56627000Y-103630000D01*
X85996928Y-103630000D01*
X86009188Y-103754482D01*
X86045498Y-103874180D01*
X86104463Y-103984494D01*
X86183815Y-104081185D01*
X86280506Y-104160537D01*
X86390820Y-104219502D01*
X86510518Y-104255812D01*
X86635000Y-104268072D01*
X86669250Y-104265000D01*
X86828000Y-104106250D01*
X86828000Y-103437000D01*
X87082000Y-103437000D01*
X87082000Y-104106250D01*
X87240750Y-104265000D01*
X87275000Y-104268072D01*
X87399482Y-104255812D01*
X87519180Y-104219502D01*
X87590000Y-104181647D01*
X87660820Y-104219502D01*
X87780518Y-104255812D01*
X87905000Y-104268072D01*
X87939250Y-104265000D01*
X88098000Y-104106250D01*
X88098000Y-103437000D01*
X88352000Y-103437000D01*
X88352000Y-104106250D01*
X88510750Y-104265000D01*
X88545000Y-104268072D01*
X88669482Y-104255812D01*
X88789180Y-104219502D01*
X88860000Y-104181647D01*
X88930820Y-104219502D01*
X89050518Y-104255812D01*
X89175000Y-104268072D01*
X89209250Y-104265000D01*
X89368000Y-104106250D01*
X89368000Y-103437000D01*
X89622000Y-103437000D01*
X89622000Y-104106250D01*
X89780750Y-104265000D01*
X89815000Y-104268072D01*
X89939482Y-104255812D01*
X90059180Y-104219502D01*
X90130000Y-104181647D01*
X90200820Y-104219502D01*
X90320518Y-104255812D01*
X90445000Y-104268072D01*
X90479250Y-104265000D01*
X90638000Y-104106250D01*
X90638000Y-103437000D01*
X90892000Y-103437000D01*
X90892000Y-104106250D01*
X91050750Y-104265000D01*
X91085000Y-104268072D01*
X91209482Y-104255812D01*
X91329180Y-104219502D01*
X91400000Y-104181647D01*
X91470820Y-104219502D01*
X91590518Y-104255812D01*
X91715000Y-104268072D01*
X91749250Y-104265000D01*
X91908000Y-104106250D01*
X91908000Y-103437000D01*
X90892000Y-103437000D01*
X90638000Y-103437000D01*
X89622000Y-103437000D01*
X89368000Y-103437000D01*
X88352000Y-103437000D01*
X88098000Y-103437000D01*
X87082000Y-103437000D01*
X86828000Y-103437000D01*
X86158750Y-103437000D01*
X86000000Y-103595750D01*
X85996928Y-103630000D01*
X56627000Y-103630000D01*
X56627000Y-102360000D01*
X85996928Y-102360000D01*
X86009188Y-102484482D01*
X86045498Y-102604180D01*
X86083353Y-102675000D01*
X86045498Y-102745820D01*
X86009188Y-102865518D01*
X85996928Y-102990000D01*
X86000000Y-103024250D01*
X86158750Y-103183000D01*
X86828000Y-103183000D01*
X86828000Y-102167000D01*
X87082000Y-102167000D01*
X87082000Y-103183000D01*
X88098000Y-103183000D01*
X88098000Y-102167000D01*
X88352000Y-102167000D01*
X88352000Y-103183000D01*
X89368000Y-103183000D01*
X89368000Y-102167000D01*
X89622000Y-102167000D01*
X89622000Y-103183000D01*
X90638000Y-103183000D01*
X90638000Y-102167000D01*
X90892000Y-102167000D01*
X90892000Y-103183000D01*
X91908000Y-103183000D01*
X91908000Y-102167000D01*
X90892000Y-102167000D01*
X90638000Y-102167000D01*
X89622000Y-102167000D01*
X89368000Y-102167000D01*
X88352000Y-102167000D01*
X88098000Y-102167000D01*
X87082000Y-102167000D01*
X86828000Y-102167000D01*
X86158750Y-102167000D01*
X86000000Y-102325750D01*
X85996928Y-102360000D01*
X56627000Y-102360000D01*
X56627000Y-101090000D01*
X85996928Y-101090000D01*
X86009188Y-101214482D01*
X86045498Y-101334180D01*
X86083353Y-101405000D01*
X86045498Y-101475820D01*
X86009188Y-101595518D01*
X85996928Y-101720000D01*
X86000000Y-101754250D01*
X86158750Y-101913000D01*
X86828000Y-101913000D01*
X86828000Y-100897000D01*
X87082000Y-100897000D01*
X87082000Y-101913000D01*
X88098000Y-101913000D01*
X88098000Y-100897000D01*
X88352000Y-100897000D01*
X88352000Y-101913000D01*
X89368000Y-101913000D01*
X89368000Y-100897000D01*
X89622000Y-100897000D01*
X89622000Y-101913000D01*
X90638000Y-101913000D01*
X90638000Y-100897000D01*
X90892000Y-100897000D01*
X90892000Y-101913000D01*
X91908000Y-101913000D01*
X91908000Y-100897000D01*
X90892000Y-100897000D01*
X90638000Y-100897000D01*
X89622000Y-100897000D01*
X89368000Y-100897000D01*
X88352000Y-100897000D01*
X88098000Y-100897000D01*
X87082000Y-100897000D01*
X86828000Y-100897000D01*
X86158750Y-100897000D01*
X86000000Y-101055750D01*
X85996928Y-101090000D01*
X56627000Y-101090000D01*
X56627000Y-97000000D01*
X81585783Y-97000000D01*
X81595000Y-97093580D01*
X81595000Y-97187626D01*
X81613348Y-97279868D01*
X81622565Y-97373445D01*
X81649861Y-97463428D01*
X81668209Y-97555668D01*
X81704199Y-97642556D01*
X81731495Y-97732539D01*
X81775820Y-97815466D01*
X81811811Y-97902356D01*
X81864061Y-97980553D01*
X81908387Y-98063482D01*
X81968042Y-98136171D01*
X82020290Y-98214366D01*
X82086792Y-98280868D01*
X82146445Y-98353555D01*
X82219132Y-98413208D01*
X82285634Y-98479710D01*
X82363829Y-98531958D01*
X82436518Y-98591613D01*
X82519447Y-98635939D01*
X82597644Y-98688189D01*
X82684534Y-98724180D01*
X82767461Y-98768505D01*
X82857444Y-98795801D01*
X82944332Y-98831791D01*
X83036572Y-98850139D01*
X83126555Y-98877435D01*
X83220132Y-98886652D01*
X83312374Y-98905000D01*
X83406420Y-98905000D01*
X83500000Y-98914217D01*
X83593580Y-98905000D01*
X83687626Y-98905000D01*
X83779868Y-98886652D01*
X83873445Y-98877435D01*
X83888498Y-98872869D01*
X83950987Y-98949013D01*
X84047213Y-99027983D01*
X84156996Y-99086664D01*
X84276118Y-99122799D01*
X84400000Y-99135000D01*
X86001360Y-99135000D01*
X85996928Y-99180000D01*
X85996928Y-99820000D01*
X86009188Y-99944482D01*
X86045498Y-100064180D01*
X86083353Y-100135000D01*
X86045498Y-100205820D01*
X86009188Y-100325518D01*
X85996928Y-100450000D01*
X86000000Y-100484250D01*
X86158750Y-100643000D01*
X86828000Y-100643000D01*
X86828000Y-100623000D01*
X87082000Y-100623000D01*
X87082000Y-100643000D01*
X88098000Y-100643000D01*
X88098000Y-100623000D01*
X88352000Y-100623000D01*
X88352000Y-100643000D01*
X89368000Y-100643000D01*
X89368000Y-100623000D01*
X89622000Y-100623000D01*
X89622000Y-100643000D01*
X90638000Y-100643000D01*
X90638000Y-99627000D01*
X90892000Y-99627000D01*
X90892000Y-100643000D01*
X91908000Y-100643000D01*
X91908000Y-99627000D01*
X92162000Y-99627000D01*
X92162000Y-100643000D01*
X92182000Y-100643000D01*
X92182000Y-100897000D01*
X92162000Y-100897000D01*
X92162000Y-101913000D01*
X93178000Y-101913000D01*
X93178000Y-101893000D01*
X93432000Y-101893000D01*
X93432000Y-101913000D01*
X93452000Y-101913000D01*
X93452000Y-102167000D01*
X93432000Y-102167000D01*
X93432000Y-102187000D01*
X93178000Y-102187000D01*
X93178000Y-102167000D01*
X92162000Y-102167000D01*
X92162000Y-103183000D01*
X92182000Y-103183000D01*
X92182000Y-103437000D01*
X92162000Y-103437000D01*
X92162000Y-104106250D01*
X92320750Y-104265000D01*
X92355000Y-104268072D01*
X92479482Y-104255812D01*
X92599180Y-104219502D01*
X92670000Y-104181647D01*
X92740820Y-104219502D01*
X92860518Y-104255812D01*
X92985000Y-104268072D01*
X93138001Y-104268072D01*
X93138001Y-104446749D01*
X93095506Y-104469463D01*
X92998815Y-104548815D01*
X92919463Y-104645506D01*
X92860498Y-104755820D01*
X92824188Y-104875518D01*
X92811928Y-105000000D01*
X92811928Y-105500000D01*
X92824188Y-105624482D01*
X92860498Y-105744180D01*
X92919463Y-105854494D01*
X92998815Y-105951185D01*
X93058425Y-106000105D01*
X93008242Y-106039581D01*
X92926907Y-106134611D01*
X92865674Y-106243682D01*
X92826896Y-106362603D01*
X92815000Y-106468250D01*
X92973750Y-106627000D01*
X93773000Y-106627000D01*
X93773000Y-106603000D01*
X94027000Y-106603000D01*
X94027000Y-106627000D01*
X94826250Y-106627000D01*
X94900000Y-106553250D01*
X94973750Y-106627000D01*
X95773000Y-106627000D01*
X95773000Y-106603000D01*
X96027000Y-106603000D01*
X96027000Y-106627000D01*
X96826250Y-106627000D01*
X96985000Y-106468250D01*
X96973104Y-106362603D01*
X96934326Y-106243682D01*
X96873093Y-106134611D01*
X96791758Y-106039581D01*
X96741575Y-106000105D01*
X96801185Y-105951185D01*
X96880537Y-105854494D01*
X96939502Y-105744180D01*
X96975812Y-105624482D01*
X96988072Y-105500000D01*
X96988072Y-105000000D01*
X96975812Y-104875518D01*
X96939502Y-104755820D01*
X96880537Y-104645506D01*
X96801185Y-104548815D01*
X96704494Y-104469463D01*
X96662000Y-104446749D01*
X96662000Y-104037423D01*
X96663350Y-104023714D01*
X96695537Y-103984494D01*
X96754502Y-103874180D01*
X96790812Y-103754482D01*
X96803072Y-103630000D01*
X96803072Y-102990000D01*
X96790812Y-102865518D01*
X96754502Y-102745820D01*
X96716647Y-102675000D01*
X96754502Y-102604180D01*
X96790812Y-102484482D01*
X96803072Y-102360000D01*
X96803072Y-101720000D01*
X96790812Y-101595518D01*
X96754502Y-101475820D01*
X96716647Y-101405000D01*
X96754502Y-101334180D01*
X96790812Y-101214482D01*
X96803072Y-101090000D01*
X96803072Y-100450000D01*
X96797500Y-100393425D01*
X96797500Y-100135000D01*
X99400000Y-100135000D01*
X99523882Y-100122799D01*
X99643004Y-100086664D01*
X99752787Y-100027983D01*
X99849013Y-99949013D01*
X99927983Y-99852787D01*
X99986664Y-99743004D01*
X100022799Y-99623882D01*
X100035000Y-99500000D01*
X100035000Y-99108790D01*
X100095001Y-99118609D01*
X100095000Y-103863742D01*
X99771075Y-106116497D01*
X99758526Y-106397433D01*
X99815238Y-106768375D01*
X99943228Y-107121125D01*
X100137577Y-107442128D01*
X100390816Y-107719047D01*
X100693213Y-107941241D01*
X101033147Y-108100171D01*
X101397556Y-108189729D01*
X101772433Y-108206474D01*
X102143375Y-108149762D01*
X102496125Y-108021772D01*
X102817128Y-107827423D01*
X103094047Y-107574184D01*
X103316241Y-107271787D01*
X103475171Y-106931853D01*
X103542287Y-106658762D01*
X103864999Y-104414444D01*
X103877436Y-104373445D01*
X103891659Y-104229035D01*
X103898925Y-104178504D01*
X103900825Y-104135974D01*
X103905000Y-104093582D01*
X103905000Y-104042502D01*
X103911474Y-103897567D01*
X103905000Y-103855222D01*
X103905000Y-98289076D01*
X104439076Y-97755000D01*
X108593582Y-97755000D01*
X108873445Y-97727436D01*
X109232539Y-97618506D01*
X109563482Y-97441613D01*
X109811498Y-97238072D01*
X111450000Y-97238072D01*
X111574482Y-97225812D01*
X111694180Y-97189502D01*
X111804494Y-97130537D01*
X111901185Y-97051185D01*
X111980537Y-96954494D01*
X112039502Y-96844180D01*
X112075812Y-96724482D01*
X112088072Y-96600000D01*
X112088072Y-95282429D01*
X112146444Y-95353556D01*
X112219145Y-95413220D01*
X115660666Y-98854743D01*
X115596694Y-102389223D01*
X115585783Y-102500000D01*
X115602487Y-102669602D01*
X115616114Y-102839408D01*
X115620859Y-102856134D01*
X115622564Y-102873445D01*
X115672038Y-103036540D01*
X115718528Y-103200415D01*
X115726445Y-103215893D01*
X115731494Y-103232539D01*
X115811835Y-103382846D01*
X115861928Y-103480787D01*
X115861928Y-103500000D01*
X115874188Y-103624482D01*
X115910498Y-103744180D01*
X115969463Y-103854494D01*
X116048815Y-103951185D01*
X116145506Y-104030537D01*
X116255820Y-104089502D01*
X116375518Y-104125812D01*
X116500000Y-104138072D01*
X116523437Y-104138072D01*
X116586845Y-104171965D01*
X116735578Y-104254959D01*
X116752119Y-104260305D01*
X116767461Y-104268506D01*
X116930554Y-104317980D01*
X117092641Y-104370370D01*
X117109911Y-104372387D01*
X117126555Y-104377436D01*
X117296153Y-104394140D01*
X117465360Y-104413903D01*
X117576302Y-104405000D01*
X117593582Y-104405000D01*
X117669599Y-104397513D01*
X117839408Y-104383886D01*
X117856134Y-104379141D01*
X117873445Y-104377436D01*
X118036540Y-104327962D01*
X118200415Y-104281472D01*
X118215893Y-104273555D01*
X118232539Y-104268506D01*
X118382846Y-104188165D01*
X118480787Y-104138072D01*
X118500000Y-104138072D01*
X118624482Y-104125812D01*
X118744180Y-104089502D01*
X118854494Y-104030537D01*
X118951185Y-103951185D01*
X119030537Y-103854494D01*
X119089502Y-103744180D01*
X119125812Y-103624482D01*
X119138072Y-103500000D01*
X119138072Y-103476563D01*
X119171965Y-103413155D01*
X119254959Y-103264422D01*
X119260305Y-103247881D01*
X119268506Y-103232539D01*
X119317980Y-103069446D01*
X119370370Y-102907359D01*
X119372387Y-102890089D01*
X119377436Y-102873445D01*
X119394140Y-102703846D01*
X119402994Y-102628040D01*
X119403306Y-102610777D01*
X119414217Y-102500000D01*
X119406694Y-102423617D01*
X119454868Y-99762000D01*
X120346140Y-99762000D01*
X120398815Y-99826185D01*
X120495506Y-99905537D01*
X120605820Y-99964502D01*
X120725518Y-100000812D01*
X120850000Y-100013072D01*
X121650000Y-100013072D01*
X121774482Y-100000812D01*
X121894180Y-99964502D01*
X122000000Y-99907939D01*
X122105820Y-99964502D01*
X122225518Y-100000812D01*
X122350000Y-100013072D01*
X122464250Y-100010000D01*
X122623000Y-99851250D01*
X122623000Y-99127000D01*
X122877000Y-99127000D01*
X122877000Y-99851250D01*
X123035750Y-100010000D01*
X123150000Y-100013072D01*
X123274482Y-100000812D01*
X123394180Y-99964502D01*
X123504494Y-99905537D01*
X123601185Y-99826185D01*
X123680537Y-99729494D01*
X123739502Y-99619180D01*
X123775812Y-99499482D01*
X123788072Y-99375000D01*
X123785000Y-99285750D01*
X123626250Y-99127000D01*
X122877000Y-99127000D01*
X122623000Y-99127000D01*
X122603000Y-99127000D01*
X122603000Y-98873000D01*
X122623000Y-98873000D01*
X122623000Y-98148750D01*
X122474250Y-98000000D01*
X122623000Y-97851250D01*
X122623000Y-97127000D01*
X122877000Y-97127000D01*
X122877000Y-97851250D01*
X123025750Y-98000000D01*
X122877000Y-98148750D01*
X122877000Y-98873000D01*
X123626250Y-98873000D01*
X123785000Y-98714250D01*
X123788072Y-98625000D01*
X123775812Y-98500518D01*
X123739502Y-98380820D01*
X123680537Y-98270506D01*
X123601185Y-98173815D01*
X123504494Y-98094463D01*
X123394180Y-98035498D01*
X123277159Y-98000000D01*
X123394180Y-97964502D01*
X123504494Y-97905537D01*
X123601185Y-97826185D01*
X123680537Y-97729494D01*
X123739502Y-97619180D01*
X123775812Y-97499482D01*
X123788072Y-97375000D01*
X123785000Y-97285750D01*
X123626250Y-97127000D01*
X122877000Y-97127000D01*
X122623000Y-97127000D01*
X122603000Y-97127000D01*
X122603000Y-96873000D01*
X122623000Y-96873000D01*
X122623000Y-96148750D01*
X122877000Y-96148750D01*
X122877000Y-96873000D01*
X123626250Y-96873000D01*
X123785000Y-96714250D01*
X123788072Y-96625000D01*
X123775812Y-96500518D01*
X123739502Y-96380820D01*
X123680537Y-96270506D01*
X123601185Y-96173815D01*
X123504494Y-96094463D01*
X123394180Y-96035498D01*
X123274482Y-95999188D01*
X123150000Y-95986928D01*
X123035750Y-95990000D01*
X122877000Y-96148750D01*
X122623000Y-96148750D01*
X122464250Y-95990000D01*
X122350000Y-95986928D01*
X122225518Y-95999188D01*
X122105820Y-96035498D01*
X122000000Y-96092061D01*
X121894180Y-96035498D01*
X121774482Y-95999188D01*
X121650000Y-95986928D01*
X120850000Y-95986928D01*
X120725518Y-95999188D01*
X120605820Y-96035498D01*
X120495506Y-96094463D01*
X120398815Y-96173815D01*
X120346140Y-96238000D01*
X118697423Y-96238000D01*
X118660000Y-96234314D01*
X118622577Y-96238000D01*
X118622574Y-96238000D01*
X118510622Y-96249026D01*
X118458818Y-96264741D01*
X115405000Y-93210925D01*
X115405000Y-91593580D01*
X115414217Y-91500000D01*
X115405000Y-91406418D01*
X115377436Y-91126555D01*
X115268506Y-90767461D01*
X115091613Y-90436518D01*
X114853556Y-90146444D01*
X114780859Y-90086783D01*
X114563219Y-89869144D01*
X114503556Y-89796444D01*
X114213482Y-89558387D01*
X113882539Y-89381494D01*
X113523445Y-89272564D01*
X113243582Y-89245000D01*
X113243580Y-89245000D01*
X113150000Y-89235783D01*
X113056420Y-89245000D01*
X110405000Y-89245000D01*
X110405000Y-88738072D01*
X111450000Y-88738072D01*
X111574482Y-88725812D01*
X111694180Y-88689502D01*
X111804494Y-88630537D01*
X111901185Y-88551185D01*
X111980537Y-88454494D01*
X112039502Y-88344180D01*
X112075812Y-88224482D01*
X112088072Y-88100000D01*
X112088072Y-86400000D01*
X112075812Y-86275518D01*
X112039502Y-86155820D01*
X111980537Y-86045506D01*
X111901185Y-85948815D01*
X111804494Y-85869463D01*
X111694180Y-85810498D01*
X111574482Y-85774188D01*
X111450000Y-85761928D01*
X109567797Y-85761928D01*
X109563482Y-85758387D01*
X109232539Y-85581494D01*
X108873445Y-85472564D01*
X108500000Y-85435783D01*
X108126556Y-85472564D01*
X107767462Y-85581494D01*
X107436519Y-85758387D01*
X107432204Y-85761928D01*
X105550000Y-85761928D01*
X105425518Y-85774188D01*
X105305820Y-85810498D01*
X105195506Y-85869463D01*
X105098815Y-85948815D01*
X105019463Y-86045506D01*
X104960498Y-86155820D01*
X104924188Y-86275518D01*
X104911928Y-86400000D01*
X104911928Y-88100000D01*
X104924188Y-88224482D01*
X104960498Y-88344180D01*
X105019463Y-88454494D01*
X105098815Y-88551185D01*
X105195506Y-88630537D01*
X105305820Y-88689502D01*
X105425518Y-88725812D01*
X105550000Y-88738072D01*
X106595001Y-88738072D01*
X106595000Y-89761928D01*
X105550000Y-89761928D01*
X105425518Y-89774188D01*
X105305820Y-89810498D01*
X105195506Y-89869463D01*
X105098815Y-89948815D01*
X105019463Y-90045506D01*
X104960498Y-90155820D01*
X104924188Y-90275518D01*
X104911928Y-90400000D01*
X104911928Y-92100000D01*
X104924188Y-92224482D01*
X104960498Y-92344180D01*
X105019463Y-92454494D01*
X105098815Y-92551185D01*
X105195506Y-92630537D01*
X105305820Y-92689502D01*
X105425518Y-92725812D01*
X105550000Y-92738072D01*
X107432203Y-92738072D01*
X107436518Y-92741613D01*
X107767461Y-92918506D01*
X108126555Y-93027436D01*
X108500000Y-93064217D01*
X108593582Y-93055000D01*
X111595000Y-93055000D01*
X111595000Y-93906420D01*
X111585783Y-94000000D01*
X111595000Y-94093580D01*
X111595000Y-94093581D01*
X111613968Y-94286166D01*
X111574482Y-94274188D01*
X111450000Y-94261928D01*
X109567797Y-94261928D01*
X109563482Y-94258387D01*
X109232539Y-94081494D01*
X108873445Y-93972564D01*
X108593582Y-93945000D01*
X103743571Y-93945000D01*
X103649999Y-93935784D01*
X103556427Y-93945000D01*
X103556418Y-93945000D01*
X103276555Y-93972564D01*
X102917461Y-94081494D01*
X102586518Y-94258387D01*
X102296444Y-94496444D01*
X102236788Y-94569135D01*
X101343661Y-95462263D01*
X100035000Y-95248119D01*
X100035000Y-94500000D01*
X100022799Y-94376118D01*
X99986664Y-94256996D01*
X99927983Y-94147213D01*
X99849013Y-94050987D01*
X99752787Y-93972017D01*
X99643004Y-93913336D01*
X99523882Y-93877201D01*
X99400000Y-93865000D01*
X99053889Y-93865000D01*
X99101185Y-93826185D01*
X99180537Y-93729494D01*
X99239502Y-93619180D01*
X99275812Y-93499482D01*
X99288072Y-93375000D01*
X99285000Y-93285750D01*
X99126250Y-93127000D01*
X98377000Y-93127000D01*
X98377000Y-93147000D01*
X98123000Y-93147000D01*
X98123000Y-93127000D01*
X98103000Y-93127000D01*
X98103000Y-92873000D01*
X98123000Y-92873000D01*
X98123000Y-92148750D01*
X98377000Y-92148750D01*
X98377000Y-92873000D01*
X99126250Y-92873000D01*
X99285000Y-92714250D01*
X99288072Y-92625000D01*
X99275812Y-92500518D01*
X99239502Y-92380820D01*
X99180537Y-92270506D01*
X99101185Y-92173815D01*
X99004494Y-92094463D01*
X98894180Y-92035498D01*
X98774482Y-91999188D01*
X98650000Y-91986928D01*
X98535750Y-91990000D01*
X98377000Y-92148750D01*
X98123000Y-92148750D01*
X97964250Y-91990000D01*
X97850000Y-91986928D01*
X97725518Y-91999188D01*
X97605820Y-92035498D01*
X97500000Y-92092061D01*
X97394180Y-92035498D01*
X97274482Y-91999188D01*
X97150000Y-91986928D01*
X96350000Y-91986928D01*
X96225518Y-91999188D01*
X96105820Y-92035498D01*
X95995506Y-92094463D01*
X95898815Y-92173815D01*
X95819463Y-92270506D01*
X95760498Y-92380820D01*
X95724188Y-92500518D01*
X95711928Y-92625000D01*
X95711928Y-93375000D01*
X95724188Y-93499482D01*
X95760498Y-93619180D01*
X95819463Y-93729494D01*
X95898815Y-93826185D01*
X95946111Y-93865000D01*
X93900000Y-93865000D01*
X93776118Y-93877201D01*
X93656996Y-93913336D01*
X93547213Y-93972017D01*
X93450987Y-94050987D01*
X93372017Y-94147213D01*
X93313336Y-94256996D01*
X93277201Y-94376118D01*
X93265000Y-94500000D01*
X93265000Y-99500000D01*
X93277201Y-99623882D01*
X93313336Y-99743004D01*
X93350177Y-99811928D01*
X92992348Y-99811928D01*
X92990000Y-99785750D01*
X92831250Y-99627000D01*
X92162000Y-99627000D01*
X91908000Y-99627000D01*
X90892000Y-99627000D01*
X90638000Y-99627000D01*
X90618000Y-99627000D01*
X90618000Y-99373000D01*
X90638000Y-99373000D01*
X90638000Y-98357000D01*
X90892000Y-98357000D01*
X90892000Y-99373000D01*
X91908000Y-99373000D01*
X91908000Y-98357000D01*
X92162000Y-98357000D01*
X92162000Y-99373000D01*
X92831250Y-99373000D01*
X92990000Y-99214250D01*
X92993072Y-99180000D01*
X92980812Y-99055518D01*
X92944502Y-98935820D01*
X92906647Y-98865000D01*
X92944502Y-98794180D01*
X92980812Y-98674482D01*
X92993072Y-98550000D01*
X92990000Y-98515750D01*
X92831250Y-98357000D01*
X92162000Y-98357000D01*
X91908000Y-98357000D01*
X90892000Y-98357000D01*
X90638000Y-98357000D01*
X90618000Y-98357000D01*
X90618000Y-98103000D01*
X90638000Y-98103000D01*
X90638000Y-97087000D01*
X90892000Y-97087000D01*
X90892000Y-98103000D01*
X91908000Y-98103000D01*
X91908000Y-97087000D01*
X92162000Y-97087000D01*
X92162000Y-98103000D01*
X92831250Y-98103000D01*
X92990000Y-97944250D01*
X92993072Y-97910000D01*
X92980812Y-97785518D01*
X92944502Y-97665820D01*
X92906647Y-97595000D01*
X92944502Y-97524180D01*
X92980812Y-97404482D01*
X92993072Y-97280000D01*
X92990000Y-97245750D01*
X92831250Y-97087000D01*
X92162000Y-97087000D01*
X91908000Y-97087000D01*
X90892000Y-97087000D01*
X90638000Y-97087000D01*
X90618000Y-97087000D01*
X90618000Y-96833000D01*
X90638000Y-96833000D01*
X90638000Y-95817000D01*
X90892000Y-95817000D01*
X90892000Y-96833000D01*
X91908000Y-96833000D01*
X91908000Y-95817000D01*
X92162000Y-95817000D01*
X92162000Y-96833000D01*
X92831250Y-96833000D01*
X92990000Y-96674250D01*
X92993072Y-96640000D01*
X92980812Y-96515518D01*
X92944502Y-96395820D01*
X92906647Y-96325000D01*
X92944502Y-96254180D01*
X92980812Y-96134482D01*
X92993072Y-96010000D01*
X92990000Y-95975750D01*
X92831250Y-95817000D01*
X92162000Y-95817000D01*
X91908000Y-95817000D01*
X90892000Y-95817000D01*
X90638000Y-95817000D01*
X90618000Y-95817000D01*
X90618000Y-95563000D01*
X90638000Y-95563000D01*
X90638000Y-94893750D01*
X90892000Y-94893750D01*
X90892000Y-95563000D01*
X91908000Y-95563000D01*
X91908000Y-94893750D01*
X92162000Y-94893750D01*
X92162000Y-95563000D01*
X92831250Y-95563000D01*
X92990000Y-95404250D01*
X92993072Y-95370000D01*
X92980812Y-95245518D01*
X92944502Y-95125820D01*
X92885537Y-95015506D01*
X92806185Y-94918815D01*
X92709494Y-94839463D01*
X92599180Y-94780498D01*
X92479482Y-94744188D01*
X92355000Y-94731928D01*
X92320750Y-94735000D01*
X92162000Y-94893750D01*
X91908000Y-94893750D01*
X91749250Y-94735000D01*
X91715000Y-94731928D01*
X91590518Y-94744188D01*
X91470820Y-94780498D01*
X91400000Y-94818353D01*
X91329180Y-94780498D01*
X91209482Y-94744188D01*
X91085000Y-94731928D01*
X91050750Y-94735000D01*
X90892000Y-94893750D01*
X90638000Y-94893750D01*
X90535000Y-94790750D01*
X90535000Y-94500000D01*
X90522799Y-94376118D01*
X90508053Y-94327505D01*
X90512000Y-94287426D01*
X90512000Y-94287424D01*
X90515686Y-94250001D01*
X90512000Y-94212578D01*
X90512000Y-94031326D01*
X90548815Y-94076185D01*
X90645506Y-94155537D01*
X90755820Y-94214502D01*
X90875518Y-94250812D01*
X91000000Y-94263072D01*
X91214250Y-94260000D01*
X91373000Y-94101250D01*
X91373000Y-93127000D01*
X91627000Y-93127000D01*
X91627000Y-94101250D01*
X91785750Y-94260000D01*
X92000000Y-94263072D01*
X92124482Y-94250812D01*
X92244180Y-94214502D01*
X92354494Y-94155537D01*
X92451185Y-94076185D01*
X92530537Y-93979494D01*
X92589502Y-93869180D01*
X92625812Y-93749482D01*
X92638072Y-93625000D01*
X92635000Y-93285750D01*
X92476250Y-93127000D01*
X91627000Y-93127000D01*
X91373000Y-93127000D01*
X91353000Y-93127000D01*
X91353000Y-92873000D01*
X91373000Y-92873000D01*
X91373000Y-91898750D01*
X91627000Y-91898750D01*
X91627000Y-92873000D01*
X92476250Y-92873000D01*
X92635000Y-92714250D01*
X92638072Y-92375000D01*
X92625812Y-92250518D01*
X92589502Y-92130820D01*
X92530537Y-92020506D01*
X92451185Y-91923815D01*
X92354494Y-91844463D01*
X92244180Y-91785498D01*
X92124482Y-91749188D01*
X92000000Y-91736928D01*
X91785750Y-91740000D01*
X91627000Y-91898750D01*
X91373000Y-91898750D01*
X91214250Y-91740000D01*
X91000000Y-91736928D01*
X90875518Y-91749188D01*
X90755820Y-91785498D01*
X90645506Y-91844463D01*
X90548815Y-91923815D01*
X90500000Y-91983296D01*
X90451185Y-91923815D01*
X90354494Y-91844463D01*
X90244180Y-91785498D01*
X90124482Y-91749188D01*
X90000000Y-91736928D01*
X89000000Y-91736928D01*
X88875518Y-91749188D01*
X88755820Y-91785498D01*
X88645506Y-91844463D01*
X88548815Y-91923815D01*
X88469463Y-92020506D01*
X88410498Y-92130820D01*
X88374188Y-92250518D01*
X88361928Y-92375000D01*
X88361928Y-93625000D01*
X88374188Y-93749482D01*
X88409230Y-93865000D01*
X84400000Y-93865000D01*
X84276118Y-93877201D01*
X84156996Y-93913336D01*
X84047213Y-93972017D01*
X83950987Y-94050987D01*
X83872017Y-94147213D01*
X83813336Y-94256996D01*
X83777201Y-94376118D01*
X83765000Y-94500000D01*
X83765000Y-95055000D01*
X83633582Y-95055000D01*
X83540000Y-95045783D01*
X83446418Y-95055000D01*
X83166555Y-95082564D01*
X82807461Y-95191494D01*
X82476518Y-95368387D01*
X82316789Y-95499473D01*
X82285634Y-95520290D01*
X82259140Y-95546784D01*
X82186444Y-95606444D01*
X82126784Y-95679140D01*
X82020290Y-95785634D01*
X81968041Y-95863830D01*
X81908387Y-95936518D01*
X81864061Y-96019447D01*
X81811811Y-96097644D01*
X81775820Y-96184534D01*
X81731495Y-96267461D01*
X81704199Y-96357444D01*
X81668209Y-96444332D01*
X81649861Y-96536572D01*
X81622565Y-96626555D01*
X81613348Y-96720132D01*
X81595000Y-96812374D01*
X81595000Y-96906420D01*
X81585783Y-97000000D01*
X56627000Y-97000000D01*
X56627000Y-76349344D01*
X99785000Y-76349344D01*
X99785000Y-76720656D01*
X99857439Y-77084834D01*
X99999534Y-77427882D01*
X100205825Y-77736618D01*
X100468382Y-77999175D01*
X100777118Y-78205466D01*
X101120166Y-78347561D01*
X101484344Y-78420000D01*
X101855656Y-78420000D01*
X101956203Y-78400000D01*
X104911928Y-78400000D01*
X104911928Y-80100000D01*
X104924188Y-80224482D01*
X104960498Y-80344180D01*
X105019463Y-80454494D01*
X105098815Y-80551185D01*
X105195506Y-80630537D01*
X105305820Y-80689502D01*
X105425518Y-80725812D01*
X105550000Y-80738072D01*
X106595001Y-80738072D01*
X106595000Y-81261928D01*
X105550000Y-81261928D01*
X105425518Y-81274188D01*
X105305820Y-81310498D01*
X105195506Y-81369463D01*
X105098815Y-81448815D01*
X105019463Y-81545506D01*
X104960498Y-81655820D01*
X104924188Y-81775518D01*
X104911928Y-81900000D01*
X104911928Y-83600000D01*
X104924188Y-83724482D01*
X104960498Y-83844180D01*
X105019463Y-83954494D01*
X105098815Y-84051185D01*
X105195506Y-84130537D01*
X105305820Y-84189502D01*
X105425518Y-84225812D01*
X105550000Y-84238072D01*
X107432203Y-84238072D01*
X107436518Y-84241613D01*
X107767461Y-84418506D01*
X108126555Y-84527436D01*
X108500000Y-84564217D01*
X108593582Y-84555000D01*
X110860924Y-84555000D01*
X112219133Y-85913210D01*
X112219144Y-85913219D01*
X114719134Y-88413210D01*
X114719139Y-88413214D01*
X115648743Y-89342819D01*
X115592949Y-91030590D01*
X115611251Y-91311210D01*
X115708257Y-91673707D01*
X115861928Y-91985573D01*
X115861928Y-92000000D01*
X115874188Y-92124482D01*
X115910498Y-92244180D01*
X115969463Y-92354494D01*
X116048815Y-92451185D01*
X116145506Y-92530537D01*
X116255820Y-92589502D01*
X116375518Y-92625812D01*
X116500000Y-92638072D01*
X116527242Y-92638072D01*
X116709430Y-92743337D01*
X117064729Y-92864072D01*
X117436755Y-92913171D01*
X117811210Y-92888749D01*
X118173707Y-92791743D01*
X118485573Y-92638072D01*
X118500000Y-92638072D01*
X118624482Y-92625812D01*
X118744180Y-92589502D01*
X118854494Y-92530537D01*
X118951185Y-92451185D01*
X119030537Y-92354494D01*
X119089502Y-92244180D01*
X119125812Y-92124482D01*
X119138072Y-92000000D01*
X119138072Y-91972758D01*
X119243337Y-91790570D01*
X119364072Y-91435271D01*
X119400868Y-91156471D01*
X119481909Y-88704953D01*
X119494216Y-88579999D01*
X119478912Y-88424611D01*
X119468749Y-88268789D01*
X119460545Y-88238133D01*
X119457435Y-88206554D01*
X119412110Y-88057138D01*
X119371743Y-87906292D01*
X119357716Y-87877826D01*
X119348505Y-87847460D01*
X119274896Y-87709748D01*
X119205881Y-87569686D01*
X119186572Y-87544505D01*
X119171612Y-87516517D01*
X119072546Y-87395804D01*
X118977538Y-87271905D01*
X118883172Y-87189095D01*
X117885853Y-86191778D01*
X118064559Y-86013072D01*
X118150000Y-86013072D01*
X118274482Y-86000812D01*
X118394180Y-85964502D01*
X118500000Y-85907939D01*
X118605820Y-85964502D01*
X118725518Y-86000812D01*
X118850000Y-86013072D01*
X118964250Y-86010000D01*
X119123000Y-85851250D01*
X119123000Y-85127000D01*
X119377000Y-85127000D01*
X119377000Y-85851250D01*
X119535750Y-86010000D01*
X119650000Y-86013072D01*
X119774482Y-86000812D01*
X119894180Y-85964502D01*
X120004494Y-85905537D01*
X120101185Y-85826185D01*
X120180537Y-85729494D01*
X120239502Y-85619180D01*
X120275812Y-85499482D01*
X120288072Y-85375000D01*
X120285000Y-85285750D01*
X120126250Y-85127000D01*
X119377000Y-85127000D01*
X119123000Y-85127000D01*
X119103000Y-85127000D01*
X119103000Y-84873000D01*
X119123000Y-84873000D01*
X119123000Y-84148750D01*
X119377000Y-84148750D01*
X119377000Y-84873000D01*
X120126250Y-84873000D01*
X120285000Y-84714250D01*
X120288072Y-84625000D01*
X120275812Y-84500518D01*
X120239502Y-84380820D01*
X120180537Y-84270506D01*
X120101185Y-84173815D01*
X120004494Y-84094463D01*
X119894180Y-84035498D01*
X119774482Y-83999188D01*
X119650000Y-83986928D01*
X119535750Y-83990000D01*
X119377000Y-84148750D01*
X119123000Y-84148750D01*
X118964250Y-83990000D01*
X118850000Y-83986928D01*
X118725518Y-83999188D01*
X118605820Y-84035498D01*
X118500000Y-84092061D01*
X118394180Y-84035498D01*
X118274482Y-83999188D01*
X118150000Y-83986928D01*
X117350000Y-83986928D01*
X117225518Y-83999188D01*
X117105820Y-84035498D01*
X116995506Y-84094463D01*
X116898815Y-84173815D01*
X116819463Y-84270506D01*
X116760498Y-84380820D01*
X116724188Y-84500518D01*
X116711928Y-84625000D01*
X116711928Y-85017852D01*
X115385853Y-83691778D01*
X115564559Y-83513072D01*
X116150000Y-83513072D01*
X116274482Y-83500812D01*
X116394180Y-83464502D01*
X116500000Y-83407939D01*
X116605820Y-83464502D01*
X116725518Y-83500812D01*
X116850000Y-83513072D01*
X116964250Y-83510000D01*
X117123000Y-83351250D01*
X117123000Y-82627000D01*
X117377000Y-82627000D01*
X117377000Y-83351250D01*
X117535750Y-83510000D01*
X117650000Y-83513072D01*
X117774482Y-83500812D01*
X117894180Y-83464502D01*
X118004494Y-83405537D01*
X118101185Y-83326185D01*
X118180537Y-83229494D01*
X118239502Y-83119180D01*
X118275812Y-82999482D01*
X118288072Y-82875000D01*
X118285000Y-82785750D01*
X118126250Y-82627000D01*
X117377000Y-82627000D01*
X117123000Y-82627000D01*
X117103000Y-82627000D01*
X117103000Y-82373000D01*
X117123000Y-82373000D01*
X117123000Y-81648750D01*
X117377000Y-81648750D01*
X117377000Y-82373000D01*
X118126250Y-82373000D01*
X118285000Y-82214250D01*
X118288072Y-82125000D01*
X118275812Y-82000518D01*
X118239502Y-81880820D01*
X118180537Y-81770506D01*
X118101185Y-81673815D01*
X118004494Y-81594463D01*
X117894180Y-81535498D01*
X117774482Y-81499188D01*
X117650000Y-81486928D01*
X117535750Y-81490000D01*
X117377000Y-81648750D01*
X117123000Y-81648750D01*
X116964250Y-81490000D01*
X116850000Y-81486928D01*
X116725518Y-81499188D01*
X116605820Y-81535498D01*
X116500000Y-81592061D01*
X116394180Y-81535498D01*
X116274482Y-81499188D01*
X116150000Y-81486928D01*
X115350000Y-81486928D01*
X115225518Y-81499188D01*
X115105820Y-81535498D01*
X114995506Y-81594463D01*
X114898815Y-81673815D01*
X114819463Y-81770506D01*
X114760498Y-81880820D01*
X114724188Y-82000518D01*
X114711928Y-82125000D01*
X114711928Y-82210441D01*
X114308223Y-82614146D01*
X113063220Y-81369144D01*
X113003556Y-81296444D01*
X112713482Y-81058387D01*
X112382539Y-80881494D01*
X112023445Y-80772564D01*
X111743582Y-80745000D01*
X111743580Y-80745000D01*
X111650000Y-80735783D01*
X111556420Y-80745000D01*
X110405000Y-80745000D01*
X110405000Y-80738072D01*
X111450000Y-80738072D01*
X111574482Y-80725812D01*
X111694180Y-80689502D01*
X111804494Y-80630537D01*
X111901185Y-80551185D01*
X111980537Y-80454494D01*
X112039502Y-80344180D01*
X112075812Y-80224482D01*
X112088072Y-80100000D01*
X112088072Y-78400000D01*
X112075812Y-78275518D01*
X112039502Y-78155820D01*
X111980537Y-78045506D01*
X111901185Y-77948815D01*
X111804494Y-77869463D01*
X111694180Y-77810498D01*
X111574482Y-77774188D01*
X111450000Y-77761928D01*
X109567797Y-77761928D01*
X109563482Y-77758387D01*
X109232539Y-77581494D01*
X108873445Y-77472564D01*
X108500000Y-77435783D01*
X108126556Y-77472564D01*
X107767462Y-77581494D01*
X107436519Y-77758387D01*
X107432204Y-77761928D01*
X105550000Y-77761928D01*
X105425518Y-77774188D01*
X105305820Y-77810498D01*
X105195506Y-77869463D01*
X105098815Y-77948815D01*
X105019463Y-78045506D01*
X104960498Y-78155820D01*
X104924188Y-78275518D01*
X104911928Y-78400000D01*
X101956203Y-78400000D01*
X102219834Y-78347561D01*
X102562882Y-78205466D01*
X102871618Y-77999175D01*
X103134175Y-77736618D01*
X103340466Y-77427882D01*
X103482561Y-77084834D01*
X103555000Y-76720656D01*
X103555000Y-76349344D01*
X103482561Y-75985166D01*
X103340466Y-75642118D01*
X103134175Y-75333382D01*
X102871618Y-75070825D01*
X102562882Y-74864534D01*
X102219834Y-74722439D01*
X101855656Y-74650000D01*
X101484344Y-74650000D01*
X101120166Y-74722439D01*
X100777118Y-74864534D01*
X100468382Y-75070825D01*
X100205825Y-75333382D01*
X99999534Y-75642118D01*
X99857439Y-75985166D01*
X99785000Y-76349344D01*
X56627000Y-76349344D01*
X56627000Y-70400000D01*
X104911928Y-70400000D01*
X104911928Y-72100000D01*
X104924188Y-72224482D01*
X104960498Y-72344180D01*
X105019463Y-72454494D01*
X105098815Y-72551185D01*
X105195506Y-72630537D01*
X105305820Y-72689502D01*
X105425518Y-72725812D01*
X105550000Y-72738072D01*
X106595001Y-72738072D01*
X106595000Y-73261928D01*
X105550000Y-73261928D01*
X105425518Y-73274188D01*
X105305820Y-73310498D01*
X105195506Y-73369463D01*
X105098815Y-73448815D01*
X105019463Y-73545506D01*
X104960498Y-73655820D01*
X104924188Y-73775518D01*
X104911928Y-73900000D01*
X104911928Y-75600000D01*
X104924188Y-75724482D01*
X104960498Y-75844180D01*
X105019463Y-75954494D01*
X105098815Y-76051185D01*
X105195506Y-76130537D01*
X105305820Y-76189502D01*
X105425518Y-76225812D01*
X105550000Y-76238072D01*
X107432203Y-76238072D01*
X107436518Y-76241613D01*
X107767461Y-76418506D01*
X108126555Y-76527436D01*
X108500000Y-76564217D01*
X108593582Y-76555000D01*
X112360925Y-76555000D01*
X115617426Y-79811502D01*
X115625662Y-79888692D01*
X115737507Y-80246889D01*
X115861928Y-80475181D01*
X115861928Y-80500000D01*
X115874188Y-80624482D01*
X115910498Y-80744180D01*
X115969463Y-80854494D01*
X116048815Y-80951185D01*
X116145506Y-81030537D01*
X116255820Y-81089502D01*
X116375518Y-81125812D01*
X116500000Y-81138072D01*
X116521743Y-81138072D01*
X116781860Y-81274401D01*
X117141827Y-81380409D01*
X117515558Y-81414153D01*
X117888692Y-81374338D01*
X118246889Y-81262493D01*
X118475181Y-81138072D01*
X118500000Y-81138072D01*
X118624482Y-81125812D01*
X118744180Y-81089502D01*
X118854494Y-81030537D01*
X118951185Y-80951185D01*
X119030537Y-80854494D01*
X119089502Y-80744180D01*
X119125812Y-80624482D01*
X119138072Y-80500000D01*
X119138072Y-80478257D01*
X119274401Y-80218140D01*
X119353844Y-79948377D01*
X119432393Y-79535996D01*
X119457435Y-79453444D01*
X119467412Y-79352148D01*
X119468865Y-79344520D01*
X119476587Y-79258999D01*
X119494217Y-79079999D01*
X119493451Y-79072220D01*
X119494153Y-79064442D01*
X119475071Y-78885615D01*
X119457435Y-78706554D01*
X119455167Y-78699078D01*
X119454338Y-78691308D01*
X119438154Y-78639477D01*
X119762352Y-78315279D01*
X119791422Y-78291422D01*
X119820640Y-78255820D01*
X119886645Y-78175393D01*
X119924465Y-78104636D01*
X119957402Y-78043015D01*
X119998063Y-77908975D01*
X120000000Y-77907939D01*
X120105820Y-77964502D01*
X120225518Y-78000812D01*
X120350000Y-78013072D01*
X120464250Y-78010000D01*
X120623000Y-77851250D01*
X120623000Y-77127000D01*
X120877000Y-77127000D01*
X120877000Y-77851250D01*
X121035750Y-78010000D01*
X121150000Y-78013072D01*
X121274482Y-78000812D01*
X121394180Y-77964502D01*
X121504494Y-77905537D01*
X121601185Y-77826185D01*
X121680537Y-77729494D01*
X121739502Y-77619180D01*
X121775812Y-77499482D01*
X121788072Y-77375000D01*
X121785000Y-77285750D01*
X121626250Y-77127000D01*
X120877000Y-77127000D01*
X120623000Y-77127000D01*
X120603000Y-77127000D01*
X120603000Y-76873000D01*
X120623000Y-76873000D01*
X120623000Y-76148750D01*
X120877000Y-76148750D01*
X120877000Y-76873000D01*
X121626250Y-76873000D01*
X121785000Y-76714250D01*
X121788072Y-76625000D01*
X121775812Y-76500518D01*
X121739502Y-76380820D01*
X121680537Y-76270506D01*
X121601185Y-76173815D01*
X121504494Y-76094463D01*
X121394180Y-76035498D01*
X121274482Y-75999188D01*
X121150000Y-75986928D01*
X121035750Y-75990000D01*
X120877000Y-76148750D01*
X120623000Y-76148750D01*
X120464250Y-75990000D01*
X120350000Y-75986928D01*
X120225518Y-75999188D01*
X120105820Y-76035498D01*
X120000000Y-76092061D01*
X119894180Y-76035498D01*
X119774482Y-75999188D01*
X119650000Y-75986928D01*
X118850000Y-75986928D01*
X118725518Y-75999188D01*
X118605820Y-76035498D01*
X118495506Y-76094463D01*
X118398815Y-76173815D01*
X118319463Y-76270506D01*
X118260498Y-76380820D01*
X118224188Y-76500518D01*
X118211928Y-76625000D01*
X118211928Y-77017851D01*
X116702024Y-75507948D01*
X116774482Y-75500812D01*
X116894180Y-75464502D01*
X117000000Y-75407939D01*
X117105820Y-75464502D01*
X117225518Y-75500812D01*
X117350000Y-75513072D01*
X117464250Y-75510000D01*
X117623000Y-75351250D01*
X117623000Y-74627000D01*
X117877000Y-74627000D01*
X117877000Y-75351250D01*
X118035750Y-75510000D01*
X118150000Y-75513072D01*
X118274482Y-75500812D01*
X118394180Y-75464502D01*
X118504494Y-75405537D01*
X118601185Y-75326185D01*
X118680537Y-75229494D01*
X118739502Y-75119180D01*
X118775812Y-74999482D01*
X118788072Y-74875000D01*
X118785000Y-74785750D01*
X118626250Y-74627000D01*
X117877000Y-74627000D01*
X117623000Y-74627000D01*
X117603000Y-74627000D01*
X117603000Y-74373000D01*
X117623000Y-74373000D01*
X117623000Y-73648750D01*
X117877000Y-73648750D01*
X117877000Y-74373000D01*
X118626250Y-74373000D01*
X118785000Y-74214250D01*
X118788072Y-74125000D01*
X118775812Y-74000518D01*
X118739502Y-73880820D01*
X118680537Y-73770506D01*
X118601185Y-73673815D01*
X118504494Y-73594463D01*
X118394180Y-73535498D01*
X118274482Y-73499188D01*
X118150000Y-73486928D01*
X118035750Y-73490000D01*
X117877000Y-73648750D01*
X117623000Y-73648750D01*
X117464250Y-73490000D01*
X117350000Y-73486928D01*
X117225518Y-73499188D01*
X117105820Y-73535498D01*
X117000000Y-73592061D01*
X116894180Y-73535498D01*
X116774482Y-73499188D01*
X116650000Y-73486928D01*
X115850000Y-73486928D01*
X115725518Y-73499188D01*
X115605820Y-73535498D01*
X115495506Y-73594463D01*
X115398815Y-73673815D01*
X115346140Y-73738000D01*
X114932075Y-73738000D01*
X114563220Y-73369145D01*
X114503556Y-73296444D01*
X114213482Y-73058387D01*
X113882539Y-72881494D01*
X113523445Y-72772564D01*
X113243582Y-72745000D01*
X113243580Y-72745000D01*
X113150000Y-72735783D01*
X113056420Y-72745000D01*
X110405000Y-72745000D01*
X110405000Y-72738072D01*
X111450000Y-72738072D01*
X111574482Y-72725812D01*
X111694180Y-72689502D01*
X111804494Y-72630537D01*
X111901185Y-72551185D01*
X111980537Y-72454494D01*
X112039502Y-72344180D01*
X112075812Y-72224482D01*
X112088072Y-72100000D01*
X112088072Y-71650000D01*
X113986928Y-71650000D01*
X113999188Y-71774482D01*
X114035498Y-71894180D01*
X114094463Y-72004494D01*
X114173815Y-72101185D01*
X114270506Y-72180537D01*
X114380820Y-72239502D01*
X114500518Y-72275812D01*
X114625000Y-72288072D01*
X114714250Y-72285000D01*
X114873000Y-72126250D01*
X114873000Y-71377000D01*
X115127000Y-71377000D01*
X115127000Y-72126250D01*
X115285750Y-72285000D01*
X115375000Y-72288072D01*
X115499482Y-72275812D01*
X115619180Y-72239502D01*
X115729494Y-72180537D01*
X115826185Y-72101185D01*
X115905537Y-72004494D01*
X115964502Y-71894180D01*
X116000812Y-71774482D01*
X116013072Y-71650000D01*
X123486928Y-71650000D01*
X123499188Y-71774482D01*
X123535498Y-71894180D01*
X123594463Y-72004494D01*
X123673815Y-72101185D01*
X123770506Y-72180537D01*
X123880820Y-72239502D01*
X124000518Y-72275812D01*
X124125000Y-72288072D01*
X124214250Y-72285000D01*
X124373000Y-72126250D01*
X124373000Y-71377000D01*
X124627000Y-71377000D01*
X124627000Y-72126250D01*
X124785750Y-72285000D01*
X124875000Y-72288072D01*
X124999482Y-72275812D01*
X125119180Y-72239502D01*
X125229494Y-72180537D01*
X125326185Y-72101185D01*
X125405537Y-72004494D01*
X125464502Y-71894180D01*
X125500812Y-71774482D01*
X125513072Y-71650000D01*
X125510000Y-71535750D01*
X125351250Y-71377000D01*
X124627000Y-71377000D01*
X124373000Y-71377000D01*
X123648750Y-71377000D01*
X123490000Y-71535750D01*
X123486928Y-71650000D01*
X116013072Y-71650000D01*
X116010000Y-71535750D01*
X115851250Y-71377000D01*
X115127000Y-71377000D01*
X114873000Y-71377000D01*
X114148750Y-71377000D01*
X113990000Y-71535750D01*
X113986928Y-71650000D01*
X112088072Y-71650000D01*
X112088072Y-70400000D01*
X112075812Y-70275518D01*
X112039502Y-70155820D01*
X111980537Y-70045506D01*
X111901185Y-69948815D01*
X111804494Y-69869463D01*
X111694180Y-69810498D01*
X111574482Y-69774188D01*
X111450000Y-69761928D01*
X109567797Y-69761928D01*
X109563482Y-69758387D01*
X109232539Y-69581494D01*
X108873445Y-69472564D01*
X108500000Y-69435783D01*
X108126556Y-69472564D01*
X107767462Y-69581494D01*
X107436519Y-69758387D01*
X107432204Y-69761928D01*
X105550000Y-69761928D01*
X105425518Y-69774188D01*
X105305820Y-69810498D01*
X105195506Y-69869463D01*
X105098815Y-69948815D01*
X105019463Y-70045506D01*
X104960498Y-70155820D01*
X104924188Y-70275518D01*
X104911928Y-70400000D01*
X56627000Y-70400000D01*
X56627000Y-61627000D01*
X131373000Y-61627000D01*
X131373000Y-64595000D01*
X131373000Y-64595000D01*
G37*
X131373000Y-64595000D02*
X121489088Y-64595000D01*
X121451185Y-64548815D01*
X121354494Y-64469463D01*
X121244180Y-64410498D01*
X121124482Y-64374188D01*
X121000000Y-64361928D01*
X120976563Y-64361928D01*
X120923579Y-64333608D01*
X120786040Y-64254616D01*
X120758330Y-64245280D01*
X120732538Y-64231494D01*
X120580722Y-64185441D01*
X120430429Y-64134805D01*
X120401435Y-64131055D01*
X120373444Y-64122564D01*
X120215556Y-64107013D01*
X120058277Y-64086671D01*
X120029106Y-64088650D01*
X120000000Y-64085783D01*
X119842114Y-64101333D01*
X119683886Y-64112066D01*
X119655663Y-64119697D01*
X119626555Y-64122564D01*
X119474731Y-64168619D01*
X119321642Y-64210013D01*
X119295450Y-64223004D01*
X119267461Y-64231494D01*
X119127549Y-64306278D01*
X119015347Y-64361928D01*
X119000000Y-64361928D01*
X118875518Y-64374188D01*
X118755820Y-64410498D01*
X118645506Y-64469463D01*
X118548815Y-64548815D01*
X118469463Y-64645506D01*
X118416282Y-64745000D01*
X108406418Y-64745000D01*
X108126555Y-64772564D01*
X107767461Y-64881494D01*
X107436518Y-65058387D01*
X107188502Y-65261928D01*
X105550000Y-65261928D01*
X105425518Y-65274188D01*
X105305820Y-65310498D01*
X105195506Y-65369463D01*
X105098815Y-65448815D01*
X105019463Y-65545506D01*
X104960498Y-65655820D01*
X104924188Y-65775518D01*
X104911928Y-65900000D01*
X104911928Y-67600000D01*
X104924188Y-67724482D01*
X104960498Y-67844180D01*
X105019463Y-67954494D01*
X105098815Y-68051185D01*
X105195506Y-68130537D01*
X105305820Y-68189502D01*
X105425518Y-68225812D01*
X105550000Y-68238072D01*
X107432203Y-68238072D01*
X107436518Y-68241613D01*
X107767461Y-68418506D01*
X108126555Y-68527436D01*
X108406418Y-68555000D01*
X114238000Y-68555000D01*
X114238000Y-68846140D01*
X114173815Y-68898815D01*
X114094463Y-68995506D01*
X114035498Y-69105820D01*
X113999188Y-69225518D01*
X113986928Y-69350000D01*
X113986928Y-70150000D01*
X113999188Y-70274482D01*
X114035498Y-70394180D01*
X114092061Y-70500000D01*
X114035498Y-70605820D01*
X113999188Y-70725518D01*
X113986928Y-70850000D01*
X113990000Y-70964250D01*
X114148750Y-71123000D01*
X114873000Y-71123000D01*
X114873000Y-71103000D01*
X115127000Y-71103000D01*
X115127000Y-71123000D01*
X115851250Y-71123000D01*
X116010000Y-70964250D01*
X116013072Y-70850000D01*
X116000812Y-70725518D01*
X115964502Y-70605820D01*
X115907939Y-70500000D01*
X115964502Y-70394180D01*
X116000812Y-70274482D01*
X116013072Y-70150000D01*
X116013072Y-69350000D01*
X116000812Y-69225518D01*
X115964502Y-69105820D01*
X115905537Y-68995506D01*
X115826185Y-68898815D01*
X115762000Y-68846140D01*
X115762000Y-68555000D01*
X119727325Y-68555000D01*
X119791723Y-68563329D01*
X119820895Y-68561350D01*
X119850000Y-68564217D01*
X119943580Y-68555000D01*
X119943582Y-68555000D01*
X120007867Y-68548668D01*
X120166114Y-68537935D01*
X120194342Y-68530302D01*
X120223445Y-68527436D01*
X120375257Y-68481384D01*
X120528358Y-68439987D01*
X120554550Y-68426996D01*
X120582539Y-68418506D01*
X120607807Y-68405000D01*
X123738000Y-68405000D01*
X123738000Y-68846140D01*
X123673815Y-68898815D01*
X123594463Y-68995506D01*
X123535498Y-69105820D01*
X123499188Y-69225518D01*
X123486928Y-69350000D01*
X123486928Y-70150000D01*
X123499188Y-70274482D01*
X123535498Y-70394180D01*
X123592061Y-70500000D01*
X123535498Y-70605820D01*
X123499188Y-70725518D01*
X123486928Y-70850000D01*
X123490000Y-70964250D01*
X123648750Y-71123000D01*
X124373000Y-71123000D01*
X124373000Y-71103000D01*
X124627000Y-71103000D01*
X124627000Y-71123000D01*
X125351250Y-71123000D01*
X125510000Y-70964250D01*
X125513072Y-70850000D01*
X125500812Y-70725518D01*
X125464502Y-70605820D01*
X125407939Y-70500000D01*
X125464502Y-70394180D01*
X125500812Y-70274482D01*
X125513072Y-70150000D01*
X125513072Y-69350000D01*
X125500812Y-69225518D01*
X125464502Y-69105820D01*
X125405537Y-68995506D01*
X125326185Y-68898815D01*
X125262000Y-68846140D01*
X125262000Y-68405000D01*
X131373000Y-68405000D01*
X131373000Y-114373000D01*
X56627000Y-114373000D01*
X56627000Y-107031750D01*
X92815000Y-107031750D01*
X92826896Y-107137397D01*
X92865674Y-107256318D01*
X92926907Y-107365389D01*
X93008242Y-107460419D01*
X93106553Y-107537755D01*
X93218063Y-107594425D01*
X93338486Y-107628252D01*
X93463195Y-107637936D01*
X93614250Y-107635000D01*
X93773000Y-107476250D01*
X93773000Y-106873000D01*
X94027000Y-106873000D01*
X94027000Y-107476250D01*
X94185750Y-107635000D01*
X94336805Y-107637936D01*
X94461514Y-107628252D01*
X94581937Y-107594425D01*
X94693447Y-107537755D01*
X94791758Y-107460419D01*
X94873093Y-107365389D01*
X94900000Y-107317461D01*
X94926907Y-107365389D01*
X95008242Y-107460419D01*
X95106553Y-107537755D01*
X95218063Y-107594425D01*
X95338486Y-107628252D01*
X95463195Y-107637936D01*
X95614250Y-107635000D01*
X95773000Y-107476250D01*
X95773000Y-106873000D01*
X96027000Y-106873000D01*
X96027000Y-107476250D01*
X96185750Y-107635000D01*
X96336805Y-107637936D01*
X96461514Y-107628252D01*
X96581937Y-107594425D01*
X96693447Y-107537755D01*
X96791758Y-107460419D01*
X96873093Y-107365389D01*
X96934326Y-107256318D01*
X96973104Y-107137397D01*
X96985000Y-107031750D01*
X96826250Y-106873000D01*
X96027000Y-106873000D01*
X95773000Y-106873000D01*
X94973750Y-106873000D01*
X94900000Y-106946750D01*
X94826250Y-106873000D01*
X94027000Y-106873000D01*
X93773000Y-106873000D01*
X92973750Y-106873000D01*
X92815000Y-107031750D01*
X56627000Y-107031750D01*
X56627000Y-103630000D01*
X85996928Y-103630000D01*
X86009188Y-103754482D01*
X86045498Y-103874180D01*
X86104463Y-103984494D01*
X86183815Y-104081185D01*
X86280506Y-104160537D01*
X86390820Y-104219502D01*
X86510518Y-104255812D01*
X86635000Y-104268072D01*
X86669250Y-104265000D01*
X86828000Y-104106250D01*
X86828000Y-103437000D01*
X87082000Y-103437000D01*
X87082000Y-104106250D01*
X87240750Y-104265000D01*
X87275000Y-104268072D01*
X87399482Y-104255812D01*
X87519180Y-104219502D01*
X87590000Y-104181647D01*
X87660820Y-104219502D01*
X87780518Y-104255812D01*
X87905000Y-104268072D01*
X87939250Y-104265000D01*
X88098000Y-104106250D01*
X88098000Y-103437000D01*
X88352000Y-103437000D01*
X88352000Y-104106250D01*
X88510750Y-104265000D01*
X88545000Y-104268072D01*
X88669482Y-104255812D01*
X88789180Y-104219502D01*
X88860000Y-104181647D01*
X88930820Y-104219502D01*
X89050518Y-104255812D01*
X89175000Y-104268072D01*
X89209250Y-104265000D01*
X89368000Y-104106250D01*
X89368000Y-103437000D01*
X89622000Y-103437000D01*
X89622000Y-104106250D01*
X89780750Y-104265000D01*
X89815000Y-104268072D01*
X89939482Y-104255812D01*
X90059180Y-104219502D01*
X90130000Y-104181647D01*
X90200820Y-104219502D01*
X90320518Y-104255812D01*
X90445000Y-104268072D01*
X90479250Y-104265000D01*
X90638000Y-104106250D01*
X90638000Y-103437000D01*
X90892000Y-103437000D01*
X90892000Y-104106250D01*
X91050750Y-104265000D01*
X91085000Y-104268072D01*
X91209482Y-104255812D01*
X91329180Y-104219502D01*
X91400000Y-104181647D01*
X91470820Y-104219502D01*
X91590518Y-104255812D01*
X91715000Y-104268072D01*
X91749250Y-104265000D01*
X91908000Y-104106250D01*
X91908000Y-103437000D01*
X90892000Y-103437000D01*
X90638000Y-103437000D01*
X89622000Y-103437000D01*
X89368000Y-103437000D01*
X88352000Y-103437000D01*
X88098000Y-103437000D01*
X87082000Y-103437000D01*
X86828000Y-103437000D01*
X86158750Y-103437000D01*
X86000000Y-103595750D01*
X85996928Y-103630000D01*
X56627000Y-103630000D01*
X56627000Y-102360000D01*
X85996928Y-102360000D01*
X86009188Y-102484482D01*
X86045498Y-102604180D01*
X86083353Y-102675000D01*
X86045498Y-102745820D01*
X86009188Y-102865518D01*
X85996928Y-102990000D01*
X86000000Y-103024250D01*
X86158750Y-103183000D01*
X86828000Y-103183000D01*
X86828000Y-102167000D01*
X87082000Y-102167000D01*
X87082000Y-103183000D01*
X88098000Y-103183000D01*
X88098000Y-102167000D01*
X88352000Y-102167000D01*
X88352000Y-103183000D01*
X89368000Y-103183000D01*
X89368000Y-102167000D01*
X89622000Y-102167000D01*
X89622000Y-103183000D01*
X90638000Y-103183000D01*
X90638000Y-102167000D01*
X90892000Y-102167000D01*
X90892000Y-103183000D01*
X91908000Y-103183000D01*
X91908000Y-102167000D01*
X90892000Y-102167000D01*
X90638000Y-102167000D01*
X89622000Y-102167000D01*
X89368000Y-102167000D01*
X88352000Y-102167000D01*
X88098000Y-102167000D01*
X87082000Y-102167000D01*
X86828000Y-102167000D01*
X86158750Y-102167000D01*
X86000000Y-102325750D01*
X85996928Y-102360000D01*
X56627000Y-102360000D01*
X56627000Y-101090000D01*
X85996928Y-101090000D01*
X86009188Y-101214482D01*
X86045498Y-101334180D01*
X86083353Y-101405000D01*
X86045498Y-101475820D01*
X86009188Y-101595518D01*
X85996928Y-101720000D01*
X86000000Y-101754250D01*
X86158750Y-101913000D01*
X86828000Y-101913000D01*
X86828000Y-100897000D01*
X87082000Y-100897000D01*
X87082000Y-101913000D01*
X88098000Y-101913000D01*
X88098000Y-100897000D01*
X88352000Y-100897000D01*
X88352000Y-101913000D01*
X89368000Y-101913000D01*
X89368000Y-100897000D01*
X89622000Y-100897000D01*
X89622000Y-101913000D01*
X90638000Y-101913000D01*
X90638000Y-100897000D01*
X90892000Y-100897000D01*
X90892000Y-101913000D01*
X91908000Y-101913000D01*
X91908000Y-100897000D01*
X90892000Y-100897000D01*
X90638000Y-100897000D01*
X89622000Y-100897000D01*
X89368000Y-100897000D01*
X88352000Y-100897000D01*
X88098000Y-100897000D01*
X87082000Y-100897000D01*
X86828000Y-100897000D01*
X86158750Y-100897000D01*
X86000000Y-101055750D01*
X85996928Y-101090000D01*
X56627000Y-101090000D01*
X56627000Y-97000000D01*
X81585783Y-97000000D01*
X81595000Y-97093580D01*
X81595000Y-97187626D01*
X81613348Y-97279868D01*
X81622565Y-97373445D01*
X81649861Y-97463428D01*
X81668209Y-97555668D01*
X81704199Y-97642556D01*
X81731495Y-97732539D01*
X81775820Y-97815466D01*
X81811811Y-97902356D01*
X81864061Y-97980553D01*
X81908387Y-98063482D01*
X81968042Y-98136171D01*
X82020290Y-98214366D01*
X82086792Y-98280868D01*
X82146445Y-98353555D01*
X82219132Y-98413208D01*
X82285634Y-98479710D01*
X82363829Y-98531958D01*
X82436518Y-98591613D01*
X82519447Y-98635939D01*
X82597644Y-98688189D01*
X82684534Y-98724180D01*
X82767461Y-98768505D01*
X82857444Y-98795801D01*
X82944332Y-98831791D01*
X83036572Y-98850139D01*
X83126555Y-98877435D01*
X83220132Y-98886652D01*
X83312374Y-98905000D01*
X83406420Y-98905000D01*
X83500000Y-98914217D01*
X83593580Y-98905000D01*
X83687626Y-98905000D01*
X83779868Y-98886652D01*
X83873445Y-98877435D01*
X83888498Y-98872869D01*
X83950987Y-98949013D01*
X84047213Y-99027983D01*
X84156996Y-99086664D01*
X84276118Y-99122799D01*
X84400000Y-99135000D01*
X86001360Y-99135000D01*
X85996928Y-99180000D01*
X85996928Y-99820000D01*
X86009188Y-99944482D01*
X86045498Y-100064180D01*
X86083353Y-100135000D01*
X86045498Y-100205820D01*
X86009188Y-100325518D01*
X85996928Y-100450000D01*
X86000000Y-100484250D01*
X86158750Y-100643000D01*
X86828000Y-100643000D01*
X86828000Y-100623000D01*
X87082000Y-100623000D01*
X87082000Y-100643000D01*
X88098000Y-100643000D01*
X88098000Y-100623000D01*
X88352000Y-100623000D01*
X88352000Y-100643000D01*
X89368000Y-100643000D01*
X89368000Y-100623000D01*
X89622000Y-100623000D01*
X89622000Y-100643000D01*
X90638000Y-100643000D01*
X90638000Y-99627000D01*
X90892000Y-99627000D01*
X90892000Y-100643000D01*
X91908000Y-100643000D01*
X91908000Y-99627000D01*
X92162000Y-99627000D01*
X92162000Y-100643000D01*
X92182000Y-100643000D01*
X92182000Y-100897000D01*
X92162000Y-100897000D01*
X92162000Y-101913000D01*
X93178000Y-101913000D01*
X93178000Y-101893000D01*
X93432000Y-101893000D01*
X93432000Y-101913000D01*
X93452000Y-101913000D01*
X93452000Y-102167000D01*
X93432000Y-102167000D01*
X93432000Y-102187000D01*
X93178000Y-102187000D01*
X93178000Y-102167000D01*
X92162000Y-102167000D01*
X92162000Y-103183000D01*
X92182000Y-103183000D01*
X92182000Y-103437000D01*
X92162000Y-103437000D01*
X92162000Y-104106250D01*
X92320750Y-104265000D01*
X92355000Y-104268072D01*
X92479482Y-104255812D01*
X92599180Y-104219502D01*
X92670000Y-104181647D01*
X92740820Y-104219502D01*
X92860518Y-104255812D01*
X92985000Y-104268072D01*
X93138001Y-104268072D01*
X93138001Y-104446749D01*
X93095506Y-104469463D01*
X92998815Y-104548815D01*
X92919463Y-104645506D01*
X92860498Y-104755820D01*
X92824188Y-104875518D01*
X92811928Y-105000000D01*
X92811928Y-105500000D01*
X92824188Y-105624482D01*
X92860498Y-105744180D01*
X92919463Y-105854494D01*
X92998815Y-105951185D01*
X93058425Y-106000105D01*
X93008242Y-106039581D01*
X92926907Y-106134611D01*
X92865674Y-106243682D01*
X92826896Y-106362603D01*
X92815000Y-106468250D01*
X92973750Y-106627000D01*
X93773000Y-106627000D01*
X93773000Y-106603000D01*
X94027000Y-106603000D01*
X94027000Y-106627000D01*
X94826250Y-106627000D01*
X94900000Y-106553250D01*
X94973750Y-106627000D01*
X95773000Y-106627000D01*
X95773000Y-106603000D01*
X96027000Y-106603000D01*
X96027000Y-106627000D01*
X96826250Y-106627000D01*
X96985000Y-106468250D01*
X96973104Y-106362603D01*
X96934326Y-106243682D01*
X96873093Y-106134611D01*
X96791758Y-106039581D01*
X96741575Y-106000105D01*
X96801185Y-105951185D01*
X96880537Y-105854494D01*
X96939502Y-105744180D01*
X96975812Y-105624482D01*
X96988072Y-105500000D01*
X96988072Y-105000000D01*
X96975812Y-104875518D01*
X96939502Y-104755820D01*
X96880537Y-104645506D01*
X96801185Y-104548815D01*
X96704494Y-104469463D01*
X96662000Y-104446749D01*
X96662000Y-104037423D01*
X96663350Y-104023714D01*
X96695537Y-103984494D01*
X96754502Y-103874180D01*
X96790812Y-103754482D01*
X96803072Y-103630000D01*
X96803072Y-102990000D01*
X96790812Y-102865518D01*
X96754502Y-102745820D01*
X96716647Y-102675000D01*
X96754502Y-102604180D01*
X96790812Y-102484482D01*
X96803072Y-102360000D01*
X96803072Y-101720000D01*
X96790812Y-101595518D01*
X96754502Y-101475820D01*
X96716647Y-101405000D01*
X96754502Y-101334180D01*
X96790812Y-101214482D01*
X96803072Y-101090000D01*
X96803072Y-100450000D01*
X96797500Y-100393425D01*
X96797500Y-100135000D01*
X99400000Y-100135000D01*
X99523882Y-100122799D01*
X99643004Y-100086664D01*
X99752787Y-100027983D01*
X99849013Y-99949013D01*
X99927983Y-99852787D01*
X99986664Y-99743004D01*
X100022799Y-99623882D01*
X100035000Y-99500000D01*
X100035000Y-99108790D01*
X100095001Y-99118609D01*
X100095000Y-103863742D01*
X99771075Y-106116497D01*
X99758526Y-106397433D01*
X99815238Y-106768375D01*
X99943228Y-107121125D01*
X100137577Y-107442128D01*
X100390816Y-107719047D01*
X100693213Y-107941241D01*
X101033147Y-108100171D01*
X101397556Y-108189729D01*
X101772433Y-108206474D01*
X102143375Y-108149762D01*
X102496125Y-108021772D01*
X102817128Y-107827423D01*
X103094047Y-107574184D01*
X103316241Y-107271787D01*
X103475171Y-106931853D01*
X103542287Y-106658762D01*
X103864999Y-104414444D01*
X103877436Y-104373445D01*
X103891659Y-104229035D01*
X103898925Y-104178504D01*
X103900825Y-104135974D01*
X103905000Y-104093582D01*
X103905000Y-104042502D01*
X103911474Y-103897567D01*
X103905000Y-103855222D01*
X103905000Y-98289076D01*
X104439076Y-97755000D01*
X108593582Y-97755000D01*
X108873445Y-97727436D01*
X109232539Y-97618506D01*
X109563482Y-97441613D01*
X109811498Y-97238072D01*
X111450000Y-97238072D01*
X111574482Y-97225812D01*
X111694180Y-97189502D01*
X111804494Y-97130537D01*
X111901185Y-97051185D01*
X111980537Y-96954494D01*
X112039502Y-96844180D01*
X112075812Y-96724482D01*
X112088072Y-96600000D01*
X112088072Y-95282429D01*
X112146444Y-95353556D01*
X112219145Y-95413220D01*
X115660666Y-98854743D01*
X115596694Y-102389223D01*
X115585783Y-102500000D01*
X115602487Y-102669602D01*
X115616114Y-102839408D01*
X115620859Y-102856134D01*
X115622564Y-102873445D01*
X115672038Y-103036540D01*
X115718528Y-103200415D01*
X115726445Y-103215893D01*
X115731494Y-103232539D01*
X115811835Y-103382846D01*
X115861928Y-103480787D01*
X115861928Y-103500000D01*
X115874188Y-103624482D01*
X115910498Y-103744180D01*
X115969463Y-103854494D01*
X116048815Y-103951185D01*
X116145506Y-104030537D01*
X116255820Y-104089502D01*
X116375518Y-104125812D01*
X116500000Y-104138072D01*
X116523437Y-104138072D01*
X116586845Y-104171965D01*
X116735578Y-104254959D01*
X116752119Y-104260305D01*
X116767461Y-104268506D01*
X116930554Y-104317980D01*
X117092641Y-104370370D01*
X117109911Y-104372387D01*
X117126555Y-104377436D01*
X117296153Y-104394140D01*
X117465360Y-104413903D01*
X117576302Y-104405000D01*
X117593582Y-104405000D01*
X117669599Y-104397513D01*
X117839408Y-104383886D01*
X117856134Y-104379141D01*
X117873445Y-104377436D01*
X118036540Y-104327962D01*
X118200415Y-104281472D01*
X118215893Y-104273555D01*
X118232539Y-104268506D01*
X118382846Y-104188165D01*
X118480787Y-104138072D01*
X118500000Y-104138072D01*
X118624482Y-104125812D01*
X118744180Y-104089502D01*
X118854494Y-104030537D01*
X118951185Y-103951185D01*
X119030537Y-103854494D01*
X119089502Y-103744180D01*
X119125812Y-103624482D01*
X119138072Y-103500000D01*
X119138072Y-103476563D01*
X119171965Y-103413155D01*
X119254959Y-103264422D01*
X119260305Y-103247881D01*
X119268506Y-103232539D01*
X119317980Y-103069446D01*
X119370370Y-102907359D01*
X119372387Y-102890089D01*
X119377436Y-102873445D01*
X119394140Y-102703846D01*
X119402994Y-102628040D01*
X119403306Y-102610777D01*
X119414217Y-102500000D01*
X119406694Y-102423617D01*
X119454868Y-99762000D01*
X120346140Y-99762000D01*
X120398815Y-99826185D01*
X120495506Y-99905537D01*
X120605820Y-99964502D01*
X120725518Y-100000812D01*
X120850000Y-100013072D01*
X121650000Y-100013072D01*
X121774482Y-100000812D01*
X121894180Y-99964502D01*
X122000000Y-99907939D01*
X122105820Y-99964502D01*
X122225518Y-100000812D01*
X122350000Y-100013072D01*
X122464250Y-100010000D01*
X122623000Y-99851250D01*
X122623000Y-99127000D01*
X122877000Y-99127000D01*
X122877000Y-99851250D01*
X123035750Y-100010000D01*
X123150000Y-100013072D01*
X123274482Y-100000812D01*
X123394180Y-99964502D01*
X123504494Y-99905537D01*
X123601185Y-99826185D01*
X123680537Y-99729494D01*
X123739502Y-99619180D01*
X123775812Y-99499482D01*
X123788072Y-99375000D01*
X123785000Y-99285750D01*
X123626250Y-99127000D01*
X122877000Y-99127000D01*
X122623000Y-99127000D01*
X122603000Y-99127000D01*
X122603000Y-98873000D01*
X122623000Y-98873000D01*
X122623000Y-98148750D01*
X122474250Y-98000000D01*
X122623000Y-97851250D01*
X122623000Y-97127000D01*
X122877000Y-97127000D01*
X122877000Y-97851250D01*
X123025750Y-98000000D01*
X122877000Y-98148750D01*
X122877000Y-98873000D01*
X123626250Y-98873000D01*
X123785000Y-98714250D01*
X123788072Y-98625000D01*
X123775812Y-98500518D01*
X123739502Y-98380820D01*
X123680537Y-98270506D01*
X123601185Y-98173815D01*
X123504494Y-98094463D01*
X123394180Y-98035498D01*
X123277159Y-98000000D01*
X123394180Y-97964502D01*
X123504494Y-97905537D01*
X123601185Y-97826185D01*
X123680537Y-97729494D01*
X123739502Y-97619180D01*
X123775812Y-97499482D01*
X123788072Y-97375000D01*
X123785000Y-97285750D01*
X123626250Y-97127000D01*
X122877000Y-97127000D01*
X122623000Y-97127000D01*
X122603000Y-97127000D01*
X122603000Y-96873000D01*
X122623000Y-96873000D01*
X122623000Y-96148750D01*
X122877000Y-96148750D01*
X122877000Y-96873000D01*
X123626250Y-96873000D01*
X123785000Y-96714250D01*
X123788072Y-96625000D01*
X123775812Y-96500518D01*
X123739502Y-96380820D01*
X123680537Y-96270506D01*
X123601185Y-96173815D01*
X123504494Y-96094463D01*
X123394180Y-96035498D01*
X123274482Y-95999188D01*
X123150000Y-95986928D01*
X123035750Y-95990000D01*
X122877000Y-96148750D01*
X122623000Y-96148750D01*
X122464250Y-95990000D01*
X122350000Y-95986928D01*
X122225518Y-95999188D01*
X122105820Y-96035498D01*
X122000000Y-96092061D01*
X121894180Y-96035498D01*
X121774482Y-95999188D01*
X121650000Y-95986928D01*
X120850000Y-95986928D01*
X120725518Y-95999188D01*
X120605820Y-96035498D01*
X120495506Y-96094463D01*
X120398815Y-96173815D01*
X120346140Y-96238000D01*
X118697423Y-96238000D01*
X118660000Y-96234314D01*
X118622577Y-96238000D01*
X118622574Y-96238000D01*
X118510622Y-96249026D01*
X118458818Y-96264741D01*
X115405000Y-93210925D01*
X115405000Y-91593580D01*
X115414217Y-91500000D01*
X115405000Y-91406418D01*
X115377436Y-91126555D01*
X115268506Y-90767461D01*
X115091613Y-90436518D01*
X114853556Y-90146444D01*
X114780859Y-90086783D01*
X114563219Y-89869144D01*
X114503556Y-89796444D01*
X114213482Y-89558387D01*
X113882539Y-89381494D01*
X113523445Y-89272564D01*
X113243582Y-89245000D01*
X113243580Y-89245000D01*
X113150000Y-89235783D01*
X113056420Y-89245000D01*
X110405000Y-89245000D01*
X110405000Y-88738072D01*
X111450000Y-88738072D01*
X111574482Y-88725812D01*
X111694180Y-88689502D01*
X111804494Y-88630537D01*
X111901185Y-88551185D01*
X111980537Y-88454494D01*
X112039502Y-88344180D01*
X112075812Y-88224482D01*
X112088072Y-88100000D01*
X112088072Y-86400000D01*
X112075812Y-86275518D01*
X112039502Y-86155820D01*
X111980537Y-86045506D01*
X111901185Y-85948815D01*
X111804494Y-85869463D01*
X111694180Y-85810498D01*
X111574482Y-85774188D01*
X111450000Y-85761928D01*
X109567797Y-85761928D01*
X109563482Y-85758387D01*
X109232539Y-85581494D01*
X108873445Y-85472564D01*
X108500000Y-85435783D01*
X108126556Y-85472564D01*
X107767462Y-85581494D01*
X107436519Y-85758387D01*
X107432204Y-85761928D01*
X105550000Y-85761928D01*
X105425518Y-85774188D01*
X105305820Y-85810498D01*
X105195506Y-85869463D01*
X105098815Y-85948815D01*
X105019463Y-86045506D01*
X104960498Y-86155820D01*
X104924188Y-86275518D01*
X104911928Y-86400000D01*
X104911928Y-88100000D01*
X104924188Y-88224482D01*
X104960498Y-88344180D01*
X105019463Y-88454494D01*
X105098815Y-88551185D01*
X105195506Y-88630537D01*
X105305820Y-88689502D01*
X105425518Y-88725812D01*
X105550000Y-88738072D01*
X106595001Y-88738072D01*
X106595000Y-89761928D01*
X105550000Y-89761928D01*
X105425518Y-89774188D01*
X105305820Y-89810498D01*
X105195506Y-89869463D01*
X105098815Y-89948815D01*
X105019463Y-90045506D01*
X104960498Y-90155820D01*
X104924188Y-90275518D01*
X104911928Y-90400000D01*
X104911928Y-92100000D01*
X104924188Y-92224482D01*
X104960498Y-92344180D01*
X105019463Y-92454494D01*
X105098815Y-92551185D01*
X105195506Y-92630537D01*
X105305820Y-92689502D01*
X105425518Y-92725812D01*
X105550000Y-92738072D01*
X107432203Y-92738072D01*
X107436518Y-92741613D01*
X107767461Y-92918506D01*
X108126555Y-93027436D01*
X108500000Y-93064217D01*
X108593582Y-93055000D01*
X111595000Y-93055000D01*
X111595000Y-93906420D01*
X111585783Y-94000000D01*
X111595000Y-94093580D01*
X111595000Y-94093581D01*
X111613968Y-94286166D01*
X111574482Y-94274188D01*
X111450000Y-94261928D01*
X109567797Y-94261928D01*
X109563482Y-94258387D01*
X109232539Y-94081494D01*
X108873445Y-93972564D01*
X108593582Y-93945000D01*
X103743571Y-93945000D01*
X103649999Y-93935784D01*
X103556427Y-93945000D01*
X103556418Y-93945000D01*
X103276555Y-93972564D01*
X102917461Y-94081494D01*
X102586518Y-94258387D01*
X102296444Y-94496444D01*
X102236788Y-94569135D01*
X101343661Y-95462263D01*
X100035000Y-95248119D01*
X100035000Y-94500000D01*
X100022799Y-94376118D01*
X99986664Y-94256996D01*
X99927983Y-94147213D01*
X99849013Y-94050987D01*
X99752787Y-93972017D01*
X99643004Y-93913336D01*
X99523882Y-93877201D01*
X99400000Y-93865000D01*
X99053889Y-93865000D01*
X99101185Y-93826185D01*
X99180537Y-93729494D01*
X99239502Y-93619180D01*
X99275812Y-93499482D01*
X99288072Y-93375000D01*
X99285000Y-93285750D01*
X99126250Y-93127000D01*
X98377000Y-93127000D01*
X98377000Y-93147000D01*
X98123000Y-93147000D01*
X98123000Y-93127000D01*
X98103000Y-93127000D01*
X98103000Y-92873000D01*
X98123000Y-92873000D01*
X98123000Y-92148750D01*
X98377000Y-92148750D01*
X98377000Y-92873000D01*
X99126250Y-92873000D01*
X99285000Y-92714250D01*
X99288072Y-92625000D01*
X99275812Y-92500518D01*
X99239502Y-92380820D01*
X99180537Y-92270506D01*
X99101185Y-92173815D01*
X99004494Y-92094463D01*
X98894180Y-92035498D01*
X98774482Y-91999188D01*
X98650000Y-91986928D01*
X98535750Y-91990000D01*
X98377000Y-92148750D01*
X98123000Y-92148750D01*
X97964250Y-91990000D01*
X97850000Y-91986928D01*
X97725518Y-91999188D01*
X97605820Y-92035498D01*
X97500000Y-92092061D01*
X97394180Y-92035498D01*
X97274482Y-91999188D01*
X97150000Y-91986928D01*
X96350000Y-91986928D01*
X96225518Y-91999188D01*
X96105820Y-92035498D01*
X95995506Y-92094463D01*
X95898815Y-92173815D01*
X95819463Y-92270506D01*
X95760498Y-92380820D01*
X95724188Y-92500518D01*
X95711928Y-92625000D01*
X95711928Y-93375000D01*
X95724188Y-93499482D01*
X95760498Y-93619180D01*
X95819463Y-93729494D01*
X95898815Y-93826185D01*
X95946111Y-93865000D01*
X93900000Y-93865000D01*
X93776118Y-93877201D01*
X93656996Y-93913336D01*
X93547213Y-93972017D01*
X93450987Y-94050987D01*
X93372017Y-94147213D01*
X93313336Y-94256996D01*
X93277201Y-94376118D01*
X93265000Y-94500000D01*
X93265000Y-99500000D01*
X93277201Y-99623882D01*
X93313336Y-99743004D01*
X93350177Y-99811928D01*
X92992348Y-99811928D01*
X92990000Y-99785750D01*
X92831250Y-99627000D01*
X92162000Y-99627000D01*
X91908000Y-99627000D01*
X90892000Y-99627000D01*
X90638000Y-99627000D01*
X90618000Y-99627000D01*
X90618000Y-99373000D01*
X90638000Y-99373000D01*
X90638000Y-98357000D01*
X90892000Y-98357000D01*
X90892000Y-99373000D01*
X91908000Y-99373000D01*
X91908000Y-98357000D01*
X92162000Y-98357000D01*
X92162000Y-99373000D01*
X92831250Y-99373000D01*
X92990000Y-99214250D01*
X92993072Y-99180000D01*
X92980812Y-99055518D01*
X92944502Y-98935820D01*
X92906647Y-98865000D01*
X92944502Y-98794180D01*
X92980812Y-98674482D01*
X92993072Y-98550000D01*
X92990000Y-98515750D01*
X92831250Y-98357000D01*
X92162000Y-98357000D01*
X91908000Y-98357000D01*
X90892000Y-98357000D01*
X90638000Y-98357000D01*
X90618000Y-98357000D01*
X90618000Y-98103000D01*
X90638000Y-98103000D01*
X90638000Y-97087000D01*
X90892000Y-97087000D01*
X90892000Y-98103000D01*
X91908000Y-98103000D01*
X91908000Y-97087000D01*
X92162000Y-97087000D01*
X92162000Y-98103000D01*
X92831250Y-98103000D01*
X92990000Y-97944250D01*
X92993072Y-97910000D01*
X92980812Y-97785518D01*
X92944502Y-97665820D01*
X92906647Y-97595000D01*
X92944502Y-97524180D01*
X92980812Y-97404482D01*
X92993072Y-97280000D01*
X92990000Y-97245750D01*
X92831250Y-97087000D01*
X92162000Y-97087000D01*
X91908000Y-97087000D01*
X90892000Y-97087000D01*
X90638000Y-97087000D01*
X90618000Y-97087000D01*
X90618000Y-96833000D01*
X90638000Y-96833000D01*
X90638000Y-95817000D01*
X90892000Y-95817000D01*
X90892000Y-96833000D01*
X91908000Y-96833000D01*
X91908000Y-95817000D01*
X92162000Y-95817000D01*
X92162000Y-96833000D01*
X92831250Y-96833000D01*
X92990000Y-96674250D01*
X92993072Y-96640000D01*
X92980812Y-96515518D01*
X92944502Y-96395820D01*
X92906647Y-96325000D01*
X92944502Y-96254180D01*
X92980812Y-96134482D01*
X92993072Y-96010000D01*
X92990000Y-95975750D01*
X92831250Y-95817000D01*
X92162000Y-95817000D01*
X91908000Y-95817000D01*
X90892000Y-95817000D01*
X90638000Y-95817000D01*
X90618000Y-95817000D01*
X90618000Y-95563000D01*
X90638000Y-95563000D01*
X90638000Y-94893750D01*
X90892000Y-94893750D01*
X90892000Y-95563000D01*
X91908000Y-95563000D01*
X91908000Y-94893750D01*
X92162000Y-94893750D01*
X92162000Y-95563000D01*
X92831250Y-95563000D01*
X92990000Y-95404250D01*
X92993072Y-95370000D01*
X92980812Y-95245518D01*
X92944502Y-95125820D01*
X92885537Y-95015506D01*
X92806185Y-94918815D01*
X92709494Y-94839463D01*
X92599180Y-94780498D01*
X92479482Y-94744188D01*
X92355000Y-94731928D01*
X92320750Y-94735000D01*
X92162000Y-94893750D01*
X91908000Y-94893750D01*
X91749250Y-94735000D01*
X91715000Y-94731928D01*
X91590518Y-94744188D01*
X91470820Y-94780498D01*
X91400000Y-94818353D01*
X91329180Y-94780498D01*
X91209482Y-94744188D01*
X91085000Y-94731928D01*
X91050750Y-94735000D01*
X90892000Y-94893750D01*
X90638000Y-94893750D01*
X90535000Y-94790750D01*
X90535000Y-94500000D01*
X90522799Y-94376118D01*
X90508053Y-94327505D01*
X90512000Y-94287426D01*
X90512000Y-94287424D01*
X90515686Y-94250001D01*
X90512000Y-94212578D01*
X90512000Y-94031326D01*
X90548815Y-94076185D01*
X90645506Y-94155537D01*
X90755820Y-94214502D01*
X90875518Y-94250812D01*
X91000000Y-94263072D01*
X91214250Y-94260000D01*
X91373000Y-94101250D01*
X91373000Y-93127000D01*
X91627000Y-93127000D01*
X91627000Y-94101250D01*
X91785750Y-94260000D01*
X92000000Y-94263072D01*
X92124482Y-94250812D01*
X92244180Y-94214502D01*
X92354494Y-94155537D01*
X92451185Y-94076185D01*
X92530537Y-93979494D01*
X92589502Y-93869180D01*
X92625812Y-93749482D01*
X92638072Y-93625000D01*
X92635000Y-93285750D01*
X92476250Y-93127000D01*
X91627000Y-93127000D01*
X91373000Y-93127000D01*
X91353000Y-93127000D01*
X91353000Y-92873000D01*
X91373000Y-92873000D01*
X91373000Y-91898750D01*
X91627000Y-91898750D01*
X91627000Y-92873000D01*
X92476250Y-92873000D01*
X92635000Y-92714250D01*
X92638072Y-92375000D01*
X92625812Y-92250518D01*
X92589502Y-92130820D01*
X92530537Y-92020506D01*
X92451185Y-91923815D01*
X92354494Y-91844463D01*
X92244180Y-91785498D01*
X92124482Y-91749188D01*
X92000000Y-91736928D01*
X91785750Y-91740000D01*
X91627000Y-91898750D01*
X91373000Y-91898750D01*
X91214250Y-91740000D01*
X91000000Y-91736928D01*
X90875518Y-91749188D01*
X90755820Y-91785498D01*
X90645506Y-91844463D01*
X90548815Y-91923815D01*
X90500000Y-91983296D01*
X90451185Y-91923815D01*
X90354494Y-91844463D01*
X90244180Y-91785498D01*
X90124482Y-91749188D01*
X90000000Y-91736928D01*
X89000000Y-91736928D01*
X88875518Y-91749188D01*
X88755820Y-91785498D01*
X88645506Y-91844463D01*
X88548815Y-91923815D01*
X88469463Y-92020506D01*
X88410498Y-92130820D01*
X88374188Y-92250518D01*
X88361928Y-92375000D01*
X88361928Y-93625000D01*
X88374188Y-93749482D01*
X88409230Y-93865000D01*
X84400000Y-93865000D01*
X84276118Y-93877201D01*
X84156996Y-93913336D01*
X84047213Y-93972017D01*
X83950987Y-94050987D01*
X83872017Y-94147213D01*
X83813336Y-94256996D01*
X83777201Y-94376118D01*
X83765000Y-94500000D01*
X83765000Y-95055000D01*
X83633582Y-95055000D01*
X83540000Y-95045783D01*
X83446418Y-95055000D01*
X83166555Y-95082564D01*
X82807461Y-95191494D01*
X82476518Y-95368387D01*
X82316789Y-95499473D01*
X82285634Y-95520290D01*
X82259140Y-95546784D01*
X82186444Y-95606444D01*
X82126784Y-95679140D01*
X82020290Y-95785634D01*
X81968041Y-95863830D01*
X81908387Y-95936518D01*
X81864061Y-96019447D01*
X81811811Y-96097644D01*
X81775820Y-96184534D01*
X81731495Y-96267461D01*
X81704199Y-96357444D01*
X81668209Y-96444332D01*
X81649861Y-96536572D01*
X81622565Y-96626555D01*
X81613348Y-96720132D01*
X81595000Y-96812374D01*
X81595000Y-96906420D01*
X81585783Y-97000000D01*
X56627000Y-97000000D01*
X56627000Y-76349344D01*
X99785000Y-76349344D01*
X99785000Y-76720656D01*
X99857439Y-77084834D01*
X99999534Y-77427882D01*
X100205825Y-77736618D01*
X100468382Y-77999175D01*
X100777118Y-78205466D01*
X101120166Y-78347561D01*
X101484344Y-78420000D01*
X101855656Y-78420000D01*
X101956203Y-78400000D01*
X104911928Y-78400000D01*
X104911928Y-80100000D01*
X104924188Y-80224482D01*
X104960498Y-80344180D01*
X105019463Y-80454494D01*
X105098815Y-80551185D01*
X105195506Y-80630537D01*
X105305820Y-80689502D01*
X105425518Y-80725812D01*
X105550000Y-80738072D01*
X106595001Y-80738072D01*
X106595000Y-81261928D01*
X105550000Y-81261928D01*
X105425518Y-81274188D01*
X105305820Y-81310498D01*
X105195506Y-81369463D01*
X105098815Y-81448815D01*
X105019463Y-81545506D01*
X104960498Y-81655820D01*
X104924188Y-81775518D01*
X104911928Y-81900000D01*
X104911928Y-83600000D01*
X104924188Y-83724482D01*
X104960498Y-83844180D01*
X105019463Y-83954494D01*
X105098815Y-84051185D01*
X105195506Y-84130537D01*
X105305820Y-84189502D01*
X105425518Y-84225812D01*
X105550000Y-84238072D01*
X107432203Y-84238072D01*
X107436518Y-84241613D01*
X107767461Y-84418506D01*
X108126555Y-84527436D01*
X108500000Y-84564217D01*
X108593582Y-84555000D01*
X110860924Y-84555000D01*
X112219133Y-85913210D01*
X112219144Y-85913219D01*
X114719134Y-88413210D01*
X114719139Y-88413214D01*
X115648743Y-89342819D01*
X115592949Y-91030590D01*
X115611251Y-91311210D01*
X115708257Y-91673707D01*
X115861928Y-91985573D01*
X115861928Y-92000000D01*
X115874188Y-92124482D01*
X115910498Y-92244180D01*
X115969463Y-92354494D01*
X116048815Y-92451185D01*
X116145506Y-92530537D01*
X116255820Y-92589502D01*
X116375518Y-92625812D01*
X116500000Y-92638072D01*
X116527242Y-92638072D01*
X116709430Y-92743337D01*
X117064729Y-92864072D01*
X117436755Y-92913171D01*
X117811210Y-92888749D01*
X118173707Y-92791743D01*
X118485573Y-92638072D01*
X118500000Y-92638072D01*
X118624482Y-92625812D01*
X118744180Y-92589502D01*
X118854494Y-92530537D01*
X118951185Y-92451185D01*
X119030537Y-92354494D01*
X119089502Y-92244180D01*
X119125812Y-92124482D01*
X119138072Y-92000000D01*
X119138072Y-91972758D01*
X119243337Y-91790570D01*
X119364072Y-91435271D01*
X119400868Y-91156471D01*
X119481909Y-88704953D01*
X119494216Y-88579999D01*
X119478912Y-88424611D01*
X119468749Y-88268789D01*
X119460545Y-88238133D01*
X119457435Y-88206554D01*
X119412110Y-88057138D01*
X119371743Y-87906292D01*
X119357716Y-87877826D01*
X119348505Y-87847460D01*
X119274896Y-87709748D01*
X119205881Y-87569686D01*
X119186572Y-87544505D01*
X119171612Y-87516517D01*
X119072546Y-87395804D01*
X118977538Y-87271905D01*
X118883172Y-87189095D01*
X117885853Y-86191778D01*
X118064559Y-86013072D01*
X118150000Y-86013072D01*
X118274482Y-86000812D01*
X118394180Y-85964502D01*
X118500000Y-85907939D01*
X118605820Y-85964502D01*
X118725518Y-86000812D01*
X118850000Y-86013072D01*
X118964250Y-86010000D01*
X119123000Y-85851250D01*
X119123000Y-85127000D01*
X119377000Y-85127000D01*
X119377000Y-85851250D01*
X119535750Y-86010000D01*
X119650000Y-86013072D01*
X119774482Y-86000812D01*
X119894180Y-85964502D01*
X120004494Y-85905537D01*
X120101185Y-85826185D01*
X120180537Y-85729494D01*
X120239502Y-85619180D01*
X120275812Y-85499482D01*
X120288072Y-85375000D01*
X120285000Y-85285750D01*
X120126250Y-85127000D01*
X119377000Y-85127000D01*
X119123000Y-85127000D01*
X119103000Y-85127000D01*
X119103000Y-84873000D01*
X119123000Y-84873000D01*
X119123000Y-84148750D01*
X119377000Y-84148750D01*
X119377000Y-84873000D01*
X120126250Y-84873000D01*
X120285000Y-84714250D01*
X120288072Y-84625000D01*
X120275812Y-84500518D01*
X120239502Y-84380820D01*
X120180537Y-84270506D01*
X120101185Y-84173815D01*
X120004494Y-84094463D01*
X119894180Y-84035498D01*
X119774482Y-83999188D01*
X119650000Y-83986928D01*
X119535750Y-83990000D01*
X119377000Y-84148750D01*
X119123000Y-84148750D01*
X118964250Y-83990000D01*
X118850000Y-83986928D01*
X118725518Y-83999188D01*
X118605820Y-84035498D01*
X118500000Y-84092061D01*
X118394180Y-84035498D01*
X118274482Y-83999188D01*
X118150000Y-83986928D01*
X117350000Y-83986928D01*
X117225518Y-83999188D01*
X117105820Y-84035498D01*
X116995506Y-84094463D01*
X116898815Y-84173815D01*
X116819463Y-84270506D01*
X116760498Y-84380820D01*
X116724188Y-84500518D01*
X116711928Y-84625000D01*
X116711928Y-85017852D01*
X115385853Y-83691778D01*
X115564559Y-83513072D01*
X116150000Y-83513072D01*
X116274482Y-83500812D01*
X116394180Y-83464502D01*
X116500000Y-83407939D01*
X116605820Y-83464502D01*
X116725518Y-83500812D01*
X116850000Y-83513072D01*
X116964250Y-83510000D01*
X117123000Y-83351250D01*
X117123000Y-82627000D01*
X117377000Y-82627000D01*
X117377000Y-83351250D01*
X117535750Y-83510000D01*
X117650000Y-83513072D01*
X117774482Y-83500812D01*
X117894180Y-83464502D01*
X118004494Y-83405537D01*
X118101185Y-83326185D01*
X118180537Y-83229494D01*
X118239502Y-83119180D01*
X118275812Y-82999482D01*
X118288072Y-82875000D01*
X118285000Y-82785750D01*
X118126250Y-82627000D01*
X117377000Y-82627000D01*
X117123000Y-82627000D01*
X117103000Y-82627000D01*
X117103000Y-82373000D01*
X117123000Y-82373000D01*
X117123000Y-81648750D01*
X117377000Y-81648750D01*
X117377000Y-82373000D01*
X118126250Y-82373000D01*
X118285000Y-82214250D01*
X118288072Y-82125000D01*
X118275812Y-82000518D01*
X118239502Y-81880820D01*
X118180537Y-81770506D01*
X118101185Y-81673815D01*
X118004494Y-81594463D01*
X117894180Y-81535498D01*
X117774482Y-81499188D01*
X117650000Y-81486928D01*
X117535750Y-81490000D01*
X117377000Y-81648750D01*
X117123000Y-81648750D01*
X116964250Y-81490000D01*
X116850000Y-81486928D01*
X116725518Y-81499188D01*
X116605820Y-81535498D01*
X116500000Y-81592061D01*
X116394180Y-81535498D01*
X116274482Y-81499188D01*
X116150000Y-81486928D01*
X115350000Y-81486928D01*
X115225518Y-81499188D01*
X115105820Y-81535498D01*
X114995506Y-81594463D01*
X114898815Y-81673815D01*
X114819463Y-81770506D01*
X114760498Y-81880820D01*
X114724188Y-82000518D01*
X114711928Y-82125000D01*
X114711928Y-82210441D01*
X114308223Y-82614146D01*
X113063220Y-81369144D01*
X113003556Y-81296444D01*
X112713482Y-81058387D01*
X112382539Y-80881494D01*
X112023445Y-80772564D01*
X111743582Y-80745000D01*
X111743580Y-80745000D01*
X111650000Y-80735783D01*
X111556420Y-80745000D01*
X110405000Y-80745000D01*
X110405000Y-80738072D01*
X111450000Y-80738072D01*
X111574482Y-80725812D01*
X111694180Y-80689502D01*
X111804494Y-80630537D01*
X111901185Y-80551185D01*
X111980537Y-80454494D01*
X112039502Y-80344180D01*
X112075812Y-80224482D01*
X112088072Y-80100000D01*
X112088072Y-78400000D01*
X112075812Y-78275518D01*
X112039502Y-78155820D01*
X111980537Y-78045506D01*
X111901185Y-77948815D01*
X111804494Y-77869463D01*
X111694180Y-77810498D01*
X111574482Y-77774188D01*
X111450000Y-77761928D01*
X109567797Y-77761928D01*
X109563482Y-77758387D01*
X109232539Y-77581494D01*
X108873445Y-77472564D01*
X108500000Y-77435783D01*
X108126556Y-77472564D01*
X107767462Y-77581494D01*
X107436519Y-77758387D01*
X107432204Y-77761928D01*
X105550000Y-77761928D01*
X105425518Y-77774188D01*
X105305820Y-77810498D01*
X105195506Y-77869463D01*
X105098815Y-77948815D01*
X105019463Y-78045506D01*
X104960498Y-78155820D01*
X104924188Y-78275518D01*
X104911928Y-78400000D01*
X101956203Y-78400000D01*
X102219834Y-78347561D01*
X102562882Y-78205466D01*
X102871618Y-77999175D01*
X103134175Y-77736618D01*
X103340466Y-77427882D01*
X103482561Y-77084834D01*
X103555000Y-76720656D01*
X103555000Y-76349344D01*
X103482561Y-75985166D01*
X103340466Y-75642118D01*
X103134175Y-75333382D01*
X102871618Y-75070825D01*
X102562882Y-74864534D01*
X102219834Y-74722439D01*
X101855656Y-74650000D01*
X101484344Y-74650000D01*
X101120166Y-74722439D01*
X100777118Y-74864534D01*
X100468382Y-75070825D01*
X100205825Y-75333382D01*
X99999534Y-75642118D01*
X99857439Y-75985166D01*
X99785000Y-76349344D01*
X56627000Y-76349344D01*
X56627000Y-70400000D01*
X104911928Y-70400000D01*
X104911928Y-72100000D01*
X104924188Y-72224482D01*
X104960498Y-72344180D01*
X105019463Y-72454494D01*
X105098815Y-72551185D01*
X105195506Y-72630537D01*
X105305820Y-72689502D01*
X105425518Y-72725812D01*
X105550000Y-72738072D01*
X106595001Y-72738072D01*
X106595000Y-73261928D01*
X105550000Y-73261928D01*
X105425518Y-73274188D01*
X105305820Y-73310498D01*
X105195506Y-73369463D01*
X105098815Y-73448815D01*
X105019463Y-73545506D01*
X104960498Y-73655820D01*
X104924188Y-73775518D01*
X104911928Y-73900000D01*
X104911928Y-75600000D01*
X104924188Y-75724482D01*
X104960498Y-75844180D01*
X105019463Y-75954494D01*
X105098815Y-76051185D01*
X105195506Y-76130537D01*
X105305820Y-76189502D01*
X105425518Y-76225812D01*
X105550000Y-76238072D01*
X107432203Y-76238072D01*
X107436518Y-76241613D01*
X107767461Y-76418506D01*
X108126555Y-76527436D01*
X108500000Y-76564217D01*
X108593582Y-76555000D01*
X112360925Y-76555000D01*
X115617426Y-79811502D01*
X115625662Y-79888692D01*
X115737507Y-80246889D01*
X115861928Y-80475181D01*
X115861928Y-80500000D01*
X115874188Y-80624482D01*
X115910498Y-80744180D01*
X115969463Y-80854494D01*
X116048815Y-80951185D01*
X116145506Y-81030537D01*
X116255820Y-81089502D01*
X116375518Y-81125812D01*
X116500000Y-81138072D01*
X116521743Y-81138072D01*
X116781860Y-81274401D01*
X117141827Y-81380409D01*
X117515558Y-81414153D01*
X117888692Y-81374338D01*
X118246889Y-81262493D01*
X118475181Y-81138072D01*
X118500000Y-81138072D01*
X118624482Y-81125812D01*
X118744180Y-81089502D01*
X118854494Y-81030537D01*
X118951185Y-80951185D01*
X119030537Y-80854494D01*
X119089502Y-80744180D01*
X119125812Y-80624482D01*
X119138072Y-80500000D01*
X119138072Y-80478257D01*
X119274401Y-80218140D01*
X119353844Y-79948377D01*
X119432393Y-79535996D01*
X119457435Y-79453444D01*
X119467412Y-79352148D01*
X119468865Y-79344520D01*
X119476587Y-79258999D01*
X119494217Y-79079999D01*
X119493451Y-79072220D01*
X119494153Y-79064442D01*
X119475071Y-78885615D01*
X119457435Y-78706554D01*
X119455167Y-78699078D01*
X119454338Y-78691308D01*
X119438154Y-78639477D01*
X119762352Y-78315279D01*
X119791422Y-78291422D01*
X119820640Y-78255820D01*
X119886645Y-78175393D01*
X119924465Y-78104636D01*
X119957402Y-78043015D01*
X119998063Y-77908975D01*
X120000000Y-77907939D01*
X120105820Y-77964502D01*
X120225518Y-78000812D01*
X120350000Y-78013072D01*
X120464250Y-78010000D01*
X120623000Y-77851250D01*
X120623000Y-77127000D01*
X120877000Y-77127000D01*
X120877000Y-77851250D01*
X121035750Y-78010000D01*
X121150000Y-78013072D01*
X121274482Y-78000812D01*
X121394180Y-77964502D01*
X121504494Y-77905537D01*
X121601185Y-77826185D01*
X121680537Y-77729494D01*
X121739502Y-77619180D01*
X121775812Y-77499482D01*
X121788072Y-77375000D01*
X121785000Y-77285750D01*
X121626250Y-77127000D01*
X120877000Y-77127000D01*
X120623000Y-77127000D01*
X120603000Y-77127000D01*
X120603000Y-76873000D01*
X120623000Y-76873000D01*
X120623000Y-76148750D01*
X120877000Y-76148750D01*
X120877000Y-76873000D01*
X121626250Y-76873000D01*
X121785000Y-76714250D01*
X121788072Y-76625000D01*
X121775812Y-76500518D01*
X121739502Y-76380820D01*
X121680537Y-76270506D01*
X121601185Y-76173815D01*
X121504494Y-76094463D01*
X121394180Y-76035498D01*
X121274482Y-75999188D01*
X121150000Y-75986928D01*
X121035750Y-75990000D01*
X120877000Y-76148750D01*
X120623000Y-76148750D01*
X120464250Y-75990000D01*
X120350000Y-75986928D01*
X120225518Y-75999188D01*
X120105820Y-76035498D01*
X120000000Y-76092061D01*
X119894180Y-76035498D01*
X119774482Y-75999188D01*
X119650000Y-75986928D01*
X118850000Y-75986928D01*
X118725518Y-75999188D01*
X118605820Y-76035498D01*
X118495506Y-76094463D01*
X118398815Y-76173815D01*
X118319463Y-76270506D01*
X118260498Y-76380820D01*
X118224188Y-76500518D01*
X118211928Y-76625000D01*
X118211928Y-77017851D01*
X116702024Y-75507948D01*
X116774482Y-75500812D01*
X116894180Y-75464502D01*
X117000000Y-75407939D01*
X117105820Y-75464502D01*
X117225518Y-75500812D01*
X117350000Y-75513072D01*
X117464250Y-75510000D01*
X117623000Y-75351250D01*
X117623000Y-74627000D01*
X117877000Y-74627000D01*
X117877000Y-75351250D01*
X118035750Y-75510000D01*
X118150000Y-75513072D01*
X118274482Y-75500812D01*
X118394180Y-75464502D01*
X118504494Y-75405537D01*
X118601185Y-75326185D01*
X118680537Y-75229494D01*
X118739502Y-75119180D01*
X118775812Y-74999482D01*
X118788072Y-74875000D01*
X118785000Y-74785750D01*
X118626250Y-74627000D01*
X117877000Y-74627000D01*
X117623000Y-74627000D01*
X117603000Y-74627000D01*
X117603000Y-74373000D01*
X117623000Y-74373000D01*
X117623000Y-73648750D01*
X117877000Y-73648750D01*
X117877000Y-74373000D01*
X118626250Y-74373000D01*
X118785000Y-74214250D01*
X118788072Y-74125000D01*
X118775812Y-74000518D01*
X118739502Y-73880820D01*
X118680537Y-73770506D01*
X118601185Y-73673815D01*
X118504494Y-73594463D01*
X118394180Y-73535498D01*
X118274482Y-73499188D01*
X118150000Y-73486928D01*
X118035750Y-73490000D01*
X117877000Y-73648750D01*
X117623000Y-73648750D01*
X117464250Y-73490000D01*
X117350000Y-73486928D01*
X117225518Y-73499188D01*
X117105820Y-73535498D01*
X117000000Y-73592061D01*
X116894180Y-73535498D01*
X116774482Y-73499188D01*
X116650000Y-73486928D01*
X115850000Y-73486928D01*
X115725518Y-73499188D01*
X115605820Y-73535498D01*
X115495506Y-73594463D01*
X115398815Y-73673815D01*
X115346140Y-73738000D01*
X114932075Y-73738000D01*
X114563220Y-73369145D01*
X114503556Y-73296444D01*
X114213482Y-73058387D01*
X113882539Y-72881494D01*
X113523445Y-72772564D01*
X113243582Y-72745000D01*
X113243580Y-72745000D01*
X113150000Y-72735783D01*
X113056420Y-72745000D01*
X110405000Y-72745000D01*
X110405000Y-72738072D01*
X111450000Y-72738072D01*
X111574482Y-72725812D01*
X111694180Y-72689502D01*
X111804494Y-72630537D01*
X111901185Y-72551185D01*
X111980537Y-72454494D01*
X112039502Y-72344180D01*
X112075812Y-72224482D01*
X112088072Y-72100000D01*
X112088072Y-71650000D01*
X113986928Y-71650000D01*
X113999188Y-71774482D01*
X114035498Y-71894180D01*
X114094463Y-72004494D01*
X114173815Y-72101185D01*
X114270506Y-72180537D01*
X114380820Y-72239502D01*
X114500518Y-72275812D01*
X114625000Y-72288072D01*
X114714250Y-72285000D01*
X114873000Y-72126250D01*
X114873000Y-71377000D01*
X115127000Y-71377000D01*
X115127000Y-72126250D01*
X115285750Y-72285000D01*
X115375000Y-72288072D01*
X115499482Y-72275812D01*
X115619180Y-72239502D01*
X115729494Y-72180537D01*
X115826185Y-72101185D01*
X115905537Y-72004494D01*
X115964502Y-71894180D01*
X116000812Y-71774482D01*
X116013072Y-71650000D01*
X123486928Y-71650000D01*
X123499188Y-71774482D01*
X123535498Y-71894180D01*
X123594463Y-72004494D01*
X123673815Y-72101185D01*
X123770506Y-72180537D01*
X123880820Y-72239502D01*
X124000518Y-72275812D01*
X124125000Y-72288072D01*
X124214250Y-72285000D01*
X124373000Y-72126250D01*
X124373000Y-71377000D01*
X124627000Y-71377000D01*
X124627000Y-72126250D01*
X124785750Y-72285000D01*
X124875000Y-72288072D01*
X124999482Y-72275812D01*
X125119180Y-72239502D01*
X125229494Y-72180537D01*
X125326185Y-72101185D01*
X125405537Y-72004494D01*
X125464502Y-71894180D01*
X125500812Y-71774482D01*
X125513072Y-71650000D01*
X125510000Y-71535750D01*
X125351250Y-71377000D01*
X124627000Y-71377000D01*
X124373000Y-71377000D01*
X123648750Y-71377000D01*
X123490000Y-71535750D01*
X123486928Y-71650000D01*
X116013072Y-71650000D01*
X116010000Y-71535750D01*
X115851250Y-71377000D01*
X115127000Y-71377000D01*
X114873000Y-71377000D01*
X114148750Y-71377000D01*
X113990000Y-71535750D01*
X113986928Y-71650000D01*
X112088072Y-71650000D01*
X112088072Y-70400000D01*
X112075812Y-70275518D01*
X112039502Y-70155820D01*
X111980537Y-70045506D01*
X111901185Y-69948815D01*
X111804494Y-69869463D01*
X111694180Y-69810498D01*
X111574482Y-69774188D01*
X111450000Y-69761928D01*
X109567797Y-69761928D01*
X109563482Y-69758387D01*
X109232539Y-69581494D01*
X108873445Y-69472564D01*
X108500000Y-69435783D01*
X108126556Y-69472564D01*
X107767462Y-69581494D01*
X107436519Y-69758387D01*
X107432204Y-69761928D01*
X105550000Y-69761928D01*
X105425518Y-69774188D01*
X105305820Y-69810498D01*
X105195506Y-69869463D01*
X105098815Y-69948815D01*
X105019463Y-70045506D01*
X104960498Y-70155820D01*
X104924188Y-70275518D01*
X104911928Y-70400000D01*
X56627000Y-70400000D01*
X56627000Y-61627000D01*
X131373000Y-61627000D01*
X131373000Y-64595000D01*
G36*
X89773000Y-94742750D02*
G01*
X89622000Y-94893750D01*
X89622000Y-95563000D01*
X89642000Y-95563000D01*
X89642000Y-95817000D01*
X89622000Y-95817000D01*
X89622000Y-96833000D01*
X89642000Y-96833000D01*
X89642000Y-97087000D01*
X89622000Y-97087000D01*
X89622000Y-98103000D01*
X89642000Y-98103000D01*
X89642000Y-98357000D01*
X89622000Y-98357000D01*
X89622000Y-98373000D01*
X89368000Y-98373000D01*
X89368000Y-98357000D01*
X88352000Y-98357000D01*
X88352000Y-98373000D01*
X88098000Y-98373000D01*
X88098000Y-98357000D01*
X87082000Y-98357000D01*
X87082000Y-98373000D01*
X86828000Y-98373000D01*
X86828000Y-98357000D01*
X86158750Y-98357000D01*
X86142750Y-98373000D01*
X84527000Y-98373000D01*
X84527000Y-97280000D01*
X85996928Y-97280000D01*
X86009188Y-97404482D01*
X86045498Y-97524180D01*
X86083353Y-97595000D01*
X86045498Y-97665820D01*
X86009188Y-97785518D01*
X85996928Y-97910000D01*
X86000000Y-97944250D01*
X86158750Y-98103000D01*
X86828000Y-98103000D01*
X86828000Y-97087000D01*
X87082000Y-97087000D01*
X87082000Y-98103000D01*
X88098000Y-98103000D01*
X88098000Y-97087000D01*
X88352000Y-97087000D01*
X88352000Y-98103000D01*
X89368000Y-98103000D01*
X89368000Y-97087000D01*
X88352000Y-97087000D01*
X88098000Y-97087000D01*
X87082000Y-97087000D01*
X86828000Y-97087000D01*
X86158750Y-97087000D01*
X86000000Y-97245750D01*
X85996928Y-97280000D01*
X84527000Y-97280000D01*
X84527000Y-96010000D01*
X85996928Y-96010000D01*
X86009188Y-96134482D01*
X86045498Y-96254180D01*
X86083353Y-96325000D01*
X86045498Y-96395820D01*
X86009188Y-96515518D01*
X85996928Y-96640000D01*
X86000000Y-96674250D01*
X86158750Y-96833000D01*
X86828000Y-96833000D01*
X86828000Y-95817000D01*
X87082000Y-95817000D01*
X87082000Y-96833000D01*
X88098000Y-96833000D01*
X88098000Y-95817000D01*
X88352000Y-95817000D01*
X88352000Y-96833000D01*
X89368000Y-96833000D01*
X89368000Y-95817000D01*
X88352000Y-95817000D01*
X88098000Y-95817000D01*
X87082000Y-95817000D01*
X86828000Y-95817000D01*
X86158750Y-95817000D01*
X86000000Y-95975750D01*
X85996928Y-96010000D01*
X84527000Y-96010000D01*
X84527000Y-95370000D01*
X85996928Y-95370000D01*
X86000000Y-95404250D01*
X86158750Y-95563000D01*
X86828000Y-95563000D01*
X86828000Y-94893750D01*
X87082000Y-94893750D01*
X87082000Y-95563000D01*
X88098000Y-95563000D01*
X88098000Y-94893750D01*
X88352000Y-94893750D01*
X88352000Y-95563000D01*
X89368000Y-95563000D01*
X89368000Y-94893750D01*
X89209250Y-94735000D01*
X89175000Y-94731928D01*
X89050518Y-94744188D01*
X88930820Y-94780498D01*
X88860000Y-94818353D01*
X88789180Y-94780498D01*
X88669482Y-94744188D01*
X88545000Y-94731928D01*
X88510750Y-94735000D01*
X88352000Y-94893750D01*
X88098000Y-94893750D01*
X87939250Y-94735000D01*
X87905000Y-94731928D01*
X87780518Y-94744188D01*
X87660820Y-94780498D01*
X87590000Y-94818353D01*
X87519180Y-94780498D01*
X87399482Y-94744188D01*
X87275000Y-94731928D01*
X87240750Y-94735000D01*
X87082000Y-94893750D01*
X86828000Y-94893750D01*
X86669250Y-94735000D01*
X86635000Y-94731928D01*
X86510518Y-94744188D01*
X86390820Y-94780498D01*
X86280506Y-94839463D01*
X86183815Y-94918815D01*
X86104463Y-95015506D01*
X86045498Y-95125820D01*
X86009188Y-95245518D01*
X85996928Y-95370000D01*
X84527000Y-95370000D01*
X84527000Y-94627000D01*
X89773000Y-94627000D01*
X89773000Y-94742750D01*
X89773000Y-94742750D01*
G37*
X89773000Y-94742750D02*
X89622000Y-94893750D01*
X89622000Y-95563000D01*
X89642000Y-95563000D01*
X89642000Y-95817000D01*
X89622000Y-95817000D01*
X89622000Y-96833000D01*
X89642000Y-96833000D01*
X89642000Y-97087000D01*
X89622000Y-97087000D01*
X89622000Y-98103000D01*
X89642000Y-98103000D01*
X89642000Y-98357000D01*
X89622000Y-98357000D01*
X89622000Y-98373000D01*
X89368000Y-98373000D01*
X89368000Y-98357000D01*
X88352000Y-98357000D01*
X88352000Y-98373000D01*
X88098000Y-98373000D01*
X88098000Y-98357000D01*
X87082000Y-98357000D01*
X87082000Y-98373000D01*
X86828000Y-98373000D01*
X86828000Y-98357000D01*
X86158750Y-98357000D01*
X86142750Y-98373000D01*
X84527000Y-98373000D01*
X84527000Y-97280000D01*
X85996928Y-97280000D01*
X86009188Y-97404482D01*
X86045498Y-97524180D01*
X86083353Y-97595000D01*
X86045498Y-97665820D01*
X86009188Y-97785518D01*
X85996928Y-97910000D01*
X86000000Y-97944250D01*
X86158750Y-98103000D01*
X86828000Y-98103000D01*
X86828000Y-97087000D01*
X87082000Y-97087000D01*
X87082000Y-98103000D01*
X88098000Y-98103000D01*
X88098000Y-97087000D01*
X88352000Y-97087000D01*
X88352000Y-98103000D01*
X89368000Y-98103000D01*
X89368000Y-97087000D01*
X88352000Y-97087000D01*
X88098000Y-97087000D01*
X87082000Y-97087000D01*
X86828000Y-97087000D01*
X86158750Y-97087000D01*
X86000000Y-97245750D01*
X85996928Y-97280000D01*
X84527000Y-97280000D01*
X84527000Y-96010000D01*
X85996928Y-96010000D01*
X86009188Y-96134482D01*
X86045498Y-96254180D01*
X86083353Y-96325000D01*
X86045498Y-96395820D01*
X86009188Y-96515518D01*
X85996928Y-96640000D01*
X86000000Y-96674250D01*
X86158750Y-96833000D01*
X86828000Y-96833000D01*
X86828000Y-95817000D01*
X87082000Y-95817000D01*
X87082000Y-96833000D01*
X88098000Y-96833000D01*
X88098000Y-95817000D01*
X88352000Y-95817000D01*
X88352000Y-96833000D01*
X89368000Y-96833000D01*
X89368000Y-95817000D01*
X88352000Y-95817000D01*
X88098000Y-95817000D01*
X87082000Y-95817000D01*
X86828000Y-95817000D01*
X86158750Y-95817000D01*
X86000000Y-95975750D01*
X85996928Y-96010000D01*
X84527000Y-96010000D01*
X84527000Y-95370000D01*
X85996928Y-95370000D01*
X86000000Y-95404250D01*
X86158750Y-95563000D01*
X86828000Y-95563000D01*
X86828000Y-94893750D01*
X87082000Y-94893750D01*
X87082000Y-95563000D01*
X88098000Y-95563000D01*
X88098000Y-94893750D01*
X88352000Y-94893750D01*
X88352000Y-95563000D01*
X89368000Y-95563000D01*
X89368000Y-94893750D01*
X89209250Y-94735000D01*
X89175000Y-94731928D01*
X89050518Y-94744188D01*
X88930820Y-94780498D01*
X88860000Y-94818353D01*
X88789180Y-94780498D01*
X88669482Y-94744188D01*
X88545000Y-94731928D01*
X88510750Y-94735000D01*
X88352000Y-94893750D01*
X88098000Y-94893750D01*
X87939250Y-94735000D01*
X87905000Y-94731928D01*
X87780518Y-94744188D01*
X87660820Y-94780498D01*
X87590000Y-94818353D01*
X87519180Y-94780498D01*
X87399482Y-94744188D01*
X87275000Y-94731928D01*
X87240750Y-94735000D01*
X87082000Y-94893750D01*
X86828000Y-94893750D01*
X86669250Y-94735000D01*
X86635000Y-94731928D01*
X86510518Y-94744188D01*
X86390820Y-94780498D01*
X86280506Y-94839463D01*
X86183815Y-94918815D01*
X86104463Y-95015506D01*
X86045498Y-95125820D01*
X86009188Y-95245518D01*
X85996928Y-95370000D01*
X84527000Y-95370000D01*
X84527000Y-94627000D01*
X89773000Y-94627000D01*
X89773000Y-94742750D01*
G36*
X99273000Y-99373000D02*
G01*
X94027000Y-99373000D01*
X94027000Y-99144410D01*
X94130518Y-99175812D01*
X94255000Y-99188072D01*
X94289250Y-99185000D01*
X94448000Y-99026250D01*
X94448000Y-98357000D01*
X94702000Y-98357000D01*
X94702000Y-99026250D01*
X94860750Y-99185000D01*
X94895000Y-99188072D01*
X95019482Y-99175812D01*
X95139180Y-99139502D01*
X95210000Y-99101647D01*
X95280820Y-99139502D01*
X95400518Y-99175812D01*
X95525000Y-99188072D01*
X95559250Y-99185000D01*
X95718000Y-99026250D01*
X95718000Y-98357000D01*
X95972000Y-98357000D01*
X95972000Y-99026250D01*
X96130750Y-99185000D01*
X96165000Y-99188072D01*
X96289482Y-99175812D01*
X96409180Y-99139502D01*
X96519494Y-99080537D01*
X96616185Y-99001185D01*
X96695537Y-98904494D01*
X96754502Y-98794180D01*
X96790812Y-98674482D01*
X96803072Y-98550000D01*
X96800000Y-98515750D01*
X96641250Y-98357000D01*
X95972000Y-98357000D01*
X95718000Y-98357000D01*
X94702000Y-98357000D01*
X94448000Y-98357000D01*
X94428000Y-98357000D01*
X94428000Y-98103000D01*
X94448000Y-98103000D01*
X94448000Y-97087000D01*
X94702000Y-97087000D01*
X94702000Y-98103000D01*
X95718000Y-98103000D01*
X95718000Y-97087000D01*
X95972000Y-97087000D01*
X95972000Y-98103000D01*
X96641250Y-98103000D01*
X96800000Y-97944250D01*
X96803072Y-97910000D01*
X96790812Y-97785518D01*
X96754502Y-97665820D01*
X96716647Y-97595000D01*
X96754502Y-97524180D01*
X96790812Y-97404482D01*
X96803072Y-97280000D01*
X96800000Y-97245750D01*
X96641250Y-97087000D01*
X95972000Y-97087000D01*
X95718000Y-97087000D01*
X94702000Y-97087000D01*
X94448000Y-97087000D01*
X94428000Y-97087000D01*
X94428000Y-96833000D01*
X94448000Y-96833000D01*
X94448000Y-95817000D01*
X94702000Y-95817000D01*
X94702000Y-96833000D01*
X95718000Y-96833000D01*
X95718000Y-95817000D01*
X95972000Y-95817000D01*
X95972000Y-96833000D01*
X96641250Y-96833000D01*
X96800000Y-96674250D01*
X96803072Y-96640000D01*
X96790812Y-96515518D01*
X96754502Y-96395820D01*
X96716647Y-96325000D01*
X96754502Y-96254180D01*
X96790812Y-96134482D01*
X96803072Y-96010000D01*
X96800000Y-95975750D01*
X96641250Y-95817000D01*
X95972000Y-95817000D01*
X95718000Y-95817000D01*
X94702000Y-95817000D01*
X94448000Y-95817000D01*
X94428000Y-95817000D01*
X94428000Y-95563000D01*
X94448000Y-95563000D01*
X94448000Y-94893750D01*
X94702000Y-94893750D01*
X94702000Y-95563000D01*
X95718000Y-95563000D01*
X95718000Y-94893750D01*
X95972000Y-94893750D01*
X95972000Y-95563000D01*
X96641250Y-95563000D01*
X96800000Y-95404250D01*
X96803072Y-95370000D01*
X96790812Y-95245518D01*
X96754502Y-95125820D01*
X96695537Y-95015506D01*
X96616185Y-94918815D01*
X96519494Y-94839463D01*
X96409180Y-94780498D01*
X96289482Y-94744188D01*
X96165000Y-94731928D01*
X96130750Y-94735000D01*
X95972000Y-94893750D01*
X95718000Y-94893750D01*
X95559250Y-94735000D01*
X95525000Y-94731928D01*
X95400518Y-94744188D01*
X95280820Y-94780498D01*
X95210000Y-94818353D01*
X95139180Y-94780498D01*
X95019482Y-94744188D01*
X94895000Y-94731928D01*
X94860750Y-94735000D01*
X94702000Y-94893750D01*
X94448000Y-94893750D01*
X94289250Y-94735000D01*
X94255000Y-94731928D01*
X94130518Y-94744188D01*
X94027000Y-94775590D01*
X94027000Y-94627000D01*
X99273000Y-94627000D01*
X99273000Y-99373000D01*
X99273000Y-99373000D01*
G37*
X99273000Y-99373000D02*
X94027000Y-99373000D01*
X94027000Y-99144410D01*
X94130518Y-99175812D01*
X94255000Y-99188072D01*
X94289250Y-99185000D01*
X94448000Y-99026250D01*
X94448000Y-98357000D01*
X94702000Y-98357000D01*
X94702000Y-99026250D01*
X94860750Y-99185000D01*
X94895000Y-99188072D01*
X95019482Y-99175812D01*
X95139180Y-99139502D01*
X95210000Y-99101647D01*
X95280820Y-99139502D01*
X95400518Y-99175812D01*
X95525000Y-99188072D01*
X95559250Y-99185000D01*
X95718000Y-99026250D01*
X95718000Y-98357000D01*
X95972000Y-98357000D01*
X95972000Y-99026250D01*
X96130750Y-99185000D01*
X96165000Y-99188072D01*
X96289482Y-99175812D01*
X96409180Y-99139502D01*
X96519494Y-99080537D01*
X96616185Y-99001185D01*
X96695537Y-98904494D01*
X96754502Y-98794180D01*
X96790812Y-98674482D01*
X96803072Y-98550000D01*
X96800000Y-98515750D01*
X96641250Y-98357000D01*
X95972000Y-98357000D01*
X95718000Y-98357000D01*
X94702000Y-98357000D01*
X94448000Y-98357000D01*
X94428000Y-98357000D01*
X94428000Y-98103000D01*
X94448000Y-98103000D01*
X94448000Y-97087000D01*
X94702000Y-97087000D01*
X94702000Y-98103000D01*
X95718000Y-98103000D01*
X95718000Y-97087000D01*
X95972000Y-97087000D01*
X95972000Y-98103000D01*
X96641250Y-98103000D01*
X96800000Y-97944250D01*
X96803072Y-97910000D01*
X96790812Y-97785518D01*
X96754502Y-97665820D01*
X96716647Y-97595000D01*
X96754502Y-97524180D01*
X96790812Y-97404482D01*
X96803072Y-97280000D01*
X96800000Y-97245750D01*
X96641250Y-97087000D01*
X95972000Y-97087000D01*
X95718000Y-97087000D01*
X94702000Y-97087000D01*
X94448000Y-97087000D01*
X94428000Y-97087000D01*
X94428000Y-96833000D01*
X94448000Y-96833000D01*
X94448000Y-95817000D01*
X94702000Y-95817000D01*
X94702000Y-96833000D01*
X95718000Y-96833000D01*
X95718000Y-95817000D01*
X95972000Y-95817000D01*
X95972000Y-96833000D01*
X96641250Y-96833000D01*
X96800000Y-96674250D01*
X96803072Y-96640000D01*
X96790812Y-96515518D01*
X96754502Y-96395820D01*
X96716647Y-96325000D01*
X96754502Y-96254180D01*
X96790812Y-96134482D01*
X96803072Y-96010000D01*
X96800000Y-95975750D01*
X96641250Y-95817000D01*
X95972000Y-95817000D01*
X95718000Y-95817000D01*
X94702000Y-95817000D01*
X94448000Y-95817000D01*
X94428000Y-95817000D01*
X94428000Y-95563000D01*
X94448000Y-95563000D01*
X94448000Y-94893750D01*
X94702000Y-94893750D01*
X94702000Y-95563000D01*
X95718000Y-95563000D01*
X95718000Y-94893750D01*
X95972000Y-94893750D01*
X95972000Y-95563000D01*
X96641250Y-95563000D01*
X96800000Y-95404250D01*
X96803072Y-95370000D01*
X96790812Y-95245518D01*
X96754502Y-95125820D01*
X96695537Y-95015506D01*
X96616185Y-94918815D01*
X96519494Y-94839463D01*
X96409180Y-94780498D01*
X96289482Y-94744188D01*
X96165000Y-94731928D01*
X96130750Y-94735000D01*
X95972000Y-94893750D01*
X95718000Y-94893750D01*
X95559250Y-94735000D01*
X95525000Y-94731928D01*
X95400518Y-94744188D01*
X95280820Y-94780498D01*
X95210000Y-94818353D01*
X95139180Y-94780498D01*
X95019482Y-94744188D01*
X94895000Y-94731928D01*
X94860750Y-94735000D01*
X94702000Y-94893750D01*
X94448000Y-94893750D01*
X94289250Y-94735000D01*
X94255000Y-94731928D01*
X94130518Y-94744188D01*
X94027000Y-94775590D01*
X94027000Y-94627000D01*
X99273000Y-94627000D01*
X99273000Y-99373000D01*
G36*
X104911928Y-12080235D02*
G01*
X104911928Y-13600000D01*
X104924188Y-13724482D01*
X104960498Y-13844180D01*
X105019463Y-13954494D01*
X105098815Y-14051185D01*
X105195506Y-14130537D01*
X105305820Y-14189502D01*
X105425518Y-14225812D01*
X105550000Y-14238072D01*
X107432203Y-14238072D01*
X107436518Y-14241613D01*
X107767461Y-14418506D01*
X108126555Y-14527436D01*
X108406418Y-14555000D01*
X114360925Y-14555000D01*
X115868046Y-16062122D01*
X115874188Y-16124482D01*
X115910498Y-16244180D01*
X115969463Y-16354494D01*
X116048815Y-16451185D01*
X116145506Y-16530537D01*
X116255820Y-16589502D01*
X116375518Y-16625812D01*
X116500000Y-16638072D01*
X116523436Y-16638072D01*
X116590307Y-16673815D01*
X116767461Y-16768506D01*
X117126555Y-16877436D01*
X117500000Y-16914217D01*
X117873444Y-16877436D01*
X118200572Y-16778203D01*
X118275369Y-16852999D01*
X118260498Y-16880820D01*
X118224188Y-17000518D01*
X118211928Y-17125000D01*
X118211928Y-17875000D01*
X118224188Y-17999482D01*
X118260498Y-18119180D01*
X118319463Y-18229494D01*
X118398815Y-18326185D01*
X118488001Y-18399377D01*
X118488000Y-18600623D01*
X118398815Y-18673815D01*
X118319463Y-18770506D01*
X118260498Y-18880820D01*
X118224188Y-19000518D01*
X118211928Y-19125000D01*
X118211928Y-19875000D01*
X118224188Y-19999482D01*
X118260498Y-20119180D01*
X118319463Y-20229494D01*
X118398815Y-20326185D01*
X118495506Y-20405537D01*
X118605820Y-20464502D01*
X118725518Y-20500812D01*
X118850000Y-20513072D01*
X119650000Y-20513072D01*
X119774482Y-20500812D01*
X119894180Y-20464502D01*
X120000000Y-20407939D01*
X120105820Y-20464502D01*
X120225518Y-20500812D01*
X120350000Y-20513072D01*
X120464250Y-20510000D01*
X120623000Y-20351250D01*
X120623000Y-19627000D01*
X120877000Y-19627000D01*
X120877000Y-20351250D01*
X121035750Y-20510000D01*
X121150000Y-20513072D01*
X121274482Y-20500812D01*
X121394180Y-20464502D01*
X121504494Y-20405537D01*
X121601185Y-20326185D01*
X121680537Y-20229494D01*
X121739502Y-20119180D01*
X121775812Y-19999482D01*
X121788072Y-19875000D01*
X121785000Y-19785750D01*
X121626250Y-19627000D01*
X120877000Y-19627000D01*
X120623000Y-19627000D01*
X120603000Y-19627000D01*
X120603000Y-19373000D01*
X120623000Y-19373000D01*
X120623000Y-18648750D01*
X120474250Y-18500000D01*
X120623000Y-18351250D01*
X120623000Y-17627000D01*
X120877000Y-17627000D01*
X120877000Y-18351250D01*
X121025750Y-18500000D01*
X120877000Y-18648750D01*
X120877000Y-19373000D01*
X121626250Y-19373000D01*
X121785000Y-19214250D01*
X121788072Y-19125000D01*
X121775812Y-19000518D01*
X121739502Y-18880820D01*
X121680537Y-18770506D01*
X121601185Y-18673815D01*
X121504494Y-18594463D01*
X121394180Y-18535498D01*
X121277159Y-18500000D01*
X121394180Y-18464502D01*
X121504494Y-18405537D01*
X121601185Y-18326185D01*
X121680537Y-18229494D01*
X121739502Y-18119180D01*
X121775812Y-17999482D01*
X121788072Y-17875000D01*
X121785000Y-17785750D01*
X121626250Y-17627000D01*
X120877000Y-17627000D01*
X120623000Y-17627000D01*
X120603000Y-17627000D01*
X120603000Y-17373000D01*
X120623000Y-17373000D01*
X120623000Y-16648750D01*
X120877000Y-16648750D01*
X120877000Y-17373000D01*
X121626250Y-17373000D01*
X121785000Y-17214250D01*
X121788072Y-17125000D01*
X121775812Y-17000518D01*
X121739502Y-16880820D01*
X121680537Y-16770506D01*
X121601185Y-16673815D01*
X121504494Y-16594463D01*
X121394180Y-16535498D01*
X121274482Y-16499188D01*
X121150000Y-16486928D01*
X121035750Y-16490000D01*
X120877000Y-16648750D01*
X120623000Y-16648750D01*
X120464250Y-16490000D01*
X120350000Y-16486928D01*
X120225518Y-16499188D01*
X120105820Y-16535498D01*
X120000000Y-16592061D01*
X119998063Y-16591025D01*
X119957402Y-16456985D01*
X119924465Y-16395364D01*
X119886645Y-16324607D01*
X119815279Y-16237648D01*
X119791422Y-16208578D01*
X119762352Y-16184721D01*
X119278203Y-15700572D01*
X119377436Y-15373445D01*
X119405000Y-15093582D01*
X119405000Y-15093580D01*
X119414217Y-15000000D01*
X119405000Y-14906420D01*
X119405000Y-14789075D01*
X120789076Y-13405000D01*
X128210925Y-13405000D01*
X133873000Y-19067076D01*
X133873000Y-28681928D01*
X129070000Y-28681928D01*
X128945518Y-28694188D01*
X128825820Y-28730498D01*
X128715506Y-28789463D01*
X128618815Y-28868815D01*
X128539463Y-28965506D01*
X128480498Y-29075820D01*
X128444188Y-29195518D01*
X128431928Y-29320000D01*
X128431928Y-32680000D01*
X128444188Y-32804482D01*
X128480498Y-32924180D01*
X128539463Y-33034494D01*
X128618815Y-33131185D01*
X128715506Y-33210537D01*
X128825820Y-33269502D01*
X128945518Y-33305812D01*
X129070000Y-33318072D01*
X133873000Y-33318072D01*
X133873000Y-59872795D01*
X87526868Y-59798204D01*
X87512324Y-45835792D01*
X96807637Y-45835792D01*
X96827954Y-46210492D01*
X96920981Y-46574031D01*
X97083144Y-46912435D01*
X97308211Y-47212700D01*
X97587531Y-47463288D01*
X97910372Y-47654568D01*
X98264326Y-47779190D01*
X98635792Y-47832363D01*
X98916596Y-47817137D01*
X105113086Y-46865767D01*
X105248445Y-46852435D01*
X105387870Y-46810141D01*
X105529030Y-46774019D01*
X105567122Y-46755765D01*
X105607539Y-46743505D01*
X105736037Y-46674822D01*
X105867435Y-46611856D01*
X105901230Y-46586524D01*
X105938482Y-46566613D01*
X106051117Y-46474175D01*
X106167700Y-46386789D01*
X106258526Y-46285549D01*
X109806005Y-42738072D01*
X111450000Y-42738072D01*
X111574482Y-42725812D01*
X111694180Y-42689502D01*
X111804494Y-42630537D01*
X111901185Y-42551185D01*
X111980537Y-42454494D01*
X112039502Y-42344180D01*
X112075812Y-42224482D01*
X112088072Y-42100000D01*
X112088072Y-40400000D01*
X112075812Y-40275518D01*
X112039502Y-40155820D01*
X111980537Y-40045506D01*
X111901185Y-39948815D01*
X111804494Y-39869463D01*
X111694180Y-39810498D01*
X111574482Y-39774188D01*
X111450000Y-39761928D01*
X109567797Y-39761928D01*
X109563482Y-39758387D01*
X109232539Y-39581495D01*
X108873444Y-39472565D01*
X108499999Y-39435783D01*
X108126554Y-39472565D01*
X107767460Y-39581495D01*
X107436517Y-39758387D01*
X107432202Y-39761928D01*
X105550000Y-39761928D01*
X105425518Y-39774188D01*
X105305820Y-39810498D01*
X105195506Y-39869463D01*
X105098815Y-39948815D01*
X105019463Y-40045506D01*
X104960498Y-40155820D01*
X104924188Y-40275518D01*
X104911928Y-40400000D01*
X104911928Y-42100000D01*
X104924188Y-42224482D01*
X104925876Y-42230048D01*
X103969171Y-43186754D01*
X98338408Y-44051266D01*
X98065969Y-44120981D01*
X97727565Y-44283144D01*
X97427300Y-44508211D01*
X97176712Y-44787531D01*
X96985432Y-45110372D01*
X96860810Y-45464326D01*
X96807637Y-45835792D01*
X87512324Y-45835792D01*
X87506115Y-39875000D01*
X100211928Y-39875000D01*
X100224188Y-39999482D01*
X100260498Y-40119180D01*
X100319463Y-40229494D01*
X100398815Y-40326185D01*
X100495506Y-40405537D01*
X100605820Y-40464502D01*
X100725518Y-40500812D01*
X100850000Y-40513072D01*
X100964250Y-40510000D01*
X101123000Y-40351250D01*
X101123000Y-39627000D01*
X100373750Y-39627000D01*
X100215000Y-39785750D01*
X100211928Y-39875000D01*
X87506115Y-39875000D01*
X87505334Y-39125000D01*
X100211928Y-39125000D01*
X100215000Y-39214250D01*
X100373750Y-39373000D01*
X101123000Y-39373000D01*
X101123000Y-38648750D01*
X100964250Y-38490000D01*
X100850000Y-38486928D01*
X100725518Y-38499188D01*
X100605820Y-38535498D01*
X100495506Y-38594463D01*
X100398815Y-38673815D01*
X100319463Y-38770506D01*
X100260498Y-38880820D01*
X100224188Y-39000518D01*
X100211928Y-39125000D01*
X87505334Y-39125000D01*
X87503512Y-37375000D01*
X100211928Y-37375000D01*
X100224188Y-37499482D01*
X100260498Y-37619180D01*
X100319463Y-37729494D01*
X100398815Y-37826185D01*
X100495506Y-37905537D01*
X100605820Y-37964502D01*
X100725518Y-38000812D01*
X100850000Y-38013072D01*
X100964250Y-38010000D01*
X101123000Y-37851250D01*
X101123000Y-37127000D01*
X100373750Y-37127000D01*
X100215000Y-37285750D01*
X100211928Y-37375000D01*
X87503512Y-37375000D01*
X87502731Y-36625000D01*
X100211928Y-36625000D01*
X100215000Y-36714250D01*
X100373750Y-36873000D01*
X101123000Y-36873000D01*
X101123000Y-36148750D01*
X101377000Y-36148750D01*
X101377000Y-36873000D01*
X101397000Y-36873000D01*
X101397000Y-37127000D01*
X101377000Y-37127000D01*
X101377000Y-37851250D01*
X101535750Y-38010000D01*
X101650000Y-38013072D01*
X101774482Y-38000812D01*
X101894180Y-37964502D01*
X101988001Y-37914353D01*
X101988000Y-38585647D01*
X101894180Y-38535498D01*
X101774482Y-38499188D01*
X101650000Y-38486928D01*
X101535750Y-38490000D01*
X101377000Y-38648750D01*
X101377000Y-39373000D01*
X101397000Y-39373000D01*
X101397000Y-39627000D01*
X101377000Y-39627000D01*
X101377000Y-40351250D01*
X101535750Y-40510000D01*
X101650000Y-40513072D01*
X101774482Y-40500812D01*
X101894180Y-40464502D01*
X102000000Y-40407939D01*
X102105820Y-40464502D01*
X102225518Y-40500812D01*
X102350000Y-40513072D01*
X103150000Y-40513072D01*
X103274482Y-40500812D01*
X103394180Y-40464502D01*
X103504494Y-40405537D01*
X103601185Y-40326185D01*
X103680537Y-40229494D01*
X103739502Y-40119180D01*
X103775812Y-39999482D01*
X103788072Y-39875000D01*
X103788072Y-39125000D01*
X103775812Y-39000518D01*
X103739502Y-38880820D01*
X103680537Y-38770506D01*
X103601185Y-38673815D01*
X103512000Y-38600623D01*
X103512000Y-37899377D01*
X103601185Y-37826185D01*
X103680537Y-37729494D01*
X103739502Y-37619180D01*
X103775812Y-37499482D01*
X103784428Y-37412000D01*
X104911928Y-37412000D01*
X104911928Y-37600000D01*
X104924188Y-37724482D01*
X104960498Y-37844180D01*
X105019463Y-37954494D01*
X105098815Y-38051185D01*
X105195506Y-38130537D01*
X105305820Y-38189502D01*
X105425518Y-38225812D01*
X105550000Y-38238072D01*
X107432203Y-38238072D01*
X107436518Y-38241613D01*
X107767461Y-38418506D01*
X108126555Y-38527436D01*
X108500000Y-38564217D01*
X108873444Y-38527436D01*
X109232538Y-38418506D01*
X109563482Y-38241613D01*
X109567797Y-38238072D01*
X110493009Y-38238072D01*
X115912501Y-43657565D01*
X115912500Y-46752074D01*
X115910498Y-46755820D01*
X115874188Y-46875518D01*
X115861928Y-47000000D01*
X115861928Y-49000000D01*
X115874188Y-49124482D01*
X115910498Y-49244180D01*
X115969463Y-49354494D01*
X116048815Y-49451185D01*
X116145506Y-49530537D01*
X116255820Y-49589502D01*
X116375518Y-49625812D01*
X116500000Y-49638072D01*
X118500000Y-49638072D01*
X118624482Y-49625812D01*
X118744180Y-49589502D01*
X118854494Y-49530537D01*
X118951185Y-49451185D01*
X119030537Y-49354494D01*
X119089502Y-49244180D01*
X119125812Y-49124482D01*
X119138072Y-49000000D01*
X119138072Y-47000000D01*
X119125812Y-46875518D01*
X119089502Y-46755820D01*
X119087500Y-46752075D01*
X119087500Y-43077978D01*
X119095180Y-42999999D01*
X119087500Y-42922020D01*
X119087500Y-42922014D01*
X119064530Y-42688796D01*
X119046958Y-42630867D01*
X118993455Y-42454494D01*
X118973755Y-42389551D01*
X118826345Y-42113765D01*
X118627963Y-41872037D01*
X118567389Y-41822325D01*
X112327680Y-35582617D01*
X112277963Y-35522037D01*
X112036235Y-35323655D01*
X111760449Y-35176245D01*
X111461204Y-35085470D01*
X111227986Y-35062500D01*
X111227979Y-35062500D01*
X111150000Y-35054820D01*
X111072021Y-35062500D01*
X110405000Y-35062500D01*
X110405000Y-34738072D01*
X111450000Y-34738072D01*
X111574482Y-34725812D01*
X111694180Y-34689502D01*
X111804494Y-34630537D01*
X111901185Y-34551185D01*
X111980537Y-34454494D01*
X112039502Y-34344180D01*
X112075812Y-34224482D01*
X112088072Y-34100000D01*
X112088072Y-32400000D01*
X112075812Y-32275518D01*
X112039502Y-32155820D01*
X111980537Y-32045506D01*
X111901185Y-31948815D01*
X111804494Y-31869463D01*
X111694180Y-31810498D01*
X111574482Y-31774188D01*
X111450000Y-31761928D01*
X109567797Y-31761928D01*
X109563482Y-31758387D01*
X109232539Y-31581494D01*
X108873445Y-31472564D01*
X108500000Y-31435783D01*
X108126556Y-31472564D01*
X107767462Y-31581494D01*
X107436519Y-31758387D01*
X107432204Y-31761928D01*
X105550000Y-31761928D01*
X105425518Y-31774188D01*
X105305820Y-31810498D01*
X105195506Y-31869463D01*
X105098815Y-31948815D01*
X105019463Y-32045506D01*
X104960498Y-32155820D01*
X104924188Y-32275518D01*
X104911928Y-32400000D01*
X104911928Y-34100000D01*
X104924188Y-34224482D01*
X104960498Y-34344180D01*
X105019463Y-34454494D01*
X105098815Y-34551185D01*
X105195506Y-34630537D01*
X105305820Y-34689502D01*
X105425518Y-34725812D01*
X105550000Y-34738072D01*
X106595001Y-34738072D01*
X106595000Y-35261928D01*
X105550000Y-35261928D01*
X105425518Y-35274188D01*
X105305820Y-35310498D01*
X105195506Y-35369463D01*
X105098815Y-35448815D01*
X105019463Y-35545506D01*
X104960498Y-35655820D01*
X104924188Y-35775518D01*
X104913110Y-35888000D01*
X103137423Y-35888000D01*
X103100000Y-35884314D01*
X103062577Y-35888000D01*
X103062574Y-35888000D01*
X102950622Y-35899026D01*
X102806985Y-35942598D01*
X102724049Y-35986928D01*
X102350000Y-35986928D01*
X102225518Y-35999188D01*
X102105820Y-36035498D01*
X102000000Y-36092061D01*
X101894180Y-36035498D01*
X101774482Y-35999188D01*
X101650000Y-35986928D01*
X101535750Y-35990000D01*
X101377000Y-36148750D01*
X101123000Y-36148750D01*
X100964250Y-35990000D01*
X100850000Y-35986928D01*
X100725518Y-35999188D01*
X100605820Y-36035498D01*
X100495506Y-36094463D01*
X100398815Y-36173815D01*
X100319463Y-36270506D01*
X100260498Y-36380820D01*
X100224188Y-36500518D01*
X100211928Y-36625000D01*
X87502731Y-36625000D01*
X87481219Y-15974344D01*
X96835000Y-15974344D01*
X96835000Y-16345656D01*
X96907439Y-16709834D01*
X97049534Y-17052882D01*
X97255825Y-17361618D01*
X97518382Y-17624175D01*
X97827118Y-17830466D01*
X98170166Y-17972561D01*
X98534344Y-18045000D01*
X98905656Y-18045000D01*
X99269834Y-17972561D01*
X99612882Y-17830466D01*
X99921618Y-17624175D01*
X100184175Y-17361618D01*
X100390466Y-17052882D01*
X100532561Y-16709834D01*
X100594190Y-16400000D01*
X104911928Y-16400000D01*
X104911928Y-18100000D01*
X104924188Y-18224482D01*
X104960498Y-18344180D01*
X105019463Y-18454494D01*
X105098815Y-18551185D01*
X105195506Y-18630537D01*
X105305820Y-18689502D01*
X105425518Y-18725812D01*
X105550000Y-18738072D01*
X106595001Y-18738072D01*
X106595000Y-19261928D01*
X105550000Y-19261928D01*
X105425518Y-19274188D01*
X105305820Y-19310498D01*
X105195506Y-19369463D01*
X105098815Y-19448815D01*
X105019463Y-19545506D01*
X104960498Y-19655820D01*
X104924188Y-19775518D01*
X104911928Y-19900000D01*
X104911928Y-21600000D01*
X104924188Y-21724482D01*
X104960498Y-21844180D01*
X105019463Y-21954494D01*
X105098815Y-22051185D01*
X105195506Y-22130537D01*
X105305820Y-22189502D01*
X105425518Y-22225812D01*
X105550000Y-22238072D01*
X107432203Y-22238072D01*
X107436518Y-22241613D01*
X107767461Y-22418506D01*
X108126555Y-22527436D01*
X108500000Y-22564217D01*
X108873444Y-22527436D01*
X109232538Y-22418506D01*
X109563482Y-22241613D01*
X109567797Y-22238072D01*
X111450000Y-22238072D01*
X111489153Y-22234216D01*
X112682612Y-23427676D01*
X112682617Y-23427680D01*
X115861928Y-26606992D01*
X115861928Y-27000000D01*
X115874188Y-27124482D01*
X115910498Y-27244180D01*
X115969463Y-27354494D01*
X116048815Y-27451185D01*
X116092368Y-27486928D01*
X115850000Y-27486928D01*
X115725518Y-27499188D01*
X115605820Y-27535498D01*
X115495506Y-27594463D01*
X115398815Y-27673815D01*
X115346140Y-27738000D01*
X113983063Y-27738000D01*
X113827680Y-27582616D01*
X113777963Y-27522037D01*
X113536235Y-27323655D01*
X113260449Y-27176245D01*
X112961204Y-27085470D01*
X112727986Y-27062500D01*
X112727979Y-27062500D01*
X112650000Y-27054820D01*
X112572021Y-27062500D01*
X110405000Y-27062500D01*
X110405000Y-26738072D01*
X111450000Y-26738072D01*
X111574482Y-26725812D01*
X111694180Y-26689502D01*
X111804494Y-26630537D01*
X111901185Y-26551185D01*
X111980537Y-26454494D01*
X112039502Y-26344180D01*
X112075812Y-26224482D01*
X112088072Y-26100000D01*
X112088072Y-24400000D01*
X112075812Y-24275518D01*
X112039502Y-24155820D01*
X111980537Y-24045506D01*
X111901185Y-23948815D01*
X111804494Y-23869463D01*
X111694180Y-23810498D01*
X111574482Y-23774188D01*
X111450000Y-23761928D01*
X109567797Y-23761928D01*
X109563482Y-23758387D01*
X109232539Y-23581494D01*
X108873445Y-23472564D01*
X108500000Y-23435783D01*
X108126556Y-23472564D01*
X107767462Y-23581494D01*
X107436519Y-23758387D01*
X107432204Y-23761928D01*
X105550000Y-23761928D01*
X105425518Y-23774188D01*
X105305820Y-23810498D01*
X105195506Y-23869463D01*
X105098815Y-23948815D01*
X105019463Y-24045506D01*
X104960498Y-24155820D01*
X104924188Y-24275518D01*
X104911928Y-24400000D01*
X104911928Y-26100000D01*
X104924188Y-26224482D01*
X104960498Y-26344180D01*
X105019463Y-26454494D01*
X105098815Y-26551185D01*
X105195506Y-26630537D01*
X105305820Y-26689502D01*
X105425518Y-26725812D01*
X105550000Y-26738072D01*
X106595001Y-26738072D01*
X106595000Y-27261928D01*
X105550000Y-27261928D01*
X105425518Y-27274188D01*
X105305820Y-27310498D01*
X105195506Y-27369463D01*
X105098815Y-27448815D01*
X105019463Y-27545506D01*
X104960498Y-27655820D01*
X104924188Y-27775518D01*
X104911928Y-27900000D01*
X104911928Y-29600000D01*
X104924188Y-29724482D01*
X104960498Y-29844180D01*
X105019463Y-29954494D01*
X105098815Y-30051185D01*
X105195506Y-30130537D01*
X105305820Y-30189502D01*
X105425518Y-30225812D01*
X105550000Y-30238072D01*
X107432203Y-30238072D01*
X107436518Y-30241613D01*
X107767461Y-30418506D01*
X108126555Y-30527436D01*
X108500000Y-30564217D01*
X108873444Y-30527436D01*
X109232538Y-30418506D01*
X109563482Y-30241613D01*
X109567797Y-30238072D01*
X111450000Y-30238072D01*
X111455808Y-30237500D01*
X111992437Y-30237500D01*
X113432612Y-31677676D01*
X113432617Y-31677680D01*
X115912501Y-34157565D01*
X115912500Y-35752074D01*
X115910498Y-35755820D01*
X115874188Y-35875518D01*
X115861928Y-36000000D01*
X115861928Y-38000000D01*
X115874188Y-38124482D01*
X115910498Y-38244180D01*
X115969463Y-38354494D01*
X116048815Y-38451185D01*
X116145506Y-38530537D01*
X116255820Y-38589502D01*
X116375518Y-38625812D01*
X116500000Y-38638072D01*
X118500000Y-38638072D01*
X118624482Y-38625812D01*
X118744180Y-38589502D01*
X118854494Y-38530537D01*
X118951185Y-38451185D01*
X119030537Y-38354494D01*
X119089502Y-38244180D01*
X119125812Y-38124482D01*
X119138072Y-38000000D01*
X119138072Y-36000000D01*
X119125812Y-35875518D01*
X119089502Y-35755820D01*
X119087500Y-35752075D01*
X119087500Y-33577979D01*
X119095180Y-33500000D01*
X119087500Y-33422021D01*
X119087500Y-33422014D01*
X119064530Y-33188796D01*
X119017723Y-33034494D01*
X118973755Y-32889550D01*
X118861748Y-32680000D01*
X118826345Y-32613765D01*
X118627963Y-32372037D01*
X118567389Y-32322325D01*
X117507064Y-31262000D01*
X117846140Y-31262000D01*
X117898815Y-31326185D01*
X117995506Y-31405537D01*
X118105820Y-31464502D01*
X118225518Y-31500812D01*
X118350000Y-31513072D01*
X119150000Y-31513072D01*
X119274482Y-31500812D01*
X119394180Y-31464502D01*
X119500000Y-31407939D01*
X119605820Y-31464502D01*
X119725518Y-31500812D01*
X119850000Y-31513072D01*
X119964250Y-31510000D01*
X120123000Y-31351250D01*
X120123000Y-30627000D01*
X120377000Y-30627000D01*
X120377000Y-31351250D01*
X120535750Y-31510000D01*
X120650000Y-31513072D01*
X120774482Y-31500812D01*
X120894180Y-31464502D01*
X121004494Y-31405537D01*
X121101185Y-31326185D01*
X121180537Y-31229494D01*
X121239502Y-31119180D01*
X121275812Y-30999482D01*
X121288072Y-30875000D01*
X121285000Y-30785750D01*
X121126250Y-30627000D01*
X120377000Y-30627000D01*
X120123000Y-30627000D01*
X120103000Y-30627000D01*
X120103000Y-30373000D01*
X120123000Y-30373000D01*
X120123000Y-29648750D01*
X120377000Y-29648750D01*
X120377000Y-30373000D01*
X121126250Y-30373000D01*
X121285000Y-30214250D01*
X121288072Y-30125000D01*
X121275812Y-30000518D01*
X121239502Y-29880820D01*
X121180537Y-29770506D01*
X121101185Y-29673815D01*
X121004494Y-29594463D01*
X120894180Y-29535498D01*
X120774482Y-29499188D01*
X120650000Y-29486928D01*
X120535750Y-29490000D01*
X120377000Y-29648750D01*
X120123000Y-29648750D01*
X119964250Y-29490000D01*
X119850000Y-29486928D01*
X119725518Y-29499188D01*
X119605820Y-29535498D01*
X119500000Y-29592061D01*
X119394180Y-29535498D01*
X119274482Y-29499188D01*
X119150000Y-29486928D01*
X118350000Y-29486928D01*
X118305949Y-29491266D01*
X118394180Y-29464502D01*
X118504494Y-29405537D01*
X118601185Y-29326185D01*
X118680537Y-29229494D01*
X118739502Y-29119180D01*
X118775812Y-28999482D01*
X118788072Y-28875000D01*
X118785000Y-28785750D01*
X118626250Y-28627000D01*
X117877000Y-28627000D01*
X117877000Y-29351250D01*
X118035750Y-29510000D01*
X118150000Y-29513072D01*
X118194051Y-29508734D01*
X118105820Y-29535498D01*
X117995506Y-29594463D01*
X117898815Y-29673815D01*
X117846140Y-29738000D01*
X115983063Y-29738000D01*
X115748099Y-29503036D01*
X115850000Y-29513072D01*
X116650000Y-29513072D01*
X116774482Y-29500812D01*
X116894180Y-29464502D01*
X117000000Y-29407939D01*
X117105820Y-29464502D01*
X117225518Y-29500812D01*
X117350000Y-29513072D01*
X117464250Y-29510000D01*
X117623000Y-29351250D01*
X117623000Y-28627000D01*
X117603000Y-28627000D01*
X117603000Y-28373000D01*
X117623000Y-28373000D01*
X117623000Y-28353000D01*
X117877000Y-28353000D01*
X117877000Y-28373000D01*
X118626250Y-28373000D01*
X118785000Y-28214250D01*
X118788072Y-28125000D01*
X118775812Y-28000518D01*
X118739502Y-27880820D01*
X118680537Y-27770506D01*
X118601185Y-27673815D01*
X118551457Y-27633004D01*
X118624482Y-27625812D01*
X118744180Y-27589502D01*
X118854494Y-27530537D01*
X118951185Y-27451185D01*
X119030537Y-27354494D01*
X119089502Y-27244180D01*
X119125812Y-27124482D01*
X119138072Y-27000000D01*
X119138072Y-25439559D01*
X119262352Y-25315279D01*
X119291422Y-25291422D01*
X119320149Y-25256418D01*
X119386645Y-25175393D01*
X119457401Y-25043016D01*
X119457402Y-25043015D01*
X119500974Y-24899378D01*
X119512000Y-24787426D01*
X119512000Y-24787423D01*
X119515686Y-24750000D01*
X119512000Y-24712577D01*
X119512000Y-23914353D01*
X119605820Y-23964502D01*
X119725518Y-24000812D01*
X119850000Y-24013072D01*
X119964250Y-24010000D01*
X120123000Y-23851250D01*
X120123000Y-23127000D01*
X120377000Y-23127000D01*
X120377000Y-23851250D01*
X120535750Y-24010000D01*
X120650000Y-24013072D01*
X120774482Y-24000812D01*
X120894180Y-23964502D01*
X121004494Y-23905537D01*
X121101185Y-23826185D01*
X121180537Y-23729494D01*
X121239502Y-23619180D01*
X121275812Y-23499482D01*
X121288072Y-23375000D01*
X121285000Y-23285750D01*
X121126250Y-23127000D01*
X120377000Y-23127000D01*
X120123000Y-23127000D01*
X120103000Y-23127000D01*
X120103000Y-22873000D01*
X120123000Y-22873000D01*
X120123000Y-22148750D01*
X120377000Y-22148750D01*
X120377000Y-22873000D01*
X121126250Y-22873000D01*
X121285000Y-22714250D01*
X121288072Y-22625000D01*
X121275812Y-22500518D01*
X121239502Y-22380820D01*
X121180537Y-22270506D01*
X121101185Y-22173815D01*
X121004494Y-22094463D01*
X120894180Y-22035498D01*
X120774482Y-21999188D01*
X120650000Y-21986928D01*
X120535750Y-21990000D01*
X120377000Y-22148750D01*
X120123000Y-22148750D01*
X119964250Y-21990000D01*
X119850000Y-21986928D01*
X119725518Y-21999188D01*
X119605820Y-22035498D01*
X119500000Y-22092061D01*
X119394180Y-22035498D01*
X119274482Y-21999188D01*
X119150000Y-21986928D01*
X118350000Y-21986928D01*
X118225518Y-21999188D01*
X118105820Y-22035498D01*
X117995506Y-22094463D01*
X117898815Y-22173815D01*
X117819463Y-22270506D01*
X117760498Y-22380820D01*
X117724188Y-22500518D01*
X117711928Y-22625000D01*
X117711928Y-23375000D01*
X117724188Y-23499482D01*
X117760498Y-23619180D01*
X117819463Y-23729494D01*
X117898815Y-23826185D01*
X117988001Y-23899377D01*
X117988001Y-24242937D01*
X115411347Y-21666284D01*
X115762352Y-21315279D01*
X115791422Y-21291422D01*
X115886645Y-21175392D01*
X115957402Y-21043015D01*
X116000974Y-20899377D01*
X116012000Y-20787425D01*
X116012000Y-20787424D01*
X116015686Y-20750001D01*
X116012000Y-20712578D01*
X116012000Y-19414353D01*
X116105820Y-19464502D01*
X116225518Y-19500812D01*
X116350000Y-19513072D01*
X116464250Y-19510000D01*
X116623000Y-19351250D01*
X116623000Y-18627000D01*
X116877000Y-18627000D01*
X116877000Y-19351250D01*
X117035750Y-19510000D01*
X117150000Y-19513072D01*
X117274482Y-19500812D01*
X117394180Y-19464502D01*
X117504494Y-19405537D01*
X117601185Y-19326185D01*
X117680537Y-19229494D01*
X117739502Y-19119180D01*
X117775812Y-18999482D01*
X117788072Y-18875000D01*
X117785000Y-18785750D01*
X117626250Y-18627000D01*
X116877000Y-18627000D01*
X116623000Y-18627000D01*
X116603000Y-18627000D01*
X116603000Y-18373000D01*
X116623000Y-18373000D01*
X116623000Y-17648750D01*
X116877000Y-17648750D01*
X116877000Y-18373000D01*
X117626250Y-18373000D01*
X117785000Y-18214250D01*
X117788072Y-18125000D01*
X117775812Y-18000518D01*
X117739502Y-17880820D01*
X117680537Y-17770506D01*
X117601185Y-17673815D01*
X117504494Y-17594463D01*
X117394180Y-17535498D01*
X117274482Y-17499188D01*
X117150000Y-17486928D01*
X117035750Y-17490000D01*
X116877000Y-17648750D01*
X116623000Y-17648750D01*
X116464250Y-17490000D01*
X116350000Y-17486928D01*
X116225518Y-17499188D01*
X116105820Y-17535498D01*
X116000000Y-17592061D01*
X115894180Y-17535498D01*
X115774482Y-17499188D01*
X115650000Y-17486928D01*
X114850000Y-17486928D01*
X114725518Y-17499188D01*
X114605820Y-17535498D01*
X114495506Y-17594463D01*
X114398815Y-17673815D01*
X114319463Y-17770506D01*
X114260498Y-17880820D01*
X114224188Y-18000518D01*
X114211928Y-18125000D01*
X114211928Y-18875000D01*
X114224188Y-18999482D01*
X114260498Y-19119180D01*
X114319463Y-19229494D01*
X114398815Y-19326185D01*
X114488000Y-19399377D01*
X114488001Y-20434368D01*
X114333716Y-20588653D01*
X113177680Y-19432616D01*
X113127963Y-19372037D01*
X112886235Y-19173655D01*
X112610449Y-19026245D01*
X112311204Y-18935470D01*
X112077986Y-18912500D01*
X112077979Y-18912500D01*
X112000000Y-18904820D01*
X111922021Y-18912500D01*
X110405000Y-18912500D01*
X110405000Y-18738072D01*
X111450000Y-18738072D01*
X111574482Y-18725812D01*
X111694180Y-18689502D01*
X111804494Y-18630537D01*
X111901185Y-18551185D01*
X111980537Y-18454494D01*
X112039502Y-18344180D01*
X112075812Y-18224482D01*
X112088072Y-18100000D01*
X112088072Y-16400000D01*
X112075812Y-16275518D01*
X112039502Y-16155820D01*
X111980537Y-16045506D01*
X111901185Y-15948815D01*
X111804494Y-15869463D01*
X111694180Y-15810498D01*
X111574482Y-15774188D01*
X111450000Y-15761928D01*
X109567797Y-15761928D01*
X109563482Y-15758387D01*
X109232539Y-15581494D01*
X108873445Y-15472564D01*
X108500000Y-15435783D01*
X108126556Y-15472564D01*
X107767462Y-15581494D01*
X107436519Y-15758387D01*
X107432204Y-15761928D01*
X105550000Y-15761928D01*
X105425518Y-15774188D01*
X105305820Y-15810498D01*
X105195506Y-15869463D01*
X105098815Y-15948815D01*
X105019463Y-16045506D01*
X104960498Y-16155820D01*
X104924188Y-16275518D01*
X104911928Y-16400000D01*
X100594190Y-16400000D01*
X100605000Y-16345656D01*
X100605000Y-15974344D01*
X100532561Y-15610166D01*
X100390466Y-15267118D01*
X100184175Y-14958382D01*
X99921618Y-14695825D01*
X99612882Y-14489534D01*
X99269834Y-14347439D01*
X98905656Y-14275000D01*
X98534344Y-14275000D01*
X98170166Y-14347439D01*
X97827118Y-14489534D01*
X97518382Y-14695825D01*
X97255825Y-14958382D01*
X97049534Y-15267118D01*
X96907439Y-15610166D01*
X96835000Y-15974344D01*
X87481219Y-15974344D01*
X87477133Y-12052205D01*
X104911928Y-12080235D01*
X104911928Y-12080235D01*
G37*
X104911928Y-12080235D02*
X104911928Y-13600000D01*
X104924188Y-13724482D01*
X104960498Y-13844180D01*
X105019463Y-13954494D01*
X105098815Y-14051185D01*
X105195506Y-14130537D01*
X105305820Y-14189502D01*
X105425518Y-14225812D01*
X105550000Y-14238072D01*
X107432203Y-14238072D01*
X107436518Y-14241613D01*
X107767461Y-14418506D01*
X108126555Y-14527436D01*
X108406418Y-14555000D01*
X114360925Y-14555000D01*
X115868046Y-16062122D01*
X115874188Y-16124482D01*
X115910498Y-16244180D01*
X115969463Y-16354494D01*
X116048815Y-16451185D01*
X116145506Y-16530537D01*
X116255820Y-16589502D01*
X116375518Y-16625812D01*
X116500000Y-16638072D01*
X116523436Y-16638072D01*
X116590307Y-16673815D01*
X116767461Y-16768506D01*
X117126555Y-16877436D01*
X117500000Y-16914217D01*
X117873444Y-16877436D01*
X118200572Y-16778203D01*
X118275369Y-16852999D01*
X118260498Y-16880820D01*
X118224188Y-17000518D01*
X118211928Y-17125000D01*
X118211928Y-17875000D01*
X118224188Y-17999482D01*
X118260498Y-18119180D01*
X118319463Y-18229494D01*
X118398815Y-18326185D01*
X118488001Y-18399377D01*
X118488000Y-18600623D01*
X118398815Y-18673815D01*
X118319463Y-18770506D01*
X118260498Y-18880820D01*
X118224188Y-19000518D01*
X118211928Y-19125000D01*
X118211928Y-19875000D01*
X118224188Y-19999482D01*
X118260498Y-20119180D01*
X118319463Y-20229494D01*
X118398815Y-20326185D01*
X118495506Y-20405537D01*
X118605820Y-20464502D01*
X118725518Y-20500812D01*
X118850000Y-20513072D01*
X119650000Y-20513072D01*
X119774482Y-20500812D01*
X119894180Y-20464502D01*
X120000000Y-20407939D01*
X120105820Y-20464502D01*
X120225518Y-20500812D01*
X120350000Y-20513072D01*
X120464250Y-20510000D01*
X120623000Y-20351250D01*
X120623000Y-19627000D01*
X120877000Y-19627000D01*
X120877000Y-20351250D01*
X121035750Y-20510000D01*
X121150000Y-20513072D01*
X121274482Y-20500812D01*
X121394180Y-20464502D01*
X121504494Y-20405537D01*
X121601185Y-20326185D01*
X121680537Y-20229494D01*
X121739502Y-20119180D01*
X121775812Y-19999482D01*
X121788072Y-19875000D01*
X121785000Y-19785750D01*
X121626250Y-19627000D01*
X120877000Y-19627000D01*
X120623000Y-19627000D01*
X120603000Y-19627000D01*
X120603000Y-19373000D01*
X120623000Y-19373000D01*
X120623000Y-18648750D01*
X120474250Y-18500000D01*
X120623000Y-18351250D01*
X120623000Y-17627000D01*
X120877000Y-17627000D01*
X120877000Y-18351250D01*
X121025750Y-18500000D01*
X120877000Y-18648750D01*
X120877000Y-19373000D01*
X121626250Y-19373000D01*
X121785000Y-19214250D01*
X121788072Y-19125000D01*
X121775812Y-19000518D01*
X121739502Y-18880820D01*
X121680537Y-18770506D01*
X121601185Y-18673815D01*
X121504494Y-18594463D01*
X121394180Y-18535498D01*
X121277159Y-18500000D01*
X121394180Y-18464502D01*
X121504494Y-18405537D01*
X121601185Y-18326185D01*
X121680537Y-18229494D01*
X121739502Y-18119180D01*
X121775812Y-17999482D01*
X121788072Y-17875000D01*
X121785000Y-17785750D01*
X121626250Y-17627000D01*
X120877000Y-17627000D01*
X120623000Y-17627000D01*
X120603000Y-17627000D01*
X120603000Y-17373000D01*
X120623000Y-17373000D01*
X120623000Y-16648750D01*
X120877000Y-16648750D01*
X120877000Y-17373000D01*
X121626250Y-17373000D01*
X121785000Y-17214250D01*
X121788072Y-17125000D01*
X121775812Y-17000518D01*
X121739502Y-16880820D01*
X121680537Y-16770506D01*
X121601185Y-16673815D01*
X121504494Y-16594463D01*
X121394180Y-16535498D01*
X121274482Y-16499188D01*
X121150000Y-16486928D01*
X121035750Y-16490000D01*
X120877000Y-16648750D01*
X120623000Y-16648750D01*
X120464250Y-16490000D01*
X120350000Y-16486928D01*
X120225518Y-16499188D01*
X120105820Y-16535498D01*
X120000000Y-16592061D01*
X119998063Y-16591025D01*
X119957402Y-16456985D01*
X119924465Y-16395364D01*
X119886645Y-16324607D01*
X119815279Y-16237648D01*
X119791422Y-16208578D01*
X119762352Y-16184721D01*
X119278203Y-15700572D01*
X119377436Y-15373445D01*
X119405000Y-15093582D01*
X119405000Y-15093580D01*
X119414217Y-15000000D01*
X119405000Y-14906420D01*
X119405000Y-14789075D01*
X120789076Y-13405000D01*
X128210925Y-13405000D01*
X133873000Y-19067076D01*
X133873000Y-28681928D01*
X129070000Y-28681928D01*
X128945518Y-28694188D01*
X128825820Y-28730498D01*
X128715506Y-28789463D01*
X128618815Y-28868815D01*
X128539463Y-28965506D01*
X128480498Y-29075820D01*
X128444188Y-29195518D01*
X128431928Y-29320000D01*
X128431928Y-32680000D01*
X128444188Y-32804482D01*
X128480498Y-32924180D01*
X128539463Y-33034494D01*
X128618815Y-33131185D01*
X128715506Y-33210537D01*
X128825820Y-33269502D01*
X128945518Y-33305812D01*
X129070000Y-33318072D01*
X133873000Y-33318072D01*
X133873000Y-59872795D01*
X87526868Y-59798204D01*
X87512324Y-45835792D01*
X96807637Y-45835792D01*
X96827954Y-46210492D01*
X96920981Y-46574031D01*
X97083144Y-46912435D01*
X97308211Y-47212700D01*
X97587531Y-47463288D01*
X97910372Y-47654568D01*
X98264326Y-47779190D01*
X98635792Y-47832363D01*
X98916596Y-47817137D01*
X105113086Y-46865767D01*
X105248445Y-46852435D01*
X105387870Y-46810141D01*
X105529030Y-46774019D01*
X105567122Y-46755765D01*
X105607539Y-46743505D01*
X105736037Y-46674822D01*
X105867435Y-46611856D01*
X105901230Y-46586524D01*
X105938482Y-46566613D01*
X106051117Y-46474175D01*
X106167700Y-46386789D01*
X106258526Y-46285549D01*
X109806005Y-42738072D01*
X111450000Y-42738072D01*
X111574482Y-42725812D01*
X111694180Y-42689502D01*
X111804494Y-42630537D01*
X111901185Y-42551185D01*
X111980537Y-42454494D01*
X112039502Y-42344180D01*
X112075812Y-42224482D01*
X112088072Y-42100000D01*
X112088072Y-40400000D01*
X112075812Y-40275518D01*
X112039502Y-40155820D01*
X111980537Y-40045506D01*
X111901185Y-39948815D01*
X111804494Y-39869463D01*
X111694180Y-39810498D01*
X111574482Y-39774188D01*
X111450000Y-39761928D01*
X109567797Y-39761928D01*
X109563482Y-39758387D01*
X109232539Y-39581495D01*
X108873444Y-39472565D01*
X108499999Y-39435783D01*
X108126554Y-39472565D01*
X107767460Y-39581495D01*
X107436517Y-39758387D01*
X107432202Y-39761928D01*
X105550000Y-39761928D01*
X105425518Y-39774188D01*
X105305820Y-39810498D01*
X105195506Y-39869463D01*
X105098815Y-39948815D01*
X105019463Y-40045506D01*
X104960498Y-40155820D01*
X104924188Y-40275518D01*
X104911928Y-40400000D01*
X104911928Y-42100000D01*
X104924188Y-42224482D01*
X104925876Y-42230048D01*
X103969171Y-43186754D01*
X98338408Y-44051266D01*
X98065969Y-44120981D01*
X97727565Y-44283144D01*
X97427300Y-44508211D01*
X97176712Y-44787531D01*
X96985432Y-45110372D01*
X96860810Y-45464326D01*
X96807637Y-45835792D01*
X87512324Y-45835792D01*
X87506115Y-39875000D01*
X100211928Y-39875000D01*
X100224188Y-39999482D01*
X100260498Y-40119180D01*
X100319463Y-40229494D01*
X100398815Y-40326185D01*
X100495506Y-40405537D01*
X100605820Y-40464502D01*
X100725518Y-40500812D01*
X100850000Y-40513072D01*
X100964250Y-40510000D01*
X101123000Y-40351250D01*
X101123000Y-39627000D01*
X100373750Y-39627000D01*
X100215000Y-39785750D01*
X100211928Y-39875000D01*
X87506115Y-39875000D01*
X87505334Y-39125000D01*
X100211928Y-39125000D01*
X100215000Y-39214250D01*
X100373750Y-39373000D01*
X101123000Y-39373000D01*
X101123000Y-38648750D01*
X100964250Y-38490000D01*
X100850000Y-38486928D01*
X100725518Y-38499188D01*
X100605820Y-38535498D01*
X100495506Y-38594463D01*
X100398815Y-38673815D01*
X100319463Y-38770506D01*
X100260498Y-38880820D01*
X100224188Y-39000518D01*
X100211928Y-39125000D01*
X87505334Y-39125000D01*
X87503512Y-37375000D01*
X100211928Y-37375000D01*
X100224188Y-37499482D01*
X100260498Y-37619180D01*
X100319463Y-37729494D01*
X100398815Y-37826185D01*
X100495506Y-37905537D01*
X100605820Y-37964502D01*
X100725518Y-38000812D01*
X100850000Y-38013072D01*
X100964250Y-38010000D01*
X101123000Y-37851250D01*
X101123000Y-37127000D01*
X100373750Y-37127000D01*
X100215000Y-37285750D01*
X100211928Y-37375000D01*
X87503512Y-37375000D01*
X87502731Y-36625000D01*
X100211928Y-36625000D01*
X100215000Y-36714250D01*
X100373750Y-36873000D01*
X101123000Y-36873000D01*
X101123000Y-36148750D01*
X101377000Y-36148750D01*
X101377000Y-36873000D01*
X101397000Y-36873000D01*
X101397000Y-37127000D01*
X101377000Y-37127000D01*
X101377000Y-37851250D01*
X101535750Y-38010000D01*
X101650000Y-38013072D01*
X101774482Y-38000812D01*
X101894180Y-37964502D01*
X101988001Y-37914353D01*
X101988000Y-38585647D01*
X101894180Y-38535498D01*
X101774482Y-38499188D01*
X101650000Y-38486928D01*
X101535750Y-38490000D01*
X101377000Y-38648750D01*
X101377000Y-39373000D01*
X101397000Y-39373000D01*
X101397000Y-39627000D01*
X101377000Y-39627000D01*
X101377000Y-40351250D01*
X101535750Y-40510000D01*
X101650000Y-40513072D01*
X101774482Y-40500812D01*
X101894180Y-40464502D01*
X102000000Y-40407939D01*
X102105820Y-40464502D01*
X102225518Y-40500812D01*
X102350000Y-40513072D01*
X103150000Y-40513072D01*
X103274482Y-40500812D01*
X103394180Y-40464502D01*
X103504494Y-40405537D01*
X103601185Y-40326185D01*
X103680537Y-40229494D01*
X103739502Y-40119180D01*
X103775812Y-39999482D01*
X103788072Y-39875000D01*
X103788072Y-39125000D01*
X103775812Y-39000518D01*
X103739502Y-38880820D01*
X103680537Y-38770506D01*
X103601185Y-38673815D01*
X103512000Y-38600623D01*
X103512000Y-37899377D01*
X103601185Y-37826185D01*
X103680537Y-37729494D01*
X103739502Y-37619180D01*
X103775812Y-37499482D01*
X103784428Y-37412000D01*
X104911928Y-37412000D01*
X104911928Y-37600000D01*
X104924188Y-37724482D01*
X104960498Y-37844180D01*
X105019463Y-37954494D01*
X105098815Y-38051185D01*
X105195506Y-38130537D01*
X105305820Y-38189502D01*
X105425518Y-38225812D01*
X105550000Y-38238072D01*
X107432203Y-38238072D01*
X107436518Y-38241613D01*
X107767461Y-38418506D01*
X108126555Y-38527436D01*
X108500000Y-38564217D01*
X108873444Y-38527436D01*
X109232538Y-38418506D01*
X109563482Y-38241613D01*
X109567797Y-38238072D01*
X110493009Y-38238072D01*
X115912501Y-43657565D01*
X115912500Y-46752074D01*
X115910498Y-46755820D01*
X115874188Y-46875518D01*
X115861928Y-47000000D01*
X115861928Y-49000000D01*
X115874188Y-49124482D01*
X115910498Y-49244180D01*
X115969463Y-49354494D01*
X116048815Y-49451185D01*
X116145506Y-49530537D01*
X116255820Y-49589502D01*
X116375518Y-49625812D01*
X116500000Y-49638072D01*
X118500000Y-49638072D01*
X118624482Y-49625812D01*
X118744180Y-49589502D01*
X118854494Y-49530537D01*
X118951185Y-49451185D01*
X119030537Y-49354494D01*
X119089502Y-49244180D01*
X119125812Y-49124482D01*
X119138072Y-49000000D01*
X119138072Y-47000000D01*
X119125812Y-46875518D01*
X119089502Y-46755820D01*
X119087500Y-46752075D01*
X119087500Y-43077978D01*
X119095180Y-42999999D01*
X119087500Y-42922020D01*
X119087500Y-42922014D01*
X119064530Y-42688796D01*
X119046958Y-42630867D01*
X118993455Y-42454494D01*
X118973755Y-42389551D01*
X118826345Y-42113765D01*
X118627963Y-41872037D01*
X118567389Y-41822325D01*
X112327680Y-35582617D01*
X112277963Y-35522037D01*
X112036235Y-35323655D01*
X111760449Y-35176245D01*
X111461204Y-35085470D01*
X111227986Y-35062500D01*
X111227979Y-35062500D01*
X111150000Y-35054820D01*
X111072021Y-35062500D01*
X110405000Y-35062500D01*
X110405000Y-34738072D01*
X111450000Y-34738072D01*
X111574482Y-34725812D01*
X111694180Y-34689502D01*
X111804494Y-34630537D01*
X111901185Y-34551185D01*
X111980537Y-34454494D01*
X112039502Y-34344180D01*
X112075812Y-34224482D01*
X112088072Y-34100000D01*
X112088072Y-32400000D01*
X112075812Y-32275518D01*
X112039502Y-32155820D01*
X111980537Y-32045506D01*
X111901185Y-31948815D01*
X111804494Y-31869463D01*
X111694180Y-31810498D01*
X111574482Y-31774188D01*
X111450000Y-31761928D01*
X109567797Y-31761928D01*
X109563482Y-31758387D01*
X109232539Y-31581494D01*
X108873445Y-31472564D01*
X108500000Y-31435783D01*
X108126556Y-31472564D01*
X107767462Y-31581494D01*
X107436519Y-31758387D01*
X107432204Y-31761928D01*
X105550000Y-31761928D01*
X105425518Y-31774188D01*
X105305820Y-31810498D01*
X105195506Y-31869463D01*
X105098815Y-31948815D01*
X105019463Y-32045506D01*
X104960498Y-32155820D01*
X104924188Y-32275518D01*
X104911928Y-32400000D01*
X104911928Y-34100000D01*
X104924188Y-34224482D01*
X104960498Y-34344180D01*
X105019463Y-34454494D01*
X105098815Y-34551185D01*
X105195506Y-34630537D01*
X105305820Y-34689502D01*
X105425518Y-34725812D01*
X105550000Y-34738072D01*
X106595001Y-34738072D01*
X106595000Y-35261928D01*
X105550000Y-35261928D01*
X105425518Y-35274188D01*
X105305820Y-35310498D01*
X105195506Y-35369463D01*
X105098815Y-35448815D01*
X105019463Y-35545506D01*
X104960498Y-35655820D01*
X104924188Y-35775518D01*
X104913110Y-35888000D01*
X103137423Y-35888000D01*
X103100000Y-35884314D01*
X103062577Y-35888000D01*
X103062574Y-35888000D01*
X102950622Y-35899026D01*
X102806985Y-35942598D01*
X102724049Y-35986928D01*
X102350000Y-35986928D01*
X102225518Y-35999188D01*
X102105820Y-36035498D01*
X102000000Y-36092061D01*
X101894180Y-36035498D01*
X101774482Y-35999188D01*
X101650000Y-35986928D01*
X101535750Y-35990000D01*
X101377000Y-36148750D01*
X101123000Y-36148750D01*
X100964250Y-35990000D01*
X100850000Y-35986928D01*
X100725518Y-35999188D01*
X100605820Y-36035498D01*
X100495506Y-36094463D01*
X100398815Y-36173815D01*
X100319463Y-36270506D01*
X100260498Y-36380820D01*
X100224188Y-36500518D01*
X100211928Y-36625000D01*
X87502731Y-36625000D01*
X87481219Y-15974344D01*
X96835000Y-15974344D01*
X96835000Y-16345656D01*
X96907439Y-16709834D01*
X97049534Y-17052882D01*
X97255825Y-17361618D01*
X97518382Y-17624175D01*
X97827118Y-17830466D01*
X98170166Y-17972561D01*
X98534344Y-18045000D01*
X98905656Y-18045000D01*
X99269834Y-17972561D01*
X99612882Y-17830466D01*
X99921618Y-17624175D01*
X100184175Y-17361618D01*
X100390466Y-17052882D01*
X100532561Y-16709834D01*
X100594190Y-16400000D01*
X104911928Y-16400000D01*
X104911928Y-18100000D01*
X104924188Y-18224482D01*
X104960498Y-18344180D01*
X105019463Y-18454494D01*
X105098815Y-18551185D01*
X105195506Y-18630537D01*
X105305820Y-18689502D01*
X105425518Y-18725812D01*
X105550000Y-18738072D01*
X106595001Y-18738072D01*
X106595000Y-19261928D01*
X105550000Y-19261928D01*
X105425518Y-19274188D01*
X105305820Y-19310498D01*
X105195506Y-19369463D01*
X105098815Y-19448815D01*
X105019463Y-19545506D01*
X104960498Y-19655820D01*
X104924188Y-19775518D01*
X104911928Y-19900000D01*
X104911928Y-21600000D01*
X104924188Y-21724482D01*
X104960498Y-21844180D01*
X105019463Y-21954494D01*
X105098815Y-22051185D01*
X105195506Y-22130537D01*
X105305820Y-22189502D01*
X105425518Y-22225812D01*
X105550000Y-22238072D01*
X107432203Y-22238072D01*
X107436518Y-22241613D01*
X107767461Y-22418506D01*
X108126555Y-22527436D01*
X108500000Y-22564217D01*
X108873444Y-22527436D01*
X109232538Y-22418506D01*
X109563482Y-22241613D01*
X109567797Y-22238072D01*
X111450000Y-22238072D01*
X111489153Y-22234216D01*
X112682612Y-23427676D01*
X112682617Y-23427680D01*
X115861928Y-26606992D01*
X115861928Y-27000000D01*
X115874188Y-27124482D01*
X115910498Y-27244180D01*
X115969463Y-27354494D01*
X116048815Y-27451185D01*
X116092368Y-27486928D01*
X115850000Y-27486928D01*
X115725518Y-27499188D01*
X115605820Y-27535498D01*
X115495506Y-27594463D01*
X115398815Y-27673815D01*
X115346140Y-27738000D01*
X113983063Y-27738000D01*
X113827680Y-27582616D01*
X113777963Y-27522037D01*
X113536235Y-27323655D01*
X113260449Y-27176245D01*
X112961204Y-27085470D01*
X112727986Y-27062500D01*
X112727979Y-27062500D01*
X112650000Y-27054820D01*
X112572021Y-27062500D01*
X110405000Y-27062500D01*
X110405000Y-26738072D01*
X111450000Y-26738072D01*
X111574482Y-26725812D01*
X111694180Y-26689502D01*
X111804494Y-26630537D01*
X111901185Y-26551185D01*
X111980537Y-26454494D01*
X112039502Y-26344180D01*
X112075812Y-26224482D01*
X112088072Y-26100000D01*
X112088072Y-24400000D01*
X112075812Y-24275518D01*
X112039502Y-24155820D01*
X111980537Y-24045506D01*
X111901185Y-23948815D01*
X111804494Y-23869463D01*
X111694180Y-23810498D01*
X111574482Y-23774188D01*
X111450000Y-23761928D01*
X109567797Y-23761928D01*
X109563482Y-23758387D01*
X109232539Y-23581494D01*
X108873445Y-23472564D01*
X108500000Y-23435783D01*
X108126556Y-23472564D01*
X107767462Y-23581494D01*
X107436519Y-23758387D01*
X107432204Y-23761928D01*
X105550000Y-23761928D01*
X105425518Y-23774188D01*
X105305820Y-23810498D01*
X105195506Y-23869463D01*
X105098815Y-23948815D01*
X105019463Y-24045506D01*
X104960498Y-24155820D01*
X104924188Y-24275518D01*
X104911928Y-24400000D01*
X104911928Y-26100000D01*
X104924188Y-26224482D01*
X104960498Y-26344180D01*
X105019463Y-26454494D01*
X105098815Y-26551185D01*
X105195506Y-26630537D01*
X105305820Y-26689502D01*
X105425518Y-26725812D01*
X105550000Y-26738072D01*
X106595001Y-26738072D01*
X106595000Y-27261928D01*
X105550000Y-27261928D01*
X105425518Y-27274188D01*
X105305820Y-27310498D01*
X105195506Y-27369463D01*
X105098815Y-27448815D01*
X105019463Y-27545506D01*
X104960498Y-27655820D01*
X104924188Y-27775518D01*
X104911928Y-27900000D01*
X104911928Y-29600000D01*
X104924188Y-29724482D01*
X104960498Y-29844180D01*
X105019463Y-29954494D01*
X105098815Y-30051185D01*
X105195506Y-30130537D01*
X105305820Y-30189502D01*
X105425518Y-30225812D01*
X105550000Y-30238072D01*
X107432203Y-30238072D01*
X107436518Y-30241613D01*
X107767461Y-30418506D01*
X108126555Y-30527436D01*
X108500000Y-30564217D01*
X108873444Y-30527436D01*
X109232538Y-30418506D01*
X109563482Y-30241613D01*
X109567797Y-30238072D01*
X111450000Y-30238072D01*
X111455808Y-30237500D01*
X111992437Y-30237500D01*
X113432612Y-31677676D01*
X113432617Y-31677680D01*
X115912501Y-34157565D01*
X115912500Y-35752074D01*
X115910498Y-35755820D01*
X115874188Y-35875518D01*
X115861928Y-36000000D01*
X115861928Y-38000000D01*
X115874188Y-38124482D01*
X115910498Y-38244180D01*
X115969463Y-38354494D01*
X116048815Y-38451185D01*
X116145506Y-38530537D01*
X116255820Y-38589502D01*
X116375518Y-38625812D01*
X116500000Y-38638072D01*
X118500000Y-38638072D01*
X118624482Y-38625812D01*
X118744180Y-38589502D01*
X118854494Y-38530537D01*
X118951185Y-38451185D01*
X119030537Y-38354494D01*
X119089502Y-38244180D01*
X119125812Y-38124482D01*
X119138072Y-38000000D01*
X119138072Y-36000000D01*
X119125812Y-35875518D01*
X119089502Y-35755820D01*
X119087500Y-35752075D01*
X119087500Y-33577979D01*
X119095180Y-33500000D01*
X119087500Y-33422021D01*
X119087500Y-33422014D01*
X119064530Y-33188796D01*
X119017723Y-33034494D01*
X118973755Y-32889550D01*
X118861748Y-32680000D01*
X118826345Y-32613765D01*
X118627963Y-32372037D01*
X118567389Y-32322325D01*
X117507064Y-31262000D01*
X117846140Y-31262000D01*
X117898815Y-31326185D01*
X117995506Y-31405537D01*
X118105820Y-31464502D01*
X118225518Y-31500812D01*
X118350000Y-31513072D01*
X119150000Y-31513072D01*
X119274482Y-31500812D01*
X119394180Y-31464502D01*
X119500000Y-31407939D01*
X119605820Y-31464502D01*
X119725518Y-31500812D01*
X119850000Y-31513072D01*
X119964250Y-31510000D01*
X120123000Y-31351250D01*
X120123000Y-30627000D01*
X120377000Y-30627000D01*
X120377000Y-31351250D01*
X120535750Y-31510000D01*
X120650000Y-31513072D01*
X120774482Y-31500812D01*
X120894180Y-31464502D01*
X121004494Y-31405537D01*
X121101185Y-31326185D01*
X121180537Y-31229494D01*
X121239502Y-31119180D01*
X121275812Y-30999482D01*
X121288072Y-30875000D01*
X121285000Y-30785750D01*
X121126250Y-30627000D01*
X120377000Y-30627000D01*
X120123000Y-30627000D01*
X120103000Y-30627000D01*
X120103000Y-30373000D01*
X120123000Y-30373000D01*
X120123000Y-29648750D01*
X120377000Y-29648750D01*
X120377000Y-30373000D01*
X121126250Y-30373000D01*
X121285000Y-30214250D01*
X121288072Y-30125000D01*
X121275812Y-30000518D01*
X121239502Y-29880820D01*
X121180537Y-29770506D01*
X121101185Y-29673815D01*
X121004494Y-29594463D01*
X120894180Y-29535498D01*
X120774482Y-29499188D01*
X120650000Y-29486928D01*
X120535750Y-29490000D01*
X120377000Y-29648750D01*
X120123000Y-29648750D01*
X119964250Y-29490000D01*
X119850000Y-29486928D01*
X119725518Y-29499188D01*
X119605820Y-29535498D01*
X119500000Y-29592061D01*
X119394180Y-29535498D01*
X119274482Y-29499188D01*
X119150000Y-29486928D01*
X118350000Y-29486928D01*
X118305949Y-29491266D01*
X118394180Y-29464502D01*
X118504494Y-29405537D01*
X118601185Y-29326185D01*
X118680537Y-29229494D01*
X118739502Y-29119180D01*
X118775812Y-28999482D01*
X118788072Y-28875000D01*
X118785000Y-28785750D01*
X118626250Y-28627000D01*
X117877000Y-28627000D01*
X117877000Y-29351250D01*
X118035750Y-29510000D01*
X118150000Y-29513072D01*
X118194051Y-29508734D01*
X118105820Y-29535498D01*
X117995506Y-29594463D01*
X117898815Y-29673815D01*
X117846140Y-29738000D01*
X115983063Y-29738000D01*
X115748099Y-29503036D01*
X115850000Y-29513072D01*
X116650000Y-29513072D01*
X116774482Y-29500812D01*
X116894180Y-29464502D01*
X117000000Y-29407939D01*
X117105820Y-29464502D01*
X117225518Y-29500812D01*
X117350000Y-29513072D01*
X117464250Y-29510000D01*
X117623000Y-29351250D01*
X117623000Y-28627000D01*
X117603000Y-28627000D01*
X117603000Y-28373000D01*
X117623000Y-28373000D01*
X117623000Y-28353000D01*
X117877000Y-28353000D01*
X117877000Y-28373000D01*
X118626250Y-28373000D01*
X118785000Y-28214250D01*
X118788072Y-28125000D01*
X118775812Y-28000518D01*
X118739502Y-27880820D01*
X118680537Y-27770506D01*
X118601185Y-27673815D01*
X118551457Y-27633004D01*
X118624482Y-27625812D01*
X118744180Y-27589502D01*
X118854494Y-27530537D01*
X118951185Y-27451185D01*
X119030537Y-27354494D01*
X119089502Y-27244180D01*
X119125812Y-27124482D01*
X119138072Y-27000000D01*
X119138072Y-25439559D01*
X119262352Y-25315279D01*
X119291422Y-25291422D01*
X119320149Y-25256418D01*
X119386645Y-25175393D01*
X119457401Y-25043016D01*
X119457402Y-25043015D01*
X119500974Y-24899378D01*
X119512000Y-24787426D01*
X119512000Y-24787423D01*
X119515686Y-24750000D01*
X119512000Y-24712577D01*
X119512000Y-23914353D01*
X119605820Y-23964502D01*
X119725518Y-24000812D01*
X119850000Y-24013072D01*
X119964250Y-24010000D01*
X120123000Y-23851250D01*
X120123000Y-23127000D01*
X120377000Y-23127000D01*
X120377000Y-23851250D01*
X120535750Y-24010000D01*
X120650000Y-24013072D01*
X120774482Y-24000812D01*
X120894180Y-23964502D01*
X121004494Y-23905537D01*
X121101185Y-23826185D01*
X121180537Y-23729494D01*
X121239502Y-23619180D01*
X121275812Y-23499482D01*
X121288072Y-23375000D01*
X121285000Y-23285750D01*
X121126250Y-23127000D01*
X120377000Y-23127000D01*
X120123000Y-23127000D01*
X120103000Y-23127000D01*
X120103000Y-22873000D01*
X120123000Y-22873000D01*
X120123000Y-22148750D01*
X120377000Y-22148750D01*
X120377000Y-22873000D01*
X121126250Y-22873000D01*
X121285000Y-22714250D01*
X121288072Y-22625000D01*
X121275812Y-22500518D01*
X121239502Y-22380820D01*
X121180537Y-22270506D01*
X121101185Y-22173815D01*
X121004494Y-22094463D01*
X120894180Y-22035498D01*
X120774482Y-21999188D01*
X120650000Y-21986928D01*
X120535750Y-21990000D01*
X120377000Y-22148750D01*
X120123000Y-22148750D01*
X119964250Y-21990000D01*
X119850000Y-21986928D01*
X119725518Y-21999188D01*
X119605820Y-22035498D01*
X119500000Y-22092061D01*
X119394180Y-22035498D01*
X119274482Y-21999188D01*
X119150000Y-21986928D01*
X118350000Y-21986928D01*
X118225518Y-21999188D01*
X118105820Y-22035498D01*
X117995506Y-22094463D01*
X117898815Y-22173815D01*
X117819463Y-22270506D01*
X117760498Y-22380820D01*
X117724188Y-22500518D01*
X117711928Y-22625000D01*
X117711928Y-23375000D01*
X117724188Y-23499482D01*
X117760498Y-23619180D01*
X117819463Y-23729494D01*
X117898815Y-23826185D01*
X117988001Y-23899377D01*
X117988001Y-24242937D01*
X115411347Y-21666284D01*
X115762352Y-21315279D01*
X115791422Y-21291422D01*
X115886645Y-21175392D01*
X115957402Y-21043015D01*
X116000974Y-20899377D01*
X116012000Y-20787425D01*
X116012000Y-20787424D01*
X116015686Y-20750001D01*
X116012000Y-20712578D01*
X116012000Y-19414353D01*
X116105820Y-19464502D01*
X116225518Y-19500812D01*
X116350000Y-19513072D01*
X116464250Y-19510000D01*
X116623000Y-19351250D01*
X116623000Y-18627000D01*
X116877000Y-18627000D01*
X116877000Y-19351250D01*
X117035750Y-19510000D01*
X117150000Y-19513072D01*
X117274482Y-19500812D01*
X117394180Y-19464502D01*
X117504494Y-19405537D01*
X117601185Y-19326185D01*
X117680537Y-19229494D01*
X117739502Y-19119180D01*
X117775812Y-18999482D01*
X117788072Y-18875000D01*
X117785000Y-18785750D01*
X117626250Y-18627000D01*
X116877000Y-18627000D01*
X116623000Y-18627000D01*
X116603000Y-18627000D01*
X116603000Y-18373000D01*
X116623000Y-18373000D01*
X116623000Y-17648750D01*
X116877000Y-17648750D01*
X116877000Y-18373000D01*
X117626250Y-18373000D01*
X117785000Y-18214250D01*
X117788072Y-18125000D01*
X117775812Y-18000518D01*
X117739502Y-17880820D01*
X117680537Y-17770506D01*
X117601185Y-17673815D01*
X117504494Y-17594463D01*
X117394180Y-17535498D01*
X117274482Y-17499188D01*
X117150000Y-17486928D01*
X117035750Y-17490000D01*
X116877000Y-17648750D01*
X116623000Y-17648750D01*
X116464250Y-17490000D01*
X116350000Y-17486928D01*
X116225518Y-17499188D01*
X116105820Y-17535498D01*
X116000000Y-17592061D01*
X115894180Y-17535498D01*
X115774482Y-17499188D01*
X115650000Y-17486928D01*
X114850000Y-17486928D01*
X114725518Y-17499188D01*
X114605820Y-17535498D01*
X114495506Y-17594463D01*
X114398815Y-17673815D01*
X114319463Y-17770506D01*
X114260498Y-17880820D01*
X114224188Y-18000518D01*
X114211928Y-18125000D01*
X114211928Y-18875000D01*
X114224188Y-18999482D01*
X114260498Y-19119180D01*
X114319463Y-19229494D01*
X114398815Y-19326185D01*
X114488000Y-19399377D01*
X114488001Y-20434368D01*
X114333716Y-20588653D01*
X113177680Y-19432616D01*
X113127963Y-19372037D01*
X112886235Y-19173655D01*
X112610449Y-19026245D01*
X112311204Y-18935470D01*
X112077986Y-18912500D01*
X112077979Y-18912500D01*
X112000000Y-18904820D01*
X111922021Y-18912500D01*
X110405000Y-18912500D01*
X110405000Y-18738072D01*
X111450000Y-18738072D01*
X111574482Y-18725812D01*
X111694180Y-18689502D01*
X111804494Y-18630537D01*
X111901185Y-18551185D01*
X111980537Y-18454494D01*
X112039502Y-18344180D01*
X112075812Y-18224482D01*
X112088072Y-18100000D01*
X112088072Y-16400000D01*
X112075812Y-16275518D01*
X112039502Y-16155820D01*
X111980537Y-16045506D01*
X111901185Y-15948815D01*
X111804494Y-15869463D01*
X111694180Y-15810498D01*
X111574482Y-15774188D01*
X111450000Y-15761928D01*
X109567797Y-15761928D01*
X109563482Y-15758387D01*
X109232539Y-15581494D01*
X108873445Y-15472564D01*
X108500000Y-15435783D01*
X108126556Y-15472564D01*
X107767462Y-15581494D01*
X107436519Y-15758387D01*
X107432204Y-15761928D01*
X105550000Y-15761928D01*
X105425518Y-15774188D01*
X105305820Y-15810498D01*
X105195506Y-15869463D01*
X105098815Y-15948815D01*
X105019463Y-16045506D01*
X104960498Y-16155820D01*
X104924188Y-16275518D01*
X104911928Y-16400000D01*
X100594190Y-16400000D01*
X100605000Y-16345656D01*
X100605000Y-15974344D01*
X100532561Y-15610166D01*
X100390466Y-15267118D01*
X100184175Y-14958382D01*
X99921618Y-14695825D01*
X99612882Y-14489534D01*
X99269834Y-14347439D01*
X98905656Y-14275000D01*
X98534344Y-14275000D01*
X98170166Y-14347439D01*
X97827118Y-14489534D01*
X97518382Y-14695825D01*
X97255825Y-14958382D01*
X97049534Y-15267118D01*
X96907439Y-15610166D01*
X96835000Y-15974344D01*
X87481219Y-15974344D01*
X87477133Y-12052205D01*
X104911928Y-12080235D01*
M02*
