G04 #@! TF.GenerationSoftware,KiCad,Pcbnew,(5.1.0)-1*
G04 #@! TF.CreationDate,2019-05-17T11:45:57-07:00*
G04 #@! TF.ProjectId,pwr supply rev 4,70777220-7375-4707-906c-792072657620,rev?*
G04 #@! TF.SameCoordinates,Original*
G04 #@! TF.FileFunction,Legend,Top*
G04 #@! TF.FilePolarity,Positive*
%FSLAX46Y46*%
G04 Gerber Fmt 4.6, Leading zero omitted, Abs format (unit mm)*
G04 Created by KiCad (PCBNEW (5.1.0)-1) date 2019-05-17 11:45:57*
%MOMM*%
%LPD*%
G04 APERTURE LIST*
%ADD10C,0.300000*%
%ADD11C,0.120000*%
%ADD12C,0.500000*%
%ADD13C,0.150000*%
G04 APERTURE END LIST*
D10*
X132535714Y-106557142D02*
X132750000Y-106628571D01*
X133107142Y-106628571D01*
X133250000Y-106557142D01*
X133321428Y-106485714D01*
X133392857Y-106342857D01*
X133392857Y-106200000D01*
X133321428Y-106057142D01*
X133250000Y-105985714D01*
X133107142Y-105914285D01*
X132821428Y-105842857D01*
X132678571Y-105771428D01*
X132607142Y-105700000D01*
X132535714Y-105557142D01*
X132535714Y-105414285D01*
X132607142Y-105271428D01*
X132678571Y-105200000D01*
X132821428Y-105128571D01*
X133178571Y-105128571D01*
X133392857Y-105200000D01*
X134678571Y-105628571D02*
X134678571Y-107128571D01*
X134678571Y-106557142D02*
X134535714Y-106628571D01*
X134250000Y-106628571D01*
X134107142Y-106557142D01*
X134035714Y-106485714D01*
X133964285Y-106342857D01*
X133964285Y-105914285D01*
X134035714Y-105771428D01*
X134107142Y-105700000D01*
X134250000Y-105628571D01*
X134535714Y-105628571D01*
X134678571Y-105700000D01*
X136035714Y-105628571D02*
X136035714Y-106628571D01*
X135392857Y-105628571D02*
X135392857Y-106414285D01*
X135464285Y-106557142D01*
X135607142Y-106628571D01*
X135821428Y-106628571D01*
X135964285Y-106557142D01*
X136035714Y-106485714D01*
X136750000Y-106628571D02*
X136750000Y-105628571D01*
X136750000Y-105128571D02*
X136678571Y-105200000D01*
X136750000Y-105271428D01*
X136821428Y-105200000D01*
X136750000Y-105128571D01*
X136750000Y-105271428D01*
X138107142Y-106628571D02*
X138107142Y-105128571D01*
X138107142Y-106557142D02*
X137964285Y-106628571D01*
X137678571Y-106628571D01*
X137535714Y-106557142D01*
X137464285Y-106485714D01*
X137392857Y-106342857D01*
X137392857Y-105914285D01*
X137464285Y-105771428D01*
X137535714Y-105700000D01*
X137678571Y-105628571D01*
X137964285Y-105628571D01*
X138107142Y-105700000D01*
X138750000Y-106557142D02*
X138892857Y-106628571D01*
X139178571Y-106628571D01*
X139321428Y-106557142D01*
X139392857Y-106414285D01*
X139392857Y-106342857D01*
X139321428Y-106200000D01*
X139178571Y-106128571D01*
X138964285Y-106128571D01*
X138821428Y-106057142D01*
X138750000Y-105914285D01*
X138750000Y-105842857D01*
X138821428Y-105700000D01*
X138964285Y-105628571D01*
X139178571Y-105628571D01*
X139321428Y-105700000D01*
X139821428Y-105628571D02*
X140392857Y-105628571D01*
X140035714Y-105128571D02*
X140035714Y-106414285D01*
X140107142Y-106557142D01*
X140250000Y-106628571D01*
X140392857Y-106628571D01*
X141535714Y-106628571D02*
X141535714Y-105842857D01*
X141464285Y-105700000D01*
X141321428Y-105628571D01*
X141035714Y-105628571D01*
X140892857Y-105700000D01*
X141535714Y-106557142D02*
X141392857Y-106628571D01*
X141035714Y-106628571D01*
X140892857Y-106557142D01*
X140821428Y-106414285D01*
X140821428Y-106271428D01*
X140892857Y-106128571D01*
X141035714Y-106057142D01*
X141392857Y-106057142D01*
X141535714Y-105985714D01*
X142035714Y-105628571D02*
X142607142Y-105628571D01*
X142250000Y-105128571D02*
X142250000Y-106414285D01*
X142321428Y-106557142D01*
X142464285Y-106628571D01*
X142607142Y-106628571D01*
X144250000Y-105628571D02*
X144250000Y-107128571D01*
X144250000Y-105700000D02*
X144392857Y-105628571D01*
X144678571Y-105628571D01*
X144821428Y-105700000D01*
X144892857Y-105771428D01*
X144964285Y-105914285D01*
X144964285Y-106342857D01*
X144892857Y-106485714D01*
X144821428Y-106557142D01*
X144678571Y-106628571D01*
X144392857Y-106628571D01*
X144250000Y-106557142D01*
X145821428Y-106628571D02*
X145678571Y-106557142D01*
X145607142Y-106485714D01*
X145535714Y-106342857D01*
X145535714Y-105914285D01*
X145607142Y-105771428D01*
X145678571Y-105700000D01*
X145821428Y-105628571D01*
X146035714Y-105628571D01*
X146178571Y-105700000D01*
X146250000Y-105771428D01*
X146321428Y-105914285D01*
X146321428Y-106342857D01*
X146250000Y-106485714D01*
X146178571Y-106557142D01*
X146035714Y-106628571D01*
X145821428Y-106628571D01*
X146821428Y-105628571D02*
X147107142Y-106628571D01*
X147392857Y-105914285D01*
X147678571Y-106628571D01*
X147964285Y-105628571D01*
X149107142Y-106557142D02*
X148964285Y-106628571D01*
X148678571Y-106628571D01*
X148535714Y-106557142D01*
X148464285Y-106414285D01*
X148464285Y-105842857D01*
X148535714Y-105700000D01*
X148678571Y-105628571D01*
X148964285Y-105628571D01*
X149107142Y-105700000D01*
X149178571Y-105842857D01*
X149178571Y-105985714D01*
X148464285Y-106128571D01*
X149821428Y-106628571D02*
X149821428Y-105628571D01*
X149821428Y-105914285D02*
X149892857Y-105771428D01*
X149964285Y-105700000D01*
X150107142Y-105628571D01*
X150250000Y-105628571D01*
X151821428Y-106557142D02*
X151964285Y-106628571D01*
X152250000Y-106628571D01*
X152392857Y-106557142D01*
X152464285Y-106414285D01*
X152464285Y-106342857D01*
X152392857Y-106200000D01*
X152250000Y-106128571D01*
X152035714Y-106128571D01*
X151892857Y-106057142D01*
X151821428Y-105914285D01*
X151821428Y-105842857D01*
X151892857Y-105700000D01*
X152035714Y-105628571D01*
X152250000Y-105628571D01*
X152392857Y-105700000D01*
X153750000Y-105628571D02*
X153750000Y-106628571D01*
X153107142Y-105628571D02*
X153107142Y-106414285D01*
X153178571Y-106557142D01*
X153321428Y-106628571D01*
X153535714Y-106628571D01*
X153678571Y-106557142D01*
X153750000Y-106485714D01*
X154464285Y-105628571D02*
X154464285Y-107128571D01*
X154464285Y-105700000D02*
X154607142Y-105628571D01*
X154892857Y-105628571D01*
X155035714Y-105700000D01*
X155107142Y-105771428D01*
X155178571Y-105914285D01*
X155178571Y-106342857D01*
X155107142Y-106485714D01*
X155035714Y-106557142D01*
X154892857Y-106628571D01*
X154607142Y-106628571D01*
X154464285Y-106557142D01*
X155821428Y-105628571D02*
X155821428Y-107128571D01*
X155821428Y-105700000D02*
X155964285Y-105628571D01*
X156250000Y-105628571D01*
X156392857Y-105700000D01*
X156464285Y-105771428D01*
X156535714Y-105914285D01*
X156535714Y-106342857D01*
X156464285Y-106485714D01*
X156392857Y-106557142D01*
X156250000Y-106628571D01*
X155964285Y-106628571D01*
X155821428Y-106557142D01*
X157392857Y-106628571D02*
X157250000Y-106557142D01*
X157178571Y-106414285D01*
X157178571Y-105128571D01*
X157821428Y-105628571D02*
X158178571Y-106628571D01*
X158535714Y-105628571D02*
X158178571Y-106628571D01*
X158035714Y-106985714D01*
X157964285Y-107057142D01*
X157821428Y-107128571D01*
X138928571Y-107821428D02*
X139000000Y-107750000D01*
X139142857Y-107678571D01*
X139500000Y-107678571D01*
X139642857Y-107750000D01*
X139714285Y-107821428D01*
X139785714Y-107964285D01*
X139785714Y-108107142D01*
X139714285Y-108321428D01*
X138857142Y-109178571D01*
X139785714Y-109178571D01*
X140714285Y-107678571D02*
X140857142Y-107678571D01*
X141000000Y-107750000D01*
X141071428Y-107821428D01*
X141142857Y-107964285D01*
X141214285Y-108250000D01*
X141214285Y-108607142D01*
X141142857Y-108892857D01*
X141071428Y-109035714D01*
X141000000Y-109107142D01*
X140857142Y-109178571D01*
X140714285Y-109178571D01*
X140571428Y-109107142D01*
X140500000Y-109035714D01*
X140428571Y-108892857D01*
X140357142Y-108607142D01*
X140357142Y-108250000D01*
X140428571Y-107964285D01*
X140500000Y-107821428D01*
X140571428Y-107750000D01*
X140714285Y-107678571D01*
X142642857Y-109178571D02*
X141785714Y-109178571D01*
X142214285Y-109178571D02*
X142214285Y-107678571D01*
X142071428Y-107892857D01*
X141928571Y-108035714D01*
X141785714Y-108107142D01*
X143357142Y-109178571D02*
X143642857Y-109178571D01*
X143785714Y-109107142D01*
X143857142Y-109035714D01*
X144000000Y-108821428D01*
X144071428Y-108535714D01*
X144071428Y-107964285D01*
X144000000Y-107821428D01*
X143928571Y-107750000D01*
X143785714Y-107678571D01*
X143500000Y-107678571D01*
X143357142Y-107750000D01*
X143285714Y-107821428D01*
X143214285Y-107964285D01*
X143214285Y-108321428D01*
X143285714Y-108464285D01*
X143357142Y-108535714D01*
X143500000Y-108607142D01*
X143785714Y-108607142D01*
X143928571Y-108535714D01*
X144000000Y-108464285D01*
X144071428Y-108321428D01*
X144357142Y-109321428D02*
X145500000Y-109321428D01*
X146142857Y-107678571D02*
X146285714Y-107678571D01*
X146428571Y-107750000D01*
X146500000Y-107821428D01*
X146571428Y-107964285D01*
X146642857Y-108250000D01*
X146642857Y-108607142D01*
X146571428Y-108892857D01*
X146500000Y-109035714D01*
X146428571Y-109107142D01*
X146285714Y-109178571D01*
X146142857Y-109178571D01*
X146000000Y-109107142D01*
X145928571Y-109035714D01*
X145857142Y-108892857D01*
X145785714Y-108607142D01*
X145785714Y-108250000D01*
X145857142Y-107964285D01*
X145928571Y-107821428D01*
X146000000Y-107750000D01*
X146142857Y-107678571D01*
X148000000Y-107678571D02*
X147285714Y-107678571D01*
X147214285Y-108392857D01*
X147285714Y-108321428D01*
X147428571Y-108250000D01*
X147785714Y-108250000D01*
X147928571Y-108321428D01*
X148000000Y-108392857D01*
X148071428Y-108535714D01*
X148071428Y-108892857D01*
X148000000Y-109035714D01*
X147928571Y-109107142D01*
X147785714Y-109178571D01*
X147428571Y-109178571D01*
X147285714Y-109107142D01*
X147214285Y-109035714D01*
X148357142Y-109321428D02*
X149500000Y-109321428D01*
X150142857Y-107678571D02*
X150285714Y-107678571D01*
X150428571Y-107750000D01*
X150500000Y-107821428D01*
X150571428Y-107964285D01*
X150642857Y-108250000D01*
X150642857Y-108607142D01*
X150571428Y-108892857D01*
X150500000Y-109035714D01*
X150428571Y-109107142D01*
X150285714Y-109178571D01*
X150142857Y-109178571D01*
X150000000Y-109107142D01*
X149928571Y-109035714D01*
X149857142Y-108892857D01*
X149785714Y-108607142D01*
X149785714Y-108250000D01*
X149857142Y-107964285D01*
X149928571Y-107821428D01*
X150000000Y-107750000D01*
X150142857Y-107678571D01*
X151357142Y-109178571D02*
X151642857Y-109178571D01*
X151785714Y-109107142D01*
X151857142Y-109035714D01*
X152000000Y-108821428D01*
X152071428Y-108535714D01*
X152071428Y-107964285D01*
X152000000Y-107821428D01*
X151928571Y-107750000D01*
X151785714Y-107678571D01*
X151500000Y-107678571D01*
X151357142Y-107750000D01*
X151285714Y-107821428D01*
X151214285Y-107964285D01*
X151214285Y-108321428D01*
X151285714Y-108464285D01*
X151357142Y-108535714D01*
X151500000Y-108607142D01*
X151785714Y-108607142D01*
X151928571Y-108535714D01*
X152000000Y-108464285D01*
X152071428Y-108321428D01*
X134428571Y-111300000D02*
X135142857Y-111300000D01*
X134285714Y-111728571D02*
X134785714Y-110228571D01*
X135285714Y-111728571D01*
X136428571Y-111728571D02*
X136428571Y-110228571D01*
X136428571Y-111657142D02*
X136285714Y-111728571D01*
X136000000Y-111728571D01*
X135857142Y-111657142D01*
X135785714Y-111585714D01*
X135714285Y-111442857D01*
X135714285Y-111014285D01*
X135785714Y-110871428D01*
X135857142Y-110800000D01*
X136000000Y-110728571D01*
X136285714Y-110728571D01*
X136428571Y-110800000D01*
X137142857Y-111728571D02*
X137142857Y-110728571D01*
X137142857Y-110871428D02*
X137214285Y-110800000D01*
X137357142Y-110728571D01*
X137571428Y-110728571D01*
X137714285Y-110800000D01*
X137785714Y-110942857D01*
X137785714Y-111728571D01*
X137785714Y-110942857D02*
X137857142Y-110800000D01*
X138000000Y-110728571D01*
X138214285Y-110728571D01*
X138357142Y-110800000D01*
X138428571Y-110942857D01*
X138428571Y-111728571D01*
X139142857Y-111728571D02*
X139142857Y-110728571D01*
X139142857Y-110228571D02*
X139071428Y-110300000D01*
X139142857Y-110371428D01*
X139214285Y-110300000D01*
X139142857Y-110228571D01*
X139142857Y-110371428D01*
X139857142Y-111728571D02*
X139857142Y-110728571D01*
X139857142Y-111014285D02*
X139928571Y-110871428D01*
X140000000Y-110800000D01*
X140142857Y-110728571D01*
X140285714Y-110728571D01*
X141428571Y-111728571D02*
X141428571Y-110942857D01*
X141357142Y-110800000D01*
X141214285Y-110728571D01*
X140928571Y-110728571D01*
X140785714Y-110800000D01*
X141428571Y-111657142D02*
X141285714Y-111728571D01*
X140928571Y-111728571D01*
X140785714Y-111657142D01*
X140714285Y-111514285D01*
X140714285Y-111371428D01*
X140785714Y-111228571D01*
X140928571Y-111157142D01*
X141285714Y-111157142D01*
X141428571Y-111085714D01*
X142357142Y-111728571D02*
X142214285Y-111657142D01*
X142142857Y-111514285D01*
X142142857Y-110228571D01*
X144071428Y-111728571D02*
X144071428Y-110228571D01*
X144785714Y-110728571D02*
X144785714Y-111728571D01*
X144785714Y-110871428D02*
X144857142Y-110800000D01*
X145000000Y-110728571D01*
X145214285Y-110728571D01*
X145357142Y-110800000D01*
X145428571Y-110942857D01*
X145428571Y-111728571D01*
X146071428Y-111657142D02*
X146214285Y-111728571D01*
X146500000Y-111728571D01*
X146642857Y-111657142D01*
X146714285Y-111514285D01*
X146714285Y-111442857D01*
X146642857Y-111300000D01*
X146500000Y-111228571D01*
X146285714Y-111228571D01*
X146142857Y-111157142D01*
X146071428Y-111014285D01*
X146071428Y-110942857D01*
X146142857Y-110800000D01*
X146285714Y-110728571D01*
X146500000Y-110728571D01*
X146642857Y-110800000D01*
X147142857Y-110728571D02*
X147714285Y-110728571D01*
X147357142Y-110228571D02*
X147357142Y-111514285D01*
X147428571Y-111657142D01*
X147571428Y-111728571D01*
X147714285Y-111728571D01*
X148214285Y-111728571D02*
X148214285Y-110728571D01*
X148214285Y-111014285D02*
X148285714Y-110871428D01*
X148357142Y-110800000D01*
X148500000Y-110728571D01*
X148642857Y-110728571D01*
X149785714Y-110728571D02*
X149785714Y-111728571D01*
X149142857Y-110728571D02*
X149142857Y-111514285D01*
X149214285Y-111657142D01*
X149357142Y-111728571D01*
X149571428Y-111728571D01*
X149714285Y-111657142D01*
X149785714Y-111585714D01*
X150500000Y-111728571D02*
X150500000Y-110728571D01*
X150500000Y-110871428D02*
X150571428Y-110800000D01*
X150714285Y-110728571D01*
X150928571Y-110728571D01*
X151071428Y-110800000D01*
X151142857Y-110942857D01*
X151142857Y-111728571D01*
X151142857Y-110942857D02*
X151214285Y-110800000D01*
X151357142Y-110728571D01*
X151571428Y-110728571D01*
X151714285Y-110800000D01*
X151785714Y-110942857D01*
X151785714Y-111728571D01*
X153071428Y-111657142D02*
X152928571Y-111728571D01*
X152642857Y-111728571D01*
X152500000Y-111657142D01*
X152428571Y-111514285D01*
X152428571Y-110942857D01*
X152500000Y-110800000D01*
X152642857Y-110728571D01*
X152928571Y-110728571D01*
X153071428Y-110800000D01*
X153142857Y-110942857D01*
X153142857Y-111085714D01*
X152428571Y-111228571D01*
X153785714Y-110728571D02*
X153785714Y-111728571D01*
X153785714Y-110871428D02*
X153857142Y-110800000D01*
X154000000Y-110728571D01*
X154214285Y-110728571D01*
X154357142Y-110800000D01*
X154428571Y-110942857D01*
X154428571Y-111728571D01*
X154928571Y-110728571D02*
X155500000Y-110728571D01*
X155142857Y-110228571D02*
X155142857Y-111514285D01*
X155214285Y-111657142D01*
X155357142Y-111728571D01*
X155500000Y-111728571D01*
X155928571Y-111657142D02*
X156071428Y-111728571D01*
X156357142Y-111728571D01*
X156500000Y-111657142D01*
X156571428Y-111514285D01*
X156571428Y-111442857D01*
X156500000Y-111300000D01*
X156357142Y-111228571D01*
X156142857Y-111228571D01*
X156000000Y-111157142D01*
X155928571Y-111014285D01*
X155928571Y-110942857D01*
X156000000Y-110800000D01*
X156142857Y-110728571D01*
X156357142Y-110728571D01*
X156500000Y-110800000D01*
D11*
X124898437Y-101116736D02*
G75*
G03X115100643Y-101120000I-4898437J-1383264D01*
G01*
X124898437Y-103883264D02*
G75*
G02X115100643Y-103880000I-4898437J1383264D01*
G01*
X124898437Y-103883264D02*
G75*
G03X124899357Y-101120000I-4898437J1383264D01*
G01*
X120000000Y-97450000D02*
X120000000Y-107550000D01*
X120040000Y-97450000D02*
X120040000Y-107550000D01*
X120080000Y-97450000D02*
X120080000Y-107550000D01*
X120120000Y-97451000D02*
X120120000Y-107549000D01*
X120160000Y-97452000D02*
X120160000Y-107548000D01*
X120200000Y-97453000D02*
X120200000Y-107547000D01*
X120240000Y-97455000D02*
X120240000Y-107545000D01*
X120280000Y-97457000D02*
X120280000Y-107543000D01*
X120320000Y-97460000D02*
X120320000Y-107540000D01*
X120360000Y-97462000D02*
X120360000Y-107538000D01*
X120400000Y-97465000D02*
X120400000Y-107535000D01*
X120440000Y-97469000D02*
X120440000Y-107531000D01*
X120480000Y-97472000D02*
X120480000Y-107528000D01*
X120520000Y-97476000D02*
X120520000Y-107524000D01*
X120560000Y-97480000D02*
X120560000Y-107520000D01*
X120600000Y-97485000D02*
X120600000Y-107515000D01*
X120640000Y-97490000D02*
X120640000Y-107510000D01*
X120680000Y-97495000D02*
X120680000Y-107505000D01*
X120721000Y-97501000D02*
X120721000Y-107499000D01*
X120761000Y-97507000D02*
X120761000Y-107493000D01*
X120801000Y-97513000D02*
X120801000Y-107487000D01*
X120841000Y-97519000D02*
X120841000Y-107481000D01*
X120881000Y-97526000D02*
X120881000Y-107474000D01*
X120921000Y-97533000D02*
X120921000Y-107467000D01*
X120961000Y-97541000D02*
X120961000Y-107459000D01*
X121001000Y-97549000D02*
X121001000Y-107451000D01*
X121041000Y-97557000D02*
X121041000Y-107443000D01*
X121081000Y-97565000D02*
X121081000Y-107435000D01*
X121121000Y-97574000D02*
X121121000Y-107426000D01*
X121161000Y-97583000D02*
X121161000Y-107417000D01*
X121201000Y-97593000D02*
X121201000Y-107407000D01*
X121241000Y-97603000D02*
X121241000Y-107397000D01*
X121281000Y-97613000D02*
X121281000Y-107387000D01*
X121321000Y-97624000D02*
X121321000Y-101319000D01*
X121321000Y-103681000D02*
X121321000Y-107376000D01*
X121361000Y-97635000D02*
X121361000Y-101319000D01*
X121361000Y-103681000D02*
X121361000Y-107365000D01*
X121401000Y-97646000D02*
X121401000Y-101319000D01*
X121401000Y-103681000D02*
X121401000Y-107354000D01*
X121441000Y-97657000D02*
X121441000Y-101319000D01*
X121441000Y-103681000D02*
X121441000Y-107343000D01*
X121481000Y-97669000D02*
X121481000Y-101319000D01*
X121481000Y-103681000D02*
X121481000Y-107331000D01*
X121521000Y-97682000D02*
X121521000Y-101319000D01*
X121521000Y-103681000D02*
X121521000Y-107318000D01*
X121561000Y-97694000D02*
X121561000Y-101319000D01*
X121561000Y-103681000D02*
X121561000Y-107306000D01*
X121601000Y-97708000D02*
X121601000Y-101319000D01*
X121601000Y-103681000D02*
X121601000Y-107292000D01*
X121641000Y-97721000D02*
X121641000Y-101319000D01*
X121641000Y-103681000D02*
X121641000Y-107279000D01*
X121681000Y-97735000D02*
X121681000Y-101319000D01*
X121681000Y-103681000D02*
X121681000Y-107265000D01*
X121721000Y-97749000D02*
X121721000Y-101319000D01*
X121721000Y-103681000D02*
X121721000Y-107251000D01*
X121761000Y-97763000D02*
X121761000Y-101319000D01*
X121761000Y-103681000D02*
X121761000Y-107237000D01*
X121801000Y-97778000D02*
X121801000Y-101319000D01*
X121801000Y-103681000D02*
X121801000Y-107222000D01*
X121841000Y-97794000D02*
X121841000Y-101319000D01*
X121841000Y-103681000D02*
X121841000Y-107206000D01*
X121881000Y-97809000D02*
X121881000Y-101319000D01*
X121881000Y-103681000D02*
X121881000Y-107191000D01*
X121921000Y-97826000D02*
X121921000Y-101319000D01*
X121921000Y-103681000D02*
X121921000Y-107174000D01*
X121961000Y-97842000D02*
X121961000Y-101319000D01*
X121961000Y-103681000D02*
X121961000Y-107158000D01*
X122001000Y-97859000D02*
X122001000Y-101319000D01*
X122001000Y-103681000D02*
X122001000Y-107141000D01*
X122041000Y-97876000D02*
X122041000Y-101319000D01*
X122041000Y-103681000D02*
X122041000Y-107124000D01*
X122081000Y-97894000D02*
X122081000Y-101319000D01*
X122081000Y-103681000D02*
X122081000Y-107106000D01*
X122121000Y-97912000D02*
X122121000Y-101319000D01*
X122121000Y-103681000D02*
X122121000Y-107088000D01*
X122161000Y-97931000D02*
X122161000Y-101319000D01*
X122161000Y-103681000D02*
X122161000Y-107069000D01*
X122201000Y-97950000D02*
X122201000Y-101319000D01*
X122201000Y-103681000D02*
X122201000Y-107050000D01*
X122241000Y-97969000D02*
X122241000Y-101319000D01*
X122241000Y-103681000D02*
X122241000Y-107031000D01*
X122281000Y-97989000D02*
X122281000Y-101319000D01*
X122281000Y-103681000D02*
X122281000Y-107011000D01*
X122321000Y-98009000D02*
X122321000Y-101319000D01*
X122321000Y-103681000D02*
X122321000Y-106991000D01*
X122361000Y-98030000D02*
X122361000Y-101319000D01*
X122361000Y-103681000D02*
X122361000Y-106970000D01*
X122401000Y-98051000D02*
X122401000Y-101319000D01*
X122401000Y-103681000D02*
X122401000Y-106949000D01*
X122441000Y-98072000D02*
X122441000Y-101319000D01*
X122441000Y-103681000D02*
X122441000Y-106928000D01*
X122481000Y-98095000D02*
X122481000Y-101319000D01*
X122481000Y-103681000D02*
X122481000Y-106905000D01*
X122521000Y-98117000D02*
X122521000Y-101319000D01*
X122521000Y-103681000D02*
X122521000Y-106883000D01*
X122561000Y-98140000D02*
X122561000Y-101319000D01*
X122561000Y-103681000D02*
X122561000Y-106860000D01*
X122601000Y-98164000D02*
X122601000Y-101319000D01*
X122601000Y-103681000D02*
X122601000Y-106836000D01*
X122641000Y-98188000D02*
X122641000Y-101319000D01*
X122641000Y-103681000D02*
X122641000Y-106812000D01*
X122681000Y-98212000D02*
X122681000Y-101319000D01*
X122681000Y-103681000D02*
X122681000Y-106788000D01*
X122721000Y-98237000D02*
X122721000Y-101319000D01*
X122721000Y-103681000D02*
X122721000Y-106763000D01*
X122761000Y-98263000D02*
X122761000Y-101319000D01*
X122761000Y-103681000D02*
X122761000Y-106737000D01*
X122801000Y-98289000D02*
X122801000Y-101319000D01*
X122801000Y-103681000D02*
X122801000Y-106711000D01*
X122841000Y-98315000D02*
X122841000Y-101319000D01*
X122841000Y-103681000D02*
X122841000Y-106685000D01*
X122881000Y-98343000D02*
X122881000Y-101319000D01*
X122881000Y-103681000D02*
X122881000Y-106657000D01*
X122921000Y-98370000D02*
X122921000Y-101319000D01*
X122921000Y-103681000D02*
X122921000Y-106630000D01*
X122961000Y-98399000D02*
X122961000Y-101319000D01*
X122961000Y-103681000D02*
X122961000Y-106601000D01*
X123001000Y-98428000D02*
X123001000Y-101319000D01*
X123001000Y-103681000D02*
X123001000Y-106572000D01*
X123041000Y-98457000D02*
X123041000Y-101319000D01*
X123041000Y-103681000D02*
X123041000Y-106543000D01*
X123081000Y-98487000D02*
X123081000Y-101319000D01*
X123081000Y-103681000D02*
X123081000Y-106513000D01*
X123121000Y-98518000D02*
X123121000Y-101319000D01*
X123121000Y-103681000D02*
X123121000Y-106482000D01*
X123161000Y-98549000D02*
X123161000Y-101319000D01*
X123161000Y-103681000D02*
X123161000Y-106451000D01*
X123201000Y-98581000D02*
X123201000Y-101319000D01*
X123201000Y-103681000D02*
X123201000Y-106419000D01*
X123241000Y-98614000D02*
X123241000Y-101319000D01*
X123241000Y-103681000D02*
X123241000Y-106386000D01*
X123281000Y-98647000D02*
X123281000Y-101319000D01*
X123281000Y-103681000D02*
X123281000Y-106353000D01*
X123321000Y-98681000D02*
X123321000Y-101319000D01*
X123321000Y-103681000D02*
X123321000Y-106319000D01*
X123361000Y-98716000D02*
X123361000Y-101319000D01*
X123361000Y-103681000D02*
X123361000Y-106284000D01*
X123401000Y-98752000D02*
X123401000Y-101319000D01*
X123401000Y-103681000D02*
X123401000Y-106248000D01*
X123441000Y-98788000D02*
X123441000Y-101319000D01*
X123441000Y-103681000D02*
X123441000Y-106212000D01*
X123481000Y-98825000D02*
X123481000Y-101319000D01*
X123481000Y-103681000D02*
X123481000Y-106175000D01*
X123521000Y-98863000D02*
X123521000Y-101319000D01*
X123521000Y-103681000D02*
X123521000Y-106137000D01*
X123561000Y-98902000D02*
X123561000Y-101319000D01*
X123561000Y-103681000D02*
X123561000Y-106098000D01*
X123601000Y-98941000D02*
X123601000Y-101319000D01*
X123601000Y-103681000D02*
X123601000Y-106059000D01*
X123641000Y-98982000D02*
X123641000Y-101319000D01*
X123641000Y-103681000D02*
X123641000Y-106018000D01*
X123681000Y-99023000D02*
X123681000Y-105977000D01*
X123721000Y-99065000D02*
X123721000Y-105935000D01*
X123761000Y-99109000D02*
X123761000Y-105891000D01*
X123801000Y-99153000D02*
X123801000Y-105847000D01*
X123841000Y-99198000D02*
X123841000Y-105802000D01*
X123881000Y-99245000D02*
X123881000Y-105755000D01*
X123921000Y-99293000D02*
X123921000Y-105707000D01*
X123961000Y-99342000D02*
X123961000Y-105658000D01*
X124001000Y-99392000D02*
X124001000Y-105608000D01*
X124041000Y-99443000D02*
X124041000Y-105557000D01*
X124081000Y-99496000D02*
X124081000Y-105504000D01*
X124121000Y-99551000D02*
X124121000Y-105449000D01*
X124161000Y-99606000D02*
X124161000Y-105394000D01*
X124201000Y-99664000D02*
X124201000Y-105336000D01*
X124241000Y-99723000D02*
X124241000Y-105277000D01*
X124281000Y-99785000D02*
X124281000Y-105215000D01*
X124321000Y-99848000D02*
X124321000Y-105152000D01*
X124361000Y-99913000D02*
X124361000Y-105087000D01*
X124401000Y-99981000D02*
X124401000Y-105019000D01*
X124441000Y-100051000D02*
X124441000Y-104949000D01*
X124481000Y-100123000D02*
X124481000Y-104877000D01*
X124521000Y-100199000D02*
X124521000Y-104801000D01*
X124561000Y-100278000D02*
X124561000Y-104722000D01*
X124601000Y-100360000D02*
X124601000Y-104640000D01*
X124641000Y-100447000D02*
X124641000Y-104553000D01*
X124681000Y-100538000D02*
X124681000Y-104462000D01*
X124721000Y-100634000D02*
X124721000Y-104366000D01*
X124761000Y-100737000D02*
X124761000Y-104263000D01*
X124801000Y-100846000D02*
X124801000Y-104154000D01*
X124841000Y-100964000D02*
X124841000Y-104036000D01*
X124881000Y-101093000D02*
X124881000Y-103907000D01*
X124921000Y-101235000D02*
X124921000Y-103765000D01*
X124961000Y-101396000D02*
X124961000Y-103604000D01*
X125001000Y-101587000D02*
X125001000Y-103413000D01*
X125041000Y-101828000D02*
X125041000Y-103172000D01*
X125081000Y-102221000D02*
X125081000Y-102779000D01*
X114800000Y-102500000D02*
X116300000Y-102500000D01*
X115550000Y-101750000D02*
X115550000Y-103250000D01*
X124898437Y-46616736D02*
G75*
G03X115100643Y-46620000I-4898437J-1383264D01*
G01*
X124898437Y-49383264D02*
G75*
G02X115100643Y-49380000I-4898437J1383264D01*
G01*
X124898437Y-49383264D02*
G75*
G03X124899357Y-46620000I-4898437J1383264D01*
G01*
X120000000Y-42950000D02*
X120000000Y-53050000D01*
X120040000Y-42950000D02*
X120040000Y-53050000D01*
X120080000Y-42950000D02*
X120080000Y-53050000D01*
X120120000Y-42951000D02*
X120120000Y-53049000D01*
X120160000Y-42952000D02*
X120160000Y-53048000D01*
X120200000Y-42953000D02*
X120200000Y-53047000D01*
X120240000Y-42955000D02*
X120240000Y-53045000D01*
X120280000Y-42957000D02*
X120280000Y-53043000D01*
X120320000Y-42960000D02*
X120320000Y-53040000D01*
X120360000Y-42962000D02*
X120360000Y-53038000D01*
X120400000Y-42965000D02*
X120400000Y-53035000D01*
X120440000Y-42969000D02*
X120440000Y-53031000D01*
X120480000Y-42972000D02*
X120480000Y-53028000D01*
X120520000Y-42976000D02*
X120520000Y-53024000D01*
X120560000Y-42980000D02*
X120560000Y-53020000D01*
X120600000Y-42985000D02*
X120600000Y-53015000D01*
X120640000Y-42990000D02*
X120640000Y-53010000D01*
X120680000Y-42995000D02*
X120680000Y-53005000D01*
X120721000Y-43001000D02*
X120721000Y-52999000D01*
X120761000Y-43007000D02*
X120761000Y-52993000D01*
X120801000Y-43013000D02*
X120801000Y-52987000D01*
X120841000Y-43019000D02*
X120841000Y-52981000D01*
X120881000Y-43026000D02*
X120881000Y-52974000D01*
X120921000Y-43033000D02*
X120921000Y-52967000D01*
X120961000Y-43041000D02*
X120961000Y-52959000D01*
X121001000Y-43049000D02*
X121001000Y-52951000D01*
X121041000Y-43057000D02*
X121041000Y-52943000D01*
X121081000Y-43065000D02*
X121081000Y-52935000D01*
X121121000Y-43074000D02*
X121121000Y-52926000D01*
X121161000Y-43083000D02*
X121161000Y-52917000D01*
X121201000Y-43093000D02*
X121201000Y-52907000D01*
X121241000Y-43103000D02*
X121241000Y-52897000D01*
X121281000Y-43113000D02*
X121281000Y-52887000D01*
X121321000Y-43124000D02*
X121321000Y-46819000D01*
X121321000Y-49181000D02*
X121321000Y-52876000D01*
X121361000Y-43135000D02*
X121361000Y-46819000D01*
X121361000Y-49181000D02*
X121361000Y-52865000D01*
X121401000Y-43146000D02*
X121401000Y-46819000D01*
X121401000Y-49181000D02*
X121401000Y-52854000D01*
X121441000Y-43157000D02*
X121441000Y-46819000D01*
X121441000Y-49181000D02*
X121441000Y-52843000D01*
X121481000Y-43169000D02*
X121481000Y-46819000D01*
X121481000Y-49181000D02*
X121481000Y-52831000D01*
X121521000Y-43182000D02*
X121521000Y-46819000D01*
X121521000Y-49181000D02*
X121521000Y-52818000D01*
X121561000Y-43194000D02*
X121561000Y-46819000D01*
X121561000Y-49181000D02*
X121561000Y-52806000D01*
X121601000Y-43208000D02*
X121601000Y-46819000D01*
X121601000Y-49181000D02*
X121601000Y-52792000D01*
X121641000Y-43221000D02*
X121641000Y-46819000D01*
X121641000Y-49181000D02*
X121641000Y-52779000D01*
X121681000Y-43235000D02*
X121681000Y-46819000D01*
X121681000Y-49181000D02*
X121681000Y-52765000D01*
X121721000Y-43249000D02*
X121721000Y-46819000D01*
X121721000Y-49181000D02*
X121721000Y-52751000D01*
X121761000Y-43263000D02*
X121761000Y-46819000D01*
X121761000Y-49181000D02*
X121761000Y-52737000D01*
X121801000Y-43278000D02*
X121801000Y-46819000D01*
X121801000Y-49181000D02*
X121801000Y-52722000D01*
X121841000Y-43294000D02*
X121841000Y-46819000D01*
X121841000Y-49181000D02*
X121841000Y-52706000D01*
X121881000Y-43309000D02*
X121881000Y-46819000D01*
X121881000Y-49181000D02*
X121881000Y-52691000D01*
X121921000Y-43326000D02*
X121921000Y-46819000D01*
X121921000Y-49181000D02*
X121921000Y-52674000D01*
X121961000Y-43342000D02*
X121961000Y-46819000D01*
X121961000Y-49181000D02*
X121961000Y-52658000D01*
X122001000Y-43359000D02*
X122001000Y-46819000D01*
X122001000Y-49181000D02*
X122001000Y-52641000D01*
X122041000Y-43376000D02*
X122041000Y-46819000D01*
X122041000Y-49181000D02*
X122041000Y-52624000D01*
X122081000Y-43394000D02*
X122081000Y-46819000D01*
X122081000Y-49181000D02*
X122081000Y-52606000D01*
X122121000Y-43412000D02*
X122121000Y-46819000D01*
X122121000Y-49181000D02*
X122121000Y-52588000D01*
X122161000Y-43431000D02*
X122161000Y-46819000D01*
X122161000Y-49181000D02*
X122161000Y-52569000D01*
X122201000Y-43450000D02*
X122201000Y-46819000D01*
X122201000Y-49181000D02*
X122201000Y-52550000D01*
X122241000Y-43469000D02*
X122241000Y-46819000D01*
X122241000Y-49181000D02*
X122241000Y-52531000D01*
X122281000Y-43489000D02*
X122281000Y-46819000D01*
X122281000Y-49181000D02*
X122281000Y-52511000D01*
X122321000Y-43509000D02*
X122321000Y-46819000D01*
X122321000Y-49181000D02*
X122321000Y-52491000D01*
X122361000Y-43530000D02*
X122361000Y-46819000D01*
X122361000Y-49181000D02*
X122361000Y-52470000D01*
X122401000Y-43551000D02*
X122401000Y-46819000D01*
X122401000Y-49181000D02*
X122401000Y-52449000D01*
X122441000Y-43572000D02*
X122441000Y-46819000D01*
X122441000Y-49181000D02*
X122441000Y-52428000D01*
X122481000Y-43595000D02*
X122481000Y-46819000D01*
X122481000Y-49181000D02*
X122481000Y-52405000D01*
X122521000Y-43617000D02*
X122521000Y-46819000D01*
X122521000Y-49181000D02*
X122521000Y-52383000D01*
X122561000Y-43640000D02*
X122561000Y-46819000D01*
X122561000Y-49181000D02*
X122561000Y-52360000D01*
X122601000Y-43664000D02*
X122601000Y-46819000D01*
X122601000Y-49181000D02*
X122601000Y-52336000D01*
X122641000Y-43688000D02*
X122641000Y-46819000D01*
X122641000Y-49181000D02*
X122641000Y-52312000D01*
X122681000Y-43712000D02*
X122681000Y-46819000D01*
X122681000Y-49181000D02*
X122681000Y-52288000D01*
X122721000Y-43737000D02*
X122721000Y-46819000D01*
X122721000Y-49181000D02*
X122721000Y-52263000D01*
X122761000Y-43763000D02*
X122761000Y-46819000D01*
X122761000Y-49181000D02*
X122761000Y-52237000D01*
X122801000Y-43789000D02*
X122801000Y-46819000D01*
X122801000Y-49181000D02*
X122801000Y-52211000D01*
X122841000Y-43815000D02*
X122841000Y-46819000D01*
X122841000Y-49181000D02*
X122841000Y-52185000D01*
X122881000Y-43843000D02*
X122881000Y-46819000D01*
X122881000Y-49181000D02*
X122881000Y-52157000D01*
X122921000Y-43870000D02*
X122921000Y-46819000D01*
X122921000Y-49181000D02*
X122921000Y-52130000D01*
X122961000Y-43899000D02*
X122961000Y-46819000D01*
X122961000Y-49181000D02*
X122961000Y-52101000D01*
X123001000Y-43928000D02*
X123001000Y-46819000D01*
X123001000Y-49181000D02*
X123001000Y-52072000D01*
X123041000Y-43957000D02*
X123041000Y-46819000D01*
X123041000Y-49181000D02*
X123041000Y-52043000D01*
X123081000Y-43987000D02*
X123081000Y-46819000D01*
X123081000Y-49181000D02*
X123081000Y-52013000D01*
X123121000Y-44018000D02*
X123121000Y-46819000D01*
X123121000Y-49181000D02*
X123121000Y-51982000D01*
X123161000Y-44049000D02*
X123161000Y-46819000D01*
X123161000Y-49181000D02*
X123161000Y-51951000D01*
X123201000Y-44081000D02*
X123201000Y-46819000D01*
X123201000Y-49181000D02*
X123201000Y-51919000D01*
X123241000Y-44114000D02*
X123241000Y-46819000D01*
X123241000Y-49181000D02*
X123241000Y-51886000D01*
X123281000Y-44147000D02*
X123281000Y-46819000D01*
X123281000Y-49181000D02*
X123281000Y-51853000D01*
X123321000Y-44181000D02*
X123321000Y-46819000D01*
X123321000Y-49181000D02*
X123321000Y-51819000D01*
X123361000Y-44216000D02*
X123361000Y-46819000D01*
X123361000Y-49181000D02*
X123361000Y-51784000D01*
X123401000Y-44252000D02*
X123401000Y-46819000D01*
X123401000Y-49181000D02*
X123401000Y-51748000D01*
X123441000Y-44288000D02*
X123441000Y-46819000D01*
X123441000Y-49181000D02*
X123441000Y-51712000D01*
X123481000Y-44325000D02*
X123481000Y-46819000D01*
X123481000Y-49181000D02*
X123481000Y-51675000D01*
X123521000Y-44363000D02*
X123521000Y-46819000D01*
X123521000Y-49181000D02*
X123521000Y-51637000D01*
X123561000Y-44402000D02*
X123561000Y-46819000D01*
X123561000Y-49181000D02*
X123561000Y-51598000D01*
X123601000Y-44441000D02*
X123601000Y-46819000D01*
X123601000Y-49181000D02*
X123601000Y-51559000D01*
X123641000Y-44482000D02*
X123641000Y-46819000D01*
X123641000Y-49181000D02*
X123641000Y-51518000D01*
X123681000Y-44523000D02*
X123681000Y-51477000D01*
X123721000Y-44565000D02*
X123721000Y-51435000D01*
X123761000Y-44609000D02*
X123761000Y-51391000D01*
X123801000Y-44653000D02*
X123801000Y-51347000D01*
X123841000Y-44698000D02*
X123841000Y-51302000D01*
X123881000Y-44745000D02*
X123881000Y-51255000D01*
X123921000Y-44793000D02*
X123921000Y-51207000D01*
X123961000Y-44842000D02*
X123961000Y-51158000D01*
X124001000Y-44892000D02*
X124001000Y-51108000D01*
X124041000Y-44943000D02*
X124041000Y-51057000D01*
X124081000Y-44996000D02*
X124081000Y-51004000D01*
X124121000Y-45051000D02*
X124121000Y-50949000D01*
X124161000Y-45106000D02*
X124161000Y-50894000D01*
X124201000Y-45164000D02*
X124201000Y-50836000D01*
X124241000Y-45223000D02*
X124241000Y-50777000D01*
X124281000Y-45285000D02*
X124281000Y-50715000D01*
X124321000Y-45348000D02*
X124321000Y-50652000D01*
X124361000Y-45413000D02*
X124361000Y-50587000D01*
X124401000Y-45481000D02*
X124401000Y-50519000D01*
X124441000Y-45551000D02*
X124441000Y-50449000D01*
X124481000Y-45623000D02*
X124481000Y-50377000D01*
X124521000Y-45699000D02*
X124521000Y-50301000D01*
X124561000Y-45778000D02*
X124561000Y-50222000D01*
X124601000Y-45860000D02*
X124601000Y-50140000D01*
X124641000Y-45947000D02*
X124641000Y-50053000D01*
X124681000Y-46038000D02*
X124681000Y-49962000D01*
X124721000Y-46134000D02*
X124721000Y-49866000D01*
X124761000Y-46237000D02*
X124761000Y-49763000D01*
X124801000Y-46346000D02*
X124801000Y-49654000D01*
X124841000Y-46464000D02*
X124841000Y-49536000D01*
X124881000Y-46593000D02*
X124881000Y-49407000D01*
X124921000Y-46735000D02*
X124921000Y-49265000D01*
X124961000Y-46896000D02*
X124961000Y-49104000D01*
X125001000Y-47087000D02*
X125001000Y-48913000D01*
X125041000Y-47328000D02*
X125041000Y-48672000D01*
X125081000Y-47721000D02*
X125081000Y-48279000D01*
X114800000Y-48000000D02*
X116300000Y-48000000D01*
X115550000Y-47250000D02*
X115550000Y-48750000D01*
X124898437Y-89616736D02*
G75*
G03X115100643Y-89620000I-4898437J-1383264D01*
G01*
X124898437Y-92383264D02*
G75*
G02X115100643Y-92380000I-4898437J1383264D01*
G01*
X124898437Y-92383264D02*
G75*
G03X124899357Y-89620000I-4898437J1383264D01*
G01*
X120000000Y-85950000D02*
X120000000Y-96050000D01*
X120040000Y-85950000D02*
X120040000Y-96050000D01*
X120080000Y-85950000D02*
X120080000Y-96050000D01*
X120120000Y-85951000D02*
X120120000Y-96049000D01*
X120160000Y-85952000D02*
X120160000Y-96048000D01*
X120200000Y-85953000D02*
X120200000Y-96047000D01*
X120240000Y-85955000D02*
X120240000Y-96045000D01*
X120280000Y-85957000D02*
X120280000Y-96043000D01*
X120320000Y-85960000D02*
X120320000Y-96040000D01*
X120360000Y-85962000D02*
X120360000Y-96038000D01*
X120400000Y-85965000D02*
X120400000Y-96035000D01*
X120440000Y-85969000D02*
X120440000Y-96031000D01*
X120480000Y-85972000D02*
X120480000Y-96028000D01*
X120520000Y-85976000D02*
X120520000Y-96024000D01*
X120560000Y-85980000D02*
X120560000Y-96020000D01*
X120600000Y-85985000D02*
X120600000Y-96015000D01*
X120640000Y-85990000D02*
X120640000Y-96010000D01*
X120680000Y-85995000D02*
X120680000Y-96005000D01*
X120721000Y-86001000D02*
X120721000Y-95999000D01*
X120761000Y-86007000D02*
X120761000Y-95993000D01*
X120801000Y-86013000D02*
X120801000Y-95987000D01*
X120841000Y-86019000D02*
X120841000Y-95981000D01*
X120881000Y-86026000D02*
X120881000Y-95974000D01*
X120921000Y-86033000D02*
X120921000Y-95967000D01*
X120961000Y-86041000D02*
X120961000Y-95959000D01*
X121001000Y-86049000D02*
X121001000Y-95951000D01*
X121041000Y-86057000D02*
X121041000Y-95943000D01*
X121081000Y-86065000D02*
X121081000Y-95935000D01*
X121121000Y-86074000D02*
X121121000Y-95926000D01*
X121161000Y-86083000D02*
X121161000Y-95917000D01*
X121201000Y-86093000D02*
X121201000Y-95907000D01*
X121241000Y-86103000D02*
X121241000Y-95897000D01*
X121281000Y-86113000D02*
X121281000Y-95887000D01*
X121321000Y-86124000D02*
X121321000Y-89819000D01*
X121321000Y-92181000D02*
X121321000Y-95876000D01*
X121361000Y-86135000D02*
X121361000Y-89819000D01*
X121361000Y-92181000D02*
X121361000Y-95865000D01*
X121401000Y-86146000D02*
X121401000Y-89819000D01*
X121401000Y-92181000D02*
X121401000Y-95854000D01*
X121441000Y-86157000D02*
X121441000Y-89819000D01*
X121441000Y-92181000D02*
X121441000Y-95843000D01*
X121481000Y-86169000D02*
X121481000Y-89819000D01*
X121481000Y-92181000D02*
X121481000Y-95831000D01*
X121521000Y-86182000D02*
X121521000Y-89819000D01*
X121521000Y-92181000D02*
X121521000Y-95818000D01*
X121561000Y-86194000D02*
X121561000Y-89819000D01*
X121561000Y-92181000D02*
X121561000Y-95806000D01*
X121601000Y-86208000D02*
X121601000Y-89819000D01*
X121601000Y-92181000D02*
X121601000Y-95792000D01*
X121641000Y-86221000D02*
X121641000Y-89819000D01*
X121641000Y-92181000D02*
X121641000Y-95779000D01*
X121681000Y-86235000D02*
X121681000Y-89819000D01*
X121681000Y-92181000D02*
X121681000Y-95765000D01*
X121721000Y-86249000D02*
X121721000Y-89819000D01*
X121721000Y-92181000D02*
X121721000Y-95751000D01*
X121761000Y-86263000D02*
X121761000Y-89819000D01*
X121761000Y-92181000D02*
X121761000Y-95737000D01*
X121801000Y-86278000D02*
X121801000Y-89819000D01*
X121801000Y-92181000D02*
X121801000Y-95722000D01*
X121841000Y-86294000D02*
X121841000Y-89819000D01*
X121841000Y-92181000D02*
X121841000Y-95706000D01*
X121881000Y-86309000D02*
X121881000Y-89819000D01*
X121881000Y-92181000D02*
X121881000Y-95691000D01*
X121921000Y-86326000D02*
X121921000Y-89819000D01*
X121921000Y-92181000D02*
X121921000Y-95674000D01*
X121961000Y-86342000D02*
X121961000Y-89819000D01*
X121961000Y-92181000D02*
X121961000Y-95658000D01*
X122001000Y-86359000D02*
X122001000Y-89819000D01*
X122001000Y-92181000D02*
X122001000Y-95641000D01*
X122041000Y-86376000D02*
X122041000Y-89819000D01*
X122041000Y-92181000D02*
X122041000Y-95624000D01*
X122081000Y-86394000D02*
X122081000Y-89819000D01*
X122081000Y-92181000D02*
X122081000Y-95606000D01*
X122121000Y-86412000D02*
X122121000Y-89819000D01*
X122121000Y-92181000D02*
X122121000Y-95588000D01*
X122161000Y-86431000D02*
X122161000Y-89819000D01*
X122161000Y-92181000D02*
X122161000Y-95569000D01*
X122201000Y-86450000D02*
X122201000Y-89819000D01*
X122201000Y-92181000D02*
X122201000Y-95550000D01*
X122241000Y-86469000D02*
X122241000Y-89819000D01*
X122241000Y-92181000D02*
X122241000Y-95531000D01*
X122281000Y-86489000D02*
X122281000Y-89819000D01*
X122281000Y-92181000D02*
X122281000Y-95511000D01*
X122321000Y-86509000D02*
X122321000Y-89819000D01*
X122321000Y-92181000D02*
X122321000Y-95491000D01*
X122361000Y-86530000D02*
X122361000Y-89819000D01*
X122361000Y-92181000D02*
X122361000Y-95470000D01*
X122401000Y-86551000D02*
X122401000Y-89819000D01*
X122401000Y-92181000D02*
X122401000Y-95449000D01*
X122441000Y-86572000D02*
X122441000Y-89819000D01*
X122441000Y-92181000D02*
X122441000Y-95428000D01*
X122481000Y-86595000D02*
X122481000Y-89819000D01*
X122481000Y-92181000D02*
X122481000Y-95405000D01*
X122521000Y-86617000D02*
X122521000Y-89819000D01*
X122521000Y-92181000D02*
X122521000Y-95383000D01*
X122561000Y-86640000D02*
X122561000Y-89819000D01*
X122561000Y-92181000D02*
X122561000Y-95360000D01*
X122601000Y-86664000D02*
X122601000Y-89819000D01*
X122601000Y-92181000D02*
X122601000Y-95336000D01*
X122641000Y-86688000D02*
X122641000Y-89819000D01*
X122641000Y-92181000D02*
X122641000Y-95312000D01*
X122681000Y-86712000D02*
X122681000Y-89819000D01*
X122681000Y-92181000D02*
X122681000Y-95288000D01*
X122721000Y-86737000D02*
X122721000Y-89819000D01*
X122721000Y-92181000D02*
X122721000Y-95263000D01*
X122761000Y-86763000D02*
X122761000Y-89819000D01*
X122761000Y-92181000D02*
X122761000Y-95237000D01*
X122801000Y-86789000D02*
X122801000Y-89819000D01*
X122801000Y-92181000D02*
X122801000Y-95211000D01*
X122841000Y-86815000D02*
X122841000Y-89819000D01*
X122841000Y-92181000D02*
X122841000Y-95185000D01*
X122881000Y-86843000D02*
X122881000Y-89819000D01*
X122881000Y-92181000D02*
X122881000Y-95157000D01*
X122921000Y-86870000D02*
X122921000Y-89819000D01*
X122921000Y-92181000D02*
X122921000Y-95130000D01*
X122961000Y-86899000D02*
X122961000Y-89819000D01*
X122961000Y-92181000D02*
X122961000Y-95101000D01*
X123001000Y-86928000D02*
X123001000Y-89819000D01*
X123001000Y-92181000D02*
X123001000Y-95072000D01*
X123041000Y-86957000D02*
X123041000Y-89819000D01*
X123041000Y-92181000D02*
X123041000Y-95043000D01*
X123081000Y-86987000D02*
X123081000Y-89819000D01*
X123081000Y-92181000D02*
X123081000Y-95013000D01*
X123121000Y-87018000D02*
X123121000Y-89819000D01*
X123121000Y-92181000D02*
X123121000Y-94982000D01*
X123161000Y-87049000D02*
X123161000Y-89819000D01*
X123161000Y-92181000D02*
X123161000Y-94951000D01*
X123201000Y-87081000D02*
X123201000Y-89819000D01*
X123201000Y-92181000D02*
X123201000Y-94919000D01*
X123241000Y-87114000D02*
X123241000Y-89819000D01*
X123241000Y-92181000D02*
X123241000Y-94886000D01*
X123281000Y-87147000D02*
X123281000Y-89819000D01*
X123281000Y-92181000D02*
X123281000Y-94853000D01*
X123321000Y-87181000D02*
X123321000Y-89819000D01*
X123321000Y-92181000D02*
X123321000Y-94819000D01*
X123361000Y-87216000D02*
X123361000Y-89819000D01*
X123361000Y-92181000D02*
X123361000Y-94784000D01*
X123401000Y-87252000D02*
X123401000Y-89819000D01*
X123401000Y-92181000D02*
X123401000Y-94748000D01*
X123441000Y-87288000D02*
X123441000Y-89819000D01*
X123441000Y-92181000D02*
X123441000Y-94712000D01*
X123481000Y-87325000D02*
X123481000Y-89819000D01*
X123481000Y-92181000D02*
X123481000Y-94675000D01*
X123521000Y-87363000D02*
X123521000Y-89819000D01*
X123521000Y-92181000D02*
X123521000Y-94637000D01*
X123561000Y-87402000D02*
X123561000Y-89819000D01*
X123561000Y-92181000D02*
X123561000Y-94598000D01*
X123601000Y-87441000D02*
X123601000Y-89819000D01*
X123601000Y-92181000D02*
X123601000Y-94559000D01*
X123641000Y-87482000D02*
X123641000Y-89819000D01*
X123641000Y-92181000D02*
X123641000Y-94518000D01*
X123681000Y-87523000D02*
X123681000Y-94477000D01*
X123721000Y-87565000D02*
X123721000Y-94435000D01*
X123761000Y-87609000D02*
X123761000Y-94391000D01*
X123801000Y-87653000D02*
X123801000Y-94347000D01*
X123841000Y-87698000D02*
X123841000Y-94302000D01*
X123881000Y-87745000D02*
X123881000Y-94255000D01*
X123921000Y-87793000D02*
X123921000Y-94207000D01*
X123961000Y-87842000D02*
X123961000Y-94158000D01*
X124001000Y-87892000D02*
X124001000Y-94108000D01*
X124041000Y-87943000D02*
X124041000Y-94057000D01*
X124081000Y-87996000D02*
X124081000Y-94004000D01*
X124121000Y-88051000D02*
X124121000Y-93949000D01*
X124161000Y-88106000D02*
X124161000Y-93894000D01*
X124201000Y-88164000D02*
X124201000Y-93836000D01*
X124241000Y-88223000D02*
X124241000Y-93777000D01*
X124281000Y-88285000D02*
X124281000Y-93715000D01*
X124321000Y-88348000D02*
X124321000Y-93652000D01*
X124361000Y-88413000D02*
X124361000Y-93587000D01*
X124401000Y-88481000D02*
X124401000Y-93519000D01*
X124441000Y-88551000D02*
X124441000Y-93449000D01*
X124481000Y-88623000D02*
X124481000Y-93377000D01*
X124521000Y-88699000D02*
X124521000Y-93301000D01*
X124561000Y-88778000D02*
X124561000Y-93222000D01*
X124601000Y-88860000D02*
X124601000Y-93140000D01*
X124641000Y-88947000D02*
X124641000Y-93053000D01*
X124681000Y-89038000D02*
X124681000Y-92962000D01*
X124721000Y-89134000D02*
X124721000Y-92866000D01*
X124761000Y-89237000D02*
X124761000Y-92763000D01*
X124801000Y-89346000D02*
X124801000Y-92654000D01*
X124841000Y-89464000D02*
X124841000Y-92536000D01*
X124881000Y-89593000D02*
X124881000Y-92407000D01*
X124921000Y-89735000D02*
X124921000Y-92265000D01*
X124961000Y-89896000D02*
X124961000Y-92104000D01*
X125001000Y-90087000D02*
X125001000Y-91913000D01*
X125041000Y-90328000D02*
X125041000Y-91672000D01*
X125081000Y-90721000D02*
X125081000Y-91279000D01*
X114800000Y-91000000D02*
X116300000Y-91000000D01*
X115550000Y-90250000D02*
X115550000Y-91750000D01*
X124898437Y-35616736D02*
G75*
G03X115100643Y-35620000I-4898437J-1383264D01*
G01*
X124898437Y-38383264D02*
G75*
G02X115100643Y-38380000I-4898437J1383264D01*
G01*
X124898437Y-38383264D02*
G75*
G03X124899357Y-35620000I-4898437J1383264D01*
G01*
X120000000Y-31950000D02*
X120000000Y-42050000D01*
X120040000Y-31950000D02*
X120040000Y-42050000D01*
X120080000Y-31950000D02*
X120080000Y-42050000D01*
X120120000Y-31951000D02*
X120120000Y-42049000D01*
X120160000Y-31952000D02*
X120160000Y-42048000D01*
X120200000Y-31953000D02*
X120200000Y-42047000D01*
X120240000Y-31955000D02*
X120240000Y-42045000D01*
X120280000Y-31957000D02*
X120280000Y-42043000D01*
X120320000Y-31960000D02*
X120320000Y-42040000D01*
X120360000Y-31962000D02*
X120360000Y-42038000D01*
X120400000Y-31965000D02*
X120400000Y-42035000D01*
X120440000Y-31969000D02*
X120440000Y-42031000D01*
X120480000Y-31972000D02*
X120480000Y-42028000D01*
X120520000Y-31976000D02*
X120520000Y-42024000D01*
X120560000Y-31980000D02*
X120560000Y-42020000D01*
X120600000Y-31985000D02*
X120600000Y-42015000D01*
X120640000Y-31990000D02*
X120640000Y-42010000D01*
X120680000Y-31995000D02*
X120680000Y-42005000D01*
X120721000Y-32001000D02*
X120721000Y-41999000D01*
X120761000Y-32007000D02*
X120761000Y-41993000D01*
X120801000Y-32013000D02*
X120801000Y-41987000D01*
X120841000Y-32019000D02*
X120841000Y-41981000D01*
X120881000Y-32026000D02*
X120881000Y-41974000D01*
X120921000Y-32033000D02*
X120921000Y-41967000D01*
X120961000Y-32041000D02*
X120961000Y-41959000D01*
X121001000Y-32049000D02*
X121001000Y-41951000D01*
X121041000Y-32057000D02*
X121041000Y-41943000D01*
X121081000Y-32065000D02*
X121081000Y-41935000D01*
X121121000Y-32074000D02*
X121121000Y-41926000D01*
X121161000Y-32083000D02*
X121161000Y-41917000D01*
X121201000Y-32093000D02*
X121201000Y-41907000D01*
X121241000Y-32103000D02*
X121241000Y-41897000D01*
X121281000Y-32113000D02*
X121281000Y-41887000D01*
X121321000Y-32124000D02*
X121321000Y-35819000D01*
X121321000Y-38181000D02*
X121321000Y-41876000D01*
X121361000Y-32135000D02*
X121361000Y-35819000D01*
X121361000Y-38181000D02*
X121361000Y-41865000D01*
X121401000Y-32146000D02*
X121401000Y-35819000D01*
X121401000Y-38181000D02*
X121401000Y-41854000D01*
X121441000Y-32157000D02*
X121441000Y-35819000D01*
X121441000Y-38181000D02*
X121441000Y-41843000D01*
X121481000Y-32169000D02*
X121481000Y-35819000D01*
X121481000Y-38181000D02*
X121481000Y-41831000D01*
X121521000Y-32182000D02*
X121521000Y-35819000D01*
X121521000Y-38181000D02*
X121521000Y-41818000D01*
X121561000Y-32194000D02*
X121561000Y-35819000D01*
X121561000Y-38181000D02*
X121561000Y-41806000D01*
X121601000Y-32208000D02*
X121601000Y-35819000D01*
X121601000Y-38181000D02*
X121601000Y-41792000D01*
X121641000Y-32221000D02*
X121641000Y-35819000D01*
X121641000Y-38181000D02*
X121641000Y-41779000D01*
X121681000Y-32235000D02*
X121681000Y-35819000D01*
X121681000Y-38181000D02*
X121681000Y-41765000D01*
X121721000Y-32249000D02*
X121721000Y-35819000D01*
X121721000Y-38181000D02*
X121721000Y-41751000D01*
X121761000Y-32263000D02*
X121761000Y-35819000D01*
X121761000Y-38181000D02*
X121761000Y-41737000D01*
X121801000Y-32278000D02*
X121801000Y-35819000D01*
X121801000Y-38181000D02*
X121801000Y-41722000D01*
X121841000Y-32294000D02*
X121841000Y-35819000D01*
X121841000Y-38181000D02*
X121841000Y-41706000D01*
X121881000Y-32309000D02*
X121881000Y-35819000D01*
X121881000Y-38181000D02*
X121881000Y-41691000D01*
X121921000Y-32326000D02*
X121921000Y-35819000D01*
X121921000Y-38181000D02*
X121921000Y-41674000D01*
X121961000Y-32342000D02*
X121961000Y-35819000D01*
X121961000Y-38181000D02*
X121961000Y-41658000D01*
X122001000Y-32359000D02*
X122001000Y-35819000D01*
X122001000Y-38181000D02*
X122001000Y-41641000D01*
X122041000Y-32376000D02*
X122041000Y-35819000D01*
X122041000Y-38181000D02*
X122041000Y-41624000D01*
X122081000Y-32394000D02*
X122081000Y-35819000D01*
X122081000Y-38181000D02*
X122081000Y-41606000D01*
X122121000Y-32412000D02*
X122121000Y-35819000D01*
X122121000Y-38181000D02*
X122121000Y-41588000D01*
X122161000Y-32431000D02*
X122161000Y-35819000D01*
X122161000Y-38181000D02*
X122161000Y-41569000D01*
X122201000Y-32450000D02*
X122201000Y-35819000D01*
X122201000Y-38181000D02*
X122201000Y-41550000D01*
X122241000Y-32469000D02*
X122241000Y-35819000D01*
X122241000Y-38181000D02*
X122241000Y-41531000D01*
X122281000Y-32489000D02*
X122281000Y-35819000D01*
X122281000Y-38181000D02*
X122281000Y-41511000D01*
X122321000Y-32509000D02*
X122321000Y-35819000D01*
X122321000Y-38181000D02*
X122321000Y-41491000D01*
X122361000Y-32530000D02*
X122361000Y-35819000D01*
X122361000Y-38181000D02*
X122361000Y-41470000D01*
X122401000Y-32551000D02*
X122401000Y-35819000D01*
X122401000Y-38181000D02*
X122401000Y-41449000D01*
X122441000Y-32572000D02*
X122441000Y-35819000D01*
X122441000Y-38181000D02*
X122441000Y-41428000D01*
X122481000Y-32595000D02*
X122481000Y-35819000D01*
X122481000Y-38181000D02*
X122481000Y-41405000D01*
X122521000Y-32617000D02*
X122521000Y-35819000D01*
X122521000Y-38181000D02*
X122521000Y-41383000D01*
X122561000Y-32640000D02*
X122561000Y-35819000D01*
X122561000Y-38181000D02*
X122561000Y-41360000D01*
X122601000Y-32664000D02*
X122601000Y-35819000D01*
X122601000Y-38181000D02*
X122601000Y-41336000D01*
X122641000Y-32688000D02*
X122641000Y-35819000D01*
X122641000Y-38181000D02*
X122641000Y-41312000D01*
X122681000Y-32712000D02*
X122681000Y-35819000D01*
X122681000Y-38181000D02*
X122681000Y-41288000D01*
X122721000Y-32737000D02*
X122721000Y-35819000D01*
X122721000Y-38181000D02*
X122721000Y-41263000D01*
X122761000Y-32763000D02*
X122761000Y-35819000D01*
X122761000Y-38181000D02*
X122761000Y-41237000D01*
X122801000Y-32789000D02*
X122801000Y-35819000D01*
X122801000Y-38181000D02*
X122801000Y-41211000D01*
X122841000Y-32815000D02*
X122841000Y-35819000D01*
X122841000Y-38181000D02*
X122841000Y-41185000D01*
X122881000Y-32843000D02*
X122881000Y-35819000D01*
X122881000Y-38181000D02*
X122881000Y-41157000D01*
X122921000Y-32870000D02*
X122921000Y-35819000D01*
X122921000Y-38181000D02*
X122921000Y-41130000D01*
X122961000Y-32899000D02*
X122961000Y-35819000D01*
X122961000Y-38181000D02*
X122961000Y-41101000D01*
X123001000Y-32928000D02*
X123001000Y-35819000D01*
X123001000Y-38181000D02*
X123001000Y-41072000D01*
X123041000Y-32957000D02*
X123041000Y-35819000D01*
X123041000Y-38181000D02*
X123041000Y-41043000D01*
X123081000Y-32987000D02*
X123081000Y-35819000D01*
X123081000Y-38181000D02*
X123081000Y-41013000D01*
X123121000Y-33018000D02*
X123121000Y-35819000D01*
X123121000Y-38181000D02*
X123121000Y-40982000D01*
X123161000Y-33049000D02*
X123161000Y-35819000D01*
X123161000Y-38181000D02*
X123161000Y-40951000D01*
X123201000Y-33081000D02*
X123201000Y-35819000D01*
X123201000Y-38181000D02*
X123201000Y-40919000D01*
X123241000Y-33114000D02*
X123241000Y-35819000D01*
X123241000Y-38181000D02*
X123241000Y-40886000D01*
X123281000Y-33147000D02*
X123281000Y-35819000D01*
X123281000Y-38181000D02*
X123281000Y-40853000D01*
X123321000Y-33181000D02*
X123321000Y-35819000D01*
X123321000Y-38181000D02*
X123321000Y-40819000D01*
X123361000Y-33216000D02*
X123361000Y-35819000D01*
X123361000Y-38181000D02*
X123361000Y-40784000D01*
X123401000Y-33252000D02*
X123401000Y-35819000D01*
X123401000Y-38181000D02*
X123401000Y-40748000D01*
X123441000Y-33288000D02*
X123441000Y-35819000D01*
X123441000Y-38181000D02*
X123441000Y-40712000D01*
X123481000Y-33325000D02*
X123481000Y-35819000D01*
X123481000Y-38181000D02*
X123481000Y-40675000D01*
X123521000Y-33363000D02*
X123521000Y-35819000D01*
X123521000Y-38181000D02*
X123521000Y-40637000D01*
X123561000Y-33402000D02*
X123561000Y-35819000D01*
X123561000Y-38181000D02*
X123561000Y-40598000D01*
X123601000Y-33441000D02*
X123601000Y-35819000D01*
X123601000Y-38181000D02*
X123601000Y-40559000D01*
X123641000Y-33482000D02*
X123641000Y-35819000D01*
X123641000Y-38181000D02*
X123641000Y-40518000D01*
X123681000Y-33523000D02*
X123681000Y-40477000D01*
X123721000Y-33565000D02*
X123721000Y-40435000D01*
X123761000Y-33609000D02*
X123761000Y-40391000D01*
X123801000Y-33653000D02*
X123801000Y-40347000D01*
X123841000Y-33698000D02*
X123841000Y-40302000D01*
X123881000Y-33745000D02*
X123881000Y-40255000D01*
X123921000Y-33793000D02*
X123921000Y-40207000D01*
X123961000Y-33842000D02*
X123961000Y-40158000D01*
X124001000Y-33892000D02*
X124001000Y-40108000D01*
X124041000Y-33943000D02*
X124041000Y-40057000D01*
X124081000Y-33996000D02*
X124081000Y-40004000D01*
X124121000Y-34051000D02*
X124121000Y-39949000D01*
X124161000Y-34106000D02*
X124161000Y-39894000D01*
X124201000Y-34164000D02*
X124201000Y-39836000D01*
X124241000Y-34223000D02*
X124241000Y-39777000D01*
X124281000Y-34285000D02*
X124281000Y-39715000D01*
X124321000Y-34348000D02*
X124321000Y-39652000D01*
X124361000Y-34413000D02*
X124361000Y-39587000D01*
X124401000Y-34481000D02*
X124401000Y-39519000D01*
X124441000Y-34551000D02*
X124441000Y-39449000D01*
X124481000Y-34623000D02*
X124481000Y-39377000D01*
X124521000Y-34699000D02*
X124521000Y-39301000D01*
X124561000Y-34778000D02*
X124561000Y-39222000D01*
X124601000Y-34860000D02*
X124601000Y-39140000D01*
X124641000Y-34947000D02*
X124641000Y-39053000D01*
X124681000Y-35038000D02*
X124681000Y-38962000D01*
X124721000Y-35134000D02*
X124721000Y-38866000D01*
X124761000Y-35237000D02*
X124761000Y-38763000D01*
X124801000Y-35346000D02*
X124801000Y-38654000D01*
X124841000Y-35464000D02*
X124841000Y-38536000D01*
X124881000Y-35593000D02*
X124881000Y-38407000D01*
X124921000Y-35735000D02*
X124921000Y-38265000D01*
X124961000Y-35896000D02*
X124961000Y-38104000D01*
X125001000Y-36087000D02*
X125001000Y-37913000D01*
X125041000Y-36328000D02*
X125041000Y-37672000D01*
X125081000Y-36721000D02*
X125081000Y-37279000D01*
X114800000Y-37000000D02*
X116300000Y-37000000D01*
X115550000Y-36250000D02*
X115550000Y-37750000D01*
X124898437Y-78116736D02*
G75*
G03X115100643Y-78120000I-4898437J-1383264D01*
G01*
X124898437Y-80883264D02*
G75*
G02X115100643Y-80880000I-4898437J1383264D01*
G01*
X124898437Y-80883264D02*
G75*
G03X124899357Y-78120000I-4898437J1383264D01*
G01*
X120000000Y-74450000D02*
X120000000Y-84550000D01*
X120040000Y-74450000D02*
X120040000Y-84550000D01*
X120080000Y-74450000D02*
X120080000Y-84550000D01*
X120120000Y-74451000D02*
X120120000Y-84549000D01*
X120160000Y-74452000D02*
X120160000Y-84548000D01*
X120200000Y-74453000D02*
X120200000Y-84547000D01*
X120240000Y-74455000D02*
X120240000Y-84545000D01*
X120280000Y-74457000D02*
X120280000Y-84543000D01*
X120320000Y-74460000D02*
X120320000Y-84540000D01*
X120360000Y-74462000D02*
X120360000Y-84538000D01*
X120400000Y-74465000D02*
X120400000Y-84535000D01*
X120440000Y-74469000D02*
X120440000Y-84531000D01*
X120480000Y-74472000D02*
X120480000Y-84528000D01*
X120520000Y-74476000D02*
X120520000Y-84524000D01*
X120560000Y-74480000D02*
X120560000Y-84520000D01*
X120600000Y-74485000D02*
X120600000Y-84515000D01*
X120640000Y-74490000D02*
X120640000Y-84510000D01*
X120680000Y-74495000D02*
X120680000Y-84505000D01*
X120721000Y-74501000D02*
X120721000Y-84499000D01*
X120761000Y-74507000D02*
X120761000Y-84493000D01*
X120801000Y-74513000D02*
X120801000Y-84487000D01*
X120841000Y-74519000D02*
X120841000Y-84481000D01*
X120881000Y-74526000D02*
X120881000Y-84474000D01*
X120921000Y-74533000D02*
X120921000Y-84467000D01*
X120961000Y-74541000D02*
X120961000Y-84459000D01*
X121001000Y-74549000D02*
X121001000Y-84451000D01*
X121041000Y-74557000D02*
X121041000Y-84443000D01*
X121081000Y-74565000D02*
X121081000Y-84435000D01*
X121121000Y-74574000D02*
X121121000Y-84426000D01*
X121161000Y-74583000D02*
X121161000Y-84417000D01*
X121201000Y-74593000D02*
X121201000Y-84407000D01*
X121241000Y-74603000D02*
X121241000Y-84397000D01*
X121281000Y-74613000D02*
X121281000Y-84387000D01*
X121321000Y-74624000D02*
X121321000Y-78319000D01*
X121321000Y-80681000D02*
X121321000Y-84376000D01*
X121361000Y-74635000D02*
X121361000Y-78319000D01*
X121361000Y-80681000D02*
X121361000Y-84365000D01*
X121401000Y-74646000D02*
X121401000Y-78319000D01*
X121401000Y-80681000D02*
X121401000Y-84354000D01*
X121441000Y-74657000D02*
X121441000Y-78319000D01*
X121441000Y-80681000D02*
X121441000Y-84343000D01*
X121481000Y-74669000D02*
X121481000Y-78319000D01*
X121481000Y-80681000D02*
X121481000Y-84331000D01*
X121521000Y-74682000D02*
X121521000Y-78319000D01*
X121521000Y-80681000D02*
X121521000Y-84318000D01*
X121561000Y-74694000D02*
X121561000Y-78319000D01*
X121561000Y-80681000D02*
X121561000Y-84306000D01*
X121601000Y-74708000D02*
X121601000Y-78319000D01*
X121601000Y-80681000D02*
X121601000Y-84292000D01*
X121641000Y-74721000D02*
X121641000Y-78319000D01*
X121641000Y-80681000D02*
X121641000Y-84279000D01*
X121681000Y-74735000D02*
X121681000Y-78319000D01*
X121681000Y-80681000D02*
X121681000Y-84265000D01*
X121721000Y-74749000D02*
X121721000Y-78319000D01*
X121721000Y-80681000D02*
X121721000Y-84251000D01*
X121761000Y-74763000D02*
X121761000Y-78319000D01*
X121761000Y-80681000D02*
X121761000Y-84237000D01*
X121801000Y-74778000D02*
X121801000Y-78319000D01*
X121801000Y-80681000D02*
X121801000Y-84222000D01*
X121841000Y-74794000D02*
X121841000Y-78319000D01*
X121841000Y-80681000D02*
X121841000Y-84206000D01*
X121881000Y-74809000D02*
X121881000Y-78319000D01*
X121881000Y-80681000D02*
X121881000Y-84191000D01*
X121921000Y-74826000D02*
X121921000Y-78319000D01*
X121921000Y-80681000D02*
X121921000Y-84174000D01*
X121961000Y-74842000D02*
X121961000Y-78319000D01*
X121961000Y-80681000D02*
X121961000Y-84158000D01*
X122001000Y-74859000D02*
X122001000Y-78319000D01*
X122001000Y-80681000D02*
X122001000Y-84141000D01*
X122041000Y-74876000D02*
X122041000Y-78319000D01*
X122041000Y-80681000D02*
X122041000Y-84124000D01*
X122081000Y-74894000D02*
X122081000Y-78319000D01*
X122081000Y-80681000D02*
X122081000Y-84106000D01*
X122121000Y-74912000D02*
X122121000Y-78319000D01*
X122121000Y-80681000D02*
X122121000Y-84088000D01*
X122161000Y-74931000D02*
X122161000Y-78319000D01*
X122161000Y-80681000D02*
X122161000Y-84069000D01*
X122201000Y-74950000D02*
X122201000Y-78319000D01*
X122201000Y-80681000D02*
X122201000Y-84050000D01*
X122241000Y-74969000D02*
X122241000Y-78319000D01*
X122241000Y-80681000D02*
X122241000Y-84031000D01*
X122281000Y-74989000D02*
X122281000Y-78319000D01*
X122281000Y-80681000D02*
X122281000Y-84011000D01*
X122321000Y-75009000D02*
X122321000Y-78319000D01*
X122321000Y-80681000D02*
X122321000Y-83991000D01*
X122361000Y-75030000D02*
X122361000Y-78319000D01*
X122361000Y-80681000D02*
X122361000Y-83970000D01*
X122401000Y-75051000D02*
X122401000Y-78319000D01*
X122401000Y-80681000D02*
X122401000Y-83949000D01*
X122441000Y-75072000D02*
X122441000Y-78319000D01*
X122441000Y-80681000D02*
X122441000Y-83928000D01*
X122481000Y-75095000D02*
X122481000Y-78319000D01*
X122481000Y-80681000D02*
X122481000Y-83905000D01*
X122521000Y-75117000D02*
X122521000Y-78319000D01*
X122521000Y-80681000D02*
X122521000Y-83883000D01*
X122561000Y-75140000D02*
X122561000Y-78319000D01*
X122561000Y-80681000D02*
X122561000Y-83860000D01*
X122601000Y-75164000D02*
X122601000Y-78319000D01*
X122601000Y-80681000D02*
X122601000Y-83836000D01*
X122641000Y-75188000D02*
X122641000Y-78319000D01*
X122641000Y-80681000D02*
X122641000Y-83812000D01*
X122681000Y-75212000D02*
X122681000Y-78319000D01*
X122681000Y-80681000D02*
X122681000Y-83788000D01*
X122721000Y-75237000D02*
X122721000Y-78319000D01*
X122721000Y-80681000D02*
X122721000Y-83763000D01*
X122761000Y-75263000D02*
X122761000Y-78319000D01*
X122761000Y-80681000D02*
X122761000Y-83737000D01*
X122801000Y-75289000D02*
X122801000Y-78319000D01*
X122801000Y-80681000D02*
X122801000Y-83711000D01*
X122841000Y-75315000D02*
X122841000Y-78319000D01*
X122841000Y-80681000D02*
X122841000Y-83685000D01*
X122881000Y-75343000D02*
X122881000Y-78319000D01*
X122881000Y-80681000D02*
X122881000Y-83657000D01*
X122921000Y-75370000D02*
X122921000Y-78319000D01*
X122921000Y-80681000D02*
X122921000Y-83630000D01*
X122961000Y-75399000D02*
X122961000Y-78319000D01*
X122961000Y-80681000D02*
X122961000Y-83601000D01*
X123001000Y-75428000D02*
X123001000Y-78319000D01*
X123001000Y-80681000D02*
X123001000Y-83572000D01*
X123041000Y-75457000D02*
X123041000Y-78319000D01*
X123041000Y-80681000D02*
X123041000Y-83543000D01*
X123081000Y-75487000D02*
X123081000Y-78319000D01*
X123081000Y-80681000D02*
X123081000Y-83513000D01*
X123121000Y-75518000D02*
X123121000Y-78319000D01*
X123121000Y-80681000D02*
X123121000Y-83482000D01*
X123161000Y-75549000D02*
X123161000Y-78319000D01*
X123161000Y-80681000D02*
X123161000Y-83451000D01*
X123201000Y-75581000D02*
X123201000Y-78319000D01*
X123201000Y-80681000D02*
X123201000Y-83419000D01*
X123241000Y-75614000D02*
X123241000Y-78319000D01*
X123241000Y-80681000D02*
X123241000Y-83386000D01*
X123281000Y-75647000D02*
X123281000Y-78319000D01*
X123281000Y-80681000D02*
X123281000Y-83353000D01*
X123321000Y-75681000D02*
X123321000Y-78319000D01*
X123321000Y-80681000D02*
X123321000Y-83319000D01*
X123361000Y-75716000D02*
X123361000Y-78319000D01*
X123361000Y-80681000D02*
X123361000Y-83284000D01*
X123401000Y-75752000D02*
X123401000Y-78319000D01*
X123401000Y-80681000D02*
X123401000Y-83248000D01*
X123441000Y-75788000D02*
X123441000Y-78319000D01*
X123441000Y-80681000D02*
X123441000Y-83212000D01*
X123481000Y-75825000D02*
X123481000Y-78319000D01*
X123481000Y-80681000D02*
X123481000Y-83175000D01*
X123521000Y-75863000D02*
X123521000Y-78319000D01*
X123521000Y-80681000D02*
X123521000Y-83137000D01*
X123561000Y-75902000D02*
X123561000Y-78319000D01*
X123561000Y-80681000D02*
X123561000Y-83098000D01*
X123601000Y-75941000D02*
X123601000Y-78319000D01*
X123601000Y-80681000D02*
X123601000Y-83059000D01*
X123641000Y-75982000D02*
X123641000Y-78319000D01*
X123641000Y-80681000D02*
X123641000Y-83018000D01*
X123681000Y-76023000D02*
X123681000Y-82977000D01*
X123721000Y-76065000D02*
X123721000Y-82935000D01*
X123761000Y-76109000D02*
X123761000Y-82891000D01*
X123801000Y-76153000D02*
X123801000Y-82847000D01*
X123841000Y-76198000D02*
X123841000Y-82802000D01*
X123881000Y-76245000D02*
X123881000Y-82755000D01*
X123921000Y-76293000D02*
X123921000Y-82707000D01*
X123961000Y-76342000D02*
X123961000Y-82658000D01*
X124001000Y-76392000D02*
X124001000Y-82608000D01*
X124041000Y-76443000D02*
X124041000Y-82557000D01*
X124081000Y-76496000D02*
X124081000Y-82504000D01*
X124121000Y-76551000D02*
X124121000Y-82449000D01*
X124161000Y-76606000D02*
X124161000Y-82394000D01*
X124201000Y-76664000D02*
X124201000Y-82336000D01*
X124241000Y-76723000D02*
X124241000Y-82277000D01*
X124281000Y-76785000D02*
X124281000Y-82215000D01*
X124321000Y-76848000D02*
X124321000Y-82152000D01*
X124361000Y-76913000D02*
X124361000Y-82087000D01*
X124401000Y-76981000D02*
X124401000Y-82019000D01*
X124441000Y-77051000D02*
X124441000Y-81949000D01*
X124481000Y-77123000D02*
X124481000Y-81877000D01*
X124521000Y-77199000D02*
X124521000Y-81801000D01*
X124561000Y-77278000D02*
X124561000Y-81722000D01*
X124601000Y-77360000D02*
X124601000Y-81640000D01*
X124641000Y-77447000D02*
X124641000Y-81553000D01*
X124681000Y-77538000D02*
X124681000Y-81462000D01*
X124721000Y-77634000D02*
X124721000Y-81366000D01*
X124761000Y-77737000D02*
X124761000Y-81263000D01*
X124801000Y-77846000D02*
X124801000Y-81154000D01*
X124841000Y-77964000D02*
X124841000Y-81036000D01*
X124881000Y-78093000D02*
X124881000Y-80907000D01*
X124921000Y-78235000D02*
X124921000Y-80765000D01*
X124961000Y-78396000D02*
X124961000Y-80604000D01*
X125001000Y-78587000D02*
X125001000Y-80413000D01*
X125041000Y-78828000D02*
X125041000Y-80172000D01*
X125081000Y-79221000D02*
X125081000Y-79779000D01*
X114800000Y-79500000D02*
X116300000Y-79500000D01*
X115550000Y-78750000D02*
X115550000Y-80250000D01*
X124898437Y-24616736D02*
G75*
G03X115100643Y-24620000I-4898437J-1383264D01*
G01*
X124898437Y-27383264D02*
G75*
G02X115100643Y-27380000I-4898437J1383264D01*
G01*
X124898437Y-27383264D02*
G75*
G03X124899357Y-24620000I-4898437J1383264D01*
G01*
X120000000Y-20950000D02*
X120000000Y-31050000D01*
X120040000Y-20950000D02*
X120040000Y-31050000D01*
X120080000Y-20950000D02*
X120080000Y-31050000D01*
X120120000Y-20951000D02*
X120120000Y-31049000D01*
X120160000Y-20952000D02*
X120160000Y-31048000D01*
X120200000Y-20953000D02*
X120200000Y-31047000D01*
X120240000Y-20955000D02*
X120240000Y-31045000D01*
X120280000Y-20957000D02*
X120280000Y-31043000D01*
X120320000Y-20960000D02*
X120320000Y-31040000D01*
X120360000Y-20962000D02*
X120360000Y-31038000D01*
X120400000Y-20965000D02*
X120400000Y-31035000D01*
X120440000Y-20969000D02*
X120440000Y-31031000D01*
X120480000Y-20972000D02*
X120480000Y-31028000D01*
X120520000Y-20976000D02*
X120520000Y-31024000D01*
X120560000Y-20980000D02*
X120560000Y-31020000D01*
X120600000Y-20985000D02*
X120600000Y-31015000D01*
X120640000Y-20990000D02*
X120640000Y-31010000D01*
X120680000Y-20995000D02*
X120680000Y-31005000D01*
X120721000Y-21001000D02*
X120721000Y-30999000D01*
X120761000Y-21007000D02*
X120761000Y-30993000D01*
X120801000Y-21013000D02*
X120801000Y-30987000D01*
X120841000Y-21019000D02*
X120841000Y-30981000D01*
X120881000Y-21026000D02*
X120881000Y-30974000D01*
X120921000Y-21033000D02*
X120921000Y-30967000D01*
X120961000Y-21041000D02*
X120961000Y-30959000D01*
X121001000Y-21049000D02*
X121001000Y-30951000D01*
X121041000Y-21057000D02*
X121041000Y-30943000D01*
X121081000Y-21065000D02*
X121081000Y-30935000D01*
X121121000Y-21074000D02*
X121121000Y-30926000D01*
X121161000Y-21083000D02*
X121161000Y-30917000D01*
X121201000Y-21093000D02*
X121201000Y-30907000D01*
X121241000Y-21103000D02*
X121241000Y-30897000D01*
X121281000Y-21113000D02*
X121281000Y-30887000D01*
X121321000Y-21124000D02*
X121321000Y-24819000D01*
X121321000Y-27181000D02*
X121321000Y-30876000D01*
X121361000Y-21135000D02*
X121361000Y-24819000D01*
X121361000Y-27181000D02*
X121361000Y-30865000D01*
X121401000Y-21146000D02*
X121401000Y-24819000D01*
X121401000Y-27181000D02*
X121401000Y-30854000D01*
X121441000Y-21157000D02*
X121441000Y-24819000D01*
X121441000Y-27181000D02*
X121441000Y-30843000D01*
X121481000Y-21169000D02*
X121481000Y-24819000D01*
X121481000Y-27181000D02*
X121481000Y-30831000D01*
X121521000Y-21182000D02*
X121521000Y-24819000D01*
X121521000Y-27181000D02*
X121521000Y-30818000D01*
X121561000Y-21194000D02*
X121561000Y-24819000D01*
X121561000Y-27181000D02*
X121561000Y-30806000D01*
X121601000Y-21208000D02*
X121601000Y-24819000D01*
X121601000Y-27181000D02*
X121601000Y-30792000D01*
X121641000Y-21221000D02*
X121641000Y-24819000D01*
X121641000Y-27181000D02*
X121641000Y-30779000D01*
X121681000Y-21235000D02*
X121681000Y-24819000D01*
X121681000Y-27181000D02*
X121681000Y-30765000D01*
X121721000Y-21249000D02*
X121721000Y-24819000D01*
X121721000Y-27181000D02*
X121721000Y-30751000D01*
X121761000Y-21263000D02*
X121761000Y-24819000D01*
X121761000Y-27181000D02*
X121761000Y-30737000D01*
X121801000Y-21278000D02*
X121801000Y-24819000D01*
X121801000Y-27181000D02*
X121801000Y-30722000D01*
X121841000Y-21294000D02*
X121841000Y-24819000D01*
X121841000Y-27181000D02*
X121841000Y-30706000D01*
X121881000Y-21309000D02*
X121881000Y-24819000D01*
X121881000Y-27181000D02*
X121881000Y-30691000D01*
X121921000Y-21326000D02*
X121921000Y-24819000D01*
X121921000Y-27181000D02*
X121921000Y-30674000D01*
X121961000Y-21342000D02*
X121961000Y-24819000D01*
X121961000Y-27181000D02*
X121961000Y-30658000D01*
X122001000Y-21359000D02*
X122001000Y-24819000D01*
X122001000Y-27181000D02*
X122001000Y-30641000D01*
X122041000Y-21376000D02*
X122041000Y-24819000D01*
X122041000Y-27181000D02*
X122041000Y-30624000D01*
X122081000Y-21394000D02*
X122081000Y-24819000D01*
X122081000Y-27181000D02*
X122081000Y-30606000D01*
X122121000Y-21412000D02*
X122121000Y-24819000D01*
X122121000Y-27181000D02*
X122121000Y-30588000D01*
X122161000Y-21431000D02*
X122161000Y-24819000D01*
X122161000Y-27181000D02*
X122161000Y-30569000D01*
X122201000Y-21450000D02*
X122201000Y-24819000D01*
X122201000Y-27181000D02*
X122201000Y-30550000D01*
X122241000Y-21469000D02*
X122241000Y-24819000D01*
X122241000Y-27181000D02*
X122241000Y-30531000D01*
X122281000Y-21489000D02*
X122281000Y-24819000D01*
X122281000Y-27181000D02*
X122281000Y-30511000D01*
X122321000Y-21509000D02*
X122321000Y-24819000D01*
X122321000Y-27181000D02*
X122321000Y-30491000D01*
X122361000Y-21530000D02*
X122361000Y-24819000D01*
X122361000Y-27181000D02*
X122361000Y-30470000D01*
X122401000Y-21551000D02*
X122401000Y-24819000D01*
X122401000Y-27181000D02*
X122401000Y-30449000D01*
X122441000Y-21572000D02*
X122441000Y-24819000D01*
X122441000Y-27181000D02*
X122441000Y-30428000D01*
X122481000Y-21595000D02*
X122481000Y-24819000D01*
X122481000Y-27181000D02*
X122481000Y-30405000D01*
X122521000Y-21617000D02*
X122521000Y-24819000D01*
X122521000Y-27181000D02*
X122521000Y-30383000D01*
X122561000Y-21640000D02*
X122561000Y-24819000D01*
X122561000Y-27181000D02*
X122561000Y-30360000D01*
X122601000Y-21664000D02*
X122601000Y-24819000D01*
X122601000Y-27181000D02*
X122601000Y-30336000D01*
X122641000Y-21688000D02*
X122641000Y-24819000D01*
X122641000Y-27181000D02*
X122641000Y-30312000D01*
X122681000Y-21712000D02*
X122681000Y-24819000D01*
X122681000Y-27181000D02*
X122681000Y-30288000D01*
X122721000Y-21737000D02*
X122721000Y-24819000D01*
X122721000Y-27181000D02*
X122721000Y-30263000D01*
X122761000Y-21763000D02*
X122761000Y-24819000D01*
X122761000Y-27181000D02*
X122761000Y-30237000D01*
X122801000Y-21789000D02*
X122801000Y-24819000D01*
X122801000Y-27181000D02*
X122801000Y-30211000D01*
X122841000Y-21815000D02*
X122841000Y-24819000D01*
X122841000Y-27181000D02*
X122841000Y-30185000D01*
X122881000Y-21843000D02*
X122881000Y-24819000D01*
X122881000Y-27181000D02*
X122881000Y-30157000D01*
X122921000Y-21870000D02*
X122921000Y-24819000D01*
X122921000Y-27181000D02*
X122921000Y-30130000D01*
X122961000Y-21899000D02*
X122961000Y-24819000D01*
X122961000Y-27181000D02*
X122961000Y-30101000D01*
X123001000Y-21928000D02*
X123001000Y-24819000D01*
X123001000Y-27181000D02*
X123001000Y-30072000D01*
X123041000Y-21957000D02*
X123041000Y-24819000D01*
X123041000Y-27181000D02*
X123041000Y-30043000D01*
X123081000Y-21987000D02*
X123081000Y-24819000D01*
X123081000Y-27181000D02*
X123081000Y-30013000D01*
X123121000Y-22018000D02*
X123121000Y-24819000D01*
X123121000Y-27181000D02*
X123121000Y-29982000D01*
X123161000Y-22049000D02*
X123161000Y-24819000D01*
X123161000Y-27181000D02*
X123161000Y-29951000D01*
X123201000Y-22081000D02*
X123201000Y-24819000D01*
X123201000Y-27181000D02*
X123201000Y-29919000D01*
X123241000Y-22114000D02*
X123241000Y-24819000D01*
X123241000Y-27181000D02*
X123241000Y-29886000D01*
X123281000Y-22147000D02*
X123281000Y-24819000D01*
X123281000Y-27181000D02*
X123281000Y-29853000D01*
X123321000Y-22181000D02*
X123321000Y-24819000D01*
X123321000Y-27181000D02*
X123321000Y-29819000D01*
X123361000Y-22216000D02*
X123361000Y-24819000D01*
X123361000Y-27181000D02*
X123361000Y-29784000D01*
X123401000Y-22252000D02*
X123401000Y-24819000D01*
X123401000Y-27181000D02*
X123401000Y-29748000D01*
X123441000Y-22288000D02*
X123441000Y-24819000D01*
X123441000Y-27181000D02*
X123441000Y-29712000D01*
X123481000Y-22325000D02*
X123481000Y-24819000D01*
X123481000Y-27181000D02*
X123481000Y-29675000D01*
X123521000Y-22363000D02*
X123521000Y-24819000D01*
X123521000Y-27181000D02*
X123521000Y-29637000D01*
X123561000Y-22402000D02*
X123561000Y-24819000D01*
X123561000Y-27181000D02*
X123561000Y-29598000D01*
X123601000Y-22441000D02*
X123601000Y-24819000D01*
X123601000Y-27181000D02*
X123601000Y-29559000D01*
X123641000Y-22482000D02*
X123641000Y-24819000D01*
X123641000Y-27181000D02*
X123641000Y-29518000D01*
X123681000Y-22523000D02*
X123681000Y-29477000D01*
X123721000Y-22565000D02*
X123721000Y-29435000D01*
X123761000Y-22609000D02*
X123761000Y-29391000D01*
X123801000Y-22653000D02*
X123801000Y-29347000D01*
X123841000Y-22698000D02*
X123841000Y-29302000D01*
X123881000Y-22745000D02*
X123881000Y-29255000D01*
X123921000Y-22793000D02*
X123921000Y-29207000D01*
X123961000Y-22842000D02*
X123961000Y-29158000D01*
X124001000Y-22892000D02*
X124001000Y-29108000D01*
X124041000Y-22943000D02*
X124041000Y-29057000D01*
X124081000Y-22996000D02*
X124081000Y-29004000D01*
X124121000Y-23051000D02*
X124121000Y-28949000D01*
X124161000Y-23106000D02*
X124161000Y-28894000D01*
X124201000Y-23164000D02*
X124201000Y-28836000D01*
X124241000Y-23223000D02*
X124241000Y-28777000D01*
X124281000Y-23285000D02*
X124281000Y-28715000D01*
X124321000Y-23348000D02*
X124321000Y-28652000D01*
X124361000Y-23413000D02*
X124361000Y-28587000D01*
X124401000Y-23481000D02*
X124401000Y-28519000D01*
X124441000Y-23551000D02*
X124441000Y-28449000D01*
X124481000Y-23623000D02*
X124481000Y-28377000D01*
X124521000Y-23699000D02*
X124521000Y-28301000D01*
X124561000Y-23778000D02*
X124561000Y-28222000D01*
X124601000Y-23860000D02*
X124601000Y-28140000D01*
X124641000Y-23947000D02*
X124641000Y-28053000D01*
X124681000Y-24038000D02*
X124681000Y-27962000D01*
X124721000Y-24134000D02*
X124721000Y-27866000D01*
X124761000Y-24237000D02*
X124761000Y-27763000D01*
X124801000Y-24346000D02*
X124801000Y-27654000D01*
X124841000Y-24464000D02*
X124841000Y-27536000D01*
X124881000Y-24593000D02*
X124881000Y-27407000D01*
X124921000Y-24735000D02*
X124921000Y-27265000D01*
X124961000Y-24896000D02*
X124961000Y-27104000D01*
X125001000Y-25087000D02*
X125001000Y-26913000D01*
X125041000Y-25328000D02*
X125041000Y-26672000D01*
X125081000Y-25721000D02*
X125081000Y-26279000D01*
X114800000Y-26000000D02*
X116300000Y-26000000D01*
X115550000Y-25250000D02*
X115550000Y-26750000D01*
X121383264Y-73398437D02*
G75*
G03X121380000Y-63600643I-1383264J4898437D01*
G01*
X118616736Y-73398437D02*
G75*
G02X118620000Y-63600643I1383264J4898437D01*
G01*
X118616736Y-73398437D02*
G75*
G03X121380000Y-73399357I1383264J4898437D01*
G01*
X125050000Y-68500000D02*
X114950000Y-68500000D01*
X125050000Y-68540000D02*
X114950000Y-68540000D01*
X125050000Y-68580000D02*
X114950000Y-68580000D01*
X125049000Y-68620000D02*
X114951000Y-68620000D01*
X125048000Y-68660000D02*
X114952000Y-68660000D01*
X125047000Y-68700000D02*
X114953000Y-68700000D01*
X125045000Y-68740000D02*
X114955000Y-68740000D01*
X125043000Y-68780000D02*
X114957000Y-68780000D01*
X125040000Y-68820000D02*
X114960000Y-68820000D01*
X125038000Y-68860000D02*
X114962000Y-68860000D01*
X125035000Y-68900000D02*
X114965000Y-68900000D01*
X125031000Y-68940000D02*
X114969000Y-68940000D01*
X125028000Y-68980000D02*
X114972000Y-68980000D01*
X125024000Y-69020000D02*
X114976000Y-69020000D01*
X125020000Y-69060000D02*
X114980000Y-69060000D01*
X125015000Y-69100000D02*
X114985000Y-69100000D01*
X125010000Y-69140000D02*
X114990000Y-69140000D01*
X125005000Y-69180000D02*
X114995000Y-69180000D01*
X124999000Y-69221000D02*
X115001000Y-69221000D01*
X124993000Y-69261000D02*
X115007000Y-69261000D01*
X124987000Y-69301000D02*
X115013000Y-69301000D01*
X124981000Y-69341000D02*
X115019000Y-69341000D01*
X124974000Y-69381000D02*
X115026000Y-69381000D01*
X124967000Y-69421000D02*
X115033000Y-69421000D01*
X124959000Y-69461000D02*
X115041000Y-69461000D01*
X124951000Y-69501000D02*
X115049000Y-69501000D01*
X124943000Y-69541000D02*
X115057000Y-69541000D01*
X124935000Y-69581000D02*
X115065000Y-69581000D01*
X124926000Y-69621000D02*
X115074000Y-69621000D01*
X124917000Y-69661000D02*
X115083000Y-69661000D01*
X124907000Y-69701000D02*
X115093000Y-69701000D01*
X124897000Y-69741000D02*
X115103000Y-69741000D01*
X124887000Y-69781000D02*
X115113000Y-69781000D01*
X124876000Y-69821000D02*
X121181000Y-69821000D01*
X118819000Y-69821000D02*
X115124000Y-69821000D01*
X124865000Y-69861000D02*
X121181000Y-69861000D01*
X118819000Y-69861000D02*
X115135000Y-69861000D01*
X124854000Y-69901000D02*
X121181000Y-69901000D01*
X118819000Y-69901000D02*
X115146000Y-69901000D01*
X124843000Y-69941000D02*
X121181000Y-69941000D01*
X118819000Y-69941000D02*
X115157000Y-69941000D01*
X124831000Y-69981000D02*
X121181000Y-69981000D01*
X118819000Y-69981000D02*
X115169000Y-69981000D01*
X124818000Y-70021000D02*
X121181000Y-70021000D01*
X118819000Y-70021000D02*
X115182000Y-70021000D01*
X124806000Y-70061000D02*
X121181000Y-70061000D01*
X118819000Y-70061000D02*
X115194000Y-70061000D01*
X124792000Y-70101000D02*
X121181000Y-70101000D01*
X118819000Y-70101000D02*
X115208000Y-70101000D01*
X124779000Y-70141000D02*
X121181000Y-70141000D01*
X118819000Y-70141000D02*
X115221000Y-70141000D01*
X124765000Y-70181000D02*
X121181000Y-70181000D01*
X118819000Y-70181000D02*
X115235000Y-70181000D01*
X124751000Y-70221000D02*
X121181000Y-70221000D01*
X118819000Y-70221000D02*
X115249000Y-70221000D01*
X124737000Y-70261000D02*
X121181000Y-70261000D01*
X118819000Y-70261000D02*
X115263000Y-70261000D01*
X124722000Y-70301000D02*
X121181000Y-70301000D01*
X118819000Y-70301000D02*
X115278000Y-70301000D01*
X124706000Y-70341000D02*
X121181000Y-70341000D01*
X118819000Y-70341000D02*
X115294000Y-70341000D01*
X124691000Y-70381000D02*
X121181000Y-70381000D01*
X118819000Y-70381000D02*
X115309000Y-70381000D01*
X124674000Y-70421000D02*
X121181000Y-70421000D01*
X118819000Y-70421000D02*
X115326000Y-70421000D01*
X124658000Y-70461000D02*
X121181000Y-70461000D01*
X118819000Y-70461000D02*
X115342000Y-70461000D01*
X124641000Y-70501000D02*
X121181000Y-70501000D01*
X118819000Y-70501000D02*
X115359000Y-70501000D01*
X124624000Y-70541000D02*
X121181000Y-70541000D01*
X118819000Y-70541000D02*
X115376000Y-70541000D01*
X124606000Y-70581000D02*
X121181000Y-70581000D01*
X118819000Y-70581000D02*
X115394000Y-70581000D01*
X124588000Y-70621000D02*
X121181000Y-70621000D01*
X118819000Y-70621000D02*
X115412000Y-70621000D01*
X124569000Y-70661000D02*
X121181000Y-70661000D01*
X118819000Y-70661000D02*
X115431000Y-70661000D01*
X124550000Y-70701000D02*
X121181000Y-70701000D01*
X118819000Y-70701000D02*
X115450000Y-70701000D01*
X124531000Y-70741000D02*
X121181000Y-70741000D01*
X118819000Y-70741000D02*
X115469000Y-70741000D01*
X124511000Y-70781000D02*
X121181000Y-70781000D01*
X118819000Y-70781000D02*
X115489000Y-70781000D01*
X124491000Y-70821000D02*
X121181000Y-70821000D01*
X118819000Y-70821000D02*
X115509000Y-70821000D01*
X124470000Y-70861000D02*
X121181000Y-70861000D01*
X118819000Y-70861000D02*
X115530000Y-70861000D01*
X124449000Y-70901000D02*
X121181000Y-70901000D01*
X118819000Y-70901000D02*
X115551000Y-70901000D01*
X124428000Y-70941000D02*
X121181000Y-70941000D01*
X118819000Y-70941000D02*
X115572000Y-70941000D01*
X124405000Y-70981000D02*
X121181000Y-70981000D01*
X118819000Y-70981000D02*
X115595000Y-70981000D01*
X124383000Y-71021000D02*
X121181000Y-71021000D01*
X118819000Y-71021000D02*
X115617000Y-71021000D01*
X124360000Y-71061000D02*
X121181000Y-71061000D01*
X118819000Y-71061000D02*
X115640000Y-71061000D01*
X124336000Y-71101000D02*
X121181000Y-71101000D01*
X118819000Y-71101000D02*
X115664000Y-71101000D01*
X124312000Y-71141000D02*
X121181000Y-71141000D01*
X118819000Y-71141000D02*
X115688000Y-71141000D01*
X124288000Y-71181000D02*
X121181000Y-71181000D01*
X118819000Y-71181000D02*
X115712000Y-71181000D01*
X124263000Y-71221000D02*
X121181000Y-71221000D01*
X118819000Y-71221000D02*
X115737000Y-71221000D01*
X124237000Y-71261000D02*
X121181000Y-71261000D01*
X118819000Y-71261000D02*
X115763000Y-71261000D01*
X124211000Y-71301000D02*
X121181000Y-71301000D01*
X118819000Y-71301000D02*
X115789000Y-71301000D01*
X124185000Y-71341000D02*
X121181000Y-71341000D01*
X118819000Y-71341000D02*
X115815000Y-71341000D01*
X124157000Y-71381000D02*
X121181000Y-71381000D01*
X118819000Y-71381000D02*
X115843000Y-71381000D01*
X124130000Y-71421000D02*
X121181000Y-71421000D01*
X118819000Y-71421000D02*
X115870000Y-71421000D01*
X124101000Y-71461000D02*
X121181000Y-71461000D01*
X118819000Y-71461000D02*
X115899000Y-71461000D01*
X124072000Y-71501000D02*
X121181000Y-71501000D01*
X118819000Y-71501000D02*
X115928000Y-71501000D01*
X124043000Y-71541000D02*
X121181000Y-71541000D01*
X118819000Y-71541000D02*
X115957000Y-71541000D01*
X124013000Y-71581000D02*
X121181000Y-71581000D01*
X118819000Y-71581000D02*
X115987000Y-71581000D01*
X123982000Y-71621000D02*
X121181000Y-71621000D01*
X118819000Y-71621000D02*
X116018000Y-71621000D01*
X123951000Y-71661000D02*
X121181000Y-71661000D01*
X118819000Y-71661000D02*
X116049000Y-71661000D01*
X123919000Y-71701000D02*
X121181000Y-71701000D01*
X118819000Y-71701000D02*
X116081000Y-71701000D01*
X123886000Y-71741000D02*
X121181000Y-71741000D01*
X118819000Y-71741000D02*
X116114000Y-71741000D01*
X123853000Y-71781000D02*
X121181000Y-71781000D01*
X118819000Y-71781000D02*
X116147000Y-71781000D01*
X123819000Y-71821000D02*
X121181000Y-71821000D01*
X118819000Y-71821000D02*
X116181000Y-71821000D01*
X123784000Y-71861000D02*
X121181000Y-71861000D01*
X118819000Y-71861000D02*
X116216000Y-71861000D01*
X123748000Y-71901000D02*
X121181000Y-71901000D01*
X118819000Y-71901000D02*
X116252000Y-71901000D01*
X123712000Y-71941000D02*
X121181000Y-71941000D01*
X118819000Y-71941000D02*
X116288000Y-71941000D01*
X123675000Y-71981000D02*
X121181000Y-71981000D01*
X118819000Y-71981000D02*
X116325000Y-71981000D01*
X123637000Y-72021000D02*
X121181000Y-72021000D01*
X118819000Y-72021000D02*
X116363000Y-72021000D01*
X123598000Y-72061000D02*
X121181000Y-72061000D01*
X118819000Y-72061000D02*
X116402000Y-72061000D01*
X123559000Y-72101000D02*
X121181000Y-72101000D01*
X118819000Y-72101000D02*
X116441000Y-72101000D01*
X123518000Y-72141000D02*
X121181000Y-72141000D01*
X118819000Y-72141000D02*
X116482000Y-72141000D01*
X123477000Y-72181000D02*
X116523000Y-72181000D01*
X123435000Y-72221000D02*
X116565000Y-72221000D01*
X123391000Y-72261000D02*
X116609000Y-72261000D01*
X123347000Y-72301000D02*
X116653000Y-72301000D01*
X123302000Y-72341000D02*
X116698000Y-72341000D01*
X123255000Y-72381000D02*
X116745000Y-72381000D01*
X123207000Y-72421000D02*
X116793000Y-72421000D01*
X123158000Y-72461000D02*
X116842000Y-72461000D01*
X123108000Y-72501000D02*
X116892000Y-72501000D01*
X123057000Y-72541000D02*
X116943000Y-72541000D01*
X123004000Y-72581000D02*
X116996000Y-72581000D01*
X122949000Y-72621000D02*
X117051000Y-72621000D01*
X122894000Y-72661000D02*
X117106000Y-72661000D01*
X122836000Y-72701000D02*
X117164000Y-72701000D01*
X122777000Y-72741000D02*
X117223000Y-72741000D01*
X122715000Y-72781000D02*
X117285000Y-72781000D01*
X122652000Y-72821000D02*
X117348000Y-72821000D01*
X122587000Y-72861000D02*
X117413000Y-72861000D01*
X122519000Y-72901000D02*
X117481000Y-72901000D01*
X122449000Y-72941000D02*
X117551000Y-72941000D01*
X122377000Y-72981000D02*
X117623000Y-72981000D01*
X122301000Y-73021000D02*
X117699000Y-73021000D01*
X122222000Y-73061000D02*
X117778000Y-73061000D01*
X122140000Y-73101000D02*
X117860000Y-73101000D01*
X122053000Y-73141000D02*
X117947000Y-73141000D01*
X121962000Y-73181000D02*
X118038000Y-73181000D01*
X121866000Y-73221000D02*
X118134000Y-73221000D01*
X121763000Y-73261000D02*
X118237000Y-73261000D01*
X121654000Y-73301000D02*
X118346000Y-73301000D01*
X121536000Y-73341000D02*
X118464000Y-73341000D01*
X121407000Y-73381000D02*
X118593000Y-73381000D01*
X121265000Y-73421000D02*
X118735000Y-73421000D01*
X121104000Y-73461000D02*
X118896000Y-73461000D01*
X120913000Y-73501000D02*
X119087000Y-73501000D01*
X120672000Y-73541000D02*
X119328000Y-73541000D01*
X120279000Y-73581000D02*
X119721000Y-73581000D01*
X120000000Y-63300000D02*
X120000000Y-64800000D01*
X120750000Y-64050000D02*
X119250000Y-64050000D01*
X124898437Y-13616736D02*
G75*
G03X115100643Y-13620000I-4898437J-1383264D01*
G01*
X124898437Y-16383264D02*
G75*
G02X115100643Y-16380000I-4898437J1383264D01*
G01*
X124898437Y-16383264D02*
G75*
G03X124899357Y-13620000I-4898437J1383264D01*
G01*
X120000000Y-9950000D02*
X120000000Y-20050000D01*
X120040000Y-9950000D02*
X120040000Y-20050000D01*
X120080000Y-9950000D02*
X120080000Y-20050000D01*
X120120000Y-9951000D02*
X120120000Y-20049000D01*
X120160000Y-9952000D02*
X120160000Y-20048000D01*
X120200000Y-9953000D02*
X120200000Y-20047000D01*
X120240000Y-9955000D02*
X120240000Y-20045000D01*
X120280000Y-9957000D02*
X120280000Y-20043000D01*
X120320000Y-9960000D02*
X120320000Y-20040000D01*
X120360000Y-9962000D02*
X120360000Y-20038000D01*
X120400000Y-9965000D02*
X120400000Y-20035000D01*
X120440000Y-9969000D02*
X120440000Y-20031000D01*
X120480000Y-9972000D02*
X120480000Y-20028000D01*
X120520000Y-9976000D02*
X120520000Y-20024000D01*
X120560000Y-9980000D02*
X120560000Y-20020000D01*
X120600000Y-9985000D02*
X120600000Y-20015000D01*
X120640000Y-9990000D02*
X120640000Y-20010000D01*
X120680000Y-9995000D02*
X120680000Y-20005000D01*
X120721000Y-10001000D02*
X120721000Y-19999000D01*
X120761000Y-10007000D02*
X120761000Y-19993000D01*
X120801000Y-10013000D02*
X120801000Y-19987000D01*
X120841000Y-10019000D02*
X120841000Y-19981000D01*
X120881000Y-10026000D02*
X120881000Y-19974000D01*
X120921000Y-10033000D02*
X120921000Y-19967000D01*
X120961000Y-10041000D02*
X120961000Y-19959000D01*
X121001000Y-10049000D02*
X121001000Y-19951000D01*
X121041000Y-10057000D02*
X121041000Y-19943000D01*
X121081000Y-10065000D02*
X121081000Y-19935000D01*
X121121000Y-10074000D02*
X121121000Y-19926000D01*
X121161000Y-10083000D02*
X121161000Y-19917000D01*
X121201000Y-10093000D02*
X121201000Y-19907000D01*
X121241000Y-10103000D02*
X121241000Y-19897000D01*
X121281000Y-10113000D02*
X121281000Y-19887000D01*
X121321000Y-10124000D02*
X121321000Y-13819000D01*
X121321000Y-16181000D02*
X121321000Y-19876000D01*
X121361000Y-10135000D02*
X121361000Y-13819000D01*
X121361000Y-16181000D02*
X121361000Y-19865000D01*
X121401000Y-10146000D02*
X121401000Y-13819000D01*
X121401000Y-16181000D02*
X121401000Y-19854000D01*
X121441000Y-10157000D02*
X121441000Y-13819000D01*
X121441000Y-16181000D02*
X121441000Y-19843000D01*
X121481000Y-10169000D02*
X121481000Y-13819000D01*
X121481000Y-16181000D02*
X121481000Y-19831000D01*
X121521000Y-10182000D02*
X121521000Y-13819000D01*
X121521000Y-16181000D02*
X121521000Y-19818000D01*
X121561000Y-10194000D02*
X121561000Y-13819000D01*
X121561000Y-16181000D02*
X121561000Y-19806000D01*
X121601000Y-10208000D02*
X121601000Y-13819000D01*
X121601000Y-16181000D02*
X121601000Y-19792000D01*
X121641000Y-10221000D02*
X121641000Y-13819000D01*
X121641000Y-16181000D02*
X121641000Y-19779000D01*
X121681000Y-10235000D02*
X121681000Y-13819000D01*
X121681000Y-16181000D02*
X121681000Y-19765000D01*
X121721000Y-10249000D02*
X121721000Y-13819000D01*
X121721000Y-16181000D02*
X121721000Y-19751000D01*
X121761000Y-10263000D02*
X121761000Y-13819000D01*
X121761000Y-16181000D02*
X121761000Y-19737000D01*
X121801000Y-10278000D02*
X121801000Y-13819000D01*
X121801000Y-16181000D02*
X121801000Y-19722000D01*
X121841000Y-10294000D02*
X121841000Y-13819000D01*
X121841000Y-16181000D02*
X121841000Y-19706000D01*
X121881000Y-10309000D02*
X121881000Y-13819000D01*
X121881000Y-16181000D02*
X121881000Y-19691000D01*
X121921000Y-10326000D02*
X121921000Y-13819000D01*
X121921000Y-16181000D02*
X121921000Y-19674000D01*
X121961000Y-10342000D02*
X121961000Y-13819000D01*
X121961000Y-16181000D02*
X121961000Y-19658000D01*
X122001000Y-10359000D02*
X122001000Y-13819000D01*
X122001000Y-16181000D02*
X122001000Y-19641000D01*
X122041000Y-10376000D02*
X122041000Y-13819000D01*
X122041000Y-16181000D02*
X122041000Y-19624000D01*
X122081000Y-10394000D02*
X122081000Y-13819000D01*
X122081000Y-16181000D02*
X122081000Y-19606000D01*
X122121000Y-10412000D02*
X122121000Y-13819000D01*
X122121000Y-16181000D02*
X122121000Y-19588000D01*
X122161000Y-10431000D02*
X122161000Y-13819000D01*
X122161000Y-16181000D02*
X122161000Y-19569000D01*
X122201000Y-10450000D02*
X122201000Y-13819000D01*
X122201000Y-16181000D02*
X122201000Y-19550000D01*
X122241000Y-10469000D02*
X122241000Y-13819000D01*
X122241000Y-16181000D02*
X122241000Y-19531000D01*
X122281000Y-10489000D02*
X122281000Y-13819000D01*
X122281000Y-16181000D02*
X122281000Y-19511000D01*
X122321000Y-10509000D02*
X122321000Y-13819000D01*
X122321000Y-16181000D02*
X122321000Y-19491000D01*
X122361000Y-10530000D02*
X122361000Y-13819000D01*
X122361000Y-16181000D02*
X122361000Y-19470000D01*
X122401000Y-10551000D02*
X122401000Y-13819000D01*
X122401000Y-16181000D02*
X122401000Y-19449000D01*
X122441000Y-10572000D02*
X122441000Y-13819000D01*
X122441000Y-16181000D02*
X122441000Y-19428000D01*
X122481000Y-10595000D02*
X122481000Y-13819000D01*
X122481000Y-16181000D02*
X122481000Y-19405000D01*
X122521000Y-10617000D02*
X122521000Y-13819000D01*
X122521000Y-16181000D02*
X122521000Y-19383000D01*
X122561000Y-10640000D02*
X122561000Y-13819000D01*
X122561000Y-16181000D02*
X122561000Y-19360000D01*
X122601000Y-10664000D02*
X122601000Y-13819000D01*
X122601000Y-16181000D02*
X122601000Y-19336000D01*
X122641000Y-10688000D02*
X122641000Y-13819000D01*
X122641000Y-16181000D02*
X122641000Y-19312000D01*
X122681000Y-10712000D02*
X122681000Y-13819000D01*
X122681000Y-16181000D02*
X122681000Y-19288000D01*
X122721000Y-10737000D02*
X122721000Y-13819000D01*
X122721000Y-16181000D02*
X122721000Y-19263000D01*
X122761000Y-10763000D02*
X122761000Y-13819000D01*
X122761000Y-16181000D02*
X122761000Y-19237000D01*
X122801000Y-10789000D02*
X122801000Y-13819000D01*
X122801000Y-16181000D02*
X122801000Y-19211000D01*
X122841000Y-10815000D02*
X122841000Y-13819000D01*
X122841000Y-16181000D02*
X122841000Y-19185000D01*
X122881000Y-10843000D02*
X122881000Y-13819000D01*
X122881000Y-16181000D02*
X122881000Y-19157000D01*
X122921000Y-10870000D02*
X122921000Y-13819000D01*
X122921000Y-16181000D02*
X122921000Y-19130000D01*
X122961000Y-10899000D02*
X122961000Y-13819000D01*
X122961000Y-16181000D02*
X122961000Y-19101000D01*
X123001000Y-10928000D02*
X123001000Y-13819000D01*
X123001000Y-16181000D02*
X123001000Y-19072000D01*
X123041000Y-10957000D02*
X123041000Y-13819000D01*
X123041000Y-16181000D02*
X123041000Y-19043000D01*
X123081000Y-10987000D02*
X123081000Y-13819000D01*
X123081000Y-16181000D02*
X123081000Y-19013000D01*
X123121000Y-11018000D02*
X123121000Y-13819000D01*
X123121000Y-16181000D02*
X123121000Y-18982000D01*
X123161000Y-11049000D02*
X123161000Y-13819000D01*
X123161000Y-16181000D02*
X123161000Y-18951000D01*
X123201000Y-11081000D02*
X123201000Y-13819000D01*
X123201000Y-16181000D02*
X123201000Y-18919000D01*
X123241000Y-11114000D02*
X123241000Y-13819000D01*
X123241000Y-16181000D02*
X123241000Y-18886000D01*
X123281000Y-11147000D02*
X123281000Y-13819000D01*
X123281000Y-16181000D02*
X123281000Y-18853000D01*
X123321000Y-11181000D02*
X123321000Y-13819000D01*
X123321000Y-16181000D02*
X123321000Y-18819000D01*
X123361000Y-11216000D02*
X123361000Y-13819000D01*
X123361000Y-16181000D02*
X123361000Y-18784000D01*
X123401000Y-11252000D02*
X123401000Y-13819000D01*
X123401000Y-16181000D02*
X123401000Y-18748000D01*
X123441000Y-11288000D02*
X123441000Y-13819000D01*
X123441000Y-16181000D02*
X123441000Y-18712000D01*
X123481000Y-11325000D02*
X123481000Y-13819000D01*
X123481000Y-16181000D02*
X123481000Y-18675000D01*
X123521000Y-11363000D02*
X123521000Y-13819000D01*
X123521000Y-16181000D02*
X123521000Y-18637000D01*
X123561000Y-11402000D02*
X123561000Y-13819000D01*
X123561000Y-16181000D02*
X123561000Y-18598000D01*
X123601000Y-11441000D02*
X123601000Y-13819000D01*
X123601000Y-16181000D02*
X123601000Y-18559000D01*
X123641000Y-11482000D02*
X123641000Y-13819000D01*
X123641000Y-16181000D02*
X123641000Y-18518000D01*
X123681000Y-11523000D02*
X123681000Y-18477000D01*
X123721000Y-11565000D02*
X123721000Y-18435000D01*
X123761000Y-11609000D02*
X123761000Y-18391000D01*
X123801000Y-11653000D02*
X123801000Y-18347000D01*
X123841000Y-11698000D02*
X123841000Y-18302000D01*
X123881000Y-11745000D02*
X123881000Y-18255000D01*
X123921000Y-11793000D02*
X123921000Y-18207000D01*
X123961000Y-11842000D02*
X123961000Y-18158000D01*
X124001000Y-11892000D02*
X124001000Y-18108000D01*
X124041000Y-11943000D02*
X124041000Y-18057000D01*
X124081000Y-11996000D02*
X124081000Y-18004000D01*
X124121000Y-12051000D02*
X124121000Y-17949000D01*
X124161000Y-12106000D02*
X124161000Y-17894000D01*
X124201000Y-12164000D02*
X124201000Y-17836000D01*
X124241000Y-12223000D02*
X124241000Y-17777000D01*
X124281000Y-12285000D02*
X124281000Y-17715000D01*
X124321000Y-12348000D02*
X124321000Y-17652000D01*
X124361000Y-12413000D02*
X124361000Y-17587000D01*
X124401000Y-12481000D02*
X124401000Y-17519000D01*
X124441000Y-12551000D02*
X124441000Y-17449000D01*
X124481000Y-12623000D02*
X124481000Y-17377000D01*
X124521000Y-12699000D02*
X124521000Y-17301000D01*
X124561000Y-12778000D02*
X124561000Y-17222000D01*
X124601000Y-12860000D02*
X124601000Y-17140000D01*
X124641000Y-12947000D02*
X124641000Y-17053000D01*
X124681000Y-13038000D02*
X124681000Y-16962000D01*
X124721000Y-13134000D02*
X124721000Y-16866000D01*
X124761000Y-13237000D02*
X124761000Y-16763000D01*
X124801000Y-13346000D02*
X124801000Y-16654000D01*
X124841000Y-13464000D02*
X124841000Y-16536000D01*
X124881000Y-13593000D02*
X124881000Y-16407000D01*
X124921000Y-13735000D02*
X124921000Y-16265000D01*
X124961000Y-13896000D02*
X124961000Y-16104000D01*
X125001000Y-14087000D02*
X125001000Y-15913000D01*
X125041000Y-14328000D02*
X125041000Y-15672000D01*
X125081000Y-14721000D02*
X125081000Y-15279000D01*
X114800000Y-15000000D02*
X116300000Y-15000000D01*
X115550000Y-14250000D02*
X115550000Y-15750000D01*
D12*
X3400000Y-85000000D02*
X3400000Y-35000000D01*
X19400000Y-35000000D02*
X3400000Y-35000000D01*
X19400000Y-85000000D02*
X19400000Y-35000000D01*
X3400000Y-85000000D02*
X19400000Y-85000000D01*
D11*
X169120000Y-43760000D02*
X151220000Y-43810000D01*
X151220000Y-43810000D02*
X151220000Y-76410000D01*
X151220000Y-76410000D02*
X169120000Y-76410000D01*
X169120000Y-76410000D02*
X169120000Y-43760000D01*
D13*
X-74290000Y-111905000D02*
X-73840000Y-111905000D01*
D12*
X33750000Y-74075000D02*
X103450000Y-74075000D01*
X33750000Y-108675000D02*
X33750000Y-74075000D01*
X103450000Y-108675000D02*
X33750000Y-108675000D01*
X103450000Y-74075000D02*
X103450000Y-108675000D01*
X100500000Y-13700000D02*
X100500000Y-48300000D01*
X100500000Y-48300000D02*
X30800000Y-48300000D01*
X30800000Y-48300000D02*
X30800000Y-13700000D01*
X30800000Y-13700000D02*
X100500000Y-13700000D01*
D13*
X-77240000Y-51530000D02*
X-76790000Y-51530000D01*
X126833333Y-102857142D02*
X126785714Y-102904761D01*
X126642857Y-102952380D01*
X126547619Y-102952380D01*
X126404761Y-102904761D01*
X126309523Y-102809523D01*
X126261904Y-102714285D01*
X126214285Y-102523809D01*
X126214285Y-102380952D01*
X126261904Y-102190476D01*
X126309523Y-102095238D01*
X126404761Y-102000000D01*
X126547619Y-101952380D01*
X126642857Y-101952380D01*
X126785714Y-102000000D01*
X126833333Y-102047619D01*
X127690476Y-102285714D02*
X127690476Y-102952380D01*
X127452380Y-101904761D02*
X127214285Y-102619047D01*
X127833333Y-102619047D01*
X126833333Y-48357142D02*
X126785714Y-48404761D01*
X126642857Y-48452380D01*
X126547619Y-48452380D01*
X126404761Y-48404761D01*
X126309523Y-48309523D01*
X126261904Y-48214285D01*
X126214285Y-48023809D01*
X126214285Y-47880952D01*
X126261904Y-47690476D01*
X126309523Y-47595238D01*
X126404761Y-47500000D01*
X126547619Y-47452380D01*
X126642857Y-47452380D01*
X126785714Y-47500000D01*
X126833333Y-47547619D01*
X127738095Y-47452380D02*
X127261904Y-47452380D01*
X127214285Y-47928571D01*
X127261904Y-47880952D01*
X127357142Y-47833333D01*
X127595238Y-47833333D01*
X127690476Y-47880952D01*
X127738095Y-47928571D01*
X127785714Y-48023809D01*
X127785714Y-48261904D01*
X127738095Y-48357142D01*
X127690476Y-48404761D01*
X127595238Y-48452380D01*
X127357142Y-48452380D01*
X127261904Y-48404761D01*
X127214285Y-48357142D01*
X126833333Y-91357142D02*
X126785714Y-91404761D01*
X126642857Y-91452380D01*
X126547619Y-91452380D01*
X126404761Y-91404761D01*
X126309523Y-91309523D01*
X126261904Y-91214285D01*
X126214285Y-91023809D01*
X126214285Y-90880952D01*
X126261904Y-90690476D01*
X126309523Y-90595238D01*
X126404761Y-90500000D01*
X126547619Y-90452380D01*
X126642857Y-90452380D01*
X126785714Y-90500000D01*
X126833333Y-90547619D01*
X127404761Y-90880952D02*
X127309523Y-90833333D01*
X127261904Y-90785714D01*
X127214285Y-90690476D01*
X127214285Y-90642857D01*
X127261904Y-90547619D01*
X127309523Y-90500000D01*
X127404761Y-90452380D01*
X127595238Y-90452380D01*
X127690476Y-90500000D01*
X127738095Y-90547619D01*
X127785714Y-90642857D01*
X127785714Y-90690476D01*
X127738095Y-90785714D01*
X127690476Y-90833333D01*
X127595238Y-90880952D01*
X127404761Y-90880952D01*
X127309523Y-90928571D01*
X127261904Y-90976190D01*
X127214285Y-91071428D01*
X127214285Y-91261904D01*
X127261904Y-91357142D01*
X127309523Y-91404761D01*
X127404761Y-91452380D01*
X127595238Y-91452380D01*
X127690476Y-91404761D01*
X127738095Y-91357142D01*
X127785714Y-91261904D01*
X127785714Y-91071428D01*
X127738095Y-90976190D01*
X127690476Y-90928571D01*
X127595238Y-90880952D01*
X126833333Y-37357142D02*
X126785714Y-37404761D01*
X126642857Y-37452380D01*
X126547619Y-37452380D01*
X126404761Y-37404761D01*
X126309523Y-37309523D01*
X126261904Y-37214285D01*
X126214285Y-37023809D01*
X126214285Y-36880952D01*
X126261904Y-36690476D01*
X126309523Y-36595238D01*
X126404761Y-36500000D01*
X126547619Y-36452380D01*
X126642857Y-36452380D01*
X126785714Y-36500000D01*
X126833333Y-36547619D01*
X127309523Y-37452380D02*
X127500000Y-37452380D01*
X127595238Y-37404761D01*
X127642857Y-37357142D01*
X127738095Y-37214285D01*
X127785714Y-37023809D01*
X127785714Y-36642857D01*
X127738095Y-36547619D01*
X127690476Y-36500000D01*
X127595238Y-36452380D01*
X127404761Y-36452380D01*
X127309523Y-36500000D01*
X127261904Y-36547619D01*
X127214285Y-36642857D01*
X127214285Y-36880952D01*
X127261904Y-36976190D01*
X127309523Y-37023809D01*
X127404761Y-37071428D01*
X127595238Y-37071428D01*
X127690476Y-37023809D01*
X127738095Y-36976190D01*
X127785714Y-36880952D01*
X126857142Y-79857142D02*
X126809523Y-79904761D01*
X126666666Y-79952380D01*
X126571428Y-79952380D01*
X126428571Y-79904761D01*
X126333333Y-79809523D01*
X126285714Y-79714285D01*
X126238095Y-79523809D01*
X126238095Y-79380952D01*
X126285714Y-79190476D01*
X126333333Y-79095238D01*
X126428571Y-79000000D01*
X126571428Y-78952380D01*
X126666666Y-78952380D01*
X126809523Y-79000000D01*
X126857142Y-79047619D01*
X127809523Y-79952380D02*
X127238095Y-79952380D01*
X127523809Y-79952380D02*
X127523809Y-78952380D01*
X127428571Y-79095238D01*
X127333333Y-79190476D01*
X127238095Y-79238095D01*
X128190476Y-79047619D02*
X128238095Y-79000000D01*
X128333333Y-78952380D01*
X128571428Y-78952380D01*
X128666666Y-79000000D01*
X128714285Y-79047619D01*
X128761904Y-79142857D01*
X128761904Y-79238095D01*
X128714285Y-79380952D01*
X128142857Y-79952380D01*
X128761904Y-79952380D01*
X126857142Y-26357142D02*
X126809523Y-26404761D01*
X126666666Y-26452380D01*
X126571428Y-26452380D01*
X126428571Y-26404761D01*
X126333333Y-26309523D01*
X126285714Y-26214285D01*
X126238095Y-26023809D01*
X126238095Y-25880952D01*
X126285714Y-25690476D01*
X126333333Y-25595238D01*
X126428571Y-25500000D01*
X126571428Y-25452380D01*
X126666666Y-25452380D01*
X126809523Y-25500000D01*
X126857142Y-25547619D01*
X127809523Y-26452380D02*
X127238095Y-26452380D01*
X127523809Y-26452380D02*
X127523809Y-25452380D01*
X127428571Y-25595238D01*
X127333333Y-25690476D01*
X127238095Y-25738095D01*
X128142857Y-25452380D02*
X128761904Y-25452380D01*
X128428571Y-25833333D01*
X128571428Y-25833333D01*
X128666666Y-25880952D01*
X128714285Y-25928571D01*
X128761904Y-26023809D01*
X128761904Y-26261904D01*
X128714285Y-26357142D01*
X128666666Y-26404761D01*
X128571428Y-26452380D01*
X128285714Y-26452380D01*
X128190476Y-26404761D01*
X128142857Y-26357142D01*
X126357142Y-68857142D02*
X126309523Y-68904761D01*
X126166666Y-68952380D01*
X126071428Y-68952380D01*
X125928571Y-68904761D01*
X125833333Y-68809523D01*
X125785714Y-68714285D01*
X125738095Y-68523809D01*
X125738095Y-68380952D01*
X125785714Y-68190476D01*
X125833333Y-68095238D01*
X125928571Y-68000000D01*
X126071428Y-67952380D01*
X126166666Y-67952380D01*
X126309523Y-68000000D01*
X126357142Y-68047619D01*
X127309523Y-68952380D02*
X126738095Y-68952380D01*
X127023809Y-68952380D02*
X127023809Y-67952380D01*
X126928571Y-68095238D01*
X126833333Y-68190476D01*
X126738095Y-68238095D01*
X127642857Y-67952380D02*
X128309523Y-67952380D01*
X127880952Y-68952380D01*
X126857142Y-15357142D02*
X126809523Y-15404761D01*
X126666666Y-15452380D01*
X126571428Y-15452380D01*
X126428571Y-15404761D01*
X126333333Y-15309523D01*
X126285714Y-15214285D01*
X126238095Y-15023809D01*
X126238095Y-14880952D01*
X126285714Y-14690476D01*
X126333333Y-14595238D01*
X126428571Y-14500000D01*
X126571428Y-14452380D01*
X126666666Y-14452380D01*
X126809523Y-14500000D01*
X126857142Y-14547619D01*
X127809523Y-15452380D02*
X127238095Y-15452380D01*
X127523809Y-15452380D02*
X127523809Y-14452380D01*
X127428571Y-14595238D01*
X127333333Y-14690476D01*
X127238095Y-14738095D01*
X128380952Y-14880952D02*
X128285714Y-14833333D01*
X128238095Y-14785714D01*
X128190476Y-14690476D01*
X128190476Y-14642857D01*
X128238095Y-14547619D01*
X128285714Y-14500000D01*
X128380952Y-14452380D01*
X128571428Y-14452380D01*
X128666666Y-14500000D01*
X128714285Y-14547619D01*
X128761904Y-14642857D01*
X128761904Y-14690476D01*
X128714285Y-14785714D01*
X128666666Y-14833333D01*
X128571428Y-14880952D01*
X128380952Y-14880952D01*
X128285714Y-14928571D01*
X128238095Y-14976190D01*
X128190476Y-15071428D01*
X128190476Y-15261904D01*
X128238095Y-15357142D01*
X128285714Y-15404761D01*
X128380952Y-15452380D01*
X128571428Y-15452380D01*
X128666666Y-15404761D01*
X128714285Y-15357142D01*
X128761904Y-15261904D01*
X128761904Y-15071428D01*
X128714285Y-14976190D01*
X128666666Y-14928571D01*
X128571428Y-14880952D01*
X21852380Y-60333333D02*
X22566666Y-60333333D01*
X22709523Y-60380952D01*
X22804761Y-60476190D01*
X22852380Y-60619047D01*
X22852380Y-60714285D01*
X22852380Y-59333333D02*
X22852380Y-59904761D01*
X22852380Y-59619047D02*
X21852380Y-59619047D01*
X21995238Y-59714285D01*
X22090476Y-59809523D01*
X22138095Y-59904761D01*
X149472380Y-60293333D02*
X150186666Y-60293333D01*
X150329523Y-60340952D01*
X150424761Y-60436190D01*
X150472380Y-60579047D01*
X150472380Y-60674285D01*
X149567619Y-59864761D02*
X149520000Y-59817142D01*
X149472380Y-59721904D01*
X149472380Y-59483809D01*
X149520000Y-59388571D01*
X149567619Y-59340952D01*
X149662857Y-59293333D01*
X149758095Y-59293333D01*
X149900952Y-59340952D01*
X150472380Y-59912380D01*
X150472380Y-59293333D01*
X68432857Y-93185142D02*
X67232857Y-93185142D01*
X67232857Y-92728000D01*
X67290000Y-92613714D01*
X67347142Y-92556571D01*
X67461428Y-92499428D01*
X67632857Y-92499428D01*
X67747142Y-92556571D01*
X67804285Y-92613714D01*
X67861428Y-92728000D01*
X67861428Y-93185142D01*
X68375714Y-92042285D02*
X68432857Y-91870857D01*
X68432857Y-91585142D01*
X68375714Y-91470857D01*
X68318571Y-91413714D01*
X68204285Y-91356571D01*
X68090000Y-91356571D01*
X67975714Y-91413714D01*
X67918571Y-91470857D01*
X67861428Y-91585142D01*
X67804285Y-91813714D01*
X67747142Y-91928000D01*
X67690000Y-91985142D01*
X67575714Y-92042285D01*
X67461428Y-92042285D01*
X67347142Y-91985142D01*
X67290000Y-91928000D01*
X67232857Y-91813714D01*
X67232857Y-91528000D01*
X67290000Y-91356571D01*
X68432857Y-90213714D02*
X68432857Y-90899428D01*
X68432857Y-90556571D02*
X67232857Y-90556571D01*
X67404285Y-90670857D01*
X67518571Y-90785142D01*
X67575714Y-90899428D01*
X65482857Y-32810142D02*
X64282857Y-32810142D01*
X64282857Y-32353000D01*
X64340000Y-32238714D01*
X64397142Y-32181571D01*
X64511428Y-32124428D01*
X64682857Y-32124428D01*
X64797142Y-32181571D01*
X64854285Y-32238714D01*
X64911428Y-32353000D01*
X64911428Y-32810142D01*
X65425714Y-31667285D02*
X65482857Y-31495857D01*
X65482857Y-31210142D01*
X65425714Y-31095857D01*
X65368571Y-31038714D01*
X65254285Y-30981571D01*
X65140000Y-30981571D01*
X65025714Y-31038714D01*
X64968571Y-31095857D01*
X64911428Y-31210142D01*
X64854285Y-31438714D01*
X64797142Y-31553000D01*
X64740000Y-31610142D01*
X64625714Y-31667285D01*
X64511428Y-31667285D01*
X64397142Y-31610142D01*
X64340000Y-31553000D01*
X64282857Y-31438714D01*
X64282857Y-31153000D01*
X64340000Y-30981571D01*
X64397142Y-30524428D02*
X64340000Y-30467285D01*
X64282857Y-30353000D01*
X64282857Y-30067285D01*
X64340000Y-29953000D01*
X64397142Y-29895857D01*
X64511428Y-29838714D01*
X64625714Y-29838714D01*
X64797142Y-29895857D01*
X65482857Y-30581571D01*
X65482857Y-29838714D01*
M02*
