G04 #@! TF.FileFunction,Soldermask,Top*
%FSLAX46Y46*%
G04 Gerber Fmt 4.6, Leading zero omitted, Abs format (unit mm)*
G04 Created by KiCad (PCBNEW 4.0.7) date 10/03/17 11:40:22*
%MOMM*%
%LPD*%
G01*
G04 APERTURE LIST*
%ADD10C,0.150000*%
%ADD11C,3.900000*%
%ADD12C,2.900000*%
%ADD13R,2.400000X2.400000*%
%ADD14C,2.400000*%
%ADD15C,4.210000*%
%ADD16R,1.920000X1.920000*%
%ADD17C,1.920000*%
%ADD18C,3.400000*%
G04 APERTURE END LIST*
D10*
D11*
X108060000Y-54000000D03*
D12*
X32060000Y-12750000D03*
X32060000Y-19500000D03*
D11*
X108060000Y-48500000D03*
D13*
X117500000Y-102500000D03*
D14*
X122500000Y-102500000D03*
D13*
X117500000Y-48000000D03*
D14*
X122500000Y-48000000D03*
D13*
X117500000Y-91000000D03*
D14*
X122500000Y-91000000D03*
D13*
X117500000Y-37000000D03*
D14*
X122500000Y-37000000D03*
D13*
X117500000Y-79500000D03*
D14*
X122500000Y-79500000D03*
D13*
X117500000Y-26000000D03*
D14*
X122500000Y-26000000D03*
D13*
X120000000Y-66000000D03*
D14*
X120000000Y-71000000D03*
D13*
X117500000Y-15000000D03*
D14*
X122500000Y-15000000D03*
D15*
X154840000Y-72790000D03*
X154840000Y-47390000D03*
D16*
X152300000Y-54500000D03*
D17*
X152300000Y-57290000D03*
X152300000Y-59960000D03*
X152300000Y-62760000D03*
X152300000Y-65550000D03*
X154840000Y-55900000D03*
X154840000Y-58690000D03*
X154840000Y-61360000D03*
X154840000Y-64150000D03*
D11*
X108060000Y-106500000D03*
D12*
X32060000Y-65250000D03*
X32060000Y-72000000D03*
D11*
X108060000Y-101000000D03*
X7700000Y-40000000D03*
D18*
X15000000Y-69000000D03*
X15000000Y-51000000D03*
X15000000Y-60000000D03*
D11*
X7700000Y-80000000D03*
M02*
