G04 #@! TF.FileFunction,Soldermask,Bot*
%FSLAX46Y46*%
G04 Gerber Fmt 4.6, Leading zero omitted, Abs format (unit mm)*
G04 Created by KiCad (PCBNEW 4.0.7) date 10/03/17 11:40:22*
%MOMM*%
%LPD*%
G01*
G04 APERTURE LIST*
%ADD10C,0.150000*%
%ADD11C,3.900000*%
%ADD12C,2.900000*%
%ADD13R,1.200000X1.150000*%
%ADD14R,2.400000X2.400000*%
%ADD15C,2.400000*%
%ADD16R,1.150000X1.200000*%
%ADD17C,4.210000*%
%ADD18R,1.920000X1.920000*%
%ADD19C,1.920000*%
%ADD20R,1.300000X0.900000*%
%ADD21C,3.400000*%
%ADD22R,1.040000X1.040000*%
%ADD23R,6.300000X2.100000*%
%ADD24R,1.400000X1.650000*%
%ADD25R,1.800000X1.790000*%
%ADD26R,5.260000X3.760000*%
G04 APERTURE END LIST*
D10*
D11*
X108060000Y-54000000D03*
D12*
X32060000Y-12750000D03*
X32060000Y-19500000D03*
D11*
X108060000Y-48500000D03*
D13*
X98250000Y-93000000D03*
X96750000Y-93000000D03*
X122750000Y-99000000D03*
X121250000Y-99000000D03*
X101250000Y-37000000D03*
X102750000Y-37000000D03*
D14*
X117500000Y-102500000D03*
D15*
X122500000Y-102500000D03*
D14*
X117500000Y-48000000D03*
D15*
X122500000Y-48000000D03*
D13*
X117250000Y-82500000D03*
X115750000Y-82500000D03*
X117750000Y-28500000D03*
X116250000Y-28500000D03*
D14*
X117500000Y-91000000D03*
D15*
X122500000Y-91000000D03*
D14*
X117500000Y-37000000D03*
D15*
X122500000Y-37000000D03*
D13*
X117750000Y-74500000D03*
X116250000Y-74500000D03*
X120250000Y-23000000D03*
X118750000Y-23000000D03*
D14*
X117500000Y-79500000D03*
D15*
X122500000Y-79500000D03*
D14*
X117500000Y-26000000D03*
D15*
X122500000Y-26000000D03*
D16*
X124500000Y-71250000D03*
X124500000Y-69750000D03*
D13*
X120750000Y-17500000D03*
X119250000Y-17500000D03*
D14*
X120000000Y-66000000D03*
D15*
X120000000Y-71000000D03*
D14*
X117500000Y-15000000D03*
D15*
X122500000Y-15000000D03*
D17*
X154840000Y-72790000D03*
X154840000Y-47390000D03*
D18*
X152300000Y-54500000D03*
D19*
X152300000Y-57290000D03*
X152300000Y-59960000D03*
X152300000Y-62760000D03*
X152300000Y-65550000D03*
X154840000Y-55900000D03*
X154840000Y-58690000D03*
X154840000Y-61360000D03*
X154840000Y-64150000D03*
D11*
X108060000Y-106500000D03*
D12*
X32060000Y-65250000D03*
X32060000Y-72000000D03*
D11*
X108060000Y-101000000D03*
D20*
X93900000Y-105250000D03*
X93900000Y-106750000D03*
X95900000Y-105250000D03*
X95900000Y-106750000D03*
D11*
X7700000Y-40000000D03*
D21*
X15000000Y-69000000D03*
X15000000Y-51000000D03*
X15000000Y-60000000D03*
D11*
X7700000Y-80000000D03*
D13*
X122750000Y-97000000D03*
X121250000Y-97000000D03*
X101250000Y-39500000D03*
X102750000Y-39500000D03*
X119250000Y-85000000D03*
X117750000Y-85000000D03*
X120250000Y-30500000D03*
X118750000Y-30500000D03*
X120750000Y-77000000D03*
X119250000Y-77000000D03*
X116750000Y-18500000D03*
X115250000Y-18500000D03*
D16*
X115000000Y-71250000D03*
X115000000Y-69750000D03*
D13*
X120750000Y-19500000D03*
X119250000Y-19500000D03*
D22*
X95845000Y-103310000D03*
X94575000Y-103310000D03*
X93305000Y-103310000D03*
X92035000Y-103310000D03*
X90765000Y-103310000D03*
X89495000Y-103310000D03*
X88225000Y-103310000D03*
X86955000Y-103310000D03*
X95845000Y-102040000D03*
X94575000Y-102040000D03*
X93305000Y-102040000D03*
X92035000Y-102040000D03*
X90765000Y-102040000D03*
X89495000Y-102040000D03*
X88225000Y-102040000D03*
X86955000Y-102040000D03*
X95845000Y-100770000D03*
X94575000Y-100770000D03*
X93305000Y-100770000D03*
X92035000Y-100770000D03*
X90765000Y-100770000D03*
X89495000Y-100770000D03*
X88225000Y-100770000D03*
X86955000Y-100770000D03*
X92035000Y-99500000D03*
X90765000Y-99500000D03*
X89495000Y-99500000D03*
X88225000Y-99500000D03*
X86955000Y-99500000D03*
X95845000Y-98230000D03*
X94575000Y-98230000D03*
X92035000Y-98230000D03*
X90765000Y-98230000D03*
X89495000Y-98230000D03*
X88225000Y-98230000D03*
X86955000Y-98230000D03*
X94575000Y-96960000D03*
X90765000Y-96960000D03*
X92035000Y-96960000D03*
X95845000Y-95690000D03*
X95845000Y-96960000D03*
X94575000Y-95690000D03*
X92035000Y-95690000D03*
X86955000Y-95690000D03*
X88225000Y-95690000D03*
X89495000Y-95690000D03*
X90765000Y-95690000D03*
X89495000Y-96960000D03*
X88225000Y-96960000D03*
X86955000Y-96960000D03*
X86955000Y-95690000D03*
D23*
X108500000Y-91250000D03*
X108500000Y-95750000D03*
X108500000Y-36750000D03*
X108500000Y-41250000D03*
X108500000Y-82750000D03*
X108500000Y-87250000D03*
X108500000Y-28750000D03*
X108500000Y-33250000D03*
X108500000Y-74750000D03*
X108500000Y-79250000D03*
X108500000Y-20750000D03*
X108500000Y-25250000D03*
X108500000Y-66750000D03*
X108500000Y-71250000D03*
X108500000Y-12750000D03*
X108500000Y-17250000D03*
D24*
X89500000Y-93000000D03*
X91500000Y-93000000D03*
D25*
X130518000Y-71920000D03*
D26*
X134500000Y-71000000D03*
D25*
X130518000Y-70080000D03*
X127518000Y-31920000D03*
D26*
X131500000Y-31000000D03*
D25*
X127518000Y-30080000D03*
M02*
