G04 #@! TF.FileFunction,Paste,Bot*
%FSLAX46Y46*%
G04 Gerber Fmt 4.6, Leading zero omitted, Abs format (unit mm)*
G04 Created by KiCad (PCBNEW 4.0.7) date 10/03/17 11:40:22*
%MOMM*%
%LPD*%
G01*
G04 APERTURE LIST*
%ADD10C,0.150000*%
%ADD11R,0.800000X0.750000*%
%ADD12R,0.750000X0.800000*%
%ADD13R,0.900000X0.500000*%
%ADD14R,0.640000X0.640000*%
%ADD15R,5.900000X1.700000*%
%ADD16R,1.000000X1.250000*%
%ADD17R,1.400000X1.390000*%
%ADD18R,4.860000X3.360000*%
G04 APERTURE END LIST*
D10*
D11*
X98250000Y-93000000D03*
X96750000Y-93000000D03*
X122750000Y-99000000D03*
X121250000Y-99000000D03*
X101250000Y-37000000D03*
X102750000Y-37000000D03*
X117250000Y-82500000D03*
X115750000Y-82500000D03*
X117750000Y-28500000D03*
X116250000Y-28500000D03*
X117750000Y-74500000D03*
X116250000Y-74500000D03*
X120250000Y-23000000D03*
X118750000Y-23000000D03*
D12*
X124500000Y-71250000D03*
X124500000Y-69750000D03*
D11*
X120750000Y-17500000D03*
X119250000Y-17500000D03*
D13*
X93900000Y-105250000D03*
X93900000Y-106750000D03*
X95900000Y-105250000D03*
X95900000Y-106750000D03*
D11*
X122750000Y-97000000D03*
X121250000Y-97000000D03*
X101250000Y-39500000D03*
X102750000Y-39500000D03*
X119250000Y-85000000D03*
X117750000Y-85000000D03*
X120250000Y-30500000D03*
X118750000Y-30500000D03*
X120750000Y-77000000D03*
X119250000Y-77000000D03*
X116750000Y-18500000D03*
X115250000Y-18500000D03*
D12*
X115000000Y-71250000D03*
X115000000Y-69750000D03*
D11*
X120750000Y-19500000D03*
X119250000Y-19500000D03*
D14*
X95845000Y-103310000D03*
X94575000Y-103310000D03*
X93305000Y-103310000D03*
X92035000Y-103310000D03*
X90765000Y-103310000D03*
X89495000Y-103310000D03*
X88225000Y-103310000D03*
X86955000Y-103310000D03*
X95845000Y-102040000D03*
X94575000Y-102040000D03*
X93305000Y-102040000D03*
X92035000Y-102040000D03*
X90765000Y-102040000D03*
X89495000Y-102040000D03*
X88225000Y-102040000D03*
X86955000Y-102040000D03*
X95845000Y-100770000D03*
X94575000Y-100770000D03*
X93305000Y-100770000D03*
X92035000Y-100770000D03*
X90765000Y-100770000D03*
X89495000Y-100770000D03*
X88225000Y-100770000D03*
X86955000Y-100770000D03*
X92035000Y-99500000D03*
X90765000Y-99500000D03*
X89495000Y-99500000D03*
X88225000Y-99500000D03*
X86955000Y-99500000D03*
X95845000Y-98230000D03*
X94575000Y-98230000D03*
X92035000Y-98230000D03*
X90765000Y-98230000D03*
X89495000Y-98230000D03*
X88225000Y-98230000D03*
X86955000Y-98230000D03*
X94575000Y-96960000D03*
X90765000Y-96960000D03*
X92035000Y-96960000D03*
X95845000Y-95690000D03*
X95845000Y-96960000D03*
X94575000Y-95690000D03*
X92035000Y-95690000D03*
X86955000Y-95690000D03*
X88225000Y-95690000D03*
X89495000Y-95690000D03*
X90765000Y-95690000D03*
X89495000Y-96960000D03*
X88225000Y-96960000D03*
X86955000Y-96960000D03*
X86955000Y-95690000D03*
D15*
X108500000Y-91250000D03*
X108500000Y-95750000D03*
X108500000Y-36750000D03*
X108500000Y-41250000D03*
X108500000Y-82750000D03*
X108500000Y-87250000D03*
X108500000Y-28750000D03*
X108500000Y-33250000D03*
X108500000Y-74750000D03*
X108500000Y-79250000D03*
X108500000Y-20750000D03*
X108500000Y-25250000D03*
X108500000Y-66750000D03*
X108500000Y-71250000D03*
X108500000Y-12750000D03*
X108500000Y-17250000D03*
D16*
X89500000Y-93000000D03*
X91500000Y-93000000D03*
D17*
X130518000Y-71920000D03*
D18*
X134500000Y-71000000D03*
D17*
X130518000Y-70080000D03*
X127518000Y-31920000D03*
D18*
X131500000Y-31000000D03*
D17*
X127518000Y-30080000D03*
M02*
