G04 #@! TF.FileFunction,Paste,Top*
%FSLAX46Y46*%
G04 Gerber Fmt 4.6, Leading zero omitted, Abs format (unit mm)*
G04 Created by KiCad (PCBNEW 4.0.7) date 03/08/18 15:58:51*
%MOMM*%
%LPD*%
G01*
G04 APERTURE LIST*
%ADD10C,0.100000*%
%ADD11R,0.640000X0.640000*%
G04 APERTURE END LIST*
D10*
D11*
X33655000Y-26670000D03*
X32385000Y-26670000D03*
X31115000Y-26670000D03*
X29845000Y-26670000D03*
X28575000Y-26670000D03*
X27305000Y-26670000D03*
X26035000Y-26670000D03*
X24765000Y-26670000D03*
X33655000Y-27940000D03*
X32385000Y-27940000D03*
X31115000Y-27940000D03*
X29845000Y-27940000D03*
X28575000Y-27940000D03*
X27305000Y-27940000D03*
X26035000Y-27940000D03*
X24765000Y-27940000D03*
X33655000Y-29210000D03*
X32385000Y-29210000D03*
X31115000Y-29210000D03*
X29845000Y-29210000D03*
X28575000Y-29210000D03*
X27305000Y-29210000D03*
X26035000Y-29210000D03*
X24765000Y-29210000D03*
X29845000Y-30480000D03*
X28575000Y-30480000D03*
X27305000Y-30480000D03*
X26035000Y-30480000D03*
X24765000Y-30480000D03*
X33655000Y-31750000D03*
X32385000Y-31750000D03*
X29845000Y-31750000D03*
X28575000Y-31750000D03*
X27305000Y-31750000D03*
X26035000Y-31750000D03*
X24765000Y-31750000D03*
X32385000Y-33020000D03*
X28575000Y-33020000D03*
X29845000Y-33020000D03*
X33655000Y-34290000D03*
X33655000Y-33020000D03*
X32385000Y-34290000D03*
X29845000Y-34290000D03*
X24765000Y-34290000D03*
X26035000Y-34290000D03*
X27305000Y-34290000D03*
X28575000Y-34290000D03*
X27305000Y-33020000D03*
X26035000Y-33020000D03*
X24765000Y-33020000D03*
X24765000Y-34290000D03*
M02*
