G04 #@! TF.FileFunction,Copper,L1,Top,Signal*
%FSLAX46Y46*%
G04 Gerber Fmt 4.6, Leading zero omitted, Abs format (unit mm)*
G04 Created by KiCad (PCBNEW 4.0.7) date 08/30/17 11:51:51*
%MOMM*%
%LPD*%
G01*
G04 APERTURE LIST*
%ADD10C,0.150000*%
%ADD11C,3.500000*%
%ADD12C,2.500000*%
%ADD13R,2.000000X2.000000*%
%ADD14C,2.000000*%
%ADD15C,3.810000*%
%ADD16R,1.520000X1.520000*%
%ADD17C,1.520000*%
%ADD18C,3.000000*%
%ADD19C,2.540000*%
%ADD20C,2.540000*%
%ADD21C,1.905000*%
%ADD22C,0.254000*%
G04 APERTURE END LIST*
D10*
D11*
X108060000Y-54000000D03*
D12*
X32060000Y-12750000D03*
X32060000Y-19500000D03*
D11*
X108060000Y-48500000D03*
D13*
X117500000Y-102500000D03*
D14*
X122500000Y-102500000D03*
D13*
X117500000Y-48000000D03*
D14*
X122500000Y-48000000D03*
D13*
X117500000Y-91000000D03*
D14*
X122500000Y-91000000D03*
D13*
X117500000Y-37000000D03*
D14*
X122500000Y-37000000D03*
D13*
X117500000Y-79500000D03*
D14*
X122500000Y-79500000D03*
D13*
X117500000Y-26000000D03*
D14*
X122500000Y-26000000D03*
D13*
X120000000Y-66000000D03*
D14*
X120000000Y-71000000D03*
D13*
X117500000Y-15000000D03*
D14*
X122500000Y-15000000D03*
D15*
X147840000Y-72790000D03*
X147840000Y-47390000D03*
D16*
X145300000Y-54500000D03*
D17*
X145300000Y-57290000D03*
X145300000Y-59960000D03*
X145300000Y-62760000D03*
X145300000Y-65550000D03*
X147840000Y-55900000D03*
X147840000Y-58690000D03*
X147840000Y-61360000D03*
X147840000Y-64150000D03*
D11*
X108060000Y-106500000D03*
D12*
X32060000Y-65250000D03*
X32060000Y-72000000D03*
D11*
X108060000Y-101000000D03*
D18*
X16000000Y-69000000D03*
X16000000Y-51000000D03*
X16000000Y-60000000D03*
D19*
X139000000Y-51500000D03*
X83500000Y-97000000D03*
D20*
X145300000Y-59960000D02*
X127540000Y-59960000D01*
X124000000Y-67000000D02*
X120000000Y-71000000D01*
X124000000Y-63500000D02*
X124000000Y-67000000D01*
X127540000Y-59960000D02*
X124000000Y-63500000D01*
D21*
X122500000Y-26000000D02*
X122500000Y-15000000D01*
X122500000Y-37000000D02*
X122500000Y-26000000D01*
X122500000Y-48000000D02*
X122500000Y-37000000D01*
X147840000Y-64150000D02*
X149850000Y-64150000D01*
X125500000Y-40000000D02*
X122500000Y-37000000D01*
X146500000Y-40000000D02*
X125500000Y-40000000D01*
X152000000Y-45500000D02*
X146500000Y-40000000D01*
X152000000Y-53000000D02*
X152000000Y-45500000D01*
X151000000Y-54000000D02*
X152000000Y-53000000D01*
X151000000Y-63000000D02*
X151000000Y-54000000D01*
X149850000Y-64150000D02*
X151000000Y-63000000D01*
D20*
X123500000Y-51500000D02*
X139000000Y-51500000D01*
X114000000Y-61000000D02*
X123500000Y-51500000D01*
X114000000Y-66500000D02*
X114000000Y-61000000D01*
X83500000Y-97000000D02*
X114000000Y-66500000D01*
X32060000Y-12750000D02*
X29750000Y-12750000D01*
X26000000Y-16500000D02*
X26000000Y-51000000D01*
X29750000Y-12750000D02*
X26000000Y-16500000D01*
X16000000Y-51000000D02*
X26000000Y-51000000D01*
X26000000Y-51000000D02*
X32000000Y-51000000D01*
X32060000Y-51060000D02*
X32060000Y-65250000D01*
X32000000Y-51000000D02*
X32060000Y-51060000D01*
D22*
G36*
X161544000Y-119544000D02*
X456000Y-119544000D01*
X456000Y-106922022D01*
X105928631Y-106922022D01*
X106252373Y-107705538D01*
X106851309Y-108305521D01*
X107634258Y-108630630D01*
X108482022Y-108631369D01*
X109265538Y-108307627D01*
X109865521Y-107708691D01*
X110190630Y-106925742D01*
X110191369Y-106077978D01*
X109867627Y-105294462D01*
X109268691Y-104694479D01*
X108485742Y-104369370D01*
X107637978Y-104368631D01*
X106854462Y-104692373D01*
X106254479Y-105291309D01*
X105929370Y-106074258D01*
X105928631Y-106922022D01*
X456000Y-106922022D01*
X456000Y-101422022D01*
X105928631Y-101422022D01*
X106252373Y-102205538D01*
X106851309Y-102805521D01*
X107634258Y-103130630D01*
X108482022Y-103131369D01*
X109265538Y-102807627D01*
X109865521Y-102208691D01*
X110159795Y-101500000D01*
X116111536Y-101500000D01*
X116111536Y-103500000D01*
X116138103Y-103641190D01*
X116221546Y-103770865D01*
X116348866Y-103857859D01*
X116500000Y-103888464D01*
X118500000Y-103888464D01*
X118641190Y-103861897D01*
X118770865Y-103778454D01*
X118857859Y-103651134D01*
X118888464Y-103500000D01*
X118888464Y-102773493D01*
X121118761Y-102773493D01*
X121328563Y-103281251D01*
X121716705Y-103670072D01*
X122224097Y-103880759D01*
X122773493Y-103881239D01*
X123281251Y-103671437D01*
X123670072Y-103283295D01*
X123880759Y-102775903D01*
X123881239Y-102226507D01*
X123671437Y-101718749D01*
X123283295Y-101329928D01*
X122775903Y-101119241D01*
X122226507Y-101118761D01*
X121718749Y-101328563D01*
X121329928Y-101716705D01*
X121119241Y-102224097D01*
X121118761Y-102773493D01*
X118888464Y-102773493D01*
X118888464Y-101500000D01*
X118861897Y-101358810D01*
X118778454Y-101229135D01*
X118651134Y-101142141D01*
X118500000Y-101111536D01*
X116500000Y-101111536D01*
X116358810Y-101138103D01*
X116229135Y-101221546D01*
X116142141Y-101348866D01*
X116111536Y-101500000D01*
X110159795Y-101500000D01*
X110190630Y-101425742D01*
X110191369Y-100577978D01*
X109867627Y-99794462D01*
X109268691Y-99194479D01*
X108485742Y-98869370D01*
X107637978Y-98868631D01*
X106854462Y-99192373D01*
X106254479Y-99791309D01*
X105929370Y-100574258D01*
X105928631Y-101422022D01*
X456000Y-101422022D01*
X456000Y-97326963D01*
X81848714Y-97326963D01*
X82099534Y-97933995D01*
X82563563Y-98398834D01*
X83170155Y-98650713D01*
X83826963Y-98651286D01*
X84433995Y-98400466D01*
X84898834Y-97936437D01*
X84899122Y-97935744D01*
X92834866Y-90000000D01*
X116111536Y-90000000D01*
X116111536Y-92000000D01*
X116138103Y-92141190D01*
X116221546Y-92270865D01*
X116348866Y-92357859D01*
X116500000Y-92388464D01*
X118500000Y-92388464D01*
X118641190Y-92361897D01*
X118770865Y-92278454D01*
X118857859Y-92151134D01*
X118888464Y-92000000D01*
X118888464Y-91273493D01*
X121118761Y-91273493D01*
X121328563Y-91781251D01*
X121716705Y-92170072D01*
X122224097Y-92380759D01*
X122773493Y-92381239D01*
X123281251Y-92171437D01*
X123670072Y-91783295D01*
X123880759Y-91275903D01*
X123881239Y-90726507D01*
X123671437Y-90218749D01*
X123283295Y-89829928D01*
X122775903Y-89619241D01*
X122226507Y-89618761D01*
X121718749Y-89828563D01*
X121329928Y-90216705D01*
X121119241Y-90724097D01*
X121118761Y-91273493D01*
X118888464Y-91273493D01*
X118888464Y-90000000D01*
X118861897Y-89858810D01*
X118778454Y-89729135D01*
X118651134Y-89642141D01*
X118500000Y-89611536D01*
X116500000Y-89611536D01*
X116358810Y-89638103D01*
X116229135Y-89721546D01*
X116142141Y-89848866D01*
X116111536Y-90000000D01*
X92834866Y-90000000D01*
X104334866Y-78500000D01*
X116111536Y-78500000D01*
X116111536Y-80500000D01*
X116138103Y-80641190D01*
X116221546Y-80770865D01*
X116348866Y-80857859D01*
X116500000Y-80888464D01*
X118500000Y-80888464D01*
X118641190Y-80861897D01*
X118770865Y-80778454D01*
X118857859Y-80651134D01*
X118888464Y-80500000D01*
X118888464Y-79773493D01*
X121118761Y-79773493D01*
X121328563Y-80281251D01*
X121716705Y-80670072D01*
X122224097Y-80880759D01*
X122773493Y-80881239D01*
X123281251Y-80671437D01*
X123670072Y-80283295D01*
X123880759Y-79775903D01*
X123881239Y-79226507D01*
X123671437Y-78718749D01*
X123283295Y-78329928D01*
X122775903Y-78119241D01*
X122226507Y-78118761D01*
X121718749Y-78328563D01*
X121329928Y-78716705D01*
X121119241Y-79224097D01*
X121118761Y-79773493D01*
X118888464Y-79773493D01*
X118888464Y-78500000D01*
X118861897Y-78358810D01*
X118778454Y-78229135D01*
X118651134Y-78142141D01*
X118500000Y-78111536D01*
X116500000Y-78111536D01*
X116358810Y-78138103D01*
X116229135Y-78221546D01*
X116142141Y-78348866D01*
X116111536Y-78500000D01*
X104334866Y-78500000D01*
X109592147Y-73242719D01*
X145553604Y-73242719D01*
X145900894Y-74083223D01*
X146543395Y-74726846D01*
X147383292Y-75075602D01*
X148292719Y-75076396D01*
X149133223Y-74729106D01*
X149776846Y-74086605D01*
X150125602Y-73246708D01*
X150126396Y-72337281D01*
X149779106Y-71496777D01*
X149136605Y-70853154D01*
X148296708Y-70504398D01*
X147387281Y-70503604D01*
X146546777Y-70850894D01*
X145903154Y-71493395D01*
X145554398Y-72333292D01*
X145553604Y-73242719D01*
X109592147Y-73242719D01*
X111834866Y-71000000D01*
X118349000Y-71000000D01*
X118474675Y-71631811D01*
X118832567Y-72167433D01*
X119368189Y-72525325D01*
X120000000Y-72651000D01*
X120631811Y-72525325D01*
X121167433Y-72167433D01*
X125167433Y-68167433D01*
X125525325Y-67631811D01*
X125546176Y-67526987D01*
X125651000Y-67000000D01*
X125651000Y-65775963D01*
X144158802Y-65775963D01*
X144332143Y-66195480D01*
X144652831Y-66516729D01*
X145072045Y-66690802D01*
X145525963Y-66691198D01*
X145945480Y-66517857D01*
X146266729Y-66197169D01*
X146440802Y-65777955D01*
X146441198Y-65324037D01*
X146267857Y-64904520D01*
X145947169Y-64583271D01*
X145527955Y-64409198D01*
X145074037Y-64408802D01*
X144654520Y-64582143D01*
X144333271Y-64902831D01*
X144159198Y-65322045D01*
X144158802Y-65775963D01*
X125651000Y-65775963D01*
X125651000Y-64183866D01*
X126848903Y-62985963D01*
X144158802Y-62985963D01*
X144332143Y-63405480D01*
X144652831Y-63726729D01*
X145072045Y-63900802D01*
X145525963Y-63901198D01*
X145945480Y-63727857D01*
X146266729Y-63407169D01*
X146440802Y-62987955D01*
X146441198Y-62534037D01*
X146267857Y-62114520D01*
X145947169Y-61793271D01*
X145527955Y-61619198D01*
X145074037Y-61618802D01*
X144654520Y-61792143D01*
X144333271Y-62112831D01*
X144159198Y-62532045D01*
X144158802Y-62985963D01*
X126848903Y-62985963D01*
X128223866Y-61611000D01*
X145300000Y-61611000D01*
X145931810Y-61485325D01*
X146467433Y-61127433D01*
X146825325Y-60591810D01*
X146951000Y-59960000D01*
X146825325Y-59328190D01*
X146549884Y-58915963D01*
X146698802Y-58915963D01*
X146872143Y-59335480D01*
X147192831Y-59656729D01*
X147612045Y-59830802D01*
X148065963Y-59831198D01*
X148485480Y-59657857D01*
X148806729Y-59337169D01*
X148980802Y-58917955D01*
X148981198Y-58464037D01*
X148807857Y-58044520D01*
X148487169Y-57723271D01*
X148067955Y-57549198D01*
X147614037Y-57548802D01*
X147194520Y-57722143D01*
X146873271Y-58042831D01*
X146699198Y-58462045D01*
X146698802Y-58915963D01*
X146549884Y-58915963D01*
X146467433Y-58792567D01*
X145931810Y-58434675D01*
X145652169Y-58379051D01*
X145945480Y-58257857D01*
X146266729Y-57937169D01*
X146440802Y-57517955D01*
X146441198Y-57064037D01*
X146267857Y-56644520D01*
X145947169Y-56323271D01*
X145527955Y-56149198D01*
X145074037Y-56148802D01*
X144654520Y-56322143D01*
X144333271Y-56642831D01*
X144159198Y-57062045D01*
X144158802Y-57515963D01*
X144332143Y-57935480D01*
X144652831Y-58256729D01*
X144778713Y-58309000D01*
X127540000Y-58309000D01*
X126908189Y-58434675D01*
X126372567Y-58792567D01*
X122832567Y-62332567D01*
X122474675Y-62868189D01*
X122474675Y-62868190D01*
X122349000Y-63500000D01*
X122349000Y-66316134D01*
X118832567Y-69832567D01*
X118474675Y-70368189D01*
X118349000Y-71000000D01*
X111834866Y-71000000D01*
X115167434Y-67667433D01*
X115525325Y-67131810D01*
X115651000Y-66500000D01*
X115651000Y-65000000D01*
X118611536Y-65000000D01*
X118611536Y-67000000D01*
X118638103Y-67141190D01*
X118721546Y-67270865D01*
X118848866Y-67357859D01*
X119000000Y-67388464D01*
X121000000Y-67388464D01*
X121141190Y-67361897D01*
X121270865Y-67278454D01*
X121357859Y-67151134D01*
X121388464Y-67000000D01*
X121388464Y-65000000D01*
X121361897Y-64858810D01*
X121278454Y-64729135D01*
X121151134Y-64642141D01*
X121000000Y-64611536D01*
X119000000Y-64611536D01*
X118858810Y-64638103D01*
X118729135Y-64721546D01*
X118642141Y-64848866D01*
X118611536Y-65000000D01*
X115651000Y-65000000D01*
X115651000Y-61683866D01*
X121208903Y-56125963D01*
X146698802Y-56125963D01*
X146872143Y-56545480D01*
X147192831Y-56866729D01*
X147612045Y-57040802D01*
X148065963Y-57041198D01*
X148485480Y-56867857D01*
X148806729Y-56547169D01*
X148980802Y-56127955D01*
X148981198Y-55674037D01*
X148807857Y-55254520D01*
X148487169Y-54933271D01*
X148067955Y-54759198D01*
X147614037Y-54758802D01*
X147194520Y-54932143D01*
X146873271Y-55252831D01*
X146699198Y-55672045D01*
X146698802Y-56125963D01*
X121208903Y-56125963D01*
X123594866Y-53740000D01*
X144151536Y-53740000D01*
X144151536Y-55260000D01*
X144178103Y-55401190D01*
X144261546Y-55530865D01*
X144388866Y-55617859D01*
X144540000Y-55648464D01*
X146060000Y-55648464D01*
X146201190Y-55621897D01*
X146330865Y-55538454D01*
X146417859Y-55411134D01*
X146448464Y-55260000D01*
X146448464Y-53740000D01*
X146421897Y-53598810D01*
X146338454Y-53469135D01*
X146211134Y-53382141D01*
X146060000Y-53351536D01*
X144540000Y-53351536D01*
X144398810Y-53378103D01*
X144269135Y-53461546D01*
X144182141Y-53588866D01*
X144151536Y-53740000D01*
X123594866Y-53740000D01*
X124183866Y-53151000D01*
X138999132Y-53151000D01*
X139326963Y-53151286D01*
X139933995Y-52900466D01*
X140398834Y-52436437D01*
X140650713Y-51829845D01*
X140651286Y-51173037D01*
X140400466Y-50566005D01*
X139936437Y-50101166D01*
X139329845Y-49849287D01*
X138673037Y-49848714D01*
X138672345Y-49849000D01*
X133135000Y-49849000D01*
X133135000Y-47842719D01*
X145553604Y-47842719D01*
X145900894Y-48683223D01*
X146543395Y-49326846D01*
X147383292Y-49675602D01*
X148292719Y-49676396D01*
X149133223Y-49329106D01*
X149776846Y-48686605D01*
X150125602Y-47846708D01*
X150126396Y-46937281D01*
X149779106Y-46096777D01*
X149136605Y-45453154D01*
X148296708Y-45104398D01*
X147387281Y-45103604D01*
X146546777Y-45450894D01*
X145903154Y-46093395D01*
X145554398Y-46933292D01*
X145553604Y-47842719D01*
X133135000Y-47842719D01*
X133135000Y-43263026D01*
X135064526Y-41333500D01*
X145947646Y-41333500D01*
X150666500Y-46052354D01*
X150666500Y-52447646D01*
X150057073Y-53057073D01*
X149768007Y-53489692D01*
X149666500Y-54000000D01*
X149666500Y-62447646D01*
X149297646Y-62816500D01*
X147840000Y-62816500D01*
X147329692Y-62918007D01*
X146897073Y-63207073D01*
X146608007Y-63639692D01*
X146506500Y-64150000D01*
X146608007Y-64660308D01*
X146897073Y-65092927D01*
X147329692Y-65381993D01*
X147840000Y-65483500D01*
X149850000Y-65483500D01*
X150360308Y-65381993D01*
X150792927Y-65092927D01*
X151942927Y-63942927D01*
X152231993Y-63510308D01*
X152333500Y-63000000D01*
X152333500Y-54552354D01*
X152942927Y-53942927D01*
X153231993Y-53510308D01*
X153333500Y-53000000D01*
X153333500Y-45500000D01*
X153231993Y-44989692D01*
X152942927Y-44557073D01*
X149020854Y-40635000D01*
X153500000Y-40635000D01*
X153730795Y-40591573D01*
X153942767Y-40455173D01*
X154084971Y-40247051D01*
X154135000Y-40000000D01*
X154135000Y-38000000D01*
X154088328Y-37761054D01*
X153949013Y-37550987D01*
X127949013Y-11550987D01*
X127747051Y-11415029D01*
X127500000Y-11365000D01*
X120000000Y-11365000D01*
X119769205Y-11408427D01*
X119557233Y-11544827D01*
X119415029Y-11752949D01*
X119365000Y-12000000D01*
X119365000Y-50000000D01*
X119408427Y-50230795D01*
X119544827Y-50442767D01*
X119752949Y-50584971D01*
X120000000Y-50635000D01*
X122030134Y-50635000D01*
X112832567Y-59832567D01*
X112474675Y-60368189D01*
X112474675Y-60368190D01*
X112349000Y-61000000D01*
X112349000Y-65816133D01*
X82333585Y-95831549D01*
X82101166Y-96063563D01*
X81849287Y-96670155D01*
X81848714Y-97326963D01*
X456000Y-97326963D01*
X456000Y-80422022D01*
X6568631Y-80422022D01*
X6892373Y-81205538D01*
X7491309Y-81805521D01*
X8274258Y-82130630D01*
X9122022Y-82131369D01*
X9905538Y-81807627D01*
X10505521Y-81208691D01*
X10830630Y-80425742D01*
X10831369Y-79577978D01*
X10507627Y-78794462D01*
X9908691Y-78194479D01*
X9125742Y-77869370D01*
X8277978Y-77868631D01*
X7494462Y-78192373D01*
X6894479Y-78791309D01*
X6569370Y-79574258D01*
X6568631Y-80422022D01*
X456000Y-80422022D01*
X456000Y-72323003D01*
X30428718Y-72323003D01*
X30676499Y-72922680D01*
X31134907Y-73381888D01*
X31734151Y-73630716D01*
X32383003Y-73631282D01*
X32982680Y-73383501D01*
X33441888Y-72925093D01*
X33690716Y-72325849D01*
X33691282Y-71676997D01*
X33443501Y-71077320D01*
X32985093Y-70618112D01*
X32385849Y-70369284D01*
X31736997Y-70368718D01*
X31137320Y-70616499D01*
X30678112Y-71074907D01*
X30429284Y-71674151D01*
X30428718Y-72323003D01*
X456000Y-72323003D01*
X456000Y-69372513D01*
X14118674Y-69372513D01*
X14404436Y-70064109D01*
X14933108Y-70593704D01*
X15624204Y-70880673D01*
X16372513Y-70881326D01*
X17064109Y-70595564D01*
X17593704Y-70066892D01*
X17880673Y-69375796D01*
X17881326Y-68627487D01*
X17595564Y-67935891D01*
X17066892Y-67406296D01*
X16375796Y-67119327D01*
X15627487Y-67118674D01*
X14935891Y-67404436D01*
X14406296Y-67933108D01*
X14119327Y-68624204D01*
X14118674Y-69372513D01*
X456000Y-69372513D01*
X456000Y-51372513D01*
X14118674Y-51372513D01*
X14404436Y-52064109D01*
X14933108Y-52593704D01*
X15624204Y-52880673D01*
X16372513Y-52881326D01*
X16929944Y-52651000D01*
X30409000Y-52651000D01*
X30409000Y-65250000D01*
X30428912Y-65350106D01*
X30428718Y-65573003D01*
X30514588Y-65780823D01*
X30534675Y-65881810D01*
X30591379Y-65966674D01*
X30676499Y-66172680D01*
X30835363Y-66331821D01*
X30892567Y-66417433D01*
X30977431Y-66474138D01*
X31134907Y-66631888D01*
X31342577Y-66718120D01*
X31428190Y-66775325D01*
X31528295Y-66795237D01*
X31734151Y-66880716D01*
X31959012Y-66880912D01*
X32060000Y-66901000D01*
X32160106Y-66881088D01*
X32383003Y-66881282D01*
X32590823Y-66795412D01*
X32691810Y-66775325D01*
X32776674Y-66718621D01*
X32982680Y-66633501D01*
X33141821Y-66474637D01*
X33227433Y-66417433D01*
X33284138Y-66332569D01*
X33441888Y-66175093D01*
X33528120Y-65967423D01*
X33585325Y-65881810D01*
X33605237Y-65781705D01*
X33690716Y-65575849D01*
X33690912Y-65350988D01*
X33711000Y-65250000D01*
X33711000Y-54422022D01*
X105928631Y-54422022D01*
X106252373Y-55205538D01*
X106851309Y-55805521D01*
X107634258Y-56130630D01*
X108482022Y-56131369D01*
X109265538Y-55807627D01*
X109865521Y-55208691D01*
X110190630Y-54425742D01*
X110191369Y-53577978D01*
X109867627Y-52794462D01*
X109268691Y-52194479D01*
X108485742Y-51869370D01*
X107637978Y-51868631D01*
X106854462Y-52192373D01*
X106254479Y-52791309D01*
X105929370Y-53574258D01*
X105928631Y-54422022D01*
X33711000Y-54422022D01*
X33711000Y-51060000D01*
X33585325Y-50428190D01*
X33227433Y-49892567D01*
X33167433Y-49832567D01*
X32631811Y-49474675D01*
X32000000Y-49349000D01*
X27651000Y-49349000D01*
X27651000Y-48922022D01*
X105928631Y-48922022D01*
X106252373Y-49705538D01*
X106851309Y-50305521D01*
X107634258Y-50630630D01*
X108482022Y-50631369D01*
X109265538Y-50307627D01*
X109865521Y-49708691D01*
X110190630Y-48925742D01*
X110191369Y-48077978D01*
X109867627Y-47294462D01*
X109573679Y-47000000D01*
X116111536Y-47000000D01*
X116111536Y-49000000D01*
X116138103Y-49141190D01*
X116221546Y-49270865D01*
X116348866Y-49357859D01*
X116500000Y-49388464D01*
X118500000Y-49388464D01*
X118641190Y-49361897D01*
X118770865Y-49278454D01*
X118857859Y-49151134D01*
X118888464Y-49000000D01*
X118888464Y-47000000D01*
X118861897Y-46858810D01*
X118778454Y-46729135D01*
X118651134Y-46642141D01*
X118500000Y-46611536D01*
X116500000Y-46611536D01*
X116358810Y-46638103D01*
X116229135Y-46721546D01*
X116142141Y-46848866D01*
X116111536Y-47000000D01*
X109573679Y-47000000D01*
X109268691Y-46694479D01*
X108485742Y-46369370D01*
X107637978Y-46368631D01*
X106854462Y-46692373D01*
X106254479Y-47291309D01*
X105929370Y-48074258D01*
X105928631Y-48922022D01*
X27651000Y-48922022D01*
X27651000Y-36000000D01*
X116111536Y-36000000D01*
X116111536Y-38000000D01*
X116138103Y-38141190D01*
X116221546Y-38270865D01*
X116348866Y-38357859D01*
X116500000Y-38388464D01*
X118500000Y-38388464D01*
X118641190Y-38361897D01*
X118770865Y-38278454D01*
X118857859Y-38151134D01*
X118888464Y-38000000D01*
X118888464Y-36000000D01*
X118861897Y-35858810D01*
X118778454Y-35729135D01*
X118651134Y-35642141D01*
X118500000Y-35611536D01*
X116500000Y-35611536D01*
X116358810Y-35638103D01*
X116229135Y-35721546D01*
X116142141Y-35848866D01*
X116111536Y-36000000D01*
X27651000Y-36000000D01*
X27651000Y-25000000D01*
X116111536Y-25000000D01*
X116111536Y-27000000D01*
X116138103Y-27141190D01*
X116221546Y-27270865D01*
X116348866Y-27357859D01*
X116500000Y-27388464D01*
X118500000Y-27388464D01*
X118641190Y-27361897D01*
X118770865Y-27278454D01*
X118857859Y-27151134D01*
X118888464Y-27000000D01*
X118888464Y-25000000D01*
X118861897Y-24858810D01*
X118778454Y-24729135D01*
X118651134Y-24642141D01*
X118500000Y-24611536D01*
X116500000Y-24611536D01*
X116358810Y-24638103D01*
X116229135Y-24721546D01*
X116142141Y-24848866D01*
X116111536Y-25000000D01*
X27651000Y-25000000D01*
X27651000Y-19823003D01*
X30428718Y-19823003D01*
X30676499Y-20422680D01*
X31134907Y-20881888D01*
X31734151Y-21130716D01*
X32383003Y-21131282D01*
X32982680Y-20883501D01*
X33441888Y-20425093D01*
X33690716Y-19825849D01*
X33691282Y-19176997D01*
X33443501Y-18577320D01*
X32985093Y-18118112D01*
X32385849Y-17869284D01*
X31736997Y-17868718D01*
X31137320Y-18116499D01*
X30678112Y-18574907D01*
X30429284Y-19174151D01*
X30428718Y-19823003D01*
X27651000Y-19823003D01*
X27651000Y-17183866D01*
X30433866Y-14401000D01*
X32060000Y-14401000D01*
X32160106Y-14381088D01*
X32383003Y-14381282D01*
X32590823Y-14295412D01*
X32691810Y-14275325D01*
X32776674Y-14218621D01*
X32982680Y-14133501D01*
X33116413Y-14000000D01*
X116111536Y-14000000D01*
X116111536Y-16000000D01*
X116138103Y-16141190D01*
X116221546Y-16270865D01*
X116348866Y-16357859D01*
X116500000Y-16388464D01*
X118500000Y-16388464D01*
X118641190Y-16361897D01*
X118770865Y-16278454D01*
X118857859Y-16151134D01*
X118888464Y-16000000D01*
X118888464Y-14000000D01*
X118861897Y-13858810D01*
X118778454Y-13729135D01*
X118651134Y-13642141D01*
X118500000Y-13611536D01*
X116500000Y-13611536D01*
X116358810Y-13638103D01*
X116229135Y-13721546D01*
X116142141Y-13848866D01*
X116111536Y-14000000D01*
X33116413Y-14000000D01*
X33141821Y-13974637D01*
X33227433Y-13917433D01*
X33284138Y-13832569D01*
X33441888Y-13675093D01*
X33528120Y-13467423D01*
X33585325Y-13381810D01*
X33605237Y-13281705D01*
X33690716Y-13075849D01*
X33690912Y-12850988D01*
X33711000Y-12750000D01*
X33691088Y-12649894D01*
X33691282Y-12426997D01*
X33605412Y-12219177D01*
X33585325Y-12118190D01*
X33528621Y-12033326D01*
X33443501Y-11827320D01*
X33284637Y-11668179D01*
X33227433Y-11582567D01*
X33142569Y-11525862D01*
X32985093Y-11368112D01*
X32777423Y-11281880D01*
X32691810Y-11224675D01*
X32591705Y-11204763D01*
X32385849Y-11119284D01*
X32160988Y-11119088D01*
X32060000Y-11099000D01*
X29750000Y-11099000D01*
X29118190Y-11224675D01*
X28582567Y-11582567D01*
X24832567Y-15332567D01*
X24474675Y-15868189D01*
X24474675Y-15868190D01*
X24349000Y-16500000D01*
X24349000Y-49349000D01*
X16928908Y-49349000D01*
X16375796Y-49119327D01*
X15627487Y-49118674D01*
X14935891Y-49404436D01*
X14406296Y-49933108D01*
X14119327Y-50624204D01*
X14118674Y-51372513D01*
X456000Y-51372513D01*
X456000Y-40422022D01*
X6568631Y-40422022D01*
X6892373Y-41205538D01*
X7491309Y-41805521D01*
X8274258Y-42130630D01*
X9122022Y-42131369D01*
X9905538Y-41807627D01*
X10505521Y-41208691D01*
X10830630Y-40425742D01*
X10831369Y-39577978D01*
X10507627Y-38794462D01*
X9908691Y-38194479D01*
X9125742Y-37869370D01*
X8277978Y-37868631D01*
X7494462Y-38192373D01*
X6894479Y-38791309D01*
X6569370Y-39574258D01*
X6568631Y-40422022D01*
X456000Y-40422022D01*
X456000Y-456000D01*
X161544000Y-456000D01*
X161544000Y-119544000D01*
X161544000Y-119544000D01*
G37*
X161544000Y-119544000D02*
X456000Y-119544000D01*
X456000Y-106922022D01*
X105928631Y-106922022D01*
X106252373Y-107705538D01*
X106851309Y-108305521D01*
X107634258Y-108630630D01*
X108482022Y-108631369D01*
X109265538Y-108307627D01*
X109865521Y-107708691D01*
X110190630Y-106925742D01*
X110191369Y-106077978D01*
X109867627Y-105294462D01*
X109268691Y-104694479D01*
X108485742Y-104369370D01*
X107637978Y-104368631D01*
X106854462Y-104692373D01*
X106254479Y-105291309D01*
X105929370Y-106074258D01*
X105928631Y-106922022D01*
X456000Y-106922022D01*
X456000Y-101422022D01*
X105928631Y-101422022D01*
X106252373Y-102205538D01*
X106851309Y-102805521D01*
X107634258Y-103130630D01*
X108482022Y-103131369D01*
X109265538Y-102807627D01*
X109865521Y-102208691D01*
X110159795Y-101500000D01*
X116111536Y-101500000D01*
X116111536Y-103500000D01*
X116138103Y-103641190D01*
X116221546Y-103770865D01*
X116348866Y-103857859D01*
X116500000Y-103888464D01*
X118500000Y-103888464D01*
X118641190Y-103861897D01*
X118770865Y-103778454D01*
X118857859Y-103651134D01*
X118888464Y-103500000D01*
X118888464Y-102773493D01*
X121118761Y-102773493D01*
X121328563Y-103281251D01*
X121716705Y-103670072D01*
X122224097Y-103880759D01*
X122773493Y-103881239D01*
X123281251Y-103671437D01*
X123670072Y-103283295D01*
X123880759Y-102775903D01*
X123881239Y-102226507D01*
X123671437Y-101718749D01*
X123283295Y-101329928D01*
X122775903Y-101119241D01*
X122226507Y-101118761D01*
X121718749Y-101328563D01*
X121329928Y-101716705D01*
X121119241Y-102224097D01*
X121118761Y-102773493D01*
X118888464Y-102773493D01*
X118888464Y-101500000D01*
X118861897Y-101358810D01*
X118778454Y-101229135D01*
X118651134Y-101142141D01*
X118500000Y-101111536D01*
X116500000Y-101111536D01*
X116358810Y-101138103D01*
X116229135Y-101221546D01*
X116142141Y-101348866D01*
X116111536Y-101500000D01*
X110159795Y-101500000D01*
X110190630Y-101425742D01*
X110191369Y-100577978D01*
X109867627Y-99794462D01*
X109268691Y-99194479D01*
X108485742Y-98869370D01*
X107637978Y-98868631D01*
X106854462Y-99192373D01*
X106254479Y-99791309D01*
X105929370Y-100574258D01*
X105928631Y-101422022D01*
X456000Y-101422022D01*
X456000Y-97326963D01*
X81848714Y-97326963D01*
X82099534Y-97933995D01*
X82563563Y-98398834D01*
X83170155Y-98650713D01*
X83826963Y-98651286D01*
X84433995Y-98400466D01*
X84898834Y-97936437D01*
X84899122Y-97935744D01*
X92834866Y-90000000D01*
X116111536Y-90000000D01*
X116111536Y-92000000D01*
X116138103Y-92141190D01*
X116221546Y-92270865D01*
X116348866Y-92357859D01*
X116500000Y-92388464D01*
X118500000Y-92388464D01*
X118641190Y-92361897D01*
X118770865Y-92278454D01*
X118857859Y-92151134D01*
X118888464Y-92000000D01*
X118888464Y-91273493D01*
X121118761Y-91273493D01*
X121328563Y-91781251D01*
X121716705Y-92170072D01*
X122224097Y-92380759D01*
X122773493Y-92381239D01*
X123281251Y-92171437D01*
X123670072Y-91783295D01*
X123880759Y-91275903D01*
X123881239Y-90726507D01*
X123671437Y-90218749D01*
X123283295Y-89829928D01*
X122775903Y-89619241D01*
X122226507Y-89618761D01*
X121718749Y-89828563D01*
X121329928Y-90216705D01*
X121119241Y-90724097D01*
X121118761Y-91273493D01*
X118888464Y-91273493D01*
X118888464Y-90000000D01*
X118861897Y-89858810D01*
X118778454Y-89729135D01*
X118651134Y-89642141D01*
X118500000Y-89611536D01*
X116500000Y-89611536D01*
X116358810Y-89638103D01*
X116229135Y-89721546D01*
X116142141Y-89848866D01*
X116111536Y-90000000D01*
X92834866Y-90000000D01*
X104334866Y-78500000D01*
X116111536Y-78500000D01*
X116111536Y-80500000D01*
X116138103Y-80641190D01*
X116221546Y-80770865D01*
X116348866Y-80857859D01*
X116500000Y-80888464D01*
X118500000Y-80888464D01*
X118641190Y-80861897D01*
X118770865Y-80778454D01*
X118857859Y-80651134D01*
X118888464Y-80500000D01*
X118888464Y-79773493D01*
X121118761Y-79773493D01*
X121328563Y-80281251D01*
X121716705Y-80670072D01*
X122224097Y-80880759D01*
X122773493Y-80881239D01*
X123281251Y-80671437D01*
X123670072Y-80283295D01*
X123880759Y-79775903D01*
X123881239Y-79226507D01*
X123671437Y-78718749D01*
X123283295Y-78329928D01*
X122775903Y-78119241D01*
X122226507Y-78118761D01*
X121718749Y-78328563D01*
X121329928Y-78716705D01*
X121119241Y-79224097D01*
X121118761Y-79773493D01*
X118888464Y-79773493D01*
X118888464Y-78500000D01*
X118861897Y-78358810D01*
X118778454Y-78229135D01*
X118651134Y-78142141D01*
X118500000Y-78111536D01*
X116500000Y-78111536D01*
X116358810Y-78138103D01*
X116229135Y-78221546D01*
X116142141Y-78348866D01*
X116111536Y-78500000D01*
X104334866Y-78500000D01*
X109592147Y-73242719D01*
X145553604Y-73242719D01*
X145900894Y-74083223D01*
X146543395Y-74726846D01*
X147383292Y-75075602D01*
X148292719Y-75076396D01*
X149133223Y-74729106D01*
X149776846Y-74086605D01*
X150125602Y-73246708D01*
X150126396Y-72337281D01*
X149779106Y-71496777D01*
X149136605Y-70853154D01*
X148296708Y-70504398D01*
X147387281Y-70503604D01*
X146546777Y-70850894D01*
X145903154Y-71493395D01*
X145554398Y-72333292D01*
X145553604Y-73242719D01*
X109592147Y-73242719D01*
X111834866Y-71000000D01*
X118349000Y-71000000D01*
X118474675Y-71631811D01*
X118832567Y-72167433D01*
X119368189Y-72525325D01*
X120000000Y-72651000D01*
X120631811Y-72525325D01*
X121167433Y-72167433D01*
X125167433Y-68167433D01*
X125525325Y-67631811D01*
X125546176Y-67526987D01*
X125651000Y-67000000D01*
X125651000Y-65775963D01*
X144158802Y-65775963D01*
X144332143Y-66195480D01*
X144652831Y-66516729D01*
X145072045Y-66690802D01*
X145525963Y-66691198D01*
X145945480Y-66517857D01*
X146266729Y-66197169D01*
X146440802Y-65777955D01*
X146441198Y-65324037D01*
X146267857Y-64904520D01*
X145947169Y-64583271D01*
X145527955Y-64409198D01*
X145074037Y-64408802D01*
X144654520Y-64582143D01*
X144333271Y-64902831D01*
X144159198Y-65322045D01*
X144158802Y-65775963D01*
X125651000Y-65775963D01*
X125651000Y-64183866D01*
X126848903Y-62985963D01*
X144158802Y-62985963D01*
X144332143Y-63405480D01*
X144652831Y-63726729D01*
X145072045Y-63900802D01*
X145525963Y-63901198D01*
X145945480Y-63727857D01*
X146266729Y-63407169D01*
X146440802Y-62987955D01*
X146441198Y-62534037D01*
X146267857Y-62114520D01*
X145947169Y-61793271D01*
X145527955Y-61619198D01*
X145074037Y-61618802D01*
X144654520Y-61792143D01*
X144333271Y-62112831D01*
X144159198Y-62532045D01*
X144158802Y-62985963D01*
X126848903Y-62985963D01*
X128223866Y-61611000D01*
X145300000Y-61611000D01*
X145931810Y-61485325D01*
X146467433Y-61127433D01*
X146825325Y-60591810D01*
X146951000Y-59960000D01*
X146825325Y-59328190D01*
X146549884Y-58915963D01*
X146698802Y-58915963D01*
X146872143Y-59335480D01*
X147192831Y-59656729D01*
X147612045Y-59830802D01*
X148065963Y-59831198D01*
X148485480Y-59657857D01*
X148806729Y-59337169D01*
X148980802Y-58917955D01*
X148981198Y-58464037D01*
X148807857Y-58044520D01*
X148487169Y-57723271D01*
X148067955Y-57549198D01*
X147614037Y-57548802D01*
X147194520Y-57722143D01*
X146873271Y-58042831D01*
X146699198Y-58462045D01*
X146698802Y-58915963D01*
X146549884Y-58915963D01*
X146467433Y-58792567D01*
X145931810Y-58434675D01*
X145652169Y-58379051D01*
X145945480Y-58257857D01*
X146266729Y-57937169D01*
X146440802Y-57517955D01*
X146441198Y-57064037D01*
X146267857Y-56644520D01*
X145947169Y-56323271D01*
X145527955Y-56149198D01*
X145074037Y-56148802D01*
X144654520Y-56322143D01*
X144333271Y-56642831D01*
X144159198Y-57062045D01*
X144158802Y-57515963D01*
X144332143Y-57935480D01*
X144652831Y-58256729D01*
X144778713Y-58309000D01*
X127540000Y-58309000D01*
X126908189Y-58434675D01*
X126372567Y-58792567D01*
X122832567Y-62332567D01*
X122474675Y-62868189D01*
X122474675Y-62868190D01*
X122349000Y-63500000D01*
X122349000Y-66316134D01*
X118832567Y-69832567D01*
X118474675Y-70368189D01*
X118349000Y-71000000D01*
X111834866Y-71000000D01*
X115167434Y-67667433D01*
X115525325Y-67131810D01*
X115651000Y-66500000D01*
X115651000Y-65000000D01*
X118611536Y-65000000D01*
X118611536Y-67000000D01*
X118638103Y-67141190D01*
X118721546Y-67270865D01*
X118848866Y-67357859D01*
X119000000Y-67388464D01*
X121000000Y-67388464D01*
X121141190Y-67361897D01*
X121270865Y-67278454D01*
X121357859Y-67151134D01*
X121388464Y-67000000D01*
X121388464Y-65000000D01*
X121361897Y-64858810D01*
X121278454Y-64729135D01*
X121151134Y-64642141D01*
X121000000Y-64611536D01*
X119000000Y-64611536D01*
X118858810Y-64638103D01*
X118729135Y-64721546D01*
X118642141Y-64848866D01*
X118611536Y-65000000D01*
X115651000Y-65000000D01*
X115651000Y-61683866D01*
X121208903Y-56125963D01*
X146698802Y-56125963D01*
X146872143Y-56545480D01*
X147192831Y-56866729D01*
X147612045Y-57040802D01*
X148065963Y-57041198D01*
X148485480Y-56867857D01*
X148806729Y-56547169D01*
X148980802Y-56127955D01*
X148981198Y-55674037D01*
X148807857Y-55254520D01*
X148487169Y-54933271D01*
X148067955Y-54759198D01*
X147614037Y-54758802D01*
X147194520Y-54932143D01*
X146873271Y-55252831D01*
X146699198Y-55672045D01*
X146698802Y-56125963D01*
X121208903Y-56125963D01*
X123594866Y-53740000D01*
X144151536Y-53740000D01*
X144151536Y-55260000D01*
X144178103Y-55401190D01*
X144261546Y-55530865D01*
X144388866Y-55617859D01*
X144540000Y-55648464D01*
X146060000Y-55648464D01*
X146201190Y-55621897D01*
X146330865Y-55538454D01*
X146417859Y-55411134D01*
X146448464Y-55260000D01*
X146448464Y-53740000D01*
X146421897Y-53598810D01*
X146338454Y-53469135D01*
X146211134Y-53382141D01*
X146060000Y-53351536D01*
X144540000Y-53351536D01*
X144398810Y-53378103D01*
X144269135Y-53461546D01*
X144182141Y-53588866D01*
X144151536Y-53740000D01*
X123594866Y-53740000D01*
X124183866Y-53151000D01*
X138999132Y-53151000D01*
X139326963Y-53151286D01*
X139933995Y-52900466D01*
X140398834Y-52436437D01*
X140650713Y-51829845D01*
X140651286Y-51173037D01*
X140400466Y-50566005D01*
X139936437Y-50101166D01*
X139329845Y-49849287D01*
X138673037Y-49848714D01*
X138672345Y-49849000D01*
X133135000Y-49849000D01*
X133135000Y-47842719D01*
X145553604Y-47842719D01*
X145900894Y-48683223D01*
X146543395Y-49326846D01*
X147383292Y-49675602D01*
X148292719Y-49676396D01*
X149133223Y-49329106D01*
X149776846Y-48686605D01*
X150125602Y-47846708D01*
X150126396Y-46937281D01*
X149779106Y-46096777D01*
X149136605Y-45453154D01*
X148296708Y-45104398D01*
X147387281Y-45103604D01*
X146546777Y-45450894D01*
X145903154Y-46093395D01*
X145554398Y-46933292D01*
X145553604Y-47842719D01*
X133135000Y-47842719D01*
X133135000Y-43263026D01*
X135064526Y-41333500D01*
X145947646Y-41333500D01*
X150666500Y-46052354D01*
X150666500Y-52447646D01*
X150057073Y-53057073D01*
X149768007Y-53489692D01*
X149666500Y-54000000D01*
X149666500Y-62447646D01*
X149297646Y-62816500D01*
X147840000Y-62816500D01*
X147329692Y-62918007D01*
X146897073Y-63207073D01*
X146608007Y-63639692D01*
X146506500Y-64150000D01*
X146608007Y-64660308D01*
X146897073Y-65092927D01*
X147329692Y-65381993D01*
X147840000Y-65483500D01*
X149850000Y-65483500D01*
X150360308Y-65381993D01*
X150792927Y-65092927D01*
X151942927Y-63942927D01*
X152231993Y-63510308D01*
X152333500Y-63000000D01*
X152333500Y-54552354D01*
X152942927Y-53942927D01*
X153231993Y-53510308D01*
X153333500Y-53000000D01*
X153333500Y-45500000D01*
X153231993Y-44989692D01*
X152942927Y-44557073D01*
X149020854Y-40635000D01*
X153500000Y-40635000D01*
X153730795Y-40591573D01*
X153942767Y-40455173D01*
X154084971Y-40247051D01*
X154135000Y-40000000D01*
X154135000Y-38000000D01*
X154088328Y-37761054D01*
X153949013Y-37550987D01*
X127949013Y-11550987D01*
X127747051Y-11415029D01*
X127500000Y-11365000D01*
X120000000Y-11365000D01*
X119769205Y-11408427D01*
X119557233Y-11544827D01*
X119415029Y-11752949D01*
X119365000Y-12000000D01*
X119365000Y-50000000D01*
X119408427Y-50230795D01*
X119544827Y-50442767D01*
X119752949Y-50584971D01*
X120000000Y-50635000D01*
X122030134Y-50635000D01*
X112832567Y-59832567D01*
X112474675Y-60368189D01*
X112474675Y-60368190D01*
X112349000Y-61000000D01*
X112349000Y-65816133D01*
X82333585Y-95831549D01*
X82101166Y-96063563D01*
X81849287Y-96670155D01*
X81848714Y-97326963D01*
X456000Y-97326963D01*
X456000Y-80422022D01*
X6568631Y-80422022D01*
X6892373Y-81205538D01*
X7491309Y-81805521D01*
X8274258Y-82130630D01*
X9122022Y-82131369D01*
X9905538Y-81807627D01*
X10505521Y-81208691D01*
X10830630Y-80425742D01*
X10831369Y-79577978D01*
X10507627Y-78794462D01*
X9908691Y-78194479D01*
X9125742Y-77869370D01*
X8277978Y-77868631D01*
X7494462Y-78192373D01*
X6894479Y-78791309D01*
X6569370Y-79574258D01*
X6568631Y-80422022D01*
X456000Y-80422022D01*
X456000Y-72323003D01*
X30428718Y-72323003D01*
X30676499Y-72922680D01*
X31134907Y-73381888D01*
X31734151Y-73630716D01*
X32383003Y-73631282D01*
X32982680Y-73383501D01*
X33441888Y-72925093D01*
X33690716Y-72325849D01*
X33691282Y-71676997D01*
X33443501Y-71077320D01*
X32985093Y-70618112D01*
X32385849Y-70369284D01*
X31736997Y-70368718D01*
X31137320Y-70616499D01*
X30678112Y-71074907D01*
X30429284Y-71674151D01*
X30428718Y-72323003D01*
X456000Y-72323003D01*
X456000Y-69372513D01*
X14118674Y-69372513D01*
X14404436Y-70064109D01*
X14933108Y-70593704D01*
X15624204Y-70880673D01*
X16372513Y-70881326D01*
X17064109Y-70595564D01*
X17593704Y-70066892D01*
X17880673Y-69375796D01*
X17881326Y-68627487D01*
X17595564Y-67935891D01*
X17066892Y-67406296D01*
X16375796Y-67119327D01*
X15627487Y-67118674D01*
X14935891Y-67404436D01*
X14406296Y-67933108D01*
X14119327Y-68624204D01*
X14118674Y-69372513D01*
X456000Y-69372513D01*
X456000Y-51372513D01*
X14118674Y-51372513D01*
X14404436Y-52064109D01*
X14933108Y-52593704D01*
X15624204Y-52880673D01*
X16372513Y-52881326D01*
X16929944Y-52651000D01*
X30409000Y-52651000D01*
X30409000Y-65250000D01*
X30428912Y-65350106D01*
X30428718Y-65573003D01*
X30514588Y-65780823D01*
X30534675Y-65881810D01*
X30591379Y-65966674D01*
X30676499Y-66172680D01*
X30835363Y-66331821D01*
X30892567Y-66417433D01*
X30977431Y-66474138D01*
X31134907Y-66631888D01*
X31342577Y-66718120D01*
X31428190Y-66775325D01*
X31528295Y-66795237D01*
X31734151Y-66880716D01*
X31959012Y-66880912D01*
X32060000Y-66901000D01*
X32160106Y-66881088D01*
X32383003Y-66881282D01*
X32590823Y-66795412D01*
X32691810Y-66775325D01*
X32776674Y-66718621D01*
X32982680Y-66633501D01*
X33141821Y-66474637D01*
X33227433Y-66417433D01*
X33284138Y-66332569D01*
X33441888Y-66175093D01*
X33528120Y-65967423D01*
X33585325Y-65881810D01*
X33605237Y-65781705D01*
X33690716Y-65575849D01*
X33690912Y-65350988D01*
X33711000Y-65250000D01*
X33711000Y-54422022D01*
X105928631Y-54422022D01*
X106252373Y-55205538D01*
X106851309Y-55805521D01*
X107634258Y-56130630D01*
X108482022Y-56131369D01*
X109265538Y-55807627D01*
X109865521Y-55208691D01*
X110190630Y-54425742D01*
X110191369Y-53577978D01*
X109867627Y-52794462D01*
X109268691Y-52194479D01*
X108485742Y-51869370D01*
X107637978Y-51868631D01*
X106854462Y-52192373D01*
X106254479Y-52791309D01*
X105929370Y-53574258D01*
X105928631Y-54422022D01*
X33711000Y-54422022D01*
X33711000Y-51060000D01*
X33585325Y-50428190D01*
X33227433Y-49892567D01*
X33167433Y-49832567D01*
X32631811Y-49474675D01*
X32000000Y-49349000D01*
X27651000Y-49349000D01*
X27651000Y-48922022D01*
X105928631Y-48922022D01*
X106252373Y-49705538D01*
X106851309Y-50305521D01*
X107634258Y-50630630D01*
X108482022Y-50631369D01*
X109265538Y-50307627D01*
X109865521Y-49708691D01*
X110190630Y-48925742D01*
X110191369Y-48077978D01*
X109867627Y-47294462D01*
X109573679Y-47000000D01*
X116111536Y-47000000D01*
X116111536Y-49000000D01*
X116138103Y-49141190D01*
X116221546Y-49270865D01*
X116348866Y-49357859D01*
X116500000Y-49388464D01*
X118500000Y-49388464D01*
X118641190Y-49361897D01*
X118770865Y-49278454D01*
X118857859Y-49151134D01*
X118888464Y-49000000D01*
X118888464Y-47000000D01*
X118861897Y-46858810D01*
X118778454Y-46729135D01*
X118651134Y-46642141D01*
X118500000Y-46611536D01*
X116500000Y-46611536D01*
X116358810Y-46638103D01*
X116229135Y-46721546D01*
X116142141Y-46848866D01*
X116111536Y-47000000D01*
X109573679Y-47000000D01*
X109268691Y-46694479D01*
X108485742Y-46369370D01*
X107637978Y-46368631D01*
X106854462Y-46692373D01*
X106254479Y-47291309D01*
X105929370Y-48074258D01*
X105928631Y-48922022D01*
X27651000Y-48922022D01*
X27651000Y-36000000D01*
X116111536Y-36000000D01*
X116111536Y-38000000D01*
X116138103Y-38141190D01*
X116221546Y-38270865D01*
X116348866Y-38357859D01*
X116500000Y-38388464D01*
X118500000Y-38388464D01*
X118641190Y-38361897D01*
X118770865Y-38278454D01*
X118857859Y-38151134D01*
X118888464Y-38000000D01*
X118888464Y-36000000D01*
X118861897Y-35858810D01*
X118778454Y-35729135D01*
X118651134Y-35642141D01*
X118500000Y-35611536D01*
X116500000Y-35611536D01*
X116358810Y-35638103D01*
X116229135Y-35721546D01*
X116142141Y-35848866D01*
X116111536Y-36000000D01*
X27651000Y-36000000D01*
X27651000Y-25000000D01*
X116111536Y-25000000D01*
X116111536Y-27000000D01*
X116138103Y-27141190D01*
X116221546Y-27270865D01*
X116348866Y-27357859D01*
X116500000Y-27388464D01*
X118500000Y-27388464D01*
X118641190Y-27361897D01*
X118770865Y-27278454D01*
X118857859Y-27151134D01*
X118888464Y-27000000D01*
X118888464Y-25000000D01*
X118861897Y-24858810D01*
X118778454Y-24729135D01*
X118651134Y-24642141D01*
X118500000Y-24611536D01*
X116500000Y-24611536D01*
X116358810Y-24638103D01*
X116229135Y-24721546D01*
X116142141Y-24848866D01*
X116111536Y-25000000D01*
X27651000Y-25000000D01*
X27651000Y-19823003D01*
X30428718Y-19823003D01*
X30676499Y-20422680D01*
X31134907Y-20881888D01*
X31734151Y-21130716D01*
X32383003Y-21131282D01*
X32982680Y-20883501D01*
X33441888Y-20425093D01*
X33690716Y-19825849D01*
X33691282Y-19176997D01*
X33443501Y-18577320D01*
X32985093Y-18118112D01*
X32385849Y-17869284D01*
X31736997Y-17868718D01*
X31137320Y-18116499D01*
X30678112Y-18574907D01*
X30429284Y-19174151D01*
X30428718Y-19823003D01*
X27651000Y-19823003D01*
X27651000Y-17183866D01*
X30433866Y-14401000D01*
X32060000Y-14401000D01*
X32160106Y-14381088D01*
X32383003Y-14381282D01*
X32590823Y-14295412D01*
X32691810Y-14275325D01*
X32776674Y-14218621D01*
X32982680Y-14133501D01*
X33116413Y-14000000D01*
X116111536Y-14000000D01*
X116111536Y-16000000D01*
X116138103Y-16141190D01*
X116221546Y-16270865D01*
X116348866Y-16357859D01*
X116500000Y-16388464D01*
X118500000Y-16388464D01*
X118641190Y-16361897D01*
X118770865Y-16278454D01*
X118857859Y-16151134D01*
X118888464Y-16000000D01*
X118888464Y-14000000D01*
X118861897Y-13858810D01*
X118778454Y-13729135D01*
X118651134Y-13642141D01*
X118500000Y-13611536D01*
X116500000Y-13611536D01*
X116358810Y-13638103D01*
X116229135Y-13721546D01*
X116142141Y-13848866D01*
X116111536Y-14000000D01*
X33116413Y-14000000D01*
X33141821Y-13974637D01*
X33227433Y-13917433D01*
X33284138Y-13832569D01*
X33441888Y-13675093D01*
X33528120Y-13467423D01*
X33585325Y-13381810D01*
X33605237Y-13281705D01*
X33690716Y-13075849D01*
X33690912Y-12850988D01*
X33711000Y-12750000D01*
X33691088Y-12649894D01*
X33691282Y-12426997D01*
X33605412Y-12219177D01*
X33585325Y-12118190D01*
X33528621Y-12033326D01*
X33443501Y-11827320D01*
X33284637Y-11668179D01*
X33227433Y-11582567D01*
X33142569Y-11525862D01*
X32985093Y-11368112D01*
X32777423Y-11281880D01*
X32691810Y-11224675D01*
X32591705Y-11204763D01*
X32385849Y-11119284D01*
X32160988Y-11119088D01*
X32060000Y-11099000D01*
X29750000Y-11099000D01*
X29118190Y-11224675D01*
X28582567Y-11582567D01*
X24832567Y-15332567D01*
X24474675Y-15868189D01*
X24474675Y-15868190D01*
X24349000Y-16500000D01*
X24349000Y-49349000D01*
X16928908Y-49349000D01*
X16375796Y-49119327D01*
X15627487Y-49118674D01*
X14935891Y-49404436D01*
X14406296Y-49933108D01*
X14119327Y-50624204D01*
X14118674Y-51372513D01*
X456000Y-51372513D01*
X456000Y-40422022D01*
X6568631Y-40422022D01*
X6892373Y-41205538D01*
X7491309Y-41805521D01*
X8274258Y-42130630D01*
X9122022Y-42131369D01*
X9905538Y-41807627D01*
X10505521Y-41208691D01*
X10830630Y-40425742D01*
X10831369Y-39577978D01*
X10507627Y-38794462D01*
X9908691Y-38194479D01*
X9125742Y-37869370D01*
X8277978Y-37868631D01*
X7494462Y-38192373D01*
X6894479Y-38791309D01*
X6569370Y-39574258D01*
X6568631Y-40422022D01*
X456000Y-40422022D01*
X456000Y-456000D01*
X161544000Y-456000D01*
X161544000Y-119544000D01*
G36*
X153373000Y-38052606D02*
X153373000Y-39873000D01*
X135500000Y-39873000D01*
X135450590Y-39883006D01*
X135410197Y-39910197D01*
X132410197Y-42910197D01*
X132382334Y-42952211D01*
X132373000Y-43000000D01*
X132373000Y-49595000D01*
X123500000Y-49595000D01*
X122770988Y-49740009D01*
X122571953Y-49873000D01*
X120127000Y-49873000D01*
X120127000Y-12127000D01*
X127447394Y-12127000D01*
X153373000Y-38052606D01*
X153373000Y-38052606D01*
G37*
X153373000Y-38052606D02*
X153373000Y-39873000D01*
X135500000Y-39873000D01*
X135450590Y-39883006D01*
X135410197Y-39910197D01*
X132410197Y-42910197D01*
X132382334Y-42952211D01*
X132373000Y-43000000D01*
X132373000Y-49595000D01*
X123500000Y-49595000D01*
X122770988Y-49740009D01*
X122571953Y-49873000D01*
X120127000Y-49873000D01*
X120127000Y-12127000D01*
X127447394Y-12127000D01*
X153373000Y-38052606D01*
M02*
