M48
;DRILL file {KiCad 4.0.7} date 08/06/18 18:34:00
;FORMAT={-:-/ absolute / inch / decimal}
FMAT,2
INCH,TZ
T1C0.016
T2C0.039
T3C0.040
T4C0.050
T5C0.059
T6C0.071
T7C0.098
T8C0.120
T9C0.138
%
G90
G05
M72
T1
X0.05Y-0.05
X0.05Y-4.675
X0.55Y-0.05
X0.55Y-4.675
X1.05Y-0.05
X1.05Y-4.675
X1.55Y-0.05
X1.55Y-4.675
X2.05Y-0.05
X2.05Y-4.675
X2.55Y-0.05
X2.55Y-4.675
X3.05Y-0.05
X3.05Y-4.675
X3.55Y-0.05
X3.55Y-4.675
X4.05Y-0.05
X4.05Y-4.675
X4.55Y-0.05
X4.55Y-4.675
X5.05Y-0.05
X5.05Y-4.675
X5.55Y-0.05
X5.55Y-4.675
X6.05Y-0.05
X6.05Y-4.675
T2
X4.626Y-0.5906
X4.626Y-1.0236
X4.626Y-1.4567
X4.626Y-1.8898
X4.626Y-3.1299
X4.626Y-3.5827
X4.626Y-4.0354
X4.7244Y-2.5984
X4.7244Y-2.7953
X4.8228Y-0.5906
X4.8228Y-1.0236
X4.8228Y-1.4567
X4.8228Y-1.8898
X4.8228Y-3.1299
X4.8228Y-3.5827
X4.8228Y-4.0354
T3
X5.9961Y-2.1457
X5.9961Y-2.2555
X5.9961Y-2.3606
X5.9961Y-2.4709
X5.9961Y-2.5807
X6.0961Y-2.2008
X6.0961Y-2.3106
X6.0961Y-2.4157
X6.0961Y-2.5256
T4
X3.2874Y-3.8189
X5.4087Y-2.4756
X5.4724Y-2.0276
X5.5815Y-2.265
X6.0898Y-2.0276
X6.2024Y-2.1091
X6.2386Y-2.6902
T5
X1.2622Y-0.502
X1.2622Y-0.7677
X1.2622Y-2.5689
X1.2622Y-2.8346
T6
X0.5906Y-2.0079
X0.5906Y-2.3622
X0.5906Y-2.7165
T7
X4.2543Y-1.9094
X4.2543Y-2.126
X4.2543Y-3.9764
X4.2543Y-4.1929
T8
X6.0961Y-1.8657
X6.0961Y-2.8657
T9
X0.3031Y-1.5748
X0.3031Y-3.1496
T0
M30
