G04 #@! TF.GenerationSoftware,KiCad,Pcbnew,(5.1.0)-1*
G04 #@! TF.CreationDate,2019-05-17T11:45:57-07:00*
G04 #@! TF.ProjectId,pwr supply rev 4,70777220-7375-4707-906c-792072657620,rev?*
G04 #@! TF.SameCoordinates,Original*
G04 #@! TF.FileFunction,Soldermask,Top*
G04 #@! TF.FilePolarity,Negative*
%FSLAX46Y46*%
G04 Gerber Fmt 4.6, Leading zero omitted, Abs format (unit mm)*
G04 Created by KiCad (PCBNEW (5.1.0)-1) date 2019-05-17 11:45:57*
%MOMM*%
%LPD*%
G04 APERTURE LIST*
%ADD10C,2.000000*%
%ADD11C,0.150000*%
G04 APERTURE END LIST*
D10*
X9125000Y-111775000D02*
X9125000Y-118925000D01*
X161000000Y-1000000D02*
X6400000Y-1000000D01*
X161000000Y-119000000D02*
X6400000Y-119000000D01*
D11*
G36*
X101999570Y-104882149D02*
G01*
X102092950Y-104900723D01*
X102356835Y-105010027D01*
X102594321Y-105168711D01*
X102796289Y-105370679D01*
X102954973Y-105608165D01*
X103064277Y-105872050D01*
X103120000Y-106152189D01*
X103120000Y-106437811D01*
X103064277Y-106717950D01*
X102954973Y-106981835D01*
X102796289Y-107219321D01*
X102594321Y-107421289D01*
X102356835Y-107579973D01*
X102092950Y-107689277D01*
X101999570Y-107707851D01*
X101812813Y-107745000D01*
X101527187Y-107745000D01*
X101340430Y-107707851D01*
X101247050Y-107689277D01*
X100983165Y-107579973D01*
X100745679Y-107421289D01*
X100543711Y-107219321D01*
X100385027Y-106981835D01*
X100275723Y-106717950D01*
X100220000Y-106437811D01*
X100220000Y-106152189D01*
X100275723Y-105872050D01*
X100385027Y-105608165D01*
X100543711Y-105370679D01*
X100745679Y-105168711D01*
X100983165Y-105010027D01*
X101247050Y-104900723D01*
X101340430Y-104882149D01*
X101527187Y-104845000D01*
X101812813Y-104845000D01*
X101999570Y-104882149D01*
X101999570Y-104882149D01*
G37*
G36*
X122850027Y-101346116D02*
G01*
X123068415Y-101436575D01*
X123264955Y-101567899D01*
X123432101Y-101735045D01*
X123563425Y-101931585D01*
X123653884Y-102149973D01*
X123700000Y-102381812D01*
X123700000Y-102618188D01*
X123653884Y-102850027D01*
X123563425Y-103068415D01*
X123432101Y-103264955D01*
X123264955Y-103432101D01*
X123068415Y-103563425D01*
X123068414Y-103563426D01*
X123068413Y-103563426D01*
X122850027Y-103653884D01*
X122618190Y-103700000D01*
X122381810Y-103700000D01*
X122149973Y-103653884D01*
X121931587Y-103563426D01*
X121931586Y-103563426D01*
X121931585Y-103563425D01*
X121735045Y-103432101D01*
X121567899Y-103264955D01*
X121436575Y-103068415D01*
X121346116Y-102850027D01*
X121300000Y-102618188D01*
X121300000Y-102381812D01*
X121346116Y-102149973D01*
X121436575Y-101931585D01*
X121567899Y-101735045D01*
X121735045Y-101567899D01*
X121931585Y-101436575D01*
X122149973Y-101346116D01*
X122381810Y-101300000D01*
X122618190Y-101300000D01*
X122850027Y-101346116D01*
X122850027Y-101346116D01*
G37*
G36*
X118700000Y-103700000D02*
G01*
X116300000Y-103700000D01*
X116300000Y-101300000D01*
X118700000Y-101300000D01*
X118700000Y-103700000D01*
X118700000Y-103700000D01*
G37*
G36*
X35859570Y-93962149D02*
G01*
X35952950Y-93980723D01*
X36216835Y-94090027D01*
X36454321Y-94248711D01*
X36656289Y-94450679D01*
X36814973Y-94688165D01*
X36924277Y-94952050D01*
X36980000Y-95232189D01*
X36980000Y-95517811D01*
X36924277Y-95797950D01*
X36814973Y-96061835D01*
X36656289Y-96299321D01*
X36454321Y-96501289D01*
X36216835Y-96659973D01*
X35952950Y-96769277D01*
X35859570Y-96787851D01*
X35672813Y-96825000D01*
X35387187Y-96825000D01*
X35200430Y-96787851D01*
X35107050Y-96769277D01*
X34843165Y-96659973D01*
X34605679Y-96501289D01*
X34403711Y-96299321D01*
X34245027Y-96061835D01*
X34135723Y-95797950D01*
X34080000Y-95517811D01*
X34080000Y-95232189D01*
X34135723Y-94952050D01*
X34245027Y-94688165D01*
X34403711Y-94450679D01*
X34605679Y-94248711D01*
X34843165Y-94090027D01*
X35107050Y-93980723D01*
X35200430Y-93962149D01*
X35387187Y-93925000D01*
X35672813Y-93925000D01*
X35859570Y-93962149D01*
X35859570Y-93962149D01*
G37*
G36*
X101999570Y-90002149D02*
G01*
X102092950Y-90020723D01*
X102356835Y-90130027D01*
X102594321Y-90288711D01*
X102796289Y-90490679D01*
X102954973Y-90728165D01*
X103018614Y-90881810D01*
X103064277Y-90992051D01*
X103120000Y-91272187D01*
X103120000Y-91557813D01*
X103117891Y-91568415D01*
X103064277Y-91837950D01*
X102954973Y-92101835D01*
X102796289Y-92339321D01*
X102594321Y-92541289D01*
X102356835Y-92699973D01*
X102092950Y-92809277D01*
X101999570Y-92827851D01*
X101812813Y-92865000D01*
X101527187Y-92865000D01*
X101340430Y-92827851D01*
X101247050Y-92809277D01*
X100983165Y-92699973D01*
X100745679Y-92541289D01*
X100543711Y-92339321D01*
X100385027Y-92101835D01*
X100275723Y-91837950D01*
X100222109Y-91568415D01*
X100220000Y-91557813D01*
X100220000Y-91272187D01*
X100275723Y-90992051D01*
X100321386Y-90881810D01*
X100385027Y-90728165D01*
X100543711Y-90490679D01*
X100745679Y-90288711D01*
X100983165Y-90130027D01*
X101247050Y-90020723D01*
X101340430Y-90002149D01*
X101527187Y-89965000D01*
X101812813Y-89965000D01*
X101999570Y-90002149D01*
X101999570Y-90002149D01*
G37*
G36*
X118700000Y-92200000D02*
G01*
X116300000Y-92200000D01*
X116300000Y-89800000D01*
X118700000Y-89800000D01*
X118700000Y-92200000D01*
X118700000Y-92200000D01*
G37*
G36*
X122850027Y-89846116D02*
G01*
X123068415Y-89936575D01*
X123264955Y-90067899D01*
X123432101Y-90235045D01*
X123467960Y-90288711D01*
X123563426Y-90431587D01*
X123653884Y-90649973D01*
X123700000Y-90881810D01*
X123700000Y-91118190D01*
X123653884Y-91350027D01*
X123567817Y-91557813D01*
X123563425Y-91568415D01*
X123432101Y-91764955D01*
X123264955Y-91932101D01*
X123068415Y-92063425D01*
X123068414Y-92063426D01*
X123068413Y-92063426D01*
X122850027Y-92153884D01*
X122618190Y-92200000D01*
X122381810Y-92200000D01*
X122149973Y-92153884D01*
X121931587Y-92063426D01*
X121931586Y-92063426D01*
X121931585Y-92063425D01*
X121735045Y-91932101D01*
X121567899Y-91764955D01*
X121436575Y-91568415D01*
X121432184Y-91557813D01*
X121346116Y-91350027D01*
X121300000Y-91118190D01*
X121300000Y-90881810D01*
X121346116Y-90649973D01*
X121436574Y-90431587D01*
X121532041Y-90288711D01*
X121567899Y-90235045D01*
X121735045Y-90067899D01*
X121931585Y-89936575D01*
X122149973Y-89846116D01*
X122381810Y-89800000D01*
X122618190Y-89800000D01*
X122850027Y-89846116D01*
X122850027Y-89846116D01*
G37*
G36*
X35859570Y-86042149D02*
G01*
X35952950Y-86060723D01*
X36216835Y-86170027D01*
X36454321Y-86328711D01*
X36656289Y-86530679D01*
X36814973Y-86768165D01*
X36924277Y-87032050D01*
X36980000Y-87312189D01*
X36980000Y-87597811D01*
X36924277Y-87877950D01*
X36814973Y-88141835D01*
X36656289Y-88379321D01*
X36454321Y-88581289D01*
X36216835Y-88739973D01*
X35952950Y-88849277D01*
X35859570Y-88867851D01*
X35672813Y-88905000D01*
X35387187Y-88905000D01*
X35200430Y-88867851D01*
X35107050Y-88849277D01*
X34843165Y-88739973D01*
X34605679Y-88581289D01*
X34403711Y-88379321D01*
X34245027Y-88141835D01*
X34135723Y-87877950D01*
X34080000Y-87597811D01*
X34080000Y-87312189D01*
X34135723Y-87032050D01*
X34245027Y-86768165D01*
X34403711Y-86530679D01*
X34605679Y-86328711D01*
X34843165Y-86170027D01*
X35107050Y-86060723D01*
X35200430Y-86042149D01*
X35387187Y-86005000D01*
X35672813Y-86005000D01*
X35859570Y-86042149D01*
X35859570Y-86042149D01*
G37*
G36*
X12668794Y-78124938D02*
G01*
X13023674Y-78271933D01*
X13343053Y-78485336D01*
X13614664Y-78756947D01*
X13828067Y-79076326D01*
X13975062Y-79431206D01*
X14050000Y-79807943D01*
X14050000Y-80192057D01*
X13975062Y-80568794D01*
X13828067Y-80923674D01*
X13614664Y-81243053D01*
X13343053Y-81514664D01*
X13023674Y-81728067D01*
X12668794Y-81875062D01*
X12292058Y-81950000D01*
X11907942Y-81950000D01*
X11531206Y-81875062D01*
X11176326Y-81728067D01*
X10856947Y-81514664D01*
X10585336Y-81243053D01*
X10371933Y-80923674D01*
X10224938Y-80568794D01*
X10150000Y-80192057D01*
X10150000Y-79807943D01*
X10224938Y-79431206D01*
X10371933Y-79076326D01*
X10585336Y-78756947D01*
X10856947Y-78485336D01*
X11176326Y-78271933D01*
X11531206Y-78124938D01*
X11907942Y-78050000D01*
X12292058Y-78050000D01*
X12668794Y-78124938D01*
X12668794Y-78124938D01*
G37*
G36*
X118700000Y-80700000D02*
G01*
X116300000Y-80700000D01*
X116300000Y-78300000D01*
X118700000Y-78300000D01*
X118700000Y-80700000D01*
X118700000Y-80700000D01*
G37*
G36*
X122850027Y-78346116D02*
G01*
X123068415Y-78436575D01*
X123264955Y-78567899D01*
X123432101Y-78735045D01*
X123563425Y-78931585D01*
X123653884Y-79149973D01*
X123700000Y-79381812D01*
X123700000Y-79618188D01*
X123653884Y-79850027D01*
X123563425Y-80068415D01*
X123432101Y-80264955D01*
X123264955Y-80432101D01*
X123068415Y-80563425D01*
X123068414Y-80563426D01*
X123068413Y-80563426D01*
X122850027Y-80653884D01*
X122618190Y-80700000D01*
X122381810Y-80700000D01*
X122149973Y-80653884D01*
X121931587Y-80563426D01*
X121931586Y-80563426D01*
X121931585Y-80563425D01*
X121735045Y-80432101D01*
X121567899Y-80264955D01*
X121436575Y-80068415D01*
X121346116Y-79850027D01*
X121300000Y-79618188D01*
X121300000Y-79381812D01*
X121346116Y-79149973D01*
X121436575Y-78931585D01*
X121567899Y-78735045D01*
X121735045Y-78567899D01*
X121931585Y-78436575D01*
X122149973Y-78346116D01*
X122381810Y-78300000D01*
X122618190Y-78300000D01*
X122850027Y-78346116D01*
X122850027Y-78346116D01*
G37*
G36*
X101999570Y-75122149D02*
G01*
X102092950Y-75140723D01*
X102356835Y-75250027D01*
X102594321Y-75408711D01*
X102796289Y-75610679D01*
X102954973Y-75848165D01*
X103064277Y-76112050D01*
X103120000Y-76392189D01*
X103120000Y-76677811D01*
X103064277Y-76957950D01*
X102954973Y-77221835D01*
X102796289Y-77459321D01*
X102594321Y-77661289D01*
X102356835Y-77819973D01*
X102092950Y-77929277D01*
X101999570Y-77947851D01*
X101812813Y-77985000D01*
X101527187Y-77985000D01*
X101340430Y-77947851D01*
X101247050Y-77929277D01*
X100983165Y-77819973D01*
X100745679Y-77661289D01*
X100543711Y-77459321D01*
X100385027Y-77221835D01*
X100275723Y-76957950D01*
X100220000Y-76677811D01*
X100220000Y-76392189D01*
X100275723Y-76112050D01*
X100385027Y-75848165D01*
X100543711Y-75610679D01*
X100745679Y-75408711D01*
X100983165Y-75250027D01*
X101247050Y-75140723D01*
X101340430Y-75122149D01*
X101527187Y-75085000D01*
X101812813Y-75085000D01*
X101999570Y-75122149D01*
X101999570Y-75122149D01*
G37*
G36*
X155454006Y-70765894D02*
G01*
X155837094Y-70924574D01*
X156181859Y-71154939D01*
X156475061Y-71448141D01*
X156705426Y-71792906D01*
X156864106Y-72175994D01*
X156945000Y-72582677D01*
X156945000Y-72997323D01*
X156864106Y-73404006D01*
X156705426Y-73787094D01*
X156475061Y-74131859D01*
X156181859Y-74425061D01*
X155837094Y-74655426D01*
X155454006Y-74814106D01*
X155047324Y-74895000D01*
X154632676Y-74895000D01*
X154225994Y-74814106D01*
X153842906Y-74655426D01*
X153498141Y-74425061D01*
X153204939Y-74131859D01*
X152974574Y-73787094D01*
X152815894Y-73404006D01*
X152735000Y-72997323D01*
X152735000Y-72582677D01*
X152815894Y-72175994D01*
X152974574Y-71792906D01*
X153204939Y-71448141D01*
X153498141Y-71154939D01*
X153842906Y-70924574D01*
X154225994Y-70765894D01*
X154632676Y-70685000D01*
X155047324Y-70685000D01*
X155454006Y-70765894D01*
X155454006Y-70765894D01*
G37*
G36*
X120350027Y-69846116D02*
G01*
X120568415Y-69936575D01*
X120764955Y-70067899D01*
X120932101Y-70235045D01*
X121063426Y-70431587D01*
X121147545Y-70634669D01*
X121153884Y-70649973D01*
X121200000Y-70881812D01*
X121200000Y-71118188D01*
X121153884Y-71350027D01*
X121063425Y-71568415D01*
X120932101Y-71764955D01*
X120764955Y-71932101D01*
X120568415Y-72063425D01*
X120568414Y-72063426D01*
X120568413Y-72063426D01*
X120350027Y-72153884D01*
X120118190Y-72200000D01*
X119881810Y-72200000D01*
X119649973Y-72153884D01*
X119431587Y-72063426D01*
X119431586Y-72063426D01*
X119431585Y-72063425D01*
X119235045Y-71932101D01*
X119067899Y-71764955D01*
X118936575Y-71568415D01*
X118846116Y-71350027D01*
X118800000Y-71118188D01*
X118800000Y-70881812D01*
X118846116Y-70649973D01*
X118852455Y-70634669D01*
X118936574Y-70431587D01*
X119067899Y-70235045D01*
X119235045Y-70067899D01*
X119431585Y-69936575D01*
X119649973Y-69846116D01*
X119881810Y-69800000D01*
X120118190Y-69800000D01*
X120350027Y-69846116D01*
X120350027Y-69846116D01*
G37*
G36*
X19895872Y-67365330D02*
G01*
X20205252Y-67493479D01*
X20483687Y-67679523D01*
X20720477Y-67916313D01*
X20906521Y-68194748D01*
X21034670Y-68504128D01*
X21100000Y-68832565D01*
X21100000Y-69167435D01*
X21034670Y-69495872D01*
X20906521Y-69805252D01*
X20720477Y-70083687D01*
X20483687Y-70320477D01*
X20205252Y-70506521D01*
X19895872Y-70634670D01*
X19567435Y-70700000D01*
X19232565Y-70700000D01*
X18904128Y-70634670D01*
X18594748Y-70506521D01*
X18316313Y-70320477D01*
X18079523Y-70083687D01*
X17893479Y-69805252D01*
X17765330Y-69495872D01*
X17700000Y-69167435D01*
X17700000Y-68832565D01*
X17765330Y-68504128D01*
X17893479Y-68194748D01*
X18079523Y-67916313D01*
X18316313Y-67679523D01*
X18594748Y-67493479D01*
X18904128Y-67365330D01*
X19232565Y-67300000D01*
X19567435Y-67300000D01*
X19895872Y-67365330D01*
X19895872Y-67365330D01*
G37*
G36*
X121200000Y-67200000D02*
G01*
X118800000Y-67200000D01*
X118800000Y-64800000D01*
X121200000Y-64800000D01*
X121200000Y-67200000D01*
X121200000Y-67200000D01*
G37*
G36*
X152580022Y-64626892D02*
G01*
X152754731Y-64699259D01*
X152754733Y-64699260D01*
X152911964Y-64804319D01*
X153045681Y-64938036D01*
X153150740Y-65095267D01*
X153223108Y-65269979D01*
X153260000Y-65455448D01*
X153260000Y-65644552D01*
X153223108Y-65830021D01*
X153150740Y-66004733D01*
X153045681Y-66161964D01*
X152911964Y-66295681D01*
X152754733Y-66400740D01*
X152754732Y-66400741D01*
X152754731Y-66400741D01*
X152580022Y-66473108D01*
X152394552Y-66510000D01*
X152205448Y-66510000D01*
X152019978Y-66473108D01*
X151845269Y-66400741D01*
X151845268Y-66400741D01*
X151845267Y-66400740D01*
X151688036Y-66295681D01*
X151554319Y-66161964D01*
X151449260Y-66004733D01*
X151376892Y-65830021D01*
X151340000Y-65644552D01*
X151340000Y-65455448D01*
X151376892Y-65269979D01*
X151449260Y-65095267D01*
X151554319Y-64938036D01*
X151688036Y-64804319D01*
X151845267Y-64699260D01*
X151845269Y-64699259D01*
X152019978Y-64626892D01*
X152205448Y-64590000D01*
X152394552Y-64590000D01*
X152580022Y-64626892D01*
X152580022Y-64626892D01*
G37*
G36*
X155120022Y-63226892D02*
G01*
X155294731Y-63299259D01*
X155294733Y-63299260D01*
X155451964Y-63404319D01*
X155585681Y-63538036D01*
X155690740Y-63695267D01*
X155763108Y-63869979D01*
X155800000Y-64055448D01*
X155800000Y-64244552D01*
X155763108Y-64430021D01*
X155690740Y-64604733D01*
X155585681Y-64761964D01*
X155451964Y-64895681D01*
X155294733Y-65000740D01*
X155294732Y-65000741D01*
X155294731Y-65000741D01*
X155120022Y-65073108D01*
X154934552Y-65110000D01*
X154745448Y-65110000D01*
X154559978Y-65073108D01*
X154385269Y-65000741D01*
X154385268Y-65000741D01*
X154385267Y-65000740D01*
X154228036Y-64895681D01*
X154094319Y-64761964D01*
X153989260Y-64604733D01*
X153916892Y-64430021D01*
X153880000Y-64244552D01*
X153880000Y-64055448D01*
X153916892Y-63869979D01*
X153989260Y-63695267D01*
X154094319Y-63538036D01*
X154228036Y-63404319D01*
X154385267Y-63299260D01*
X154385269Y-63299259D01*
X154559978Y-63226892D01*
X154745448Y-63190000D01*
X154934552Y-63190000D01*
X155120022Y-63226892D01*
X155120022Y-63226892D01*
G37*
G36*
X152580022Y-61836892D02*
G01*
X152754731Y-61909259D01*
X152754733Y-61909260D01*
X152911964Y-62014319D01*
X153045681Y-62148036D01*
X153150740Y-62305267D01*
X153223108Y-62479979D01*
X153260000Y-62665448D01*
X153260000Y-62854552D01*
X153223108Y-63040021D01*
X153150740Y-63214733D01*
X153045681Y-63371964D01*
X152911964Y-63505681D01*
X152754733Y-63610740D01*
X152754732Y-63610741D01*
X152754731Y-63610741D01*
X152580022Y-63683108D01*
X152394552Y-63720000D01*
X152205448Y-63720000D01*
X152019978Y-63683108D01*
X151845269Y-63610741D01*
X151845268Y-63610741D01*
X151845267Y-63610740D01*
X151688036Y-63505681D01*
X151554319Y-63371964D01*
X151449260Y-63214733D01*
X151376892Y-63040021D01*
X151340000Y-62854552D01*
X151340000Y-62665448D01*
X151376892Y-62479979D01*
X151449260Y-62305267D01*
X151554319Y-62148036D01*
X151688036Y-62014319D01*
X151845267Y-61909260D01*
X151845269Y-61909259D01*
X152019978Y-61836892D01*
X152205448Y-61800000D01*
X152394552Y-61800000D01*
X152580022Y-61836892D01*
X152580022Y-61836892D01*
G37*
G36*
X155120022Y-60436892D02*
G01*
X155294731Y-60509259D01*
X155294733Y-60509260D01*
X155451964Y-60614319D01*
X155585681Y-60748036D01*
X155675934Y-60883108D01*
X155690741Y-60905269D01*
X155763108Y-61079978D01*
X155800000Y-61265448D01*
X155800000Y-61454552D01*
X155764173Y-61634670D01*
X155763108Y-61640021D01*
X155690740Y-61814733D01*
X155585681Y-61971964D01*
X155451964Y-62105681D01*
X155294733Y-62210740D01*
X155294732Y-62210741D01*
X155294731Y-62210741D01*
X155120022Y-62283108D01*
X154934552Y-62320000D01*
X154745448Y-62320000D01*
X154559978Y-62283108D01*
X154385269Y-62210741D01*
X154385268Y-62210741D01*
X154385267Y-62210740D01*
X154228036Y-62105681D01*
X154094319Y-61971964D01*
X153989260Y-61814733D01*
X153916892Y-61640021D01*
X153915828Y-61634670D01*
X153880000Y-61454552D01*
X153880000Y-61265448D01*
X153916892Y-61079978D01*
X153989259Y-60905269D01*
X154004067Y-60883108D01*
X154094319Y-60748036D01*
X154228036Y-60614319D01*
X154385267Y-60509260D01*
X154385269Y-60509259D01*
X154559978Y-60436892D01*
X154745448Y-60400000D01*
X154934552Y-60400000D01*
X155120022Y-60436892D01*
X155120022Y-60436892D01*
G37*
G36*
X19895872Y-58365330D02*
G01*
X20205252Y-58493479D01*
X20483687Y-58679523D01*
X20720477Y-58916313D01*
X20906521Y-59194748D01*
X21034670Y-59504128D01*
X21100000Y-59832565D01*
X21100000Y-60167435D01*
X21034670Y-60495872D01*
X20906521Y-60805252D01*
X20720477Y-61083687D01*
X20483687Y-61320477D01*
X20205252Y-61506521D01*
X19895872Y-61634670D01*
X19567435Y-61700000D01*
X19232565Y-61700000D01*
X18904128Y-61634670D01*
X18594748Y-61506521D01*
X18316313Y-61320477D01*
X18079523Y-61083687D01*
X17893479Y-60805252D01*
X17765330Y-60495872D01*
X17700000Y-60167435D01*
X17700000Y-59832565D01*
X17765330Y-59504128D01*
X17893479Y-59194748D01*
X18079523Y-58916313D01*
X18316313Y-58679523D01*
X18594748Y-58493479D01*
X18904128Y-58365330D01*
X19232565Y-58300000D01*
X19567435Y-58300000D01*
X19895872Y-58365330D01*
X19895872Y-58365330D01*
G37*
G36*
X152580022Y-59036892D02*
G01*
X152754731Y-59109259D01*
X152754733Y-59109260D01*
X152882671Y-59194746D01*
X152911964Y-59214319D01*
X153045681Y-59348036D01*
X153150741Y-59505269D01*
X153223108Y-59679978D01*
X153260000Y-59865448D01*
X153260000Y-60054552D01*
X153237547Y-60167434D01*
X153223108Y-60240021D01*
X153150740Y-60414733D01*
X153045681Y-60571964D01*
X152911964Y-60705681D01*
X152754733Y-60810740D01*
X152754732Y-60810741D01*
X152754731Y-60810741D01*
X152580022Y-60883108D01*
X152394552Y-60920000D01*
X152205448Y-60920000D01*
X152019978Y-60883108D01*
X151845269Y-60810741D01*
X151845268Y-60810741D01*
X151845267Y-60810740D01*
X151688036Y-60705681D01*
X151554319Y-60571964D01*
X151449260Y-60414733D01*
X151376892Y-60240021D01*
X151362454Y-60167434D01*
X151340000Y-60054552D01*
X151340000Y-59865448D01*
X151376892Y-59679978D01*
X151449259Y-59505269D01*
X151554319Y-59348036D01*
X151688036Y-59214319D01*
X151717329Y-59194746D01*
X151845267Y-59109260D01*
X151845269Y-59109259D01*
X152019978Y-59036892D01*
X152205448Y-59000000D01*
X152394552Y-59000000D01*
X152580022Y-59036892D01*
X152580022Y-59036892D01*
G37*
G36*
X155120022Y-57766892D02*
G01*
X155294731Y-57839259D01*
X155294733Y-57839260D01*
X155451964Y-57944319D01*
X155585681Y-58078036D01*
X155675934Y-58213108D01*
X155690741Y-58235269D01*
X155763108Y-58409978D01*
X155800000Y-58595448D01*
X155800000Y-58784552D01*
X155763108Y-58970022D01*
X155690741Y-59144731D01*
X155690740Y-59144733D01*
X155585681Y-59301964D01*
X155451964Y-59435681D01*
X155294733Y-59540740D01*
X155294732Y-59540741D01*
X155294731Y-59540741D01*
X155120022Y-59613108D01*
X154934552Y-59650000D01*
X154745448Y-59650000D01*
X154559978Y-59613108D01*
X154385269Y-59540741D01*
X154385268Y-59540741D01*
X154385267Y-59540740D01*
X154228036Y-59435681D01*
X154094319Y-59301964D01*
X153989260Y-59144733D01*
X153989259Y-59144731D01*
X153916892Y-58970022D01*
X153880000Y-58784552D01*
X153880000Y-58595448D01*
X153916892Y-58409978D01*
X153989259Y-58235269D01*
X154004067Y-58213108D01*
X154094319Y-58078036D01*
X154228036Y-57944319D01*
X154385267Y-57839260D01*
X154385269Y-57839259D01*
X154559978Y-57766892D01*
X154745448Y-57730000D01*
X154934552Y-57730000D01*
X155120022Y-57766892D01*
X155120022Y-57766892D01*
G37*
G36*
X152580022Y-56366892D02*
G01*
X152754731Y-56439259D01*
X152754733Y-56439260D01*
X152911964Y-56544319D01*
X153045681Y-56678036D01*
X153150740Y-56835267D01*
X153223108Y-57009979D01*
X153260000Y-57195448D01*
X153260000Y-57384552D01*
X153223108Y-57570021D01*
X153150740Y-57744733D01*
X153045681Y-57901964D01*
X152911964Y-58035681D01*
X152754733Y-58140740D01*
X152754732Y-58140741D01*
X152754731Y-58140741D01*
X152580022Y-58213108D01*
X152394552Y-58250000D01*
X152205448Y-58250000D01*
X152019978Y-58213108D01*
X151845269Y-58140741D01*
X151845268Y-58140741D01*
X151845267Y-58140740D01*
X151688036Y-58035681D01*
X151554319Y-57901964D01*
X151449260Y-57744733D01*
X151376892Y-57570021D01*
X151340000Y-57384552D01*
X151340000Y-57195448D01*
X151376892Y-57009979D01*
X151449260Y-56835267D01*
X151554319Y-56678036D01*
X151688036Y-56544319D01*
X151845267Y-56439260D01*
X151845269Y-56439259D01*
X152019978Y-56366892D01*
X152205448Y-56330000D01*
X152394552Y-56330000D01*
X152580022Y-56366892D01*
X152580022Y-56366892D01*
G37*
G36*
X155120022Y-54976892D02*
G01*
X155294731Y-55049259D01*
X155294733Y-55049260D01*
X155451964Y-55154319D01*
X155585681Y-55288036D01*
X155690740Y-55445267D01*
X155763108Y-55619979D01*
X155800000Y-55805448D01*
X155800000Y-55994552D01*
X155763108Y-56180021D01*
X155690740Y-56354733D01*
X155585681Y-56511964D01*
X155451964Y-56645681D01*
X155294733Y-56750740D01*
X155294732Y-56750741D01*
X155294731Y-56750741D01*
X155120022Y-56823108D01*
X154934552Y-56860000D01*
X154745448Y-56860000D01*
X154559978Y-56823108D01*
X154385269Y-56750741D01*
X154385268Y-56750741D01*
X154385267Y-56750740D01*
X154228036Y-56645681D01*
X154094319Y-56511964D01*
X153989260Y-56354733D01*
X153916892Y-56180021D01*
X153880000Y-55994552D01*
X153880000Y-55805448D01*
X153916892Y-55619979D01*
X153989260Y-55445267D01*
X154094319Y-55288036D01*
X154228036Y-55154319D01*
X154385267Y-55049260D01*
X154385269Y-55049259D01*
X154559978Y-54976892D01*
X154745448Y-54940000D01*
X154934552Y-54940000D01*
X155120022Y-54976892D01*
X155120022Y-54976892D01*
G37*
G36*
X153260000Y-55460000D02*
G01*
X151340000Y-55460000D01*
X151340000Y-53540000D01*
X153260000Y-53540000D01*
X153260000Y-55460000D01*
X153260000Y-55460000D01*
G37*
G36*
X19895872Y-49365330D02*
G01*
X20205252Y-49493479D01*
X20483687Y-49679523D01*
X20720477Y-49916313D01*
X20906521Y-50194748D01*
X21034670Y-50504128D01*
X21100000Y-50832565D01*
X21100000Y-51167435D01*
X21034670Y-51495872D01*
X20906521Y-51805252D01*
X20720477Y-52083687D01*
X20483687Y-52320477D01*
X20205252Y-52506521D01*
X19895872Y-52634670D01*
X19567435Y-52700000D01*
X19232565Y-52700000D01*
X18904128Y-52634670D01*
X18594748Y-52506521D01*
X18316313Y-52320477D01*
X18079523Y-52083687D01*
X17893479Y-51805252D01*
X17765330Y-51495872D01*
X17700000Y-51167435D01*
X17700000Y-50832565D01*
X17765330Y-50504128D01*
X17893479Y-50194748D01*
X18079523Y-49916313D01*
X18316313Y-49679523D01*
X18594748Y-49493479D01*
X18904128Y-49365330D01*
X19232565Y-49300000D01*
X19567435Y-49300000D01*
X19895872Y-49365330D01*
X19895872Y-49365330D01*
G37*
G36*
X155454006Y-45365894D02*
G01*
X155837094Y-45524574D01*
X156181859Y-45754939D01*
X156475061Y-46048141D01*
X156705426Y-46392906D01*
X156705427Y-46392909D01*
X156864106Y-46775994D01*
X156896048Y-46936575D01*
X156945000Y-47182677D01*
X156945000Y-47597323D01*
X156864106Y-48004006D01*
X156705426Y-48387094D01*
X156475061Y-48731859D01*
X156181859Y-49025061D01*
X155837094Y-49255426D01*
X155571762Y-49365330D01*
X155454006Y-49414106D01*
X155047324Y-49495000D01*
X154632676Y-49495000D01*
X154225994Y-49414106D01*
X154108238Y-49365330D01*
X153842906Y-49255426D01*
X153498141Y-49025061D01*
X153204939Y-48731859D01*
X152974574Y-48387094D01*
X152815894Y-48004006D01*
X152735000Y-47597323D01*
X152735000Y-47182677D01*
X152783953Y-46936575D01*
X152815894Y-46775994D01*
X152974573Y-46392909D01*
X152974574Y-46392906D01*
X153204939Y-46048141D01*
X153498141Y-45754939D01*
X153842906Y-45524574D01*
X154225994Y-45365894D01*
X154632676Y-45285000D01*
X155047324Y-45285000D01*
X155454006Y-45365894D01*
X155454006Y-45365894D01*
G37*
G36*
X118700000Y-49200000D02*
G01*
X116300000Y-49200000D01*
X116300000Y-46800000D01*
X118700000Y-46800000D01*
X118700000Y-49200000D01*
X118700000Y-49200000D01*
G37*
G36*
X122841003Y-46844321D02*
G01*
X122850027Y-46846116D01*
X123068415Y-46936575D01*
X123264955Y-47067899D01*
X123432101Y-47235045D01*
X123563425Y-47431585D01*
X123653884Y-47649973D01*
X123700000Y-47881812D01*
X123700000Y-48118188D01*
X123653884Y-48350027D01*
X123563425Y-48568415D01*
X123432101Y-48764955D01*
X123264955Y-48932101D01*
X123068415Y-49063425D01*
X123068414Y-49063426D01*
X123068413Y-49063426D01*
X122850027Y-49153884D01*
X122618190Y-49200000D01*
X122381810Y-49200000D01*
X122149973Y-49153884D01*
X121931587Y-49063426D01*
X121931586Y-49063426D01*
X121931585Y-49063425D01*
X121735045Y-48932101D01*
X121567899Y-48764955D01*
X121436575Y-48568415D01*
X121346116Y-48350027D01*
X121300000Y-48118188D01*
X121300000Y-47881812D01*
X121346116Y-47649973D01*
X121436575Y-47431585D01*
X121567899Y-47235045D01*
X121735045Y-47067899D01*
X121931585Y-46936575D01*
X122149973Y-46846116D01*
X122158997Y-46844321D01*
X122381810Y-46800000D01*
X122618190Y-46800000D01*
X122841003Y-46844321D01*
X122841003Y-46844321D01*
G37*
G36*
X99049570Y-44507149D02*
G01*
X99142950Y-44525723D01*
X99406835Y-44635027D01*
X99644321Y-44793711D01*
X99846289Y-44995679D01*
X100004973Y-45233165D01*
X100114277Y-45497050D01*
X100114277Y-45497051D01*
X100165575Y-45754940D01*
X100170000Y-45777189D01*
X100170000Y-46062811D01*
X100114277Y-46342950D01*
X100004973Y-46606835D01*
X99846289Y-46844321D01*
X99644321Y-47046289D01*
X99406835Y-47204973D01*
X99142950Y-47314277D01*
X99049570Y-47332851D01*
X98862813Y-47370000D01*
X98577187Y-47370000D01*
X98390430Y-47332851D01*
X98297050Y-47314277D01*
X98033165Y-47204973D01*
X97795679Y-47046289D01*
X97593711Y-46844321D01*
X97435027Y-46606835D01*
X97325723Y-46342950D01*
X97270000Y-46062811D01*
X97270000Y-45777189D01*
X97274426Y-45754940D01*
X97325723Y-45497051D01*
X97325723Y-45497050D01*
X97435027Y-45233165D01*
X97593711Y-44995679D01*
X97795679Y-44793711D01*
X98033165Y-44635027D01*
X98297050Y-44525723D01*
X98390430Y-44507149D01*
X98577187Y-44470000D01*
X98862813Y-44470000D01*
X99049570Y-44507149D01*
X99049570Y-44507149D01*
G37*
G36*
X12668794Y-38124938D02*
G01*
X13023674Y-38271933D01*
X13343053Y-38485336D01*
X13614664Y-38756947D01*
X13828067Y-39076326D01*
X13975062Y-39431206D01*
X14050000Y-39807943D01*
X14050000Y-40192057D01*
X13975062Y-40568794D01*
X13828067Y-40923674D01*
X13614664Y-41243053D01*
X13343053Y-41514664D01*
X13023674Y-41728067D01*
X12668794Y-41875062D01*
X12292058Y-41950000D01*
X11907942Y-41950000D01*
X11531206Y-41875062D01*
X11176326Y-41728067D01*
X10856947Y-41514664D01*
X10585336Y-41243053D01*
X10371933Y-40923674D01*
X10224938Y-40568794D01*
X10150000Y-40192057D01*
X10150000Y-39807943D01*
X10224938Y-39431206D01*
X10371933Y-39076326D01*
X10585336Y-38756947D01*
X10856947Y-38485336D01*
X11176326Y-38271933D01*
X11531206Y-38124938D01*
X11907942Y-38050000D01*
X12292058Y-38050000D01*
X12668794Y-38124938D01*
X12668794Y-38124938D01*
G37*
G36*
X122850027Y-35846116D02*
G01*
X123068415Y-35936575D01*
X123264955Y-36067899D01*
X123432101Y-36235045D01*
X123563425Y-36431585D01*
X123653884Y-36649973D01*
X123700000Y-36881812D01*
X123700000Y-37118188D01*
X123653884Y-37350027D01*
X123563425Y-37568415D01*
X123432101Y-37764955D01*
X123264955Y-37932101D01*
X123068415Y-38063425D01*
X123068414Y-38063426D01*
X123068413Y-38063426D01*
X122850027Y-38153884D01*
X122618190Y-38200000D01*
X122381810Y-38200000D01*
X122149973Y-38153884D01*
X121931587Y-38063426D01*
X121931586Y-38063426D01*
X121931585Y-38063425D01*
X121735045Y-37932101D01*
X121567899Y-37764955D01*
X121436575Y-37568415D01*
X121346116Y-37350027D01*
X121300000Y-37118188D01*
X121300000Y-36881812D01*
X121346116Y-36649973D01*
X121436575Y-36431585D01*
X121567899Y-36235045D01*
X121735045Y-36067899D01*
X121931585Y-35936575D01*
X122149973Y-35846116D01*
X122381810Y-35800000D01*
X122618190Y-35800000D01*
X122850027Y-35846116D01*
X122850027Y-35846116D01*
G37*
G36*
X118700000Y-38200000D02*
G01*
X116300000Y-38200000D01*
X116300000Y-35800000D01*
X118700000Y-35800000D01*
X118700000Y-38200000D01*
X118700000Y-38200000D01*
G37*
G36*
X32909570Y-33587149D02*
G01*
X33002950Y-33605723D01*
X33266835Y-33715027D01*
X33504321Y-33873711D01*
X33706289Y-34075679D01*
X33864973Y-34313165D01*
X33974277Y-34577050D01*
X34030000Y-34857189D01*
X34030000Y-35142811D01*
X33974277Y-35422950D01*
X33864973Y-35686835D01*
X33706289Y-35924321D01*
X33504321Y-36126289D01*
X33266835Y-36284973D01*
X33002950Y-36394277D01*
X32909570Y-36412851D01*
X32722813Y-36450000D01*
X32437187Y-36450000D01*
X32250430Y-36412851D01*
X32157050Y-36394277D01*
X31893165Y-36284973D01*
X31655679Y-36126289D01*
X31453711Y-35924321D01*
X31295027Y-35686835D01*
X31185723Y-35422950D01*
X31130000Y-35142811D01*
X31130000Y-34857189D01*
X31185723Y-34577050D01*
X31295027Y-34313165D01*
X31453711Y-34075679D01*
X31655679Y-33873711D01*
X31893165Y-33715027D01*
X32157050Y-33605723D01*
X32250430Y-33587149D01*
X32437187Y-33550000D01*
X32722813Y-33550000D01*
X32909570Y-33587149D01*
X32909570Y-33587149D01*
G37*
G36*
X99049570Y-29627149D02*
G01*
X99142950Y-29645723D01*
X99406835Y-29755027D01*
X99644321Y-29913711D01*
X99846289Y-30115679D01*
X100004973Y-30353165D01*
X100114277Y-30617050D01*
X100170000Y-30897189D01*
X100170000Y-31182811D01*
X100114277Y-31462950D01*
X100004973Y-31726835D01*
X99846289Y-31964321D01*
X99644321Y-32166289D01*
X99406835Y-32324973D01*
X99142950Y-32434277D01*
X99049570Y-32452851D01*
X98862813Y-32490000D01*
X98577187Y-32490000D01*
X98390430Y-32452851D01*
X98297050Y-32434277D01*
X98033165Y-32324973D01*
X97795679Y-32166289D01*
X97593711Y-31964321D01*
X97435027Y-31726835D01*
X97325723Y-31462950D01*
X97270000Y-31182811D01*
X97270000Y-30897189D01*
X97325723Y-30617050D01*
X97435027Y-30353165D01*
X97593711Y-30115679D01*
X97795679Y-29913711D01*
X98033165Y-29755027D01*
X98297050Y-29645723D01*
X98390430Y-29627149D01*
X98577187Y-29590000D01*
X98862813Y-29590000D01*
X99049570Y-29627149D01*
X99049570Y-29627149D01*
G37*
G36*
X32909570Y-25667149D02*
G01*
X33002950Y-25685723D01*
X33266835Y-25795027D01*
X33504321Y-25953711D01*
X33706289Y-26155679D01*
X33864973Y-26393165D01*
X33974277Y-26657050D01*
X34030000Y-26937189D01*
X34030000Y-27222811D01*
X33974277Y-27502950D01*
X33864973Y-27766835D01*
X33706289Y-28004321D01*
X33504321Y-28206289D01*
X33266835Y-28364973D01*
X33002950Y-28474277D01*
X32909570Y-28492851D01*
X32722813Y-28530000D01*
X32437187Y-28530000D01*
X32250430Y-28492851D01*
X32157050Y-28474277D01*
X31893165Y-28364973D01*
X31655679Y-28206289D01*
X31453711Y-28004321D01*
X31295027Y-27766835D01*
X31185723Y-27502950D01*
X31130000Y-27222811D01*
X31130000Y-26937189D01*
X31185723Y-26657050D01*
X31295027Y-26393165D01*
X31453711Y-26155679D01*
X31655679Y-25953711D01*
X31893165Y-25795027D01*
X32157050Y-25685723D01*
X32250430Y-25667149D01*
X32437187Y-25630000D01*
X32722813Y-25630000D01*
X32909570Y-25667149D01*
X32909570Y-25667149D01*
G37*
G36*
X122850027Y-24846116D02*
G01*
X123068415Y-24936575D01*
X123264955Y-25067899D01*
X123432101Y-25235045D01*
X123563426Y-25431587D01*
X123653884Y-25649973D01*
X123682738Y-25795027D01*
X123700000Y-25881812D01*
X123700000Y-26118188D01*
X123653884Y-26350027D01*
X123563425Y-26568415D01*
X123432101Y-26764955D01*
X123264955Y-26932101D01*
X123068415Y-27063425D01*
X123068414Y-27063426D01*
X123068413Y-27063426D01*
X122850027Y-27153884D01*
X122618190Y-27200000D01*
X122381810Y-27200000D01*
X122149973Y-27153884D01*
X121931587Y-27063426D01*
X121931586Y-27063426D01*
X121931585Y-27063425D01*
X121735045Y-26932101D01*
X121567899Y-26764955D01*
X121436575Y-26568415D01*
X121346116Y-26350027D01*
X121300000Y-26118188D01*
X121300000Y-25881812D01*
X121317263Y-25795027D01*
X121346116Y-25649973D01*
X121436574Y-25431587D01*
X121567899Y-25235045D01*
X121735045Y-25067899D01*
X121931585Y-24936575D01*
X122149973Y-24846116D01*
X122381810Y-24800000D01*
X122618190Y-24800000D01*
X122850027Y-24846116D01*
X122850027Y-24846116D01*
G37*
G36*
X118700000Y-27200000D02*
G01*
X116300000Y-27200000D01*
X116300000Y-24800000D01*
X118700000Y-24800000D01*
X118700000Y-27200000D01*
X118700000Y-27200000D01*
G37*
G36*
X99049570Y-14747149D02*
G01*
X99142950Y-14765723D01*
X99406835Y-14875027D01*
X99644321Y-15033711D01*
X99846289Y-15235679D01*
X100004973Y-15473165D01*
X100114277Y-15737050D01*
X100170000Y-16017189D01*
X100170000Y-16302811D01*
X100114277Y-16582950D01*
X100004973Y-16846835D01*
X99846289Y-17084321D01*
X99644321Y-17286289D01*
X99406835Y-17444973D01*
X99142950Y-17554277D01*
X99049570Y-17572851D01*
X98862813Y-17610000D01*
X98577187Y-17610000D01*
X98390430Y-17572851D01*
X98297050Y-17554277D01*
X98033165Y-17444973D01*
X97795679Y-17286289D01*
X97593711Y-17084321D01*
X97435027Y-16846835D01*
X97325723Y-16582950D01*
X97270000Y-16302811D01*
X97270000Y-16017189D01*
X97325723Y-15737050D01*
X97435027Y-15473165D01*
X97593711Y-15235679D01*
X97795679Y-15033711D01*
X98033165Y-14875027D01*
X98297050Y-14765723D01*
X98390430Y-14747149D01*
X98577187Y-14710000D01*
X98862813Y-14710000D01*
X99049570Y-14747149D01*
X99049570Y-14747149D01*
G37*
G36*
X122850027Y-13846116D02*
G01*
X123068415Y-13936575D01*
X123264955Y-14067899D01*
X123432101Y-14235045D01*
X123563426Y-14431587D01*
X123653884Y-14649973D01*
X123700000Y-14881810D01*
X123700000Y-15118190D01*
X123653884Y-15350027D01*
X123563425Y-15568415D01*
X123432101Y-15764955D01*
X123264955Y-15932101D01*
X123068415Y-16063425D01*
X123068414Y-16063426D01*
X123068413Y-16063426D01*
X122850027Y-16153884D01*
X122618190Y-16200000D01*
X122381810Y-16200000D01*
X122149973Y-16153884D01*
X121931587Y-16063426D01*
X121931586Y-16063426D01*
X121931585Y-16063425D01*
X121735045Y-15932101D01*
X121567899Y-15764955D01*
X121436575Y-15568415D01*
X121346116Y-15350027D01*
X121300000Y-15118190D01*
X121300000Y-14881810D01*
X121346116Y-14649973D01*
X121436574Y-14431587D01*
X121567899Y-14235045D01*
X121735045Y-14067899D01*
X121931585Y-13936575D01*
X122149973Y-13846116D01*
X122381810Y-13800000D01*
X122618190Y-13800000D01*
X122850027Y-13846116D01*
X122850027Y-13846116D01*
G37*
G36*
X118700000Y-16200000D02*
G01*
X116300000Y-16200000D01*
X116300000Y-13800000D01*
X118700000Y-13800000D01*
X118700000Y-16200000D01*
X118700000Y-16200000D01*
G37*
M02*
