G04 #@! TF.FileFunction,Copper,L2,Bot,Signal*
%FSLAX46Y46*%
G04 Gerber Fmt 4.6, Leading zero omitted, Abs format (unit mm)*
G04 Created by KiCad (PCBNEW 4.0.7) date 10/03/17 11:40:22*
%MOMM*%
%LPD*%
G01*
G04 APERTURE LIST*
%ADD10C,0.150000*%
%ADD11C,3.500000*%
%ADD12C,2.500000*%
%ADD13R,0.800000X0.750000*%
%ADD14R,2.000000X2.000000*%
%ADD15C,2.000000*%
%ADD16R,0.750000X0.800000*%
%ADD17C,3.810000*%
%ADD18R,1.520000X1.520000*%
%ADD19C,1.520000*%
%ADD20R,0.900000X0.500000*%
%ADD21C,3.000000*%
%ADD22R,0.640000X0.640000*%
%ADD23R,5.900000X1.700000*%
%ADD24R,1.000000X1.250000*%
%ADD25R,1.400000X1.390000*%
%ADD26R,4.860000X3.360000*%
%ADD27C,2.540000*%
%ADD28C,2.540000*%
%ADD29C,0.635000*%
%ADD30C,0.254000*%
%ADD31C,1.905000*%
%ADD32C,1.270000*%
G04 APERTURE END LIST*
D10*
D11*
X108060000Y-54000000D03*
D12*
X32060000Y-12750000D03*
X32060000Y-19500000D03*
D11*
X108060000Y-48500000D03*
D13*
X98250000Y-93000000D03*
X96750000Y-93000000D03*
X122750000Y-99000000D03*
X121250000Y-99000000D03*
X101250000Y-37000000D03*
X102750000Y-37000000D03*
D14*
X117500000Y-102500000D03*
D15*
X122500000Y-102500000D03*
D14*
X117500000Y-48000000D03*
D15*
X122500000Y-48000000D03*
D13*
X117250000Y-82500000D03*
X115750000Y-82500000D03*
X117750000Y-28500000D03*
X116250000Y-28500000D03*
D14*
X117500000Y-91000000D03*
D15*
X122500000Y-91000000D03*
D14*
X117500000Y-37000000D03*
D15*
X122500000Y-37000000D03*
D13*
X117750000Y-74500000D03*
X116250000Y-74500000D03*
X120250000Y-23000000D03*
X118750000Y-23000000D03*
D14*
X117500000Y-79500000D03*
D15*
X122500000Y-79500000D03*
D14*
X117500000Y-26000000D03*
D15*
X122500000Y-26000000D03*
D16*
X124500000Y-71250000D03*
X124500000Y-69750000D03*
D13*
X120750000Y-17500000D03*
X119250000Y-17500000D03*
D14*
X120000000Y-66000000D03*
D15*
X120000000Y-71000000D03*
D14*
X117500000Y-15000000D03*
D15*
X122500000Y-15000000D03*
D17*
X154840000Y-72790000D03*
X154840000Y-47390000D03*
D18*
X152300000Y-54500000D03*
D19*
X152300000Y-57290000D03*
X152300000Y-59960000D03*
X152300000Y-62760000D03*
X152300000Y-65550000D03*
X154840000Y-55900000D03*
X154840000Y-58690000D03*
X154840000Y-61360000D03*
X154840000Y-64150000D03*
D11*
X108060000Y-106500000D03*
D12*
X32060000Y-65250000D03*
X32060000Y-72000000D03*
D11*
X108060000Y-101000000D03*
D20*
X93900000Y-105250000D03*
X93900000Y-106750000D03*
X95900000Y-105250000D03*
X95900000Y-106750000D03*
D21*
X15000000Y-69000000D03*
X15000000Y-51000000D03*
X15000000Y-60000000D03*
D13*
X122750000Y-97000000D03*
X121250000Y-97000000D03*
X101250000Y-39500000D03*
X102750000Y-39500000D03*
X119250000Y-85000000D03*
X117750000Y-85000000D03*
X120250000Y-30500000D03*
X118750000Y-30500000D03*
X120750000Y-77000000D03*
X119250000Y-77000000D03*
X116750000Y-18500000D03*
X115250000Y-18500000D03*
D16*
X115000000Y-71250000D03*
X115000000Y-69750000D03*
D13*
X120750000Y-19500000D03*
X119250000Y-19500000D03*
D22*
X95845000Y-103310000D03*
X94575000Y-103310000D03*
X93305000Y-103310000D03*
X92035000Y-103310000D03*
X90765000Y-103310000D03*
X89495000Y-103310000D03*
X88225000Y-103310000D03*
X86955000Y-103310000D03*
X95845000Y-102040000D03*
X94575000Y-102040000D03*
X93305000Y-102040000D03*
X92035000Y-102040000D03*
X90765000Y-102040000D03*
X89495000Y-102040000D03*
X88225000Y-102040000D03*
X86955000Y-102040000D03*
X95845000Y-100770000D03*
X94575000Y-100770000D03*
X93305000Y-100770000D03*
X92035000Y-100770000D03*
X90765000Y-100770000D03*
X89495000Y-100770000D03*
X88225000Y-100770000D03*
X86955000Y-100770000D03*
X92035000Y-99500000D03*
X90765000Y-99500000D03*
X89495000Y-99500000D03*
X88225000Y-99500000D03*
X86955000Y-99500000D03*
X95845000Y-98230000D03*
X94575000Y-98230000D03*
X92035000Y-98230000D03*
X90765000Y-98230000D03*
X89495000Y-98230000D03*
X88225000Y-98230000D03*
X86955000Y-98230000D03*
X94575000Y-96960000D03*
X90765000Y-96960000D03*
X92035000Y-96960000D03*
X95845000Y-95690000D03*
X95845000Y-96960000D03*
X94575000Y-95690000D03*
X92035000Y-95690000D03*
X86955000Y-95690000D03*
X88225000Y-95690000D03*
X89495000Y-95690000D03*
X90765000Y-95690000D03*
X89495000Y-96960000D03*
X88225000Y-96960000D03*
X86955000Y-96960000D03*
X86955000Y-95690000D03*
D23*
X108500000Y-91250000D03*
X108500000Y-95750000D03*
X108500000Y-36750000D03*
X108500000Y-41250000D03*
X108500000Y-82750000D03*
X108500000Y-87250000D03*
X108500000Y-28750000D03*
X108500000Y-33250000D03*
X108500000Y-74750000D03*
X108500000Y-79250000D03*
X108500000Y-20750000D03*
X108500000Y-25250000D03*
X108500000Y-66750000D03*
X108500000Y-71250000D03*
X108500000Y-12750000D03*
X108500000Y-17250000D03*
D24*
X89500000Y-93000000D03*
X91500000Y-93000000D03*
D25*
X130518000Y-71920000D03*
D26*
X134500000Y-71000000D03*
D25*
X130518000Y-70080000D03*
X127518000Y-31920000D03*
D26*
X131500000Y-31000000D03*
D25*
X127518000Y-30080000D03*
D27*
X83500000Y-97000000D03*
X139000000Y-51500000D03*
D28*
X108060000Y-106500000D02*
X104500000Y-106500000D01*
X104500000Y-106500000D02*
X102000000Y-104000000D01*
X102000000Y-104000000D02*
X102000000Y-97500000D01*
D29*
X101460000Y-96960000D02*
X102000000Y-97500000D01*
D28*
X102000000Y-97500000D02*
X103650000Y-95850000D01*
D29*
X95845000Y-96960000D02*
X101460000Y-96960000D01*
D30*
X96750000Y-93000000D02*
X96750000Y-94785000D01*
X96750000Y-94785000D02*
X95845000Y-95690000D01*
X95845000Y-100770000D02*
X94575000Y-102040000D01*
D29*
X95845000Y-98230000D02*
X95845000Y-100770000D01*
D28*
X103650000Y-95850000D02*
X108500000Y-95850000D01*
D30*
X119250000Y-77000000D02*
X119250000Y-77750000D01*
X119250000Y-77750000D02*
X117500000Y-79500000D01*
X116250000Y-74500000D02*
X113300000Y-74500000D01*
X113300000Y-74500000D02*
X113150000Y-74650000D01*
D28*
X117500000Y-79500000D02*
X117580000Y-79080000D01*
X113150000Y-74650000D02*
X108500000Y-74650000D01*
X117580000Y-79080000D02*
X113150000Y-74650000D01*
X108500000Y-74650000D02*
X108500000Y-71350000D01*
D30*
X118750000Y-23000000D02*
X118750000Y-24750000D01*
X118750000Y-24750000D02*
X117500000Y-26000000D01*
X115250000Y-18500000D02*
X115250000Y-20500000D01*
X115250000Y-20500000D02*
X115250000Y-20750000D01*
X115250000Y-20750000D02*
X113750000Y-22250000D01*
D31*
X117500000Y-26000000D02*
X113750000Y-22250000D01*
X113750000Y-22250000D02*
X112000000Y-20500000D01*
X112000000Y-20500000D02*
X108650000Y-20500000D01*
X108650000Y-20500000D02*
X108500000Y-20650000D01*
D28*
X108500000Y-20650000D02*
X108500000Y-17350000D01*
D31*
X148000000Y-51500000D02*
X154680000Y-51500000D01*
X154680000Y-51500000D02*
X154840000Y-51660000D01*
X154840000Y-51660000D02*
X154840000Y-55900000D01*
D29*
X154840000Y-55900000D02*
X154840000Y-51660000D01*
D28*
X83540000Y-96960000D02*
X83500000Y-97000000D01*
X139000000Y-51500000D02*
X148000000Y-51500000D01*
X83540000Y-96960000D02*
X84540000Y-96960000D01*
D29*
X154840000Y-51660000D02*
X154680000Y-51500000D01*
D30*
X88225000Y-99500000D02*
X88225000Y-98230000D01*
X86955000Y-98230000D02*
X86955000Y-99500000D01*
X86955000Y-99500000D02*
X88225000Y-99500000D01*
X88225000Y-99500000D02*
X89495000Y-99500000D01*
X89495000Y-99500000D02*
X89495000Y-98230000D01*
X89750000Y-93000000D02*
X89750000Y-94250000D01*
X89495000Y-94505000D02*
X89495000Y-95690000D01*
X89750000Y-94250000D02*
X89495000Y-94505000D01*
X86955000Y-96960000D02*
X84540000Y-96960000D01*
X84540000Y-96960000D02*
X84500000Y-97000000D01*
D31*
X152300000Y-65550000D02*
X145300000Y-65550000D01*
D28*
X144350000Y-66500000D02*
X145300000Y-65550000D01*
X144350000Y-66500000D02*
X134500000Y-66500000D01*
D32*
X134500000Y-71000000D02*
X134500000Y-66500000D01*
X134500000Y-66500000D02*
X134500000Y-67000000D01*
X134500000Y-67000000D02*
X134500000Y-66500000D01*
D30*
X124500000Y-69750000D02*
X124500000Y-66500000D01*
X115000000Y-69750000D02*
X115000000Y-66650000D01*
X115000000Y-66650000D02*
X115000000Y-67000000D01*
X115000000Y-67000000D02*
X115000000Y-66650000D01*
X117000000Y-66650000D02*
X117000000Y-67000000D01*
X117000000Y-67000000D02*
X117000000Y-66650000D01*
D28*
X120000000Y-66000000D02*
X120000000Y-66500000D01*
X120000000Y-66500000D02*
X119850000Y-66650000D01*
X119850000Y-66650000D02*
X120000000Y-66000000D01*
X108500000Y-66650000D02*
X115000000Y-66650000D01*
X115000000Y-66650000D02*
X117000000Y-66650000D01*
X117000000Y-66650000D02*
X119850000Y-66650000D01*
X119850000Y-66650000D02*
X120000000Y-66500000D01*
X120000000Y-66500000D02*
X124500000Y-66500000D01*
X124500000Y-66500000D02*
X134500000Y-66500000D01*
D31*
X152300000Y-62760000D02*
X145300000Y-62760000D01*
D28*
X136000000Y-56000000D02*
X136000000Y-31000000D01*
X136000000Y-56000000D02*
X142760000Y-62760000D01*
D31*
X142760000Y-62760000D02*
X145300000Y-62760000D01*
D32*
X131500000Y-31000000D02*
X136000000Y-31000000D01*
D30*
X119250000Y-19500000D02*
X119250000Y-17500000D01*
X119250000Y-17500000D02*
X119250000Y-16750000D01*
X119250000Y-16750000D02*
X117500000Y-15000000D01*
D28*
X136000000Y-18500000D02*
X136000000Y-31000000D01*
X129000000Y-11500000D02*
X136000000Y-18500000D01*
X120000000Y-11500000D02*
X129000000Y-11500000D01*
X117500000Y-14000000D02*
X120000000Y-11500000D01*
X117500000Y-15000000D02*
X117500000Y-14000000D01*
X108500000Y-12650000D02*
X115150000Y-12650000D01*
X115150000Y-12650000D02*
X117500000Y-15000000D01*
X108060000Y-54000000D02*
X105500000Y-54000000D01*
X103500000Y-46350000D02*
X108500000Y-41350000D01*
X103500000Y-52000000D02*
X103500000Y-46350000D01*
X105500000Y-54000000D02*
X103500000Y-52000000D01*
D31*
X15000000Y-69000000D02*
X16000000Y-69000000D01*
D28*
X32060000Y-72000000D02*
X21000000Y-72000000D01*
X21000000Y-72000000D02*
X16000000Y-69000000D01*
X32060000Y-19500000D02*
X29000000Y-19500000D01*
X25500000Y-61500000D02*
X16000000Y-69000000D01*
X25500000Y-23000000D02*
X25500000Y-61500000D01*
X29000000Y-19500000D02*
X25500000Y-23000000D01*
D30*
X93900000Y-105250000D02*
X93900000Y-104000000D01*
X93900000Y-104000000D02*
X94575000Y-103325000D01*
X94575000Y-103325000D02*
X94575000Y-103310000D01*
X95900000Y-105250000D02*
X95900000Y-104000000D01*
X95845000Y-103945000D02*
X95845000Y-103310000D01*
X95900000Y-104000000D02*
X95845000Y-103945000D01*
X93305000Y-100770000D02*
X94575000Y-100770000D01*
X121250000Y-97000000D02*
X118660000Y-97000000D01*
X118660000Y-97000000D02*
X117580000Y-98080000D01*
X121250000Y-99000000D02*
X117563348Y-99000000D01*
X117500000Y-99000000D02*
X117500000Y-102500000D01*
X117563348Y-99000000D02*
X117500000Y-99000000D01*
D28*
X117500000Y-102500000D02*
X117500000Y-102500000D01*
X117500000Y-102500000D02*
X117580000Y-98080000D01*
X113150000Y-91150000D02*
X108500000Y-91150000D01*
X113500000Y-91500000D02*
X113150000Y-91150000D01*
X113500000Y-94000000D02*
X113500000Y-91500000D01*
X117580000Y-98080000D02*
X113500000Y-94000000D01*
X108500000Y-91150000D02*
X108500000Y-87350000D01*
D30*
X102750000Y-39500000D02*
X102750000Y-37000000D01*
X102750000Y-37000000D02*
X103100000Y-36650000D01*
X103100000Y-36650000D02*
X108500000Y-36650000D01*
X108150000Y-37000000D02*
X108500000Y-36650000D01*
D31*
X117500000Y-48000000D02*
X117500000Y-43000000D01*
X117500000Y-43000000D02*
X111150000Y-36650000D01*
X111150000Y-36650000D02*
X108500000Y-36650000D01*
D28*
X108500000Y-36650000D02*
X108500000Y-33350000D01*
D30*
X117750000Y-85000000D02*
X117750000Y-85250000D01*
X117750000Y-85250000D02*
X116000000Y-87000000D01*
X115750000Y-82500000D02*
X115500000Y-82500000D01*
X115500000Y-82500000D02*
X113500000Y-84500000D01*
D28*
X117500000Y-91000000D02*
X117580000Y-88580000D01*
X111650000Y-82650000D02*
X108500000Y-82650000D01*
X117580000Y-88580000D02*
X116000000Y-87000000D01*
X116000000Y-87000000D02*
X113500000Y-84500000D01*
X113500000Y-84500000D02*
X111650000Y-82650000D01*
X108500000Y-82650000D02*
X108500000Y-79350000D01*
D30*
X118750000Y-30500000D02*
X114500000Y-30500000D01*
X116250000Y-28500000D02*
X112800000Y-28500000D01*
X112800000Y-28500000D02*
X112650000Y-28650000D01*
D31*
X117500000Y-37000000D02*
X117500000Y-33500000D01*
X112650000Y-28650000D02*
X108500000Y-28650000D01*
X117500000Y-33500000D02*
X114500000Y-30500000D01*
X114500000Y-30500000D02*
X112650000Y-28650000D01*
D28*
X108500000Y-28650000D02*
X108500000Y-25350000D01*
D30*
G36*
X131373000Y-64595000D02*
X121493974Y-64595000D01*
X121464090Y-64548559D01*
X121251890Y-64403569D01*
X121000000Y-64352560D01*
X120897456Y-64352560D01*
X120729012Y-64240009D01*
X120573203Y-64209017D01*
X120428357Y-64143785D01*
X120212152Y-64137199D01*
X120000000Y-64095000D01*
X119844194Y-64125992D01*
X119685408Y-64121155D01*
X119483140Y-64197809D01*
X119270988Y-64240009D01*
X119138899Y-64328268D01*
X119074801Y-64352560D01*
X119000000Y-64352560D01*
X118764683Y-64396838D01*
X118548559Y-64535910D01*
X118405694Y-64745000D01*
X108500000Y-64745000D01*
X107770988Y-64890009D01*
X107228394Y-65252560D01*
X105550000Y-65252560D01*
X105314683Y-65296838D01*
X105098559Y-65435910D01*
X104953569Y-65648110D01*
X104902560Y-65900000D01*
X104902560Y-67600000D01*
X104946838Y-67835317D01*
X105085910Y-68051441D01*
X105298110Y-68196431D01*
X105550000Y-68247440D01*
X107527714Y-68247440D01*
X107770988Y-68409991D01*
X108500000Y-68555000D01*
X114238000Y-68555000D01*
X114238000Y-68844443D01*
X114173559Y-68885910D01*
X114028569Y-69098110D01*
X113977560Y-69350000D01*
X113977560Y-70150000D01*
X114021838Y-70385317D01*
X114088329Y-70488646D01*
X114086673Y-70490302D01*
X113990000Y-70723691D01*
X113990000Y-70964250D01*
X114148750Y-71123000D01*
X114873000Y-71123000D01*
X114873000Y-71103000D01*
X115127000Y-71103000D01*
X115127000Y-71123000D01*
X115851250Y-71123000D01*
X116010000Y-70964250D01*
X116010000Y-70723691D01*
X115913327Y-70490302D01*
X115911957Y-70488932D01*
X115971431Y-70401890D01*
X116022440Y-70150000D01*
X116022440Y-69350000D01*
X115978162Y-69114683D01*
X115839090Y-68898559D01*
X115762000Y-68845886D01*
X115762000Y-68555000D01*
X119850000Y-68555000D01*
X120005806Y-68524008D01*
X120164592Y-68528845D01*
X120366860Y-68452191D01*
X120579012Y-68409991D01*
X120586482Y-68405000D01*
X123738000Y-68405000D01*
X123738000Y-68844443D01*
X123673559Y-68885910D01*
X123528569Y-69098110D01*
X123477560Y-69350000D01*
X123477560Y-70150000D01*
X123521838Y-70385317D01*
X123588329Y-70488646D01*
X123586673Y-70490302D01*
X123490000Y-70723691D01*
X123490000Y-70964250D01*
X123648750Y-71123000D01*
X124373000Y-71123000D01*
X124373000Y-71103000D01*
X124627000Y-71103000D01*
X124627000Y-71123000D01*
X125351250Y-71123000D01*
X125510000Y-70964250D01*
X125510000Y-70723691D01*
X125413327Y-70490302D01*
X125411957Y-70488932D01*
X125471431Y-70401890D01*
X125522440Y-70150000D01*
X125522440Y-69350000D01*
X125478162Y-69114683D01*
X125339090Y-68898559D01*
X125262000Y-68845886D01*
X125262000Y-68405000D01*
X131373000Y-68405000D01*
X131373000Y-114373000D01*
X56627000Y-114373000D01*
X56627000Y-107033750D01*
X92815000Y-107033750D01*
X92815000Y-107126309D01*
X92911673Y-107359698D01*
X93090301Y-107538327D01*
X93323690Y-107635000D01*
X93614250Y-107635000D01*
X93773000Y-107476250D01*
X93773000Y-106875000D01*
X94027000Y-106875000D01*
X94027000Y-107476250D01*
X94185750Y-107635000D01*
X94476310Y-107635000D01*
X94709699Y-107538327D01*
X94888327Y-107359698D01*
X94900000Y-107331517D01*
X94911673Y-107359698D01*
X95090301Y-107538327D01*
X95323690Y-107635000D01*
X95614250Y-107635000D01*
X95773000Y-107476250D01*
X95773000Y-106875000D01*
X96027000Y-106875000D01*
X96027000Y-107476250D01*
X96185750Y-107635000D01*
X96476310Y-107635000D01*
X96709699Y-107538327D01*
X96888327Y-107359698D01*
X96985000Y-107126309D01*
X96985000Y-107033750D01*
X96826250Y-106875000D01*
X96027000Y-106875000D01*
X95773000Y-106875000D01*
X94973750Y-106875000D01*
X94900000Y-106948750D01*
X94826250Y-106875000D01*
X94027000Y-106875000D01*
X93773000Y-106875000D01*
X92973750Y-106875000D01*
X92815000Y-107033750D01*
X56627000Y-107033750D01*
X56627000Y-103595750D01*
X86000000Y-103595750D01*
X86000000Y-103756310D01*
X86096673Y-103989699D01*
X86275302Y-104168327D01*
X86508691Y-104265000D01*
X86669250Y-104265000D01*
X86828000Y-104106250D01*
X86828000Y-103437000D01*
X87082000Y-103437000D01*
X87082000Y-104106250D01*
X87240750Y-104265000D01*
X87401309Y-104265000D01*
X87590000Y-104186842D01*
X87778691Y-104265000D01*
X87939250Y-104265000D01*
X88098000Y-104106250D01*
X88098000Y-103437000D01*
X88352000Y-103437000D01*
X88352000Y-104106250D01*
X88510750Y-104265000D01*
X88671309Y-104265000D01*
X88860000Y-104186842D01*
X89048691Y-104265000D01*
X89209250Y-104265000D01*
X89368000Y-104106250D01*
X89368000Y-103437000D01*
X89622000Y-103437000D01*
X89622000Y-104106250D01*
X89780750Y-104265000D01*
X89941309Y-104265000D01*
X90130000Y-104186842D01*
X90318691Y-104265000D01*
X90479250Y-104265000D01*
X90638000Y-104106250D01*
X90638000Y-103437000D01*
X90892000Y-103437000D01*
X90892000Y-104106250D01*
X91050750Y-104265000D01*
X91211309Y-104265000D01*
X91400000Y-104186842D01*
X91588691Y-104265000D01*
X91749250Y-104265000D01*
X91908000Y-104106250D01*
X91908000Y-103437000D01*
X90892000Y-103437000D01*
X90638000Y-103437000D01*
X89622000Y-103437000D01*
X89368000Y-103437000D01*
X88352000Y-103437000D01*
X88098000Y-103437000D01*
X87082000Y-103437000D01*
X86828000Y-103437000D01*
X86158750Y-103437000D01*
X86000000Y-103595750D01*
X56627000Y-103595750D01*
X56627000Y-102325750D01*
X86000000Y-102325750D01*
X86000000Y-102486310D01*
X86078158Y-102675000D01*
X86000000Y-102863690D01*
X86000000Y-103024250D01*
X86158750Y-103183000D01*
X86828000Y-103183000D01*
X86828000Y-102167000D01*
X87082000Y-102167000D01*
X87082000Y-103183000D01*
X88098000Y-103183000D01*
X88098000Y-102167000D01*
X88352000Y-102167000D01*
X88352000Y-103183000D01*
X89368000Y-103183000D01*
X89368000Y-102167000D01*
X89622000Y-102167000D01*
X89622000Y-103183000D01*
X90638000Y-103183000D01*
X90638000Y-102167000D01*
X90892000Y-102167000D01*
X90892000Y-103183000D01*
X91908000Y-103183000D01*
X91908000Y-102167000D01*
X90892000Y-102167000D01*
X90638000Y-102167000D01*
X89622000Y-102167000D01*
X89368000Y-102167000D01*
X88352000Y-102167000D01*
X88098000Y-102167000D01*
X87082000Y-102167000D01*
X86828000Y-102167000D01*
X86158750Y-102167000D01*
X86000000Y-102325750D01*
X56627000Y-102325750D01*
X56627000Y-101055750D01*
X86000000Y-101055750D01*
X86000000Y-101216310D01*
X86078158Y-101405000D01*
X86000000Y-101593690D01*
X86000000Y-101754250D01*
X86158750Y-101913000D01*
X86828000Y-101913000D01*
X86828000Y-100897000D01*
X87082000Y-100897000D01*
X87082000Y-101913000D01*
X88098000Y-101913000D01*
X88098000Y-100897000D01*
X88352000Y-100897000D01*
X88352000Y-101913000D01*
X89368000Y-101913000D01*
X89368000Y-100897000D01*
X89622000Y-100897000D01*
X89622000Y-101913000D01*
X90638000Y-101913000D01*
X90638000Y-100897000D01*
X90892000Y-100897000D01*
X90892000Y-101913000D01*
X91908000Y-101913000D01*
X91908000Y-100897000D01*
X90892000Y-100897000D01*
X90638000Y-100897000D01*
X89622000Y-100897000D01*
X89368000Y-100897000D01*
X88352000Y-100897000D01*
X88098000Y-100897000D01*
X87082000Y-100897000D01*
X86828000Y-100897000D01*
X86158750Y-100897000D01*
X86000000Y-101055750D01*
X56627000Y-101055750D01*
X56627000Y-97377265D01*
X81594670Y-97377265D01*
X81884078Y-98077686D01*
X82419495Y-98614039D01*
X83119410Y-98904668D01*
X83877265Y-98905330D01*
X83911606Y-98891140D01*
X83944827Y-98942767D01*
X84152949Y-99084971D01*
X84400000Y-99135000D01*
X85996673Y-99135000D01*
X85987560Y-99180000D01*
X85987560Y-99820000D01*
X86031838Y-100055317D01*
X86080098Y-100130316D01*
X86000000Y-100323690D01*
X86000000Y-100484250D01*
X86158750Y-100643000D01*
X86828000Y-100643000D01*
X86828000Y-100623000D01*
X87082000Y-100623000D01*
X87082000Y-100643000D01*
X88098000Y-100643000D01*
X88098000Y-100623000D01*
X88352000Y-100623000D01*
X88352000Y-100643000D01*
X89368000Y-100643000D01*
X89368000Y-100623000D01*
X89622000Y-100623000D01*
X89622000Y-100643000D01*
X90638000Y-100643000D01*
X90638000Y-99627000D01*
X90892000Y-99627000D01*
X90892000Y-100643000D01*
X91908000Y-100643000D01*
X91908000Y-99627000D01*
X92162000Y-99627000D01*
X92162000Y-100643000D01*
X92182000Y-100643000D01*
X92182000Y-100897000D01*
X92162000Y-100897000D01*
X92162000Y-101913000D01*
X93178000Y-101913000D01*
X93178000Y-101893000D01*
X93432000Y-101893000D01*
X93432000Y-101913000D01*
X93452000Y-101913000D01*
X93452000Y-102167000D01*
X93432000Y-102167000D01*
X93432000Y-102187000D01*
X93178000Y-102187000D01*
X93178000Y-102167000D01*
X92162000Y-102167000D01*
X92162000Y-103183000D01*
X92182000Y-103183000D01*
X92182000Y-103437000D01*
X92162000Y-103437000D01*
X92162000Y-104106250D01*
X92320750Y-104265000D01*
X92481309Y-104265000D01*
X92673218Y-104185509D01*
X92733110Y-104226431D01*
X92985000Y-104277440D01*
X93138000Y-104277440D01*
X93138000Y-104446182D01*
X92998559Y-104535910D01*
X92853569Y-104748110D01*
X92802560Y-105000000D01*
X92802560Y-105500000D01*
X92846838Y-105735317D01*
X92985910Y-105951441D01*
X93054006Y-105997969D01*
X92911673Y-106140302D01*
X92815000Y-106373691D01*
X92815000Y-106466250D01*
X92973750Y-106625000D01*
X93773000Y-106625000D01*
X93773000Y-106603000D01*
X94027000Y-106603000D01*
X94027000Y-106625000D01*
X94826250Y-106625000D01*
X94900000Y-106551250D01*
X94973750Y-106625000D01*
X95773000Y-106625000D01*
X95773000Y-106603000D01*
X96027000Y-106603000D01*
X96027000Y-106625000D01*
X96826250Y-106625000D01*
X96985000Y-106466250D01*
X96985000Y-106373691D01*
X96888327Y-106140302D01*
X96747090Y-105999064D01*
X96801441Y-105964090D01*
X96946431Y-105751890D01*
X96997440Y-105500000D01*
X96997440Y-105000000D01*
X96953162Y-104764683D01*
X96814090Y-104548559D01*
X96662000Y-104444640D01*
X96662000Y-104027412D01*
X96761431Y-103881890D01*
X96812440Y-103630000D01*
X96812440Y-102990000D01*
X96768162Y-102754683D01*
X96717577Y-102676072D01*
X96761431Y-102611890D01*
X96812440Y-102360000D01*
X96812440Y-101720000D01*
X96768162Y-101484683D01*
X96717577Y-101406072D01*
X96761431Y-101341890D01*
X96812440Y-101090000D01*
X96812440Y-100450000D01*
X96797500Y-100370601D01*
X96797500Y-100135000D01*
X99400000Y-100135000D01*
X99630795Y-100091573D01*
X99842767Y-99955173D01*
X99984971Y-99747051D01*
X100035000Y-99500000D01*
X100035000Y-97912500D01*
X100095000Y-97912500D01*
X100095000Y-104000000D01*
X100224093Y-104648996D01*
X100240009Y-104729012D01*
X100652962Y-105347038D01*
X103152962Y-107847038D01*
X103770988Y-108259991D01*
X104500000Y-108405000D01*
X106591718Y-108405000D01*
X106707242Y-108520726D01*
X107583513Y-108884585D01*
X108532325Y-108885413D01*
X109409229Y-108523084D01*
X110080726Y-107852758D01*
X110444585Y-106976487D01*
X110445413Y-106027675D01*
X110083084Y-105150771D01*
X109412758Y-104479274D01*
X108536487Y-104115415D01*
X107587675Y-104114587D01*
X106710771Y-104476916D01*
X106592481Y-104595000D01*
X105289076Y-104595000D01*
X103905000Y-103210924D01*
X103905000Y-98289076D01*
X104439077Y-97755000D01*
X108500000Y-97755000D01*
X109229012Y-97609991D01*
X109771606Y-97247440D01*
X111450000Y-97247440D01*
X111685317Y-97203162D01*
X111901441Y-97064090D01*
X112046431Y-96851890D01*
X112097440Y-96600000D01*
X112097440Y-95263944D01*
X112152962Y-95347038D01*
X115660666Y-98854742D01*
X115595312Y-102465526D01*
X115598423Y-102482792D01*
X115595000Y-102500000D01*
X115664208Y-102847934D01*
X115727105Y-103197043D01*
X115736586Y-103211804D01*
X115740009Y-103229012D01*
X115852560Y-103397456D01*
X115852560Y-103500000D01*
X115896838Y-103735317D01*
X116035910Y-103951441D01*
X116248110Y-104096431D01*
X116500000Y-104147440D01*
X116596646Y-104147440D01*
X116739258Y-104246510D01*
X116756400Y-104250243D01*
X116770988Y-104259991D01*
X117118921Y-104329199D01*
X117465526Y-104404688D01*
X117482792Y-104401577D01*
X117500000Y-104405000D01*
X117847934Y-104335792D01*
X118197043Y-104272895D01*
X118211804Y-104263414D01*
X118229012Y-104259991D01*
X118397456Y-104147440D01*
X118500000Y-104147440D01*
X118735317Y-104103162D01*
X118951441Y-103964090D01*
X119096431Y-103751890D01*
X119147440Y-103500000D01*
X119147440Y-103403354D01*
X119246510Y-103260742D01*
X119250243Y-103243600D01*
X119259991Y-103229012D01*
X119329199Y-102881079D01*
X119404688Y-102534474D01*
X119454869Y-99762000D01*
X120344443Y-99762000D01*
X120385910Y-99826441D01*
X120598110Y-99971431D01*
X120850000Y-100022440D01*
X121650000Y-100022440D01*
X121885317Y-99978162D01*
X121988646Y-99911671D01*
X121990302Y-99913327D01*
X122223691Y-100010000D01*
X122464250Y-100010000D01*
X122623000Y-99851250D01*
X122623000Y-99127000D01*
X122877000Y-99127000D01*
X122877000Y-99851250D01*
X123035750Y-100010000D01*
X123276309Y-100010000D01*
X123509698Y-99913327D01*
X123688327Y-99734699D01*
X123785000Y-99501310D01*
X123785000Y-99285750D01*
X123626250Y-99127000D01*
X122877000Y-99127000D01*
X122623000Y-99127000D01*
X122603000Y-99127000D01*
X122603000Y-98873000D01*
X122623000Y-98873000D01*
X122623000Y-98148750D01*
X122474250Y-98000000D01*
X122623000Y-97851250D01*
X122623000Y-97127000D01*
X122877000Y-97127000D01*
X122877000Y-97851250D01*
X123025750Y-98000000D01*
X122877000Y-98148750D01*
X122877000Y-98873000D01*
X123626250Y-98873000D01*
X123785000Y-98714250D01*
X123785000Y-98498690D01*
X123688327Y-98265301D01*
X123509698Y-98086673D01*
X123300451Y-98000000D01*
X123509698Y-97913327D01*
X123688327Y-97734699D01*
X123785000Y-97501310D01*
X123785000Y-97285750D01*
X123626250Y-97127000D01*
X122877000Y-97127000D01*
X122623000Y-97127000D01*
X122603000Y-97127000D01*
X122603000Y-96873000D01*
X122623000Y-96873000D01*
X122623000Y-96148750D01*
X122877000Y-96148750D01*
X122877000Y-96873000D01*
X123626250Y-96873000D01*
X123785000Y-96714250D01*
X123785000Y-96498690D01*
X123688327Y-96265301D01*
X123509698Y-96086673D01*
X123276309Y-95990000D01*
X123035750Y-95990000D01*
X122877000Y-96148750D01*
X122623000Y-96148750D01*
X122464250Y-95990000D01*
X122223691Y-95990000D01*
X121990302Y-96086673D01*
X121988932Y-96088043D01*
X121901890Y-96028569D01*
X121650000Y-95977560D01*
X120850000Y-95977560D01*
X120614683Y-96021838D01*
X120398559Y-96160910D01*
X120345886Y-96238000D01*
X118660000Y-96238000D01*
X118469892Y-96275815D01*
X115405000Y-93210924D01*
X115405000Y-91500000D01*
X115259991Y-90770988D01*
X115026128Y-90420988D01*
X114847039Y-90152962D01*
X114497038Y-89802962D01*
X113879012Y-89390009D01*
X113150000Y-89245000D01*
X110405000Y-89245000D01*
X110405000Y-88747440D01*
X111450000Y-88747440D01*
X111685317Y-88703162D01*
X111901441Y-88564090D01*
X112046431Y-88351890D01*
X112097440Y-88100000D01*
X112097440Y-86400000D01*
X112053162Y-86164683D01*
X111914090Y-85948559D01*
X111701890Y-85803569D01*
X111450000Y-85752560D01*
X109472286Y-85752560D01*
X109229012Y-85590009D01*
X108500000Y-85445000D01*
X107770988Y-85590009D01*
X107527714Y-85752560D01*
X105550000Y-85752560D01*
X105314683Y-85796838D01*
X105098559Y-85935910D01*
X104953569Y-86148110D01*
X104902560Y-86400000D01*
X104902560Y-88100000D01*
X104946838Y-88335317D01*
X105085910Y-88551441D01*
X105298110Y-88696431D01*
X105550000Y-88747440D01*
X106595000Y-88747440D01*
X106595000Y-89752560D01*
X105550000Y-89752560D01*
X105314683Y-89796838D01*
X105098559Y-89935910D01*
X104953569Y-90148110D01*
X104902560Y-90400000D01*
X104902560Y-92100000D01*
X104946838Y-92335317D01*
X105085910Y-92551441D01*
X105298110Y-92696431D01*
X105550000Y-92747440D01*
X107527714Y-92747440D01*
X107770988Y-92909991D01*
X108500000Y-93055000D01*
X111595000Y-93055000D01*
X111595000Y-94000000D01*
X111653431Y-94293756D01*
X111450000Y-94252560D01*
X109472286Y-94252560D01*
X109229012Y-94090009D01*
X108500000Y-93945000D01*
X103650000Y-93945000D01*
X103085765Y-94057233D01*
X102920987Y-94090009D01*
X102302961Y-94502962D01*
X100798424Y-96007500D01*
X100035000Y-96007500D01*
X100035000Y-94500000D01*
X99991573Y-94269205D01*
X99855173Y-94057233D01*
X99647051Y-93915029D01*
X99400000Y-93865000D01*
X99058025Y-93865000D01*
X99188327Y-93734699D01*
X99285000Y-93501310D01*
X99285000Y-93285750D01*
X99126250Y-93127000D01*
X98377000Y-93127000D01*
X98377000Y-93147000D01*
X98123000Y-93147000D01*
X98123000Y-93127000D01*
X98103000Y-93127000D01*
X98103000Y-92873000D01*
X98123000Y-92873000D01*
X98123000Y-92148750D01*
X98377000Y-92148750D01*
X98377000Y-92873000D01*
X99126250Y-92873000D01*
X99285000Y-92714250D01*
X99285000Y-92498690D01*
X99188327Y-92265301D01*
X99009698Y-92086673D01*
X98776309Y-91990000D01*
X98535750Y-91990000D01*
X98377000Y-92148750D01*
X98123000Y-92148750D01*
X97964250Y-91990000D01*
X97723691Y-91990000D01*
X97490302Y-92086673D01*
X97488932Y-92088043D01*
X97401890Y-92028569D01*
X97150000Y-91977560D01*
X96350000Y-91977560D01*
X96114683Y-92021838D01*
X95898559Y-92160910D01*
X95753569Y-92373110D01*
X95702560Y-92625000D01*
X95702560Y-93375000D01*
X95746838Y-93610317D01*
X95885910Y-93826441D01*
X95942343Y-93865000D01*
X93900000Y-93865000D01*
X93669205Y-93908427D01*
X93457233Y-94044827D01*
X93315029Y-94252949D01*
X93265000Y-94500000D01*
X93265000Y-99500000D01*
X93308427Y-99730795D01*
X93354606Y-99802560D01*
X92990000Y-99802560D01*
X92990000Y-99785750D01*
X92831250Y-99627000D01*
X92162000Y-99627000D01*
X91908000Y-99627000D01*
X90892000Y-99627000D01*
X90638000Y-99627000D01*
X90618000Y-99627000D01*
X90618000Y-99373000D01*
X90638000Y-99373000D01*
X90638000Y-98357000D01*
X90892000Y-98357000D01*
X90892000Y-99373000D01*
X91908000Y-99373000D01*
X91908000Y-98357000D01*
X92162000Y-98357000D01*
X92162000Y-99373000D01*
X92831250Y-99373000D01*
X92990000Y-99214250D01*
X92990000Y-99053690D01*
X92911842Y-98865000D01*
X92990000Y-98676310D01*
X92990000Y-98515750D01*
X92831250Y-98357000D01*
X92162000Y-98357000D01*
X91908000Y-98357000D01*
X90892000Y-98357000D01*
X90638000Y-98357000D01*
X90618000Y-98357000D01*
X90618000Y-98103000D01*
X90638000Y-98103000D01*
X90638000Y-97087000D01*
X90892000Y-97087000D01*
X90892000Y-98103000D01*
X91908000Y-98103000D01*
X91908000Y-97087000D01*
X92162000Y-97087000D01*
X92162000Y-98103000D01*
X92831250Y-98103000D01*
X92990000Y-97944250D01*
X92990000Y-97783690D01*
X92911842Y-97595000D01*
X92990000Y-97406310D01*
X92990000Y-97245750D01*
X92831250Y-97087000D01*
X92162000Y-97087000D01*
X91908000Y-97087000D01*
X90892000Y-97087000D01*
X90638000Y-97087000D01*
X90618000Y-97087000D01*
X90618000Y-96833000D01*
X90638000Y-96833000D01*
X90638000Y-95817000D01*
X90892000Y-95817000D01*
X90892000Y-96833000D01*
X91908000Y-96833000D01*
X91908000Y-95817000D01*
X92162000Y-95817000D01*
X92162000Y-96833000D01*
X92831250Y-96833000D01*
X92990000Y-96674250D01*
X92990000Y-96513690D01*
X92911842Y-96325000D01*
X92990000Y-96136310D01*
X92990000Y-95975750D01*
X92831250Y-95817000D01*
X92162000Y-95817000D01*
X91908000Y-95817000D01*
X90892000Y-95817000D01*
X90638000Y-95817000D01*
X90618000Y-95817000D01*
X90618000Y-95563000D01*
X90638000Y-95563000D01*
X90638000Y-94893750D01*
X90892000Y-94893750D01*
X90892000Y-95563000D01*
X91908000Y-95563000D01*
X91908000Y-94893750D01*
X92162000Y-94893750D01*
X92162000Y-95563000D01*
X92831250Y-95563000D01*
X92990000Y-95404250D01*
X92990000Y-95243690D01*
X92893327Y-95010301D01*
X92714698Y-94831673D01*
X92481309Y-94735000D01*
X92320750Y-94735000D01*
X92162000Y-94893750D01*
X91908000Y-94893750D01*
X91749250Y-94735000D01*
X91588691Y-94735000D01*
X91400000Y-94813158D01*
X91211309Y-94735000D01*
X91050750Y-94735000D01*
X90892000Y-94893750D01*
X90638000Y-94893750D01*
X90535000Y-94790750D01*
X90535000Y-94500000D01*
X90499646Y-94312108D01*
X90512000Y-94250000D01*
X90512000Y-94035026D01*
X90640302Y-94163327D01*
X90873691Y-94260000D01*
X91214250Y-94260000D01*
X91373000Y-94101250D01*
X91373000Y-93127000D01*
X91627000Y-93127000D01*
X91627000Y-94101250D01*
X91785750Y-94260000D01*
X92126309Y-94260000D01*
X92359698Y-94163327D01*
X92538327Y-93984699D01*
X92635000Y-93751310D01*
X92635000Y-93285750D01*
X92476250Y-93127000D01*
X91627000Y-93127000D01*
X91373000Y-93127000D01*
X91353000Y-93127000D01*
X91353000Y-92873000D01*
X91373000Y-92873000D01*
X91373000Y-91898750D01*
X91627000Y-91898750D01*
X91627000Y-92873000D01*
X92476250Y-92873000D01*
X92635000Y-92714250D01*
X92635000Y-92248690D01*
X92538327Y-92015301D01*
X92359698Y-91836673D01*
X92126309Y-91740000D01*
X91785750Y-91740000D01*
X91627000Y-91898750D01*
X91373000Y-91898750D01*
X91214250Y-91740000D01*
X90873691Y-91740000D01*
X90640302Y-91836673D01*
X90499064Y-91977910D01*
X90464090Y-91923559D01*
X90251890Y-91778569D01*
X90000000Y-91727560D01*
X89000000Y-91727560D01*
X88764683Y-91771838D01*
X88548559Y-91910910D01*
X88403569Y-92123110D01*
X88352560Y-92375000D01*
X88352560Y-93625000D01*
X88396838Y-93860317D01*
X88399851Y-93865000D01*
X84400000Y-93865000D01*
X84169205Y-93908427D01*
X83957233Y-94044827D01*
X83815029Y-94252949D01*
X83765000Y-94500000D01*
X83765000Y-95055000D01*
X83540000Y-95055000D01*
X83339612Y-95094859D01*
X83122735Y-95094670D01*
X82920528Y-95178220D01*
X82810988Y-95200009D01*
X82718936Y-95261516D01*
X82422314Y-95384078D01*
X82193170Y-95612822D01*
X82192962Y-95612961D01*
X82154121Y-95651803D01*
X81885961Y-95919495D01*
X81595332Y-96619410D01*
X81594670Y-97377265D01*
X56627000Y-97377265D01*
X56627000Y-78400000D01*
X104902560Y-78400000D01*
X104902560Y-80100000D01*
X104946838Y-80335317D01*
X105085910Y-80551441D01*
X105298110Y-80696431D01*
X105550000Y-80747440D01*
X106595000Y-80747440D01*
X106595000Y-81252560D01*
X105550000Y-81252560D01*
X105314683Y-81296838D01*
X105098559Y-81435910D01*
X104953569Y-81648110D01*
X104902560Y-81900000D01*
X104902560Y-83600000D01*
X104946838Y-83835317D01*
X105085910Y-84051441D01*
X105298110Y-84196431D01*
X105550000Y-84247440D01*
X107527714Y-84247440D01*
X107770988Y-84409991D01*
X108500000Y-84555000D01*
X110860924Y-84555000D01*
X114652962Y-88347038D01*
X115648742Y-89342819D01*
X115596040Y-90937059D01*
X115716883Y-91670464D01*
X115852560Y-91888806D01*
X115852560Y-92000000D01*
X115896838Y-92235317D01*
X116035910Y-92451441D01*
X116248110Y-92596431D01*
X116500000Y-92647440D01*
X116591208Y-92647440D01*
X116713236Y-92734944D01*
X117437059Y-92903960D01*
X118170464Y-92783117D01*
X118388806Y-92647440D01*
X118500000Y-92647440D01*
X118735317Y-92603162D01*
X118951441Y-92464090D01*
X119096431Y-92251890D01*
X119147440Y-92000000D01*
X119147440Y-91908792D01*
X119234944Y-91786764D01*
X119403960Y-91062941D01*
X119483960Y-88642941D01*
X119478759Y-88611373D01*
X119484999Y-88580000D01*
X119418523Y-88245797D01*
X119363117Y-87909536D01*
X119346232Y-87882364D01*
X119339991Y-87850987D01*
X119150657Y-87567630D01*
X118970808Y-87278203D01*
X118944812Y-87259562D01*
X118927038Y-87232961D01*
X117885854Y-86191777D01*
X118055191Y-86022440D01*
X118150000Y-86022440D01*
X118385317Y-85978162D01*
X118488646Y-85911671D01*
X118490302Y-85913327D01*
X118723691Y-86010000D01*
X118964250Y-86010000D01*
X119123000Y-85851250D01*
X119123000Y-85127000D01*
X119377000Y-85127000D01*
X119377000Y-85851250D01*
X119535750Y-86010000D01*
X119776309Y-86010000D01*
X120009698Y-85913327D01*
X120188327Y-85734699D01*
X120285000Y-85501310D01*
X120285000Y-85285750D01*
X120126250Y-85127000D01*
X119377000Y-85127000D01*
X119123000Y-85127000D01*
X119103000Y-85127000D01*
X119103000Y-84873000D01*
X119123000Y-84873000D01*
X119123000Y-84148750D01*
X119377000Y-84148750D01*
X119377000Y-84873000D01*
X120126250Y-84873000D01*
X120285000Y-84714250D01*
X120285000Y-84498690D01*
X120188327Y-84265301D01*
X120009698Y-84086673D01*
X119776309Y-83990000D01*
X119535750Y-83990000D01*
X119377000Y-84148750D01*
X119123000Y-84148750D01*
X118964250Y-83990000D01*
X118723691Y-83990000D01*
X118490302Y-84086673D01*
X118488932Y-84088043D01*
X118401890Y-84028569D01*
X118150000Y-83977560D01*
X117350000Y-83977560D01*
X117114683Y-84021838D01*
X116898559Y-84160910D01*
X116753569Y-84373110D01*
X116702560Y-84625000D01*
X116702560Y-85008484D01*
X115385853Y-83691777D01*
X115555190Y-83522440D01*
X116150000Y-83522440D01*
X116385317Y-83478162D01*
X116488646Y-83411671D01*
X116490302Y-83413327D01*
X116723691Y-83510000D01*
X116964250Y-83510000D01*
X117123000Y-83351250D01*
X117123000Y-82627000D01*
X117377000Y-82627000D01*
X117377000Y-83351250D01*
X117535750Y-83510000D01*
X117776309Y-83510000D01*
X118009698Y-83413327D01*
X118188327Y-83234699D01*
X118285000Y-83001310D01*
X118285000Y-82785750D01*
X118126250Y-82627000D01*
X117377000Y-82627000D01*
X117123000Y-82627000D01*
X117103000Y-82627000D01*
X117103000Y-82373000D01*
X117123000Y-82373000D01*
X117123000Y-81648750D01*
X117377000Y-81648750D01*
X117377000Y-82373000D01*
X118126250Y-82373000D01*
X118285000Y-82214250D01*
X118285000Y-81998690D01*
X118188327Y-81765301D01*
X118009698Y-81586673D01*
X117776309Y-81490000D01*
X117535750Y-81490000D01*
X117377000Y-81648750D01*
X117123000Y-81648750D01*
X116964250Y-81490000D01*
X116723691Y-81490000D01*
X116490302Y-81586673D01*
X116488932Y-81588043D01*
X116401890Y-81528569D01*
X116150000Y-81477560D01*
X115350000Y-81477560D01*
X115114683Y-81521838D01*
X114898559Y-81660910D01*
X114753569Y-81873110D01*
X114702560Y-82125000D01*
X114702560Y-82219810D01*
X114308223Y-82614147D01*
X112997038Y-81302962D01*
X112379012Y-80890009D01*
X111650000Y-80745000D01*
X111462967Y-80745000D01*
X111685317Y-80703162D01*
X111901441Y-80564090D01*
X112046431Y-80351890D01*
X112097440Y-80100000D01*
X112097440Y-78400000D01*
X112053162Y-78164683D01*
X111914090Y-77948559D01*
X111701890Y-77803569D01*
X111450000Y-77752560D01*
X109472286Y-77752560D01*
X109229012Y-77590009D01*
X108500000Y-77445000D01*
X107770988Y-77590009D01*
X107527714Y-77752560D01*
X105550000Y-77752560D01*
X105314683Y-77796838D01*
X105098559Y-77935910D01*
X104953569Y-78148110D01*
X104902560Y-78400000D01*
X56627000Y-78400000D01*
X56627000Y-70400000D01*
X104902560Y-70400000D01*
X104902560Y-72100000D01*
X104946838Y-72335317D01*
X105085910Y-72551441D01*
X105298110Y-72696431D01*
X105550000Y-72747440D01*
X106595000Y-72747440D01*
X106595000Y-73252560D01*
X105550000Y-73252560D01*
X105314683Y-73296838D01*
X105098559Y-73435910D01*
X104953569Y-73648110D01*
X104902560Y-73900000D01*
X104902560Y-75600000D01*
X104946838Y-75835317D01*
X105085910Y-76051441D01*
X105298110Y-76196431D01*
X105550000Y-76247440D01*
X107527714Y-76247440D01*
X107770988Y-76409991D01*
X108500000Y-76555000D01*
X112360924Y-76555000D01*
X115634210Y-79828286D01*
X115634686Y-79886821D01*
X115852560Y-80400952D01*
X115852560Y-80500000D01*
X115896838Y-80735317D01*
X116035910Y-80951441D01*
X116248110Y-81096431D01*
X116500000Y-81147440D01*
X116590295Y-81147440D01*
X117143551Y-81371355D01*
X117886821Y-81365314D01*
X118400952Y-81147440D01*
X118500000Y-81147440D01*
X118735317Y-81103162D01*
X118951441Y-80964090D01*
X119096431Y-80751890D01*
X119147440Y-80500000D01*
X119147440Y-80409705D01*
X119371355Y-79856449D01*
X119451355Y-79436449D01*
X119449892Y-79256495D01*
X119484999Y-79080000D01*
X119446901Y-78888468D01*
X119445314Y-78693179D01*
X119427199Y-78650432D01*
X119788816Y-78288815D01*
X119949349Y-78048559D01*
X119953996Y-78041605D01*
X119978549Y-77918169D01*
X119988646Y-77911671D01*
X119990302Y-77913327D01*
X120223691Y-78010000D01*
X120464250Y-78010000D01*
X120623000Y-77851250D01*
X120623000Y-77127000D01*
X120877000Y-77127000D01*
X120877000Y-77851250D01*
X121035750Y-78010000D01*
X121276309Y-78010000D01*
X121509698Y-77913327D01*
X121688327Y-77734699D01*
X121785000Y-77501310D01*
X121785000Y-77285750D01*
X121626250Y-77127000D01*
X120877000Y-77127000D01*
X120623000Y-77127000D01*
X120603000Y-77127000D01*
X120603000Y-76873000D01*
X120623000Y-76873000D01*
X120623000Y-76148750D01*
X120877000Y-76148750D01*
X120877000Y-76873000D01*
X121626250Y-76873000D01*
X121785000Y-76714250D01*
X121785000Y-76498690D01*
X121688327Y-76265301D01*
X121509698Y-76086673D01*
X121276309Y-75990000D01*
X121035750Y-75990000D01*
X120877000Y-76148750D01*
X120623000Y-76148750D01*
X120464250Y-75990000D01*
X120223691Y-75990000D01*
X119990302Y-76086673D01*
X119988932Y-76088043D01*
X119901890Y-76028569D01*
X119650000Y-75977560D01*
X118850000Y-75977560D01*
X118614683Y-76021838D01*
X118398559Y-76160910D01*
X118253569Y-76373110D01*
X118202560Y-76625000D01*
X118202560Y-77008484D01*
X116705982Y-75511906D01*
X116885317Y-75478162D01*
X116988646Y-75411671D01*
X116990302Y-75413327D01*
X117223691Y-75510000D01*
X117464250Y-75510000D01*
X117623000Y-75351250D01*
X117623000Y-74627000D01*
X117877000Y-74627000D01*
X117877000Y-75351250D01*
X118035750Y-75510000D01*
X118276309Y-75510000D01*
X118509698Y-75413327D01*
X118688327Y-75234699D01*
X118785000Y-75001310D01*
X118785000Y-74785750D01*
X118626250Y-74627000D01*
X117877000Y-74627000D01*
X117623000Y-74627000D01*
X117603000Y-74627000D01*
X117603000Y-74373000D01*
X117623000Y-74373000D01*
X117623000Y-73648750D01*
X117877000Y-73648750D01*
X117877000Y-74373000D01*
X118626250Y-74373000D01*
X118785000Y-74214250D01*
X118785000Y-73998690D01*
X118688327Y-73765301D01*
X118509698Y-73586673D01*
X118276309Y-73490000D01*
X118035750Y-73490000D01*
X117877000Y-73648750D01*
X117623000Y-73648750D01*
X117464250Y-73490000D01*
X117223691Y-73490000D01*
X116990302Y-73586673D01*
X116988932Y-73588043D01*
X116901890Y-73528569D01*
X116650000Y-73477560D01*
X115850000Y-73477560D01*
X115614683Y-73521838D01*
X115398559Y-73660910D01*
X115345886Y-73738000D01*
X114932076Y-73738000D01*
X114497038Y-73302962D01*
X113879012Y-72890009D01*
X113150000Y-72745000D01*
X111462967Y-72745000D01*
X111685317Y-72703162D01*
X111901441Y-72564090D01*
X112046431Y-72351890D01*
X112097440Y-72100000D01*
X112097440Y-71535750D01*
X113990000Y-71535750D01*
X113990000Y-71776309D01*
X114086673Y-72009698D01*
X114265301Y-72188327D01*
X114498690Y-72285000D01*
X114714250Y-72285000D01*
X114873000Y-72126250D01*
X114873000Y-71377000D01*
X115127000Y-71377000D01*
X115127000Y-72126250D01*
X115285750Y-72285000D01*
X115501310Y-72285000D01*
X115734699Y-72188327D01*
X115913327Y-72009698D01*
X116010000Y-71776309D01*
X116010000Y-71535750D01*
X123490000Y-71535750D01*
X123490000Y-71776309D01*
X123586673Y-72009698D01*
X123765301Y-72188327D01*
X123998690Y-72285000D01*
X124214250Y-72285000D01*
X124373000Y-72126250D01*
X124373000Y-71377000D01*
X124627000Y-71377000D01*
X124627000Y-72126250D01*
X124785750Y-72285000D01*
X125001310Y-72285000D01*
X125234699Y-72188327D01*
X125413327Y-72009698D01*
X125510000Y-71776309D01*
X125510000Y-71535750D01*
X125351250Y-71377000D01*
X124627000Y-71377000D01*
X124373000Y-71377000D01*
X123648750Y-71377000D01*
X123490000Y-71535750D01*
X116010000Y-71535750D01*
X115851250Y-71377000D01*
X115127000Y-71377000D01*
X114873000Y-71377000D01*
X114148750Y-71377000D01*
X113990000Y-71535750D01*
X112097440Y-71535750D01*
X112097440Y-70400000D01*
X112053162Y-70164683D01*
X111914090Y-69948559D01*
X111701890Y-69803569D01*
X111450000Y-69752560D01*
X109472286Y-69752560D01*
X109229012Y-69590009D01*
X108500000Y-69445000D01*
X107770988Y-69590009D01*
X107527714Y-69752560D01*
X105550000Y-69752560D01*
X105314683Y-69796838D01*
X105098559Y-69935910D01*
X104953569Y-70148110D01*
X104902560Y-70400000D01*
X56627000Y-70400000D01*
X56627000Y-61627000D01*
X131373000Y-61627000D01*
X131373000Y-64595000D01*
X131373000Y-64595000D01*
G37*
X131373000Y-64595000D02*
X121493974Y-64595000D01*
X121464090Y-64548559D01*
X121251890Y-64403569D01*
X121000000Y-64352560D01*
X120897456Y-64352560D01*
X120729012Y-64240009D01*
X120573203Y-64209017D01*
X120428357Y-64143785D01*
X120212152Y-64137199D01*
X120000000Y-64095000D01*
X119844194Y-64125992D01*
X119685408Y-64121155D01*
X119483140Y-64197809D01*
X119270988Y-64240009D01*
X119138899Y-64328268D01*
X119074801Y-64352560D01*
X119000000Y-64352560D01*
X118764683Y-64396838D01*
X118548559Y-64535910D01*
X118405694Y-64745000D01*
X108500000Y-64745000D01*
X107770988Y-64890009D01*
X107228394Y-65252560D01*
X105550000Y-65252560D01*
X105314683Y-65296838D01*
X105098559Y-65435910D01*
X104953569Y-65648110D01*
X104902560Y-65900000D01*
X104902560Y-67600000D01*
X104946838Y-67835317D01*
X105085910Y-68051441D01*
X105298110Y-68196431D01*
X105550000Y-68247440D01*
X107527714Y-68247440D01*
X107770988Y-68409991D01*
X108500000Y-68555000D01*
X114238000Y-68555000D01*
X114238000Y-68844443D01*
X114173559Y-68885910D01*
X114028569Y-69098110D01*
X113977560Y-69350000D01*
X113977560Y-70150000D01*
X114021838Y-70385317D01*
X114088329Y-70488646D01*
X114086673Y-70490302D01*
X113990000Y-70723691D01*
X113990000Y-70964250D01*
X114148750Y-71123000D01*
X114873000Y-71123000D01*
X114873000Y-71103000D01*
X115127000Y-71103000D01*
X115127000Y-71123000D01*
X115851250Y-71123000D01*
X116010000Y-70964250D01*
X116010000Y-70723691D01*
X115913327Y-70490302D01*
X115911957Y-70488932D01*
X115971431Y-70401890D01*
X116022440Y-70150000D01*
X116022440Y-69350000D01*
X115978162Y-69114683D01*
X115839090Y-68898559D01*
X115762000Y-68845886D01*
X115762000Y-68555000D01*
X119850000Y-68555000D01*
X120005806Y-68524008D01*
X120164592Y-68528845D01*
X120366860Y-68452191D01*
X120579012Y-68409991D01*
X120586482Y-68405000D01*
X123738000Y-68405000D01*
X123738000Y-68844443D01*
X123673559Y-68885910D01*
X123528569Y-69098110D01*
X123477560Y-69350000D01*
X123477560Y-70150000D01*
X123521838Y-70385317D01*
X123588329Y-70488646D01*
X123586673Y-70490302D01*
X123490000Y-70723691D01*
X123490000Y-70964250D01*
X123648750Y-71123000D01*
X124373000Y-71123000D01*
X124373000Y-71103000D01*
X124627000Y-71103000D01*
X124627000Y-71123000D01*
X125351250Y-71123000D01*
X125510000Y-70964250D01*
X125510000Y-70723691D01*
X125413327Y-70490302D01*
X125411957Y-70488932D01*
X125471431Y-70401890D01*
X125522440Y-70150000D01*
X125522440Y-69350000D01*
X125478162Y-69114683D01*
X125339090Y-68898559D01*
X125262000Y-68845886D01*
X125262000Y-68405000D01*
X131373000Y-68405000D01*
X131373000Y-114373000D01*
X56627000Y-114373000D01*
X56627000Y-107033750D01*
X92815000Y-107033750D01*
X92815000Y-107126309D01*
X92911673Y-107359698D01*
X93090301Y-107538327D01*
X93323690Y-107635000D01*
X93614250Y-107635000D01*
X93773000Y-107476250D01*
X93773000Y-106875000D01*
X94027000Y-106875000D01*
X94027000Y-107476250D01*
X94185750Y-107635000D01*
X94476310Y-107635000D01*
X94709699Y-107538327D01*
X94888327Y-107359698D01*
X94900000Y-107331517D01*
X94911673Y-107359698D01*
X95090301Y-107538327D01*
X95323690Y-107635000D01*
X95614250Y-107635000D01*
X95773000Y-107476250D01*
X95773000Y-106875000D01*
X96027000Y-106875000D01*
X96027000Y-107476250D01*
X96185750Y-107635000D01*
X96476310Y-107635000D01*
X96709699Y-107538327D01*
X96888327Y-107359698D01*
X96985000Y-107126309D01*
X96985000Y-107033750D01*
X96826250Y-106875000D01*
X96027000Y-106875000D01*
X95773000Y-106875000D01*
X94973750Y-106875000D01*
X94900000Y-106948750D01*
X94826250Y-106875000D01*
X94027000Y-106875000D01*
X93773000Y-106875000D01*
X92973750Y-106875000D01*
X92815000Y-107033750D01*
X56627000Y-107033750D01*
X56627000Y-103595750D01*
X86000000Y-103595750D01*
X86000000Y-103756310D01*
X86096673Y-103989699D01*
X86275302Y-104168327D01*
X86508691Y-104265000D01*
X86669250Y-104265000D01*
X86828000Y-104106250D01*
X86828000Y-103437000D01*
X87082000Y-103437000D01*
X87082000Y-104106250D01*
X87240750Y-104265000D01*
X87401309Y-104265000D01*
X87590000Y-104186842D01*
X87778691Y-104265000D01*
X87939250Y-104265000D01*
X88098000Y-104106250D01*
X88098000Y-103437000D01*
X88352000Y-103437000D01*
X88352000Y-104106250D01*
X88510750Y-104265000D01*
X88671309Y-104265000D01*
X88860000Y-104186842D01*
X89048691Y-104265000D01*
X89209250Y-104265000D01*
X89368000Y-104106250D01*
X89368000Y-103437000D01*
X89622000Y-103437000D01*
X89622000Y-104106250D01*
X89780750Y-104265000D01*
X89941309Y-104265000D01*
X90130000Y-104186842D01*
X90318691Y-104265000D01*
X90479250Y-104265000D01*
X90638000Y-104106250D01*
X90638000Y-103437000D01*
X90892000Y-103437000D01*
X90892000Y-104106250D01*
X91050750Y-104265000D01*
X91211309Y-104265000D01*
X91400000Y-104186842D01*
X91588691Y-104265000D01*
X91749250Y-104265000D01*
X91908000Y-104106250D01*
X91908000Y-103437000D01*
X90892000Y-103437000D01*
X90638000Y-103437000D01*
X89622000Y-103437000D01*
X89368000Y-103437000D01*
X88352000Y-103437000D01*
X88098000Y-103437000D01*
X87082000Y-103437000D01*
X86828000Y-103437000D01*
X86158750Y-103437000D01*
X86000000Y-103595750D01*
X56627000Y-103595750D01*
X56627000Y-102325750D01*
X86000000Y-102325750D01*
X86000000Y-102486310D01*
X86078158Y-102675000D01*
X86000000Y-102863690D01*
X86000000Y-103024250D01*
X86158750Y-103183000D01*
X86828000Y-103183000D01*
X86828000Y-102167000D01*
X87082000Y-102167000D01*
X87082000Y-103183000D01*
X88098000Y-103183000D01*
X88098000Y-102167000D01*
X88352000Y-102167000D01*
X88352000Y-103183000D01*
X89368000Y-103183000D01*
X89368000Y-102167000D01*
X89622000Y-102167000D01*
X89622000Y-103183000D01*
X90638000Y-103183000D01*
X90638000Y-102167000D01*
X90892000Y-102167000D01*
X90892000Y-103183000D01*
X91908000Y-103183000D01*
X91908000Y-102167000D01*
X90892000Y-102167000D01*
X90638000Y-102167000D01*
X89622000Y-102167000D01*
X89368000Y-102167000D01*
X88352000Y-102167000D01*
X88098000Y-102167000D01*
X87082000Y-102167000D01*
X86828000Y-102167000D01*
X86158750Y-102167000D01*
X86000000Y-102325750D01*
X56627000Y-102325750D01*
X56627000Y-101055750D01*
X86000000Y-101055750D01*
X86000000Y-101216310D01*
X86078158Y-101405000D01*
X86000000Y-101593690D01*
X86000000Y-101754250D01*
X86158750Y-101913000D01*
X86828000Y-101913000D01*
X86828000Y-100897000D01*
X87082000Y-100897000D01*
X87082000Y-101913000D01*
X88098000Y-101913000D01*
X88098000Y-100897000D01*
X88352000Y-100897000D01*
X88352000Y-101913000D01*
X89368000Y-101913000D01*
X89368000Y-100897000D01*
X89622000Y-100897000D01*
X89622000Y-101913000D01*
X90638000Y-101913000D01*
X90638000Y-100897000D01*
X90892000Y-100897000D01*
X90892000Y-101913000D01*
X91908000Y-101913000D01*
X91908000Y-100897000D01*
X90892000Y-100897000D01*
X90638000Y-100897000D01*
X89622000Y-100897000D01*
X89368000Y-100897000D01*
X88352000Y-100897000D01*
X88098000Y-100897000D01*
X87082000Y-100897000D01*
X86828000Y-100897000D01*
X86158750Y-100897000D01*
X86000000Y-101055750D01*
X56627000Y-101055750D01*
X56627000Y-97377265D01*
X81594670Y-97377265D01*
X81884078Y-98077686D01*
X82419495Y-98614039D01*
X83119410Y-98904668D01*
X83877265Y-98905330D01*
X83911606Y-98891140D01*
X83944827Y-98942767D01*
X84152949Y-99084971D01*
X84400000Y-99135000D01*
X85996673Y-99135000D01*
X85987560Y-99180000D01*
X85987560Y-99820000D01*
X86031838Y-100055317D01*
X86080098Y-100130316D01*
X86000000Y-100323690D01*
X86000000Y-100484250D01*
X86158750Y-100643000D01*
X86828000Y-100643000D01*
X86828000Y-100623000D01*
X87082000Y-100623000D01*
X87082000Y-100643000D01*
X88098000Y-100643000D01*
X88098000Y-100623000D01*
X88352000Y-100623000D01*
X88352000Y-100643000D01*
X89368000Y-100643000D01*
X89368000Y-100623000D01*
X89622000Y-100623000D01*
X89622000Y-100643000D01*
X90638000Y-100643000D01*
X90638000Y-99627000D01*
X90892000Y-99627000D01*
X90892000Y-100643000D01*
X91908000Y-100643000D01*
X91908000Y-99627000D01*
X92162000Y-99627000D01*
X92162000Y-100643000D01*
X92182000Y-100643000D01*
X92182000Y-100897000D01*
X92162000Y-100897000D01*
X92162000Y-101913000D01*
X93178000Y-101913000D01*
X93178000Y-101893000D01*
X93432000Y-101893000D01*
X93432000Y-101913000D01*
X93452000Y-101913000D01*
X93452000Y-102167000D01*
X93432000Y-102167000D01*
X93432000Y-102187000D01*
X93178000Y-102187000D01*
X93178000Y-102167000D01*
X92162000Y-102167000D01*
X92162000Y-103183000D01*
X92182000Y-103183000D01*
X92182000Y-103437000D01*
X92162000Y-103437000D01*
X92162000Y-104106250D01*
X92320750Y-104265000D01*
X92481309Y-104265000D01*
X92673218Y-104185509D01*
X92733110Y-104226431D01*
X92985000Y-104277440D01*
X93138000Y-104277440D01*
X93138000Y-104446182D01*
X92998559Y-104535910D01*
X92853569Y-104748110D01*
X92802560Y-105000000D01*
X92802560Y-105500000D01*
X92846838Y-105735317D01*
X92985910Y-105951441D01*
X93054006Y-105997969D01*
X92911673Y-106140302D01*
X92815000Y-106373691D01*
X92815000Y-106466250D01*
X92973750Y-106625000D01*
X93773000Y-106625000D01*
X93773000Y-106603000D01*
X94027000Y-106603000D01*
X94027000Y-106625000D01*
X94826250Y-106625000D01*
X94900000Y-106551250D01*
X94973750Y-106625000D01*
X95773000Y-106625000D01*
X95773000Y-106603000D01*
X96027000Y-106603000D01*
X96027000Y-106625000D01*
X96826250Y-106625000D01*
X96985000Y-106466250D01*
X96985000Y-106373691D01*
X96888327Y-106140302D01*
X96747090Y-105999064D01*
X96801441Y-105964090D01*
X96946431Y-105751890D01*
X96997440Y-105500000D01*
X96997440Y-105000000D01*
X96953162Y-104764683D01*
X96814090Y-104548559D01*
X96662000Y-104444640D01*
X96662000Y-104027412D01*
X96761431Y-103881890D01*
X96812440Y-103630000D01*
X96812440Y-102990000D01*
X96768162Y-102754683D01*
X96717577Y-102676072D01*
X96761431Y-102611890D01*
X96812440Y-102360000D01*
X96812440Y-101720000D01*
X96768162Y-101484683D01*
X96717577Y-101406072D01*
X96761431Y-101341890D01*
X96812440Y-101090000D01*
X96812440Y-100450000D01*
X96797500Y-100370601D01*
X96797500Y-100135000D01*
X99400000Y-100135000D01*
X99630795Y-100091573D01*
X99842767Y-99955173D01*
X99984971Y-99747051D01*
X100035000Y-99500000D01*
X100035000Y-97912500D01*
X100095000Y-97912500D01*
X100095000Y-104000000D01*
X100224093Y-104648996D01*
X100240009Y-104729012D01*
X100652962Y-105347038D01*
X103152962Y-107847038D01*
X103770988Y-108259991D01*
X104500000Y-108405000D01*
X106591718Y-108405000D01*
X106707242Y-108520726D01*
X107583513Y-108884585D01*
X108532325Y-108885413D01*
X109409229Y-108523084D01*
X110080726Y-107852758D01*
X110444585Y-106976487D01*
X110445413Y-106027675D01*
X110083084Y-105150771D01*
X109412758Y-104479274D01*
X108536487Y-104115415D01*
X107587675Y-104114587D01*
X106710771Y-104476916D01*
X106592481Y-104595000D01*
X105289076Y-104595000D01*
X103905000Y-103210924D01*
X103905000Y-98289076D01*
X104439077Y-97755000D01*
X108500000Y-97755000D01*
X109229012Y-97609991D01*
X109771606Y-97247440D01*
X111450000Y-97247440D01*
X111685317Y-97203162D01*
X111901441Y-97064090D01*
X112046431Y-96851890D01*
X112097440Y-96600000D01*
X112097440Y-95263944D01*
X112152962Y-95347038D01*
X115660666Y-98854742D01*
X115595312Y-102465526D01*
X115598423Y-102482792D01*
X115595000Y-102500000D01*
X115664208Y-102847934D01*
X115727105Y-103197043D01*
X115736586Y-103211804D01*
X115740009Y-103229012D01*
X115852560Y-103397456D01*
X115852560Y-103500000D01*
X115896838Y-103735317D01*
X116035910Y-103951441D01*
X116248110Y-104096431D01*
X116500000Y-104147440D01*
X116596646Y-104147440D01*
X116739258Y-104246510D01*
X116756400Y-104250243D01*
X116770988Y-104259991D01*
X117118921Y-104329199D01*
X117465526Y-104404688D01*
X117482792Y-104401577D01*
X117500000Y-104405000D01*
X117847934Y-104335792D01*
X118197043Y-104272895D01*
X118211804Y-104263414D01*
X118229012Y-104259991D01*
X118397456Y-104147440D01*
X118500000Y-104147440D01*
X118735317Y-104103162D01*
X118951441Y-103964090D01*
X119096431Y-103751890D01*
X119147440Y-103500000D01*
X119147440Y-103403354D01*
X119246510Y-103260742D01*
X119250243Y-103243600D01*
X119259991Y-103229012D01*
X119329199Y-102881079D01*
X119404688Y-102534474D01*
X119454869Y-99762000D01*
X120344443Y-99762000D01*
X120385910Y-99826441D01*
X120598110Y-99971431D01*
X120850000Y-100022440D01*
X121650000Y-100022440D01*
X121885317Y-99978162D01*
X121988646Y-99911671D01*
X121990302Y-99913327D01*
X122223691Y-100010000D01*
X122464250Y-100010000D01*
X122623000Y-99851250D01*
X122623000Y-99127000D01*
X122877000Y-99127000D01*
X122877000Y-99851250D01*
X123035750Y-100010000D01*
X123276309Y-100010000D01*
X123509698Y-99913327D01*
X123688327Y-99734699D01*
X123785000Y-99501310D01*
X123785000Y-99285750D01*
X123626250Y-99127000D01*
X122877000Y-99127000D01*
X122623000Y-99127000D01*
X122603000Y-99127000D01*
X122603000Y-98873000D01*
X122623000Y-98873000D01*
X122623000Y-98148750D01*
X122474250Y-98000000D01*
X122623000Y-97851250D01*
X122623000Y-97127000D01*
X122877000Y-97127000D01*
X122877000Y-97851250D01*
X123025750Y-98000000D01*
X122877000Y-98148750D01*
X122877000Y-98873000D01*
X123626250Y-98873000D01*
X123785000Y-98714250D01*
X123785000Y-98498690D01*
X123688327Y-98265301D01*
X123509698Y-98086673D01*
X123300451Y-98000000D01*
X123509698Y-97913327D01*
X123688327Y-97734699D01*
X123785000Y-97501310D01*
X123785000Y-97285750D01*
X123626250Y-97127000D01*
X122877000Y-97127000D01*
X122623000Y-97127000D01*
X122603000Y-97127000D01*
X122603000Y-96873000D01*
X122623000Y-96873000D01*
X122623000Y-96148750D01*
X122877000Y-96148750D01*
X122877000Y-96873000D01*
X123626250Y-96873000D01*
X123785000Y-96714250D01*
X123785000Y-96498690D01*
X123688327Y-96265301D01*
X123509698Y-96086673D01*
X123276309Y-95990000D01*
X123035750Y-95990000D01*
X122877000Y-96148750D01*
X122623000Y-96148750D01*
X122464250Y-95990000D01*
X122223691Y-95990000D01*
X121990302Y-96086673D01*
X121988932Y-96088043D01*
X121901890Y-96028569D01*
X121650000Y-95977560D01*
X120850000Y-95977560D01*
X120614683Y-96021838D01*
X120398559Y-96160910D01*
X120345886Y-96238000D01*
X118660000Y-96238000D01*
X118469892Y-96275815D01*
X115405000Y-93210924D01*
X115405000Y-91500000D01*
X115259991Y-90770988D01*
X115026128Y-90420988D01*
X114847039Y-90152962D01*
X114497038Y-89802962D01*
X113879012Y-89390009D01*
X113150000Y-89245000D01*
X110405000Y-89245000D01*
X110405000Y-88747440D01*
X111450000Y-88747440D01*
X111685317Y-88703162D01*
X111901441Y-88564090D01*
X112046431Y-88351890D01*
X112097440Y-88100000D01*
X112097440Y-86400000D01*
X112053162Y-86164683D01*
X111914090Y-85948559D01*
X111701890Y-85803569D01*
X111450000Y-85752560D01*
X109472286Y-85752560D01*
X109229012Y-85590009D01*
X108500000Y-85445000D01*
X107770988Y-85590009D01*
X107527714Y-85752560D01*
X105550000Y-85752560D01*
X105314683Y-85796838D01*
X105098559Y-85935910D01*
X104953569Y-86148110D01*
X104902560Y-86400000D01*
X104902560Y-88100000D01*
X104946838Y-88335317D01*
X105085910Y-88551441D01*
X105298110Y-88696431D01*
X105550000Y-88747440D01*
X106595000Y-88747440D01*
X106595000Y-89752560D01*
X105550000Y-89752560D01*
X105314683Y-89796838D01*
X105098559Y-89935910D01*
X104953569Y-90148110D01*
X104902560Y-90400000D01*
X104902560Y-92100000D01*
X104946838Y-92335317D01*
X105085910Y-92551441D01*
X105298110Y-92696431D01*
X105550000Y-92747440D01*
X107527714Y-92747440D01*
X107770988Y-92909991D01*
X108500000Y-93055000D01*
X111595000Y-93055000D01*
X111595000Y-94000000D01*
X111653431Y-94293756D01*
X111450000Y-94252560D01*
X109472286Y-94252560D01*
X109229012Y-94090009D01*
X108500000Y-93945000D01*
X103650000Y-93945000D01*
X103085765Y-94057233D01*
X102920987Y-94090009D01*
X102302961Y-94502962D01*
X100798424Y-96007500D01*
X100035000Y-96007500D01*
X100035000Y-94500000D01*
X99991573Y-94269205D01*
X99855173Y-94057233D01*
X99647051Y-93915029D01*
X99400000Y-93865000D01*
X99058025Y-93865000D01*
X99188327Y-93734699D01*
X99285000Y-93501310D01*
X99285000Y-93285750D01*
X99126250Y-93127000D01*
X98377000Y-93127000D01*
X98377000Y-93147000D01*
X98123000Y-93147000D01*
X98123000Y-93127000D01*
X98103000Y-93127000D01*
X98103000Y-92873000D01*
X98123000Y-92873000D01*
X98123000Y-92148750D01*
X98377000Y-92148750D01*
X98377000Y-92873000D01*
X99126250Y-92873000D01*
X99285000Y-92714250D01*
X99285000Y-92498690D01*
X99188327Y-92265301D01*
X99009698Y-92086673D01*
X98776309Y-91990000D01*
X98535750Y-91990000D01*
X98377000Y-92148750D01*
X98123000Y-92148750D01*
X97964250Y-91990000D01*
X97723691Y-91990000D01*
X97490302Y-92086673D01*
X97488932Y-92088043D01*
X97401890Y-92028569D01*
X97150000Y-91977560D01*
X96350000Y-91977560D01*
X96114683Y-92021838D01*
X95898559Y-92160910D01*
X95753569Y-92373110D01*
X95702560Y-92625000D01*
X95702560Y-93375000D01*
X95746838Y-93610317D01*
X95885910Y-93826441D01*
X95942343Y-93865000D01*
X93900000Y-93865000D01*
X93669205Y-93908427D01*
X93457233Y-94044827D01*
X93315029Y-94252949D01*
X93265000Y-94500000D01*
X93265000Y-99500000D01*
X93308427Y-99730795D01*
X93354606Y-99802560D01*
X92990000Y-99802560D01*
X92990000Y-99785750D01*
X92831250Y-99627000D01*
X92162000Y-99627000D01*
X91908000Y-99627000D01*
X90892000Y-99627000D01*
X90638000Y-99627000D01*
X90618000Y-99627000D01*
X90618000Y-99373000D01*
X90638000Y-99373000D01*
X90638000Y-98357000D01*
X90892000Y-98357000D01*
X90892000Y-99373000D01*
X91908000Y-99373000D01*
X91908000Y-98357000D01*
X92162000Y-98357000D01*
X92162000Y-99373000D01*
X92831250Y-99373000D01*
X92990000Y-99214250D01*
X92990000Y-99053690D01*
X92911842Y-98865000D01*
X92990000Y-98676310D01*
X92990000Y-98515750D01*
X92831250Y-98357000D01*
X92162000Y-98357000D01*
X91908000Y-98357000D01*
X90892000Y-98357000D01*
X90638000Y-98357000D01*
X90618000Y-98357000D01*
X90618000Y-98103000D01*
X90638000Y-98103000D01*
X90638000Y-97087000D01*
X90892000Y-97087000D01*
X90892000Y-98103000D01*
X91908000Y-98103000D01*
X91908000Y-97087000D01*
X92162000Y-97087000D01*
X92162000Y-98103000D01*
X92831250Y-98103000D01*
X92990000Y-97944250D01*
X92990000Y-97783690D01*
X92911842Y-97595000D01*
X92990000Y-97406310D01*
X92990000Y-97245750D01*
X92831250Y-97087000D01*
X92162000Y-97087000D01*
X91908000Y-97087000D01*
X90892000Y-97087000D01*
X90638000Y-97087000D01*
X90618000Y-97087000D01*
X90618000Y-96833000D01*
X90638000Y-96833000D01*
X90638000Y-95817000D01*
X90892000Y-95817000D01*
X90892000Y-96833000D01*
X91908000Y-96833000D01*
X91908000Y-95817000D01*
X92162000Y-95817000D01*
X92162000Y-96833000D01*
X92831250Y-96833000D01*
X92990000Y-96674250D01*
X92990000Y-96513690D01*
X92911842Y-96325000D01*
X92990000Y-96136310D01*
X92990000Y-95975750D01*
X92831250Y-95817000D01*
X92162000Y-95817000D01*
X91908000Y-95817000D01*
X90892000Y-95817000D01*
X90638000Y-95817000D01*
X90618000Y-95817000D01*
X90618000Y-95563000D01*
X90638000Y-95563000D01*
X90638000Y-94893750D01*
X90892000Y-94893750D01*
X90892000Y-95563000D01*
X91908000Y-95563000D01*
X91908000Y-94893750D01*
X92162000Y-94893750D01*
X92162000Y-95563000D01*
X92831250Y-95563000D01*
X92990000Y-95404250D01*
X92990000Y-95243690D01*
X92893327Y-95010301D01*
X92714698Y-94831673D01*
X92481309Y-94735000D01*
X92320750Y-94735000D01*
X92162000Y-94893750D01*
X91908000Y-94893750D01*
X91749250Y-94735000D01*
X91588691Y-94735000D01*
X91400000Y-94813158D01*
X91211309Y-94735000D01*
X91050750Y-94735000D01*
X90892000Y-94893750D01*
X90638000Y-94893750D01*
X90535000Y-94790750D01*
X90535000Y-94500000D01*
X90499646Y-94312108D01*
X90512000Y-94250000D01*
X90512000Y-94035026D01*
X90640302Y-94163327D01*
X90873691Y-94260000D01*
X91214250Y-94260000D01*
X91373000Y-94101250D01*
X91373000Y-93127000D01*
X91627000Y-93127000D01*
X91627000Y-94101250D01*
X91785750Y-94260000D01*
X92126309Y-94260000D01*
X92359698Y-94163327D01*
X92538327Y-93984699D01*
X92635000Y-93751310D01*
X92635000Y-93285750D01*
X92476250Y-93127000D01*
X91627000Y-93127000D01*
X91373000Y-93127000D01*
X91353000Y-93127000D01*
X91353000Y-92873000D01*
X91373000Y-92873000D01*
X91373000Y-91898750D01*
X91627000Y-91898750D01*
X91627000Y-92873000D01*
X92476250Y-92873000D01*
X92635000Y-92714250D01*
X92635000Y-92248690D01*
X92538327Y-92015301D01*
X92359698Y-91836673D01*
X92126309Y-91740000D01*
X91785750Y-91740000D01*
X91627000Y-91898750D01*
X91373000Y-91898750D01*
X91214250Y-91740000D01*
X90873691Y-91740000D01*
X90640302Y-91836673D01*
X90499064Y-91977910D01*
X90464090Y-91923559D01*
X90251890Y-91778569D01*
X90000000Y-91727560D01*
X89000000Y-91727560D01*
X88764683Y-91771838D01*
X88548559Y-91910910D01*
X88403569Y-92123110D01*
X88352560Y-92375000D01*
X88352560Y-93625000D01*
X88396838Y-93860317D01*
X88399851Y-93865000D01*
X84400000Y-93865000D01*
X84169205Y-93908427D01*
X83957233Y-94044827D01*
X83815029Y-94252949D01*
X83765000Y-94500000D01*
X83765000Y-95055000D01*
X83540000Y-95055000D01*
X83339612Y-95094859D01*
X83122735Y-95094670D01*
X82920528Y-95178220D01*
X82810988Y-95200009D01*
X82718936Y-95261516D01*
X82422314Y-95384078D01*
X82193170Y-95612822D01*
X82192962Y-95612961D01*
X82154121Y-95651803D01*
X81885961Y-95919495D01*
X81595332Y-96619410D01*
X81594670Y-97377265D01*
X56627000Y-97377265D01*
X56627000Y-78400000D01*
X104902560Y-78400000D01*
X104902560Y-80100000D01*
X104946838Y-80335317D01*
X105085910Y-80551441D01*
X105298110Y-80696431D01*
X105550000Y-80747440D01*
X106595000Y-80747440D01*
X106595000Y-81252560D01*
X105550000Y-81252560D01*
X105314683Y-81296838D01*
X105098559Y-81435910D01*
X104953569Y-81648110D01*
X104902560Y-81900000D01*
X104902560Y-83600000D01*
X104946838Y-83835317D01*
X105085910Y-84051441D01*
X105298110Y-84196431D01*
X105550000Y-84247440D01*
X107527714Y-84247440D01*
X107770988Y-84409991D01*
X108500000Y-84555000D01*
X110860924Y-84555000D01*
X114652962Y-88347038D01*
X115648742Y-89342819D01*
X115596040Y-90937059D01*
X115716883Y-91670464D01*
X115852560Y-91888806D01*
X115852560Y-92000000D01*
X115896838Y-92235317D01*
X116035910Y-92451441D01*
X116248110Y-92596431D01*
X116500000Y-92647440D01*
X116591208Y-92647440D01*
X116713236Y-92734944D01*
X117437059Y-92903960D01*
X118170464Y-92783117D01*
X118388806Y-92647440D01*
X118500000Y-92647440D01*
X118735317Y-92603162D01*
X118951441Y-92464090D01*
X119096431Y-92251890D01*
X119147440Y-92000000D01*
X119147440Y-91908792D01*
X119234944Y-91786764D01*
X119403960Y-91062941D01*
X119483960Y-88642941D01*
X119478759Y-88611373D01*
X119484999Y-88580000D01*
X119418523Y-88245797D01*
X119363117Y-87909536D01*
X119346232Y-87882364D01*
X119339991Y-87850987D01*
X119150657Y-87567630D01*
X118970808Y-87278203D01*
X118944812Y-87259562D01*
X118927038Y-87232961D01*
X117885854Y-86191777D01*
X118055191Y-86022440D01*
X118150000Y-86022440D01*
X118385317Y-85978162D01*
X118488646Y-85911671D01*
X118490302Y-85913327D01*
X118723691Y-86010000D01*
X118964250Y-86010000D01*
X119123000Y-85851250D01*
X119123000Y-85127000D01*
X119377000Y-85127000D01*
X119377000Y-85851250D01*
X119535750Y-86010000D01*
X119776309Y-86010000D01*
X120009698Y-85913327D01*
X120188327Y-85734699D01*
X120285000Y-85501310D01*
X120285000Y-85285750D01*
X120126250Y-85127000D01*
X119377000Y-85127000D01*
X119123000Y-85127000D01*
X119103000Y-85127000D01*
X119103000Y-84873000D01*
X119123000Y-84873000D01*
X119123000Y-84148750D01*
X119377000Y-84148750D01*
X119377000Y-84873000D01*
X120126250Y-84873000D01*
X120285000Y-84714250D01*
X120285000Y-84498690D01*
X120188327Y-84265301D01*
X120009698Y-84086673D01*
X119776309Y-83990000D01*
X119535750Y-83990000D01*
X119377000Y-84148750D01*
X119123000Y-84148750D01*
X118964250Y-83990000D01*
X118723691Y-83990000D01*
X118490302Y-84086673D01*
X118488932Y-84088043D01*
X118401890Y-84028569D01*
X118150000Y-83977560D01*
X117350000Y-83977560D01*
X117114683Y-84021838D01*
X116898559Y-84160910D01*
X116753569Y-84373110D01*
X116702560Y-84625000D01*
X116702560Y-85008484D01*
X115385853Y-83691777D01*
X115555190Y-83522440D01*
X116150000Y-83522440D01*
X116385317Y-83478162D01*
X116488646Y-83411671D01*
X116490302Y-83413327D01*
X116723691Y-83510000D01*
X116964250Y-83510000D01*
X117123000Y-83351250D01*
X117123000Y-82627000D01*
X117377000Y-82627000D01*
X117377000Y-83351250D01*
X117535750Y-83510000D01*
X117776309Y-83510000D01*
X118009698Y-83413327D01*
X118188327Y-83234699D01*
X118285000Y-83001310D01*
X118285000Y-82785750D01*
X118126250Y-82627000D01*
X117377000Y-82627000D01*
X117123000Y-82627000D01*
X117103000Y-82627000D01*
X117103000Y-82373000D01*
X117123000Y-82373000D01*
X117123000Y-81648750D01*
X117377000Y-81648750D01*
X117377000Y-82373000D01*
X118126250Y-82373000D01*
X118285000Y-82214250D01*
X118285000Y-81998690D01*
X118188327Y-81765301D01*
X118009698Y-81586673D01*
X117776309Y-81490000D01*
X117535750Y-81490000D01*
X117377000Y-81648750D01*
X117123000Y-81648750D01*
X116964250Y-81490000D01*
X116723691Y-81490000D01*
X116490302Y-81586673D01*
X116488932Y-81588043D01*
X116401890Y-81528569D01*
X116150000Y-81477560D01*
X115350000Y-81477560D01*
X115114683Y-81521838D01*
X114898559Y-81660910D01*
X114753569Y-81873110D01*
X114702560Y-82125000D01*
X114702560Y-82219810D01*
X114308223Y-82614147D01*
X112997038Y-81302962D01*
X112379012Y-80890009D01*
X111650000Y-80745000D01*
X111462967Y-80745000D01*
X111685317Y-80703162D01*
X111901441Y-80564090D01*
X112046431Y-80351890D01*
X112097440Y-80100000D01*
X112097440Y-78400000D01*
X112053162Y-78164683D01*
X111914090Y-77948559D01*
X111701890Y-77803569D01*
X111450000Y-77752560D01*
X109472286Y-77752560D01*
X109229012Y-77590009D01*
X108500000Y-77445000D01*
X107770988Y-77590009D01*
X107527714Y-77752560D01*
X105550000Y-77752560D01*
X105314683Y-77796838D01*
X105098559Y-77935910D01*
X104953569Y-78148110D01*
X104902560Y-78400000D01*
X56627000Y-78400000D01*
X56627000Y-70400000D01*
X104902560Y-70400000D01*
X104902560Y-72100000D01*
X104946838Y-72335317D01*
X105085910Y-72551441D01*
X105298110Y-72696431D01*
X105550000Y-72747440D01*
X106595000Y-72747440D01*
X106595000Y-73252560D01*
X105550000Y-73252560D01*
X105314683Y-73296838D01*
X105098559Y-73435910D01*
X104953569Y-73648110D01*
X104902560Y-73900000D01*
X104902560Y-75600000D01*
X104946838Y-75835317D01*
X105085910Y-76051441D01*
X105298110Y-76196431D01*
X105550000Y-76247440D01*
X107527714Y-76247440D01*
X107770988Y-76409991D01*
X108500000Y-76555000D01*
X112360924Y-76555000D01*
X115634210Y-79828286D01*
X115634686Y-79886821D01*
X115852560Y-80400952D01*
X115852560Y-80500000D01*
X115896838Y-80735317D01*
X116035910Y-80951441D01*
X116248110Y-81096431D01*
X116500000Y-81147440D01*
X116590295Y-81147440D01*
X117143551Y-81371355D01*
X117886821Y-81365314D01*
X118400952Y-81147440D01*
X118500000Y-81147440D01*
X118735317Y-81103162D01*
X118951441Y-80964090D01*
X119096431Y-80751890D01*
X119147440Y-80500000D01*
X119147440Y-80409705D01*
X119371355Y-79856449D01*
X119451355Y-79436449D01*
X119449892Y-79256495D01*
X119484999Y-79080000D01*
X119446901Y-78888468D01*
X119445314Y-78693179D01*
X119427199Y-78650432D01*
X119788816Y-78288815D01*
X119949349Y-78048559D01*
X119953996Y-78041605D01*
X119978549Y-77918169D01*
X119988646Y-77911671D01*
X119990302Y-77913327D01*
X120223691Y-78010000D01*
X120464250Y-78010000D01*
X120623000Y-77851250D01*
X120623000Y-77127000D01*
X120877000Y-77127000D01*
X120877000Y-77851250D01*
X121035750Y-78010000D01*
X121276309Y-78010000D01*
X121509698Y-77913327D01*
X121688327Y-77734699D01*
X121785000Y-77501310D01*
X121785000Y-77285750D01*
X121626250Y-77127000D01*
X120877000Y-77127000D01*
X120623000Y-77127000D01*
X120603000Y-77127000D01*
X120603000Y-76873000D01*
X120623000Y-76873000D01*
X120623000Y-76148750D01*
X120877000Y-76148750D01*
X120877000Y-76873000D01*
X121626250Y-76873000D01*
X121785000Y-76714250D01*
X121785000Y-76498690D01*
X121688327Y-76265301D01*
X121509698Y-76086673D01*
X121276309Y-75990000D01*
X121035750Y-75990000D01*
X120877000Y-76148750D01*
X120623000Y-76148750D01*
X120464250Y-75990000D01*
X120223691Y-75990000D01*
X119990302Y-76086673D01*
X119988932Y-76088043D01*
X119901890Y-76028569D01*
X119650000Y-75977560D01*
X118850000Y-75977560D01*
X118614683Y-76021838D01*
X118398559Y-76160910D01*
X118253569Y-76373110D01*
X118202560Y-76625000D01*
X118202560Y-77008484D01*
X116705982Y-75511906D01*
X116885317Y-75478162D01*
X116988646Y-75411671D01*
X116990302Y-75413327D01*
X117223691Y-75510000D01*
X117464250Y-75510000D01*
X117623000Y-75351250D01*
X117623000Y-74627000D01*
X117877000Y-74627000D01*
X117877000Y-75351250D01*
X118035750Y-75510000D01*
X118276309Y-75510000D01*
X118509698Y-75413327D01*
X118688327Y-75234699D01*
X118785000Y-75001310D01*
X118785000Y-74785750D01*
X118626250Y-74627000D01*
X117877000Y-74627000D01*
X117623000Y-74627000D01*
X117603000Y-74627000D01*
X117603000Y-74373000D01*
X117623000Y-74373000D01*
X117623000Y-73648750D01*
X117877000Y-73648750D01*
X117877000Y-74373000D01*
X118626250Y-74373000D01*
X118785000Y-74214250D01*
X118785000Y-73998690D01*
X118688327Y-73765301D01*
X118509698Y-73586673D01*
X118276309Y-73490000D01*
X118035750Y-73490000D01*
X117877000Y-73648750D01*
X117623000Y-73648750D01*
X117464250Y-73490000D01*
X117223691Y-73490000D01*
X116990302Y-73586673D01*
X116988932Y-73588043D01*
X116901890Y-73528569D01*
X116650000Y-73477560D01*
X115850000Y-73477560D01*
X115614683Y-73521838D01*
X115398559Y-73660910D01*
X115345886Y-73738000D01*
X114932076Y-73738000D01*
X114497038Y-73302962D01*
X113879012Y-72890009D01*
X113150000Y-72745000D01*
X111462967Y-72745000D01*
X111685317Y-72703162D01*
X111901441Y-72564090D01*
X112046431Y-72351890D01*
X112097440Y-72100000D01*
X112097440Y-71535750D01*
X113990000Y-71535750D01*
X113990000Y-71776309D01*
X114086673Y-72009698D01*
X114265301Y-72188327D01*
X114498690Y-72285000D01*
X114714250Y-72285000D01*
X114873000Y-72126250D01*
X114873000Y-71377000D01*
X115127000Y-71377000D01*
X115127000Y-72126250D01*
X115285750Y-72285000D01*
X115501310Y-72285000D01*
X115734699Y-72188327D01*
X115913327Y-72009698D01*
X116010000Y-71776309D01*
X116010000Y-71535750D01*
X123490000Y-71535750D01*
X123490000Y-71776309D01*
X123586673Y-72009698D01*
X123765301Y-72188327D01*
X123998690Y-72285000D01*
X124214250Y-72285000D01*
X124373000Y-72126250D01*
X124373000Y-71377000D01*
X124627000Y-71377000D01*
X124627000Y-72126250D01*
X124785750Y-72285000D01*
X125001310Y-72285000D01*
X125234699Y-72188327D01*
X125413327Y-72009698D01*
X125510000Y-71776309D01*
X125510000Y-71535750D01*
X125351250Y-71377000D01*
X124627000Y-71377000D01*
X124373000Y-71377000D01*
X123648750Y-71377000D01*
X123490000Y-71535750D01*
X116010000Y-71535750D01*
X115851250Y-71377000D01*
X115127000Y-71377000D01*
X114873000Y-71377000D01*
X114148750Y-71377000D01*
X113990000Y-71535750D01*
X112097440Y-71535750D01*
X112097440Y-70400000D01*
X112053162Y-70164683D01*
X111914090Y-69948559D01*
X111701890Y-69803569D01*
X111450000Y-69752560D01*
X109472286Y-69752560D01*
X109229012Y-69590009D01*
X108500000Y-69445000D01*
X107770988Y-69590009D01*
X107527714Y-69752560D01*
X105550000Y-69752560D01*
X105314683Y-69796838D01*
X105098559Y-69935910D01*
X104953569Y-70148110D01*
X104902560Y-70400000D01*
X56627000Y-70400000D01*
X56627000Y-61627000D01*
X131373000Y-61627000D01*
X131373000Y-64595000D01*
G36*
X89773000Y-94742750D02*
X89622000Y-94893750D01*
X89622000Y-95563000D01*
X89642000Y-95563000D01*
X89642000Y-95817000D01*
X89622000Y-95817000D01*
X89622000Y-96833000D01*
X89642000Y-96833000D01*
X89642000Y-97087000D01*
X89622000Y-97087000D01*
X89622000Y-98103000D01*
X89642000Y-98103000D01*
X89642000Y-98357000D01*
X89622000Y-98357000D01*
X89622000Y-98373000D01*
X89368000Y-98373000D01*
X89368000Y-98357000D01*
X88352000Y-98357000D01*
X88352000Y-98373000D01*
X88098000Y-98373000D01*
X88098000Y-98357000D01*
X87082000Y-98357000D01*
X87082000Y-98373000D01*
X86828000Y-98373000D01*
X86828000Y-98357000D01*
X86158750Y-98357000D01*
X86142750Y-98373000D01*
X84527000Y-98373000D01*
X84527000Y-97245750D01*
X86000000Y-97245750D01*
X86000000Y-97406310D01*
X86078158Y-97595000D01*
X86000000Y-97783690D01*
X86000000Y-97944250D01*
X86158750Y-98103000D01*
X86828000Y-98103000D01*
X86828000Y-97087000D01*
X87082000Y-97087000D01*
X87082000Y-98103000D01*
X88098000Y-98103000D01*
X88098000Y-97087000D01*
X88352000Y-97087000D01*
X88352000Y-98103000D01*
X89368000Y-98103000D01*
X89368000Y-97087000D01*
X88352000Y-97087000D01*
X88098000Y-97087000D01*
X87082000Y-97087000D01*
X86828000Y-97087000D01*
X86158750Y-97087000D01*
X86000000Y-97245750D01*
X84527000Y-97245750D01*
X84527000Y-95975750D01*
X86000000Y-95975750D01*
X86000000Y-96136310D01*
X86078158Y-96325000D01*
X86000000Y-96513690D01*
X86000000Y-96674250D01*
X86158750Y-96833000D01*
X86828000Y-96833000D01*
X86828000Y-95817000D01*
X87082000Y-95817000D01*
X87082000Y-96833000D01*
X88098000Y-96833000D01*
X88098000Y-95817000D01*
X88352000Y-95817000D01*
X88352000Y-96833000D01*
X89368000Y-96833000D01*
X89368000Y-95817000D01*
X88352000Y-95817000D01*
X88098000Y-95817000D01*
X87082000Y-95817000D01*
X86828000Y-95817000D01*
X86158750Y-95817000D01*
X86000000Y-95975750D01*
X84527000Y-95975750D01*
X84527000Y-95243690D01*
X86000000Y-95243690D01*
X86000000Y-95404250D01*
X86158750Y-95563000D01*
X86828000Y-95563000D01*
X86828000Y-94893750D01*
X87082000Y-94893750D01*
X87082000Y-95563000D01*
X88098000Y-95563000D01*
X88098000Y-94893750D01*
X88352000Y-94893750D01*
X88352000Y-95563000D01*
X89368000Y-95563000D01*
X89368000Y-94893750D01*
X89209250Y-94735000D01*
X89048691Y-94735000D01*
X88860000Y-94813158D01*
X88671309Y-94735000D01*
X88510750Y-94735000D01*
X88352000Y-94893750D01*
X88098000Y-94893750D01*
X87939250Y-94735000D01*
X87778691Y-94735000D01*
X87590000Y-94813158D01*
X87401309Y-94735000D01*
X87240750Y-94735000D01*
X87082000Y-94893750D01*
X86828000Y-94893750D01*
X86669250Y-94735000D01*
X86508691Y-94735000D01*
X86275302Y-94831673D01*
X86096673Y-95010301D01*
X86000000Y-95243690D01*
X84527000Y-95243690D01*
X84527000Y-94627000D01*
X89773000Y-94627000D01*
X89773000Y-94742750D01*
X89773000Y-94742750D01*
G37*
X89773000Y-94742750D02*
X89622000Y-94893750D01*
X89622000Y-95563000D01*
X89642000Y-95563000D01*
X89642000Y-95817000D01*
X89622000Y-95817000D01*
X89622000Y-96833000D01*
X89642000Y-96833000D01*
X89642000Y-97087000D01*
X89622000Y-97087000D01*
X89622000Y-98103000D01*
X89642000Y-98103000D01*
X89642000Y-98357000D01*
X89622000Y-98357000D01*
X89622000Y-98373000D01*
X89368000Y-98373000D01*
X89368000Y-98357000D01*
X88352000Y-98357000D01*
X88352000Y-98373000D01*
X88098000Y-98373000D01*
X88098000Y-98357000D01*
X87082000Y-98357000D01*
X87082000Y-98373000D01*
X86828000Y-98373000D01*
X86828000Y-98357000D01*
X86158750Y-98357000D01*
X86142750Y-98373000D01*
X84527000Y-98373000D01*
X84527000Y-97245750D01*
X86000000Y-97245750D01*
X86000000Y-97406310D01*
X86078158Y-97595000D01*
X86000000Y-97783690D01*
X86000000Y-97944250D01*
X86158750Y-98103000D01*
X86828000Y-98103000D01*
X86828000Y-97087000D01*
X87082000Y-97087000D01*
X87082000Y-98103000D01*
X88098000Y-98103000D01*
X88098000Y-97087000D01*
X88352000Y-97087000D01*
X88352000Y-98103000D01*
X89368000Y-98103000D01*
X89368000Y-97087000D01*
X88352000Y-97087000D01*
X88098000Y-97087000D01*
X87082000Y-97087000D01*
X86828000Y-97087000D01*
X86158750Y-97087000D01*
X86000000Y-97245750D01*
X84527000Y-97245750D01*
X84527000Y-95975750D01*
X86000000Y-95975750D01*
X86000000Y-96136310D01*
X86078158Y-96325000D01*
X86000000Y-96513690D01*
X86000000Y-96674250D01*
X86158750Y-96833000D01*
X86828000Y-96833000D01*
X86828000Y-95817000D01*
X87082000Y-95817000D01*
X87082000Y-96833000D01*
X88098000Y-96833000D01*
X88098000Y-95817000D01*
X88352000Y-95817000D01*
X88352000Y-96833000D01*
X89368000Y-96833000D01*
X89368000Y-95817000D01*
X88352000Y-95817000D01*
X88098000Y-95817000D01*
X87082000Y-95817000D01*
X86828000Y-95817000D01*
X86158750Y-95817000D01*
X86000000Y-95975750D01*
X84527000Y-95975750D01*
X84527000Y-95243690D01*
X86000000Y-95243690D01*
X86000000Y-95404250D01*
X86158750Y-95563000D01*
X86828000Y-95563000D01*
X86828000Y-94893750D01*
X87082000Y-94893750D01*
X87082000Y-95563000D01*
X88098000Y-95563000D01*
X88098000Y-94893750D01*
X88352000Y-94893750D01*
X88352000Y-95563000D01*
X89368000Y-95563000D01*
X89368000Y-94893750D01*
X89209250Y-94735000D01*
X89048691Y-94735000D01*
X88860000Y-94813158D01*
X88671309Y-94735000D01*
X88510750Y-94735000D01*
X88352000Y-94893750D01*
X88098000Y-94893750D01*
X87939250Y-94735000D01*
X87778691Y-94735000D01*
X87590000Y-94813158D01*
X87401309Y-94735000D01*
X87240750Y-94735000D01*
X87082000Y-94893750D01*
X86828000Y-94893750D01*
X86669250Y-94735000D01*
X86508691Y-94735000D01*
X86275302Y-94831673D01*
X86096673Y-95010301D01*
X86000000Y-95243690D01*
X84527000Y-95243690D01*
X84527000Y-94627000D01*
X89773000Y-94627000D01*
X89773000Y-94742750D01*
G36*
X99273000Y-99373000D02*
X94027000Y-99373000D01*
X94027000Y-99142878D01*
X94128691Y-99185000D01*
X94289250Y-99185000D01*
X94448000Y-99026250D01*
X94448000Y-98357000D01*
X94702000Y-98357000D01*
X94702000Y-99026250D01*
X94860750Y-99185000D01*
X95021309Y-99185000D01*
X95210000Y-99106842D01*
X95398691Y-99185000D01*
X95559250Y-99185000D01*
X95718000Y-99026250D01*
X95718000Y-98357000D01*
X95972000Y-98357000D01*
X95972000Y-99026250D01*
X96130750Y-99185000D01*
X96291309Y-99185000D01*
X96524698Y-99088327D01*
X96703327Y-98909699D01*
X96800000Y-98676310D01*
X96800000Y-98515750D01*
X96641250Y-98357000D01*
X95972000Y-98357000D01*
X95718000Y-98357000D01*
X94702000Y-98357000D01*
X94448000Y-98357000D01*
X94428000Y-98357000D01*
X94428000Y-98103000D01*
X94448000Y-98103000D01*
X94448000Y-97087000D01*
X94702000Y-97087000D01*
X94702000Y-98103000D01*
X95718000Y-98103000D01*
X95718000Y-97087000D01*
X95972000Y-97087000D01*
X95972000Y-98103000D01*
X96641250Y-98103000D01*
X96800000Y-97944250D01*
X96800000Y-97783690D01*
X96721842Y-97595000D01*
X96800000Y-97406310D01*
X96800000Y-97245750D01*
X96641250Y-97087000D01*
X95972000Y-97087000D01*
X95718000Y-97087000D01*
X94702000Y-97087000D01*
X94448000Y-97087000D01*
X94428000Y-97087000D01*
X94428000Y-96833000D01*
X94448000Y-96833000D01*
X94448000Y-95817000D01*
X94702000Y-95817000D01*
X94702000Y-96833000D01*
X95718000Y-96833000D01*
X95718000Y-95817000D01*
X95972000Y-95817000D01*
X95972000Y-96833000D01*
X96641250Y-96833000D01*
X96800000Y-96674250D01*
X96800000Y-96513690D01*
X96721842Y-96325000D01*
X96800000Y-96136310D01*
X96800000Y-95975750D01*
X96641250Y-95817000D01*
X95972000Y-95817000D01*
X95718000Y-95817000D01*
X94702000Y-95817000D01*
X94448000Y-95817000D01*
X94428000Y-95817000D01*
X94428000Y-95563000D01*
X94448000Y-95563000D01*
X94448000Y-94893750D01*
X94702000Y-94893750D01*
X94702000Y-95563000D01*
X95718000Y-95563000D01*
X95718000Y-94893750D01*
X95972000Y-94893750D01*
X95972000Y-95563000D01*
X96641250Y-95563000D01*
X96800000Y-95404250D01*
X96800000Y-95243690D01*
X96703327Y-95010301D01*
X96524698Y-94831673D01*
X96291309Y-94735000D01*
X96130750Y-94735000D01*
X95972000Y-94893750D01*
X95718000Y-94893750D01*
X95559250Y-94735000D01*
X95398691Y-94735000D01*
X95210000Y-94813158D01*
X95021309Y-94735000D01*
X94860750Y-94735000D01*
X94702000Y-94893750D01*
X94448000Y-94893750D01*
X94289250Y-94735000D01*
X94128691Y-94735000D01*
X94027000Y-94777122D01*
X94027000Y-94627000D01*
X99273000Y-94627000D01*
X99273000Y-99373000D01*
X99273000Y-99373000D01*
G37*
X99273000Y-99373000D02*
X94027000Y-99373000D01*
X94027000Y-99142878D01*
X94128691Y-99185000D01*
X94289250Y-99185000D01*
X94448000Y-99026250D01*
X94448000Y-98357000D01*
X94702000Y-98357000D01*
X94702000Y-99026250D01*
X94860750Y-99185000D01*
X95021309Y-99185000D01*
X95210000Y-99106842D01*
X95398691Y-99185000D01*
X95559250Y-99185000D01*
X95718000Y-99026250D01*
X95718000Y-98357000D01*
X95972000Y-98357000D01*
X95972000Y-99026250D01*
X96130750Y-99185000D01*
X96291309Y-99185000D01*
X96524698Y-99088327D01*
X96703327Y-98909699D01*
X96800000Y-98676310D01*
X96800000Y-98515750D01*
X96641250Y-98357000D01*
X95972000Y-98357000D01*
X95718000Y-98357000D01*
X94702000Y-98357000D01*
X94448000Y-98357000D01*
X94428000Y-98357000D01*
X94428000Y-98103000D01*
X94448000Y-98103000D01*
X94448000Y-97087000D01*
X94702000Y-97087000D01*
X94702000Y-98103000D01*
X95718000Y-98103000D01*
X95718000Y-97087000D01*
X95972000Y-97087000D01*
X95972000Y-98103000D01*
X96641250Y-98103000D01*
X96800000Y-97944250D01*
X96800000Y-97783690D01*
X96721842Y-97595000D01*
X96800000Y-97406310D01*
X96800000Y-97245750D01*
X96641250Y-97087000D01*
X95972000Y-97087000D01*
X95718000Y-97087000D01*
X94702000Y-97087000D01*
X94448000Y-97087000D01*
X94428000Y-97087000D01*
X94428000Y-96833000D01*
X94448000Y-96833000D01*
X94448000Y-95817000D01*
X94702000Y-95817000D01*
X94702000Y-96833000D01*
X95718000Y-96833000D01*
X95718000Y-95817000D01*
X95972000Y-95817000D01*
X95972000Y-96833000D01*
X96641250Y-96833000D01*
X96800000Y-96674250D01*
X96800000Y-96513690D01*
X96721842Y-96325000D01*
X96800000Y-96136310D01*
X96800000Y-95975750D01*
X96641250Y-95817000D01*
X95972000Y-95817000D01*
X95718000Y-95817000D01*
X94702000Y-95817000D01*
X94448000Y-95817000D01*
X94428000Y-95817000D01*
X94428000Y-95563000D01*
X94448000Y-95563000D01*
X94448000Y-94893750D01*
X94702000Y-94893750D01*
X94702000Y-95563000D01*
X95718000Y-95563000D01*
X95718000Y-94893750D01*
X95972000Y-94893750D01*
X95972000Y-95563000D01*
X96641250Y-95563000D01*
X96800000Y-95404250D01*
X96800000Y-95243690D01*
X96703327Y-95010301D01*
X96524698Y-94831673D01*
X96291309Y-94735000D01*
X96130750Y-94735000D01*
X95972000Y-94893750D01*
X95718000Y-94893750D01*
X95559250Y-94735000D01*
X95398691Y-94735000D01*
X95210000Y-94813158D01*
X95021309Y-94735000D01*
X94860750Y-94735000D01*
X94702000Y-94893750D01*
X94448000Y-94893750D01*
X94289250Y-94735000D01*
X94128691Y-94735000D01*
X94027000Y-94777122D01*
X94027000Y-94627000D01*
X99273000Y-94627000D01*
X99273000Y-99373000D01*
G36*
X104902560Y-13600000D02*
X104946838Y-13835317D01*
X105085910Y-14051441D01*
X105298110Y-14196431D01*
X105550000Y-14247440D01*
X107527714Y-14247440D01*
X107770988Y-14409991D01*
X108500000Y-14555000D01*
X114360924Y-14555000D01*
X115863369Y-16057446D01*
X115896838Y-16235317D01*
X116035910Y-16451441D01*
X116248110Y-16596431D01*
X116500000Y-16647440D01*
X116602544Y-16647440D01*
X116738076Y-16738000D01*
X116770988Y-16759991D01*
X117500000Y-16905000D01*
X118190100Y-16767731D01*
X118270581Y-16848212D01*
X118253569Y-16873110D01*
X118202560Y-17125000D01*
X118202560Y-17875000D01*
X118246838Y-18110317D01*
X118385910Y-18326441D01*
X118488000Y-18396196D01*
X118488000Y-18603356D01*
X118398559Y-18660910D01*
X118253569Y-18873110D01*
X118202560Y-19125000D01*
X118202560Y-19875000D01*
X118246838Y-20110317D01*
X118385910Y-20326441D01*
X118598110Y-20471431D01*
X118850000Y-20522440D01*
X119650000Y-20522440D01*
X119885317Y-20478162D01*
X119988646Y-20411671D01*
X119990302Y-20413327D01*
X120223691Y-20510000D01*
X120464250Y-20510000D01*
X120623000Y-20351250D01*
X120623000Y-19627000D01*
X120877000Y-19627000D01*
X120877000Y-20351250D01*
X121035750Y-20510000D01*
X121276309Y-20510000D01*
X121509698Y-20413327D01*
X121688327Y-20234699D01*
X121785000Y-20001310D01*
X121785000Y-19785750D01*
X121626250Y-19627000D01*
X120877000Y-19627000D01*
X120623000Y-19627000D01*
X120603000Y-19627000D01*
X120603000Y-19373000D01*
X120623000Y-19373000D01*
X120623000Y-18648750D01*
X120474250Y-18500000D01*
X120623000Y-18351250D01*
X120623000Y-17627000D01*
X120877000Y-17627000D01*
X120877000Y-18351250D01*
X121025750Y-18500000D01*
X120877000Y-18648750D01*
X120877000Y-19373000D01*
X121626250Y-19373000D01*
X121785000Y-19214250D01*
X121785000Y-18998690D01*
X121688327Y-18765301D01*
X121509698Y-18586673D01*
X121300451Y-18500000D01*
X121509698Y-18413327D01*
X121688327Y-18234699D01*
X121785000Y-18001310D01*
X121785000Y-17785750D01*
X121626250Y-17627000D01*
X120877000Y-17627000D01*
X120623000Y-17627000D01*
X120603000Y-17627000D01*
X120603000Y-17373000D01*
X120623000Y-17373000D01*
X120623000Y-16648750D01*
X120877000Y-16648750D01*
X120877000Y-17373000D01*
X121626250Y-17373000D01*
X121785000Y-17214250D01*
X121785000Y-16998690D01*
X121688327Y-16765301D01*
X121509698Y-16586673D01*
X121276309Y-16490000D01*
X121035750Y-16490000D01*
X120877000Y-16648750D01*
X120623000Y-16648750D01*
X120464250Y-16490000D01*
X120223691Y-16490000D01*
X119990302Y-16586673D01*
X119988932Y-16588043D01*
X119978346Y-16580809D01*
X119953996Y-16458395D01*
X119879589Y-16347038D01*
X119788816Y-16211185D01*
X119267731Y-15690100D01*
X119335970Y-15347038D01*
X119405000Y-15000000D01*
X119405000Y-14789076D01*
X120789076Y-13405000D01*
X128210924Y-13405000D01*
X133873000Y-19067076D01*
X133873000Y-28672560D01*
X129070000Y-28672560D01*
X128834683Y-28716838D01*
X128618559Y-28855910D01*
X128473569Y-29068110D01*
X128422560Y-29320000D01*
X128422560Y-32680000D01*
X128466838Y-32915317D01*
X128605910Y-33131441D01*
X128818110Y-33276431D01*
X129070000Y-33327440D01*
X133873000Y-33327440D01*
X133873000Y-59873000D01*
X96127000Y-59873000D01*
X96127000Y-46350000D01*
X101595000Y-46350000D01*
X101595000Y-52000000D01*
X101613897Y-52095000D01*
X101740009Y-52729012D01*
X102152962Y-53347038D01*
X104152961Y-55347038D01*
X104770988Y-55759991D01*
X105500000Y-55905000D01*
X106591718Y-55905000D01*
X106707242Y-56020726D01*
X107583513Y-56384585D01*
X108532325Y-56385413D01*
X109409229Y-56023084D01*
X110080726Y-55352758D01*
X110444585Y-54476487D01*
X110445413Y-53527675D01*
X110083084Y-52650771D01*
X109412758Y-51979274D01*
X108536487Y-51615415D01*
X107587675Y-51614587D01*
X106710771Y-51976916D01*
X106592481Y-52095000D01*
X106289077Y-52095000D01*
X105405000Y-51210924D01*
X105405000Y-47139076D01*
X109796637Y-42747440D01*
X111450000Y-42747440D01*
X111685317Y-42703162D01*
X111901441Y-42564090D01*
X112046431Y-42351890D01*
X112097440Y-42100000D01*
X112097440Y-40400000D01*
X112053162Y-40164683D01*
X111914090Y-39948559D01*
X111701890Y-39803569D01*
X111450000Y-39752560D01*
X109472287Y-39752560D01*
X109229012Y-39590009D01*
X108500000Y-39445000D01*
X107770988Y-39590009D01*
X107527713Y-39752560D01*
X105550000Y-39752560D01*
X105314683Y-39796838D01*
X105098559Y-39935910D01*
X104953569Y-40148110D01*
X104902560Y-40400000D01*
X104902560Y-42100000D01*
X104926847Y-42229076D01*
X102152962Y-45002962D01*
X101740009Y-45620988D01*
X101595000Y-46350000D01*
X96127000Y-46350000D01*
X96127000Y-39785750D01*
X100215000Y-39785750D01*
X100215000Y-40001310D01*
X100311673Y-40234699D01*
X100490302Y-40413327D01*
X100723691Y-40510000D01*
X100964250Y-40510000D01*
X101123000Y-40351250D01*
X101123000Y-39627000D01*
X100373750Y-39627000D01*
X100215000Y-39785750D01*
X96127000Y-39785750D01*
X96127000Y-38998690D01*
X100215000Y-38998690D01*
X100215000Y-39214250D01*
X100373750Y-39373000D01*
X101123000Y-39373000D01*
X101123000Y-38648750D01*
X100964250Y-38490000D01*
X100723691Y-38490000D01*
X100490302Y-38586673D01*
X100311673Y-38765301D01*
X100215000Y-38998690D01*
X96127000Y-38998690D01*
X96127000Y-37285750D01*
X100215000Y-37285750D01*
X100215000Y-37501310D01*
X100311673Y-37734699D01*
X100490302Y-37913327D01*
X100723691Y-38010000D01*
X100964250Y-38010000D01*
X101123000Y-37851250D01*
X101123000Y-37127000D01*
X100373750Y-37127000D01*
X100215000Y-37285750D01*
X96127000Y-37285750D01*
X96127000Y-36498690D01*
X100215000Y-36498690D01*
X100215000Y-36714250D01*
X100373750Y-36873000D01*
X101123000Y-36873000D01*
X101123000Y-36148750D01*
X101377000Y-36148750D01*
X101377000Y-36873000D01*
X101397000Y-36873000D01*
X101397000Y-37127000D01*
X101377000Y-37127000D01*
X101377000Y-37851250D01*
X101535750Y-38010000D01*
X101776309Y-38010000D01*
X101988000Y-37922315D01*
X101988000Y-38577685D01*
X101776309Y-38490000D01*
X101535750Y-38490000D01*
X101377000Y-38648750D01*
X101377000Y-39373000D01*
X101397000Y-39373000D01*
X101397000Y-39627000D01*
X101377000Y-39627000D01*
X101377000Y-40351250D01*
X101535750Y-40510000D01*
X101776309Y-40510000D01*
X102009698Y-40413327D01*
X102011068Y-40411957D01*
X102098110Y-40471431D01*
X102350000Y-40522440D01*
X103150000Y-40522440D01*
X103385317Y-40478162D01*
X103601441Y-40339090D01*
X103746431Y-40126890D01*
X103797440Y-39875000D01*
X103797440Y-39125000D01*
X103753162Y-38889683D01*
X103614090Y-38673559D01*
X103512000Y-38603804D01*
X103512000Y-37896644D01*
X103601441Y-37839090D01*
X103746431Y-37626890D01*
X103789947Y-37412000D01*
X104902560Y-37412000D01*
X104902560Y-37600000D01*
X104946838Y-37835317D01*
X105085910Y-38051441D01*
X105298110Y-38196431D01*
X105550000Y-38247440D01*
X107527714Y-38247440D01*
X107770988Y-38409991D01*
X108500000Y-38555000D01*
X109229012Y-38409991D01*
X109472286Y-38247440D01*
X110502376Y-38247440D01*
X115912500Y-43657564D01*
X115912500Y-46735039D01*
X115903569Y-46748110D01*
X115852560Y-47000000D01*
X115852560Y-49000000D01*
X115896838Y-49235317D01*
X116035910Y-49451441D01*
X116248110Y-49596431D01*
X116500000Y-49647440D01*
X118500000Y-49647440D01*
X118735317Y-49603162D01*
X118951441Y-49464090D01*
X119096431Y-49251890D01*
X119147440Y-49000000D01*
X119147440Y-47000000D01*
X119103162Y-46764683D01*
X119087500Y-46740344D01*
X119087500Y-43000000D01*
X118966659Y-42392490D01*
X118622532Y-41877468D01*
X112272532Y-35527468D01*
X111757510Y-35183341D01*
X111150000Y-35062500D01*
X110405000Y-35062500D01*
X110405000Y-34747440D01*
X111450000Y-34747440D01*
X111685317Y-34703162D01*
X111901441Y-34564090D01*
X112046431Y-34351890D01*
X112097440Y-34100000D01*
X112097440Y-32400000D01*
X112053162Y-32164683D01*
X111914090Y-31948559D01*
X111701890Y-31803569D01*
X111450000Y-31752560D01*
X109472286Y-31752560D01*
X109229012Y-31590009D01*
X108500000Y-31445000D01*
X107770988Y-31590009D01*
X107527714Y-31752560D01*
X105550000Y-31752560D01*
X105314683Y-31796838D01*
X105098559Y-31935910D01*
X104953569Y-32148110D01*
X104902560Y-32400000D01*
X104902560Y-34100000D01*
X104946838Y-34335317D01*
X105085910Y-34551441D01*
X105298110Y-34696431D01*
X105550000Y-34747440D01*
X106595000Y-34747440D01*
X106595000Y-35252560D01*
X105550000Y-35252560D01*
X105314683Y-35296838D01*
X105098559Y-35435910D01*
X104953569Y-35648110D01*
X104904990Y-35888000D01*
X103100000Y-35888000D01*
X102808395Y-35946004D01*
X102761168Y-35977560D01*
X102350000Y-35977560D01*
X102114683Y-36021838D01*
X102011354Y-36088329D01*
X102009698Y-36086673D01*
X101776309Y-35990000D01*
X101535750Y-35990000D01*
X101377000Y-36148750D01*
X101123000Y-36148750D01*
X100964250Y-35990000D01*
X100723691Y-35990000D01*
X100490302Y-36086673D01*
X100311673Y-36265301D01*
X100215000Y-36498690D01*
X96127000Y-36498690D01*
X96127000Y-16400000D01*
X104902560Y-16400000D01*
X104902560Y-18100000D01*
X104946838Y-18335317D01*
X105085910Y-18551441D01*
X105298110Y-18696431D01*
X105550000Y-18747440D01*
X106595000Y-18747440D01*
X106595000Y-19252560D01*
X105550000Y-19252560D01*
X105314683Y-19296838D01*
X105098559Y-19435910D01*
X104953569Y-19648110D01*
X104902560Y-19900000D01*
X104902560Y-21600000D01*
X104946838Y-21835317D01*
X105085910Y-22051441D01*
X105298110Y-22196431D01*
X105550000Y-22247440D01*
X107527714Y-22247440D01*
X107770988Y-22409991D01*
X108500000Y-22555000D01*
X109229012Y-22409991D01*
X109472286Y-22247440D01*
X111450000Y-22247440D01*
X111494081Y-22239145D01*
X115852560Y-26597624D01*
X115852560Y-27000000D01*
X115896838Y-27235317D01*
X116035910Y-27451441D01*
X116074136Y-27477560D01*
X115850000Y-27477560D01*
X115614683Y-27521838D01*
X115398559Y-27660910D01*
X115345886Y-27738000D01*
X113983064Y-27738000D01*
X113772532Y-27527468D01*
X113257510Y-27183341D01*
X112650000Y-27062500D01*
X110405000Y-27062500D01*
X110405000Y-26747440D01*
X111450000Y-26747440D01*
X111685317Y-26703162D01*
X111901441Y-26564090D01*
X112046431Y-26351890D01*
X112097440Y-26100000D01*
X112097440Y-24400000D01*
X112053162Y-24164683D01*
X111914090Y-23948559D01*
X111701890Y-23803569D01*
X111450000Y-23752560D01*
X109472286Y-23752560D01*
X109229012Y-23590009D01*
X108500000Y-23445000D01*
X107770988Y-23590009D01*
X107527714Y-23752560D01*
X105550000Y-23752560D01*
X105314683Y-23796838D01*
X105098559Y-23935910D01*
X104953569Y-24148110D01*
X104902560Y-24400000D01*
X104902560Y-26100000D01*
X104946838Y-26335317D01*
X105085910Y-26551441D01*
X105298110Y-26696431D01*
X105550000Y-26747440D01*
X106595000Y-26747440D01*
X106595000Y-27252560D01*
X105550000Y-27252560D01*
X105314683Y-27296838D01*
X105098559Y-27435910D01*
X104953569Y-27648110D01*
X104902560Y-27900000D01*
X104902560Y-29600000D01*
X104946838Y-29835317D01*
X105085910Y-30051441D01*
X105298110Y-30196431D01*
X105550000Y-30247440D01*
X107527714Y-30247440D01*
X107770988Y-30409991D01*
X108500000Y-30555000D01*
X109229012Y-30409991D01*
X109472286Y-30247440D01*
X111450000Y-30247440D01*
X111502826Y-30237500D01*
X111992436Y-30237500D01*
X115912500Y-34157564D01*
X115912500Y-35735039D01*
X115903569Y-35748110D01*
X115852560Y-36000000D01*
X115852560Y-38000000D01*
X115896838Y-38235317D01*
X116035910Y-38451441D01*
X116248110Y-38596431D01*
X116500000Y-38647440D01*
X118500000Y-38647440D01*
X118735317Y-38603162D01*
X118951441Y-38464090D01*
X119096431Y-38251890D01*
X119147440Y-38000000D01*
X119147440Y-36000000D01*
X119103162Y-35764683D01*
X119087500Y-35740344D01*
X119087500Y-33500000D01*
X118966659Y-32892490D01*
X118622532Y-32377468D01*
X117507064Y-31262000D01*
X117844443Y-31262000D01*
X117885910Y-31326441D01*
X118098110Y-31471431D01*
X118350000Y-31522440D01*
X119150000Y-31522440D01*
X119385317Y-31478162D01*
X119488646Y-31411671D01*
X119490302Y-31413327D01*
X119723691Y-31510000D01*
X119964250Y-31510000D01*
X120123000Y-31351250D01*
X120123000Y-30627000D01*
X120377000Y-30627000D01*
X120377000Y-31351250D01*
X120535750Y-31510000D01*
X120776309Y-31510000D01*
X121009698Y-31413327D01*
X121188327Y-31234699D01*
X121285000Y-31001310D01*
X121285000Y-30785750D01*
X121126250Y-30627000D01*
X120377000Y-30627000D01*
X120123000Y-30627000D01*
X120103000Y-30627000D01*
X120103000Y-30373000D01*
X120123000Y-30373000D01*
X120123000Y-29648750D01*
X120377000Y-29648750D01*
X120377000Y-30373000D01*
X121126250Y-30373000D01*
X121285000Y-30214250D01*
X121285000Y-29998690D01*
X121188327Y-29765301D01*
X121009698Y-29586673D01*
X120776309Y-29490000D01*
X120535750Y-29490000D01*
X120377000Y-29648750D01*
X120123000Y-29648750D01*
X119964250Y-29490000D01*
X119723691Y-29490000D01*
X119490302Y-29586673D01*
X119488932Y-29588043D01*
X119401890Y-29528569D01*
X119150000Y-29477560D01*
X118354626Y-29477560D01*
X118509698Y-29413327D01*
X118688327Y-29234699D01*
X118785000Y-29001310D01*
X118785000Y-28785750D01*
X118626250Y-28627000D01*
X117877000Y-28627000D01*
X117877000Y-29351250D01*
X118035750Y-29510000D01*
X118177596Y-29510000D01*
X118114683Y-29521838D01*
X117898559Y-29660910D01*
X117845886Y-29738000D01*
X115983064Y-29738000D01*
X115746556Y-29501492D01*
X115850000Y-29522440D01*
X116650000Y-29522440D01*
X116885317Y-29478162D01*
X116988646Y-29411671D01*
X116990302Y-29413327D01*
X117223691Y-29510000D01*
X117464250Y-29510000D01*
X117623000Y-29351250D01*
X117623000Y-28627000D01*
X117603000Y-28627000D01*
X117603000Y-28373000D01*
X117623000Y-28373000D01*
X117623000Y-28353000D01*
X117877000Y-28353000D01*
X117877000Y-28373000D01*
X118626250Y-28373000D01*
X118785000Y-28214250D01*
X118785000Y-27998690D01*
X118688327Y-27765301D01*
X118559306Y-27636281D01*
X118735317Y-27603162D01*
X118951441Y-27464090D01*
X119096431Y-27251890D01*
X119147440Y-27000000D01*
X119147440Y-25430190D01*
X119288815Y-25288815D01*
X119453996Y-25041605D01*
X119512000Y-24750000D01*
X119512000Y-23922315D01*
X119723691Y-24010000D01*
X119964250Y-24010000D01*
X120123000Y-23851250D01*
X120123000Y-23127000D01*
X120377000Y-23127000D01*
X120377000Y-23851250D01*
X120535750Y-24010000D01*
X120776309Y-24010000D01*
X121009698Y-23913327D01*
X121188327Y-23734699D01*
X121285000Y-23501310D01*
X121285000Y-23285750D01*
X121126250Y-23127000D01*
X120377000Y-23127000D01*
X120123000Y-23127000D01*
X120103000Y-23127000D01*
X120103000Y-22873000D01*
X120123000Y-22873000D01*
X120123000Y-22148750D01*
X120377000Y-22148750D01*
X120377000Y-22873000D01*
X121126250Y-22873000D01*
X121285000Y-22714250D01*
X121285000Y-22498690D01*
X121188327Y-22265301D01*
X121009698Y-22086673D01*
X120776309Y-21990000D01*
X120535750Y-21990000D01*
X120377000Y-22148750D01*
X120123000Y-22148750D01*
X119964250Y-21990000D01*
X119723691Y-21990000D01*
X119490302Y-22086673D01*
X119488932Y-22088043D01*
X119401890Y-22028569D01*
X119150000Y-21977560D01*
X118350000Y-21977560D01*
X118114683Y-22021838D01*
X117898559Y-22160910D01*
X117753569Y-22373110D01*
X117702560Y-22625000D01*
X117702560Y-23375000D01*
X117746838Y-23610317D01*
X117885910Y-23826441D01*
X117988000Y-23896196D01*
X117988000Y-24242936D01*
X115411347Y-21666283D01*
X115788815Y-21288816D01*
X115953996Y-21041605D01*
X115954551Y-21038815D01*
X116012000Y-20750000D01*
X116012000Y-19422315D01*
X116223691Y-19510000D01*
X116464250Y-19510000D01*
X116623000Y-19351250D01*
X116623000Y-18627000D01*
X116877000Y-18627000D01*
X116877000Y-19351250D01*
X117035750Y-19510000D01*
X117276309Y-19510000D01*
X117509698Y-19413327D01*
X117688327Y-19234699D01*
X117785000Y-19001310D01*
X117785000Y-18785750D01*
X117626250Y-18627000D01*
X116877000Y-18627000D01*
X116623000Y-18627000D01*
X116603000Y-18627000D01*
X116603000Y-18373000D01*
X116623000Y-18373000D01*
X116623000Y-17648750D01*
X116877000Y-17648750D01*
X116877000Y-18373000D01*
X117626250Y-18373000D01*
X117785000Y-18214250D01*
X117785000Y-17998690D01*
X117688327Y-17765301D01*
X117509698Y-17586673D01*
X117276309Y-17490000D01*
X117035750Y-17490000D01*
X116877000Y-17648750D01*
X116623000Y-17648750D01*
X116464250Y-17490000D01*
X116223691Y-17490000D01*
X115990302Y-17586673D01*
X115988932Y-17588043D01*
X115901890Y-17528569D01*
X115650000Y-17477560D01*
X114850000Y-17477560D01*
X114614683Y-17521838D01*
X114398559Y-17660910D01*
X114253569Y-17873110D01*
X114202560Y-18125000D01*
X114202560Y-18875000D01*
X114246838Y-19110317D01*
X114385910Y-19326441D01*
X114488000Y-19396196D01*
X114488000Y-20434369D01*
X114333717Y-20588653D01*
X113122532Y-19377468D01*
X112607510Y-19033341D01*
X112000000Y-18912500D01*
X110405000Y-18912500D01*
X110405000Y-18747440D01*
X111450000Y-18747440D01*
X111685317Y-18703162D01*
X111901441Y-18564090D01*
X112046431Y-18351890D01*
X112097440Y-18100000D01*
X112097440Y-16400000D01*
X112053162Y-16164683D01*
X111914090Y-15948559D01*
X111701890Y-15803569D01*
X111450000Y-15752560D01*
X109472286Y-15752560D01*
X109229012Y-15590009D01*
X108500000Y-15445000D01*
X107770988Y-15590009D01*
X107527714Y-15752560D01*
X105550000Y-15752560D01*
X105314683Y-15796838D01*
X105098559Y-15935910D01*
X104953569Y-16148110D01*
X104902560Y-16400000D01*
X96127000Y-16400000D01*
X96127000Y-12127000D01*
X104902560Y-12127000D01*
X104902560Y-13600000D01*
X104902560Y-13600000D01*
G37*
X104902560Y-13600000D02*
X104946838Y-13835317D01*
X105085910Y-14051441D01*
X105298110Y-14196431D01*
X105550000Y-14247440D01*
X107527714Y-14247440D01*
X107770988Y-14409991D01*
X108500000Y-14555000D01*
X114360924Y-14555000D01*
X115863369Y-16057446D01*
X115896838Y-16235317D01*
X116035910Y-16451441D01*
X116248110Y-16596431D01*
X116500000Y-16647440D01*
X116602544Y-16647440D01*
X116738076Y-16738000D01*
X116770988Y-16759991D01*
X117500000Y-16905000D01*
X118190100Y-16767731D01*
X118270581Y-16848212D01*
X118253569Y-16873110D01*
X118202560Y-17125000D01*
X118202560Y-17875000D01*
X118246838Y-18110317D01*
X118385910Y-18326441D01*
X118488000Y-18396196D01*
X118488000Y-18603356D01*
X118398559Y-18660910D01*
X118253569Y-18873110D01*
X118202560Y-19125000D01*
X118202560Y-19875000D01*
X118246838Y-20110317D01*
X118385910Y-20326441D01*
X118598110Y-20471431D01*
X118850000Y-20522440D01*
X119650000Y-20522440D01*
X119885317Y-20478162D01*
X119988646Y-20411671D01*
X119990302Y-20413327D01*
X120223691Y-20510000D01*
X120464250Y-20510000D01*
X120623000Y-20351250D01*
X120623000Y-19627000D01*
X120877000Y-19627000D01*
X120877000Y-20351250D01*
X121035750Y-20510000D01*
X121276309Y-20510000D01*
X121509698Y-20413327D01*
X121688327Y-20234699D01*
X121785000Y-20001310D01*
X121785000Y-19785750D01*
X121626250Y-19627000D01*
X120877000Y-19627000D01*
X120623000Y-19627000D01*
X120603000Y-19627000D01*
X120603000Y-19373000D01*
X120623000Y-19373000D01*
X120623000Y-18648750D01*
X120474250Y-18500000D01*
X120623000Y-18351250D01*
X120623000Y-17627000D01*
X120877000Y-17627000D01*
X120877000Y-18351250D01*
X121025750Y-18500000D01*
X120877000Y-18648750D01*
X120877000Y-19373000D01*
X121626250Y-19373000D01*
X121785000Y-19214250D01*
X121785000Y-18998690D01*
X121688327Y-18765301D01*
X121509698Y-18586673D01*
X121300451Y-18500000D01*
X121509698Y-18413327D01*
X121688327Y-18234699D01*
X121785000Y-18001310D01*
X121785000Y-17785750D01*
X121626250Y-17627000D01*
X120877000Y-17627000D01*
X120623000Y-17627000D01*
X120603000Y-17627000D01*
X120603000Y-17373000D01*
X120623000Y-17373000D01*
X120623000Y-16648750D01*
X120877000Y-16648750D01*
X120877000Y-17373000D01*
X121626250Y-17373000D01*
X121785000Y-17214250D01*
X121785000Y-16998690D01*
X121688327Y-16765301D01*
X121509698Y-16586673D01*
X121276309Y-16490000D01*
X121035750Y-16490000D01*
X120877000Y-16648750D01*
X120623000Y-16648750D01*
X120464250Y-16490000D01*
X120223691Y-16490000D01*
X119990302Y-16586673D01*
X119988932Y-16588043D01*
X119978346Y-16580809D01*
X119953996Y-16458395D01*
X119879589Y-16347038D01*
X119788816Y-16211185D01*
X119267731Y-15690100D01*
X119335970Y-15347038D01*
X119405000Y-15000000D01*
X119405000Y-14789076D01*
X120789076Y-13405000D01*
X128210924Y-13405000D01*
X133873000Y-19067076D01*
X133873000Y-28672560D01*
X129070000Y-28672560D01*
X128834683Y-28716838D01*
X128618559Y-28855910D01*
X128473569Y-29068110D01*
X128422560Y-29320000D01*
X128422560Y-32680000D01*
X128466838Y-32915317D01*
X128605910Y-33131441D01*
X128818110Y-33276431D01*
X129070000Y-33327440D01*
X133873000Y-33327440D01*
X133873000Y-59873000D01*
X96127000Y-59873000D01*
X96127000Y-46350000D01*
X101595000Y-46350000D01*
X101595000Y-52000000D01*
X101613897Y-52095000D01*
X101740009Y-52729012D01*
X102152962Y-53347038D01*
X104152961Y-55347038D01*
X104770988Y-55759991D01*
X105500000Y-55905000D01*
X106591718Y-55905000D01*
X106707242Y-56020726D01*
X107583513Y-56384585D01*
X108532325Y-56385413D01*
X109409229Y-56023084D01*
X110080726Y-55352758D01*
X110444585Y-54476487D01*
X110445413Y-53527675D01*
X110083084Y-52650771D01*
X109412758Y-51979274D01*
X108536487Y-51615415D01*
X107587675Y-51614587D01*
X106710771Y-51976916D01*
X106592481Y-52095000D01*
X106289077Y-52095000D01*
X105405000Y-51210924D01*
X105405000Y-47139076D01*
X109796637Y-42747440D01*
X111450000Y-42747440D01*
X111685317Y-42703162D01*
X111901441Y-42564090D01*
X112046431Y-42351890D01*
X112097440Y-42100000D01*
X112097440Y-40400000D01*
X112053162Y-40164683D01*
X111914090Y-39948559D01*
X111701890Y-39803569D01*
X111450000Y-39752560D01*
X109472287Y-39752560D01*
X109229012Y-39590009D01*
X108500000Y-39445000D01*
X107770988Y-39590009D01*
X107527713Y-39752560D01*
X105550000Y-39752560D01*
X105314683Y-39796838D01*
X105098559Y-39935910D01*
X104953569Y-40148110D01*
X104902560Y-40400000D01*
X104902560Y-42100000D01*
X104926847Y-42229076D01*
X102152962Y-45002962D01*
X101740009Y-45620988D01*
X101595000Y-46350000D01*
X96127000Y-46350000D01*
X96127000Y-39785750D01*
X100215000Y-39785750D01*
X100215000Y-40001310D01*
X100311673Y-40234699D01*
X100490302Y-40413327D01*
X100723691Y-40510000D01*
X100964250Y-40510000D01*
X101123000Y-40351250D01*
X101123000Y-39627000D01*
X100373750Y-39627000D01*
X100215000Y-39785750D01*
X96127000Y-39785750D01*
X96127000Y-38998690D01*
X100215000Y-38998690D01*
X100215000Y-39214250D01*
X100373750Y-39373000D01*
X101123000Y-39373000D01*
X101123000Y-38648750D01*
X100964250Y-38490000D01*
X100723691Y-38490000D01*
X100490302Y-38586673D01*
X100311673Y-38765301D01*
X100215000Y-38998690D01*
X96127000Y-38998690D01*
X96127000Y-37285750D01*
X100215000Y-37285750D01*
X100215000Y-37501310D01*
X100311673Y-37734699D01*
X100490302Y-37913327D01*
X100723691Y-38010000D01*
X100964250Y-38010000D01*
X101123000Y-37851250D01*
X101123000Y-37127000D01*
X100373750Y-37127000D01*
X100215000Y-37285750D01*
X96127000Y-37285750D01*
X96127000Y-36498690D01*
X100215000Y-36498690D01*
X100215000Y-36714250D01*
X100373750Y-36873000D01*
X101123000Y-36873000D01*
X101123000Y-36148750D01*
X101377000Y-36148750D01*
X101377000Y-36873000D01*
X101397000Y-36873000D01*
X101397000Y-37127000D01*
X101377000Y-37127000D01*
X101377000Y-37851250D01*
X101535750Y-38010000D01*
X101776309Y-38010000D01*
X101988000Y-37922315D01*
X101988000Y-38577685D01*
X101776309Y-38490000D01*
X101535750Y-38490000D01*
X101377000Y-38648750D01*
X101377000Y-39373000D01*
X101397000Y-39373000D01*
X101397000Y-39627000D01*
X101377000Y-39627000D01*
X101377000Y-40351250D01*
X101535750Y-40510000D01*
X101776309Y-40510000D01*
X102009698Y-40413327D01*
X102011068Y-40411957D01*
X102098110Y-40471431D01*
X102350000Y-40522440D01*
X103150000Y-40522440D01*
X103385317Y-40478162D01*
X103601441Y-40339090D01*
X103746431Y-40126890D01*
X103797440Y-39875000D01*
X103797440Y-39125000D01*
X103753162Y-38889683D01*
X103614090Y-38673559D01*
X103512000Y-38603804D01*
X103512000Y-37896644D01*
X103601441Y-37839090D01*
X103746431Y-37626890D01*
X103789947Y-37412000D01*
X104902560Y-37412000D01*
X104902560Y-37600000D01*
X104946838Y-37835317D01*
X105085910Y-38051441D01*
X105298110Y-38196431D01*
X105550000Y-38247440D01*
X107527714Y-38247440D01*
X107770988Y-38409991D01*
X108500000Y-38555000D01*
X109229012Y-38409991D01*
X109472286Y-38247440D01*
X110502376Y-38247440D01*
X115912500Y-43657564D01*
X115912500Y-46735039D01*
X115903569Y-46748110D01*
X115852560Y-47000000D01*
X115852560Y-49000000D01*
X115896838Y-49235317D01*
X116035910Y-49451441D01*
X116248110Y-49596431D01*
X116500000Y-49647440D01*
X118500000Y-49647440D01*
X118735317Y-49603162D01*
X118951441Y-49464090D01*
X119096431Y-49251890D01*
X119147440Y-49000000D01*
X119147440Y-47000000D01*
X119103162Y-46764683D01*
X119087500Y-46740344D01*
X119087500Y-43000000D01*
X118966659Y-42392490D01*
X118622532Y-41877468D01*
X112272532Y-35527468D01*
X111757510Y-35183341D01*
X111150000Y-35062500D01*
X110405000Y-35062500D01*
X110405000Y-34747440D01*
X111450000Y-34747440D01*
X111685317Y-34703162D01*
X111901441Y-34564090D01*
X112046431Y-34351890D01*
X112097440Y-34100000D01*
X112097440Y-32400000D01*
X112053162Y-32164683D01*
X111914090Y-31948559D01*
X111701890Y-31803569D01*
X111450000Y-31752560D01*
X109472286Y-31752560D01*
X109229012Y-31590009D01*
X108500000Y-31445000D01*
X107770988Y-31590009D01*
X107527714Y-31752560D01*
X105550000Y-31752560D01*
X105314683Y-31796838D01*
X105098559Y-31935910D01*
X104953569Y-32148110D01*
X104902560Y-32400000D01*
X104902560Y-34100000D01*
X104946838Y-34335317D01*
X105085910Y-34551441D01*
X105298110Y-34696431D01*
X105550000Y-34747440D01*
X106595000Y-34747440D01*
X106595000Y-35252560D01*
X105550000Y-35252560D01*
X105314683Y-35296838D01*
X105098559Y-35435910D01*
X104953569Y-35648110D01*
X104904990Y-35888000D01*
X103100000Y-35888000D01*
X102808395Y-35946004D01*
X102761168Y-35977560D01*
X102350000Y-35977560D01*
X102114683Y-36021838D01*
X102011354Y-36088329D01*
X102009698Y-36086673D01*
X101776309Y-35990000D01*
X101535750Y-35990000D01*
X101377000Y-36148750D01*
X101123000Y-36148750D01*
X100964250Y-35990000D01*
X100723691Y-35990000D01*
X100490302Y-36086673D01*
X100311673Y-36265301D01*
X100215000Y-36498690D01*
X96127000Y-36498690D01*
X96127000Y-16400000D01*
X104902560Y-16400000D01*
X104902560Y-18100000D01*
X104946838Y-18335317D01*
X105085910Y-18551441D01*
X105298110Y-18696431D01*
X105550000Y-18747440D01*
X106595000Y-18747440D01*
X106595000Y-19252560D01*
X105550000Y-19252560D01*
X105314683Y-19296838D01*
X105098559Y-19435910D01*
X104953569Y-19648110D01*
X104902560Y-19900000D01*
X104902560Y-21600000D01*
X104946838Y-21835317D01*
X105085910Y-22051441D01*
X105298110Y-22196431D01*
X105550000Y-22247440D01*
X107527714Y-22247440D01*
X107770988Y-22409991D01*
X108500000Y-22555000D01*
X109229012Y-22409991D01*
X109472286Y-22247440D01*
X111450000Y-22247440D01*
X111494081Y-22239145D01*
X115852560Y-26597624D01*
X115852560Y-27000000D01*
X115896838Y-27235317D01*
X116035910Y-27451441D01*
X116074136Y-27477560D01*
X115850000Y-27477560D01*
X115614683Y-27521838D01*
X115398559Y-27660910D01*
X115345886Y-27738000D01*
X113983064Y-27738000D01*
X113772532Y-27527468D01*
X113257510Y-27183341D01*
X112650000Y-27062500D01*
X110405000Y-27062500D01*
X110405000Y-26747440D01*
X111450000Y-26747440D01*
X111685317Y-26703162D01*
X111901441Y-26564090D01*
X112046431Y-26351890D01*
X112097440Y-26100000D01*
X112097440Y-24400000D01*
X112053162Y-24164683D01*
X111914090Y-23948559D01*
X111701890Y-23803569D01*
X111450000Y-23752560D01*
X109472286Y-23752560D01*
X109229012Y-23590009D01*
X108500000Y-23445000D01*
X107770988Y-23590009D01*
X107527714Y-23752560D01*
X105550000Y-23752560D01*
X105314683Y-23796838D01*
X105098559Y-23935910D01*
X104953569Y-24148110D01*
X104902560Y-24400000D01*
X104902560Y-26100000D01*
X104946838Y-26335317D01*
X105085910Y-26551441D01*
X105298110Y-26696431D01*
X105550000Y-26747440D01*
X106595000Y-26747440D01*
X106595000Y-27252560D01*
X105550000Y-27252560D01*
X105314683Y-27296838D01*
X105098559Y-27435910D01*
X104953569Y-27648110D01*
X104902560Y-27900000D01*
X104902560Y-29600000D01*
X104946838Y-29835317D01*
X105085910Y-30051441D01*
X105298110Y-30196431D01*
X105550000Y-30247440D01*
X107527714Y-30247440D01*
X107770988Y-30409991D01*
X108500000Y-30555000D01*
X109229012Y-30409991D01*
X109472286Y-30247440D01*
X111450000Y-30247440D01*
X111502826Y-30237500D01*
X111992436Y-30237500D01*
X115912500Y-34157564D01*
X115912500Y-35735039D01*
X115903569Y-35748110D01*
X115852560Y-36000000D01*
X115852560Y-38000000D01*
X115896838Y-38235317D01*
X116035910Y-38451441D01*
X116248110Y-38596431D01*
X116500000Y-38647440D01*
X118500000Y-38647440D01*
X118735317Y-38603162D01*
X118951441Y-38464090D01*
X119096431Y-38251890D01*
X119147440Y-38000000D01*
X119147440Y-36000000D01*
X119103162Y-35764683D01*
X119087500Y-35740344D01*
X119087500Y-33500000D01*
X118966659Y-32892490D01*
X118622532Y-32377468D01*
X117507064Y-31262000D01*
X117844443Y-31262000D01*
X117885910Y-31326441D01*
X118098110Y-31471431D01*
X118350000Y-31522440D01*
X119150000Y-31522440D01*
X119385317Y-31478162D01*
X119488646Y-31411671D01*
X119490302Y-31413327D01*
X119723691Y-31510000D01*
X119964250Y-31510000D01*
X120123000Y-31351250D01*
X120123000Y-30627000D01*
X120377000Y-30627000D01*
X120377000Y-31351250D01*
X120535750Y-31510000D01*
X120776309Y-31510000D01*
X121009698Y-31413327D01*
X121188327Y-31234699D01*
X121285000Y-31001310D01*
X121285000Y-30785750D01*
X121126250Y-30627000D01*
X120377000Y-30627000D01*
X120123000Y-30627000D01*
X120103000Y-30627000D01*
X120103000Y-30373000D01*
X120123000Y-30373000D01*
X120123000Y-29648750D01*
X120377000Y-29648750D01*
X120377000Y-30373000D01*
X121126250Y-30373000D01*
X121285000Y-30214250D01*
X121285000Y-29998690D01*
X121188327Y-29765301D01*
X121009698Y-29586673D01*
X120776309Y-29490000D01*
X120535750Y-29490000D01*
X120377000Y-29648750D01*
X120123000Y-29648750D01*
X119964250Y-29490000D01*
X119723691Y-29490000D01*
X119490302Y-29586673D01*
X119488932Y-29588043D01*
X119401890Y-29528569D01*
X119150000Y-29477560D01*
X118354626Y-29477560D01*
X118509698Y-29413327D01*
X118688327Y-29234699D01*
X118785000Y-29001310D01*
X118785000Y-28785750D01*
X118626250Y-28627000D01*
X117877000Y-28627000D01*
X117877000Y-29351250D01*
X118035750Y-29510000D01*
X118177596Y-29510000D01*
X118114683Y-29521838D01*
X117898559Y-29660910D01*
X117845886Y-29738000D01*
X115983064Y-29738000D01*
X115746556Y-29501492D01*
X115850000Y-29522440D01*
X116650000Y-29522440D01*
X116885317Y-29478162D01*
X116988646Y-29411671D01*
X116990302Y-29413327D01*
X117223691Y-29510000D01*
X117464250Y-29510000D01*
X117623000Y-29351250D01*
X117623000Y-28627000D01*
X117603000Y-28627000D01*
X117603000Y-28373000D01*
X117623000Y-28373000D01*
X117623000Y-28353000D01*
X117877000Y-28353000D01*
X117877000Y-28373000D01*
X118626250Y-28373000D01*
X118785000Y-28214250D01*
X118785000Y-27998690D01*
X118688327Y-27765301D01*
X118559306Y-27636281D01*
X118735317Y-27603162D01*
X118951441Y-27464090D01*
X119096431Y-27251890D01*
X119147440Y-27000000D01*
X119147440Y-25430190D01*
X119288815Y-25288815D01*
X119453996Y-25041605D01*
X119512000Y-24750000D01*
X119512000Y-23922315D01*
X119723691Y-24010000D01*
X119964250Y-24010000D01*
X120123000Y-23851250D01*
X120123000Y-23127000D01*
X120377000Y-23127000D01*
X120377000Y-23851250D01*
X120535750Y-24010000D01*
X120776309Y-24010000D01*
X121009698Y-23913327D01*
X121188327Y-23734699D01*
X121285000Y-23501310D01*
X121285000Y-23285750D01*
X121126250Y-23127000D01*
X120377000Y-23127000D01*
X120123000Y-23127000D01*
X120103000Y-23127000D01*
X120103000Y-22873000D01*
X120123000Y-22873000D01*
X120123000Y-22148750D01*
X120377000Y-22148750D01*
X120377000Y-22873000D01*
X121126250Y-22873000D01*
X121285000Y-22714250D01*
X121285000Y-22498690D01*
X121188327Y-22265301D01*
X121009698Y-22086673D01*
X120776309Y-21990000D01*
X120535750Y-21990000D01*
X120377000Y-22148750D01*
X120123000Y-22148750D01*
X119964250Y-21990000D01*
X119723691Y-21990000D01*
X119490302Y-22086673D01*
X119488932Y-22088043D01*
X119401890Y-22028569D01*
X119150000Y-21977560D01*
X118350000Y-21977560D01*
X118114683Y-22021838D01*
X117898559Y-22160910D01*
X117753569Y-22373110D01*
X117702560Y-22625000D01*
X117702560Y-23375000D01*
X117746838Y-23610317D01*
X117885910Y-23826441D01*
X117988000Y-23896196D01*
X117988000Y-24242936D01*
X115411347Y-21666283D01*
X115788815Y-21288816D01*
X115953996Y-21041605D01*
X115954551Y-21038815D01*
X116012000Y-20750000D01*
X116012000Y-19422315D01*
X116223691Y-19510000D01*
X116464250Y-19510000D01*
X116623000Y-19351250D01*
X116623000Y-18627000D01*
X116877000Y-18627000D01*
X116877000Y-19351250D01*
X117035750Y-19510000D01*
X117276309Y-19510000D01*
X117509698Y-19413327D01*
X117688327Y-19234699D01*
X117785000Y-19001310D01*
X117785000Y-18785750D01*
X117626250Y-18627000D01*
X116877000Y-18627000D01*
X116623000Y-18627000D01*
X116603000Y-18627000D01*
X116603000Y-18373000D01*
X116623000Y-18373000D01*
X116623000Y-17648750D01*
X116877000Y-17648750D01*
X116877000Y-18373000D01*
X117626250Y-18373000D01*
X117785000Y-18214250D01*
X117785000Y-17998690D01*
X117688327Y-17765301D01*
X117509698Y-17586673D01*
X117276309Y-17490000D01*
X117035750Y-17490000D01*
X116877000Y-17648750D01*
X116623000Y-17648750D01*
X116464250Y-17490000D01*
X116223691Y-17490000D01*
X115990302Y-17586673D01*
X115988932Y-17588043D01*
X115901890Y-17528569D01*
X115650000Y-17477560D01*
X114850000Y-17477560D01*
X114614683Y-17521838D01*
X114398559Y-17660910D01*
X114253569Y-17873110D01*
X114202560Y-18125000D01*
X114202560Y-18875000D01*
X114246838Y-19110317D01*
X114385910Y-19326441D01*
X114488000Y-19396196D01*
X114488000Y-20434369D01*
X114333717Y-20588653D01*
X113122532Y-19377468D01*
X112607510Y-19033341D01*
X112000000Y-18912500D01*
X110405000Y-18912500D01*
X110405000Y-18747440D01*
X111450000Y-18747440D01*
X111685317Y-18703162D01*
X111901441Y-18564090D01*
X112046431Y-18351890D01*
X112097440Y-18100000D01*
X112097440Y-16400000D01*
X112053162Y-16164683D01*
X111914090Y-15948559D01*
X111701890Y-15803569D01*
X111450000Y-15752560D01*
X109472286Y-15752560D01*
X109229012Y-15590009D01*
X108500000Y-15445000D01*
X107770988Y-15590009D01*
X107527714Y-15752560D01*
X105550000Y-15752560D01*
X105314683Y-15796838D01*
X105098559Y-15935910D01*
X104953569Y-16148110D01*
X104902560Y-16400000D01*
X96127000Y-16400000D01*
X96127000Y-12127000D01*
X104902560Y-12127000D01*
X104902560Y-13600000D01*
M02*
