M48
;DRILL file {KiCad 4.0.7} date 10/03/17 11:37:03
;FORMAT={2:4/ absolute / inch / suppress leading zeros}
FMAT,2
INCH,TZ
T1C0.039
T2C0.040
T3C0.050
T4C0.059
T5C0.071
T6C0.098
T7C0.120
T8C0.138
%
G90
G05
M72
T1
X46260Y-5906
X46260Y-10236
X46260Y-14567
X46260Y-18898
X46260Y-31299
X46260Y-35827
X46260Y-40354
X47244Y-25984
X47244Y-27953
X48228Y-5906
X48228Y-10236
X48228Y-14567
X48228Y-18898
X48228Y-31299
X48228Y-35827
X48228Y-40354
T2
X59961Y-21457
X59961Y-22555
X59961Y-23606
X59961Y-24709
X59961Y-25807
X60961Y-22008
X60961Y-23106
X60961Y-24157
X60961Y-25256
T3
X32874Y-38189
X54724Y-20276
T4
X12622Y-5020
X12622Y-7677
X12622Y-25689
X12622Y-28346
T5
X5906Y-20079
X5906Y-23622
X5906Y-27165
T6
X42543Y-19094
X42543Y-21260
X42543Y-39764
X42543Y-41929
T7
X60961Y-18657
X60961Y-28657
T8
X3031Y-15748
X3031Y-31496
T0
M30
